<svg width="28" height="28" viewBox="0 0 28 28" fill="none" xmlns="http://www.w3.org/2000/svg">
<path d="M2.47057 0H25.5294C26.8939 0 28.0001 1.10611 28.0001 2.47057V25.5294C28.0001 26.8939 26.8939 28 25.5295 28H2.47057C1.10611 28.0001 0 26.8939 0 25.5295V2.47057C0 1.10611 1.10611 0 2.47057 0ZM1.64708 11.9412V18.1177H6.58827C6.78996 18.1177 6.98465 18.1917 7.13542 18.3257L10.8413 21.6198C11.1813 21.922 11.2119 22.4425 10.9097 22.7825C10.6075 23.1224 10.087 23.153 9.74703 22.8509L6.27513 19.7648H1.64708V25.5295C1.64708 25.9843 2.01579 26.353 2.47062 26.353H25.5295C25.9843 26.353 26.353 25.9843 26.353 25.5295V11.9412H23.8825C23.4276 11.9412 23.0589 11.5725 23.0589 11.1177C23.0589 10.6628 23.4276 10.2941 23.8825 10.2941H26.353V2.47057C26.353 2.01573 25.9843 1.64703 25.5295 1.64703H9.88238V3.29411C9.88238 3.74894 9.51368 4.11765 9.05884 4.11765C8.604 4.11765 8.2353 3.74894 8.2353 3.29411V1.64708H2.47057C2.01573 1.64708 1.64703 2.01579 1.64703 2.47062V10.2942H8.2353V8.64709C8.2353 8.19226 8.604 7.82355 9.05884 7.82355C9.51368 7.82355 9.88238 8.19226 9.88238 8.64709V10.2942H18.1177C18.5725 10.2942 18.9412 10.6629 18.9412 11.1177C18.9412 11.5726 18.5725 11.9413 18.1177 11.9413H16.4706V18.9413C16.4706 19.3961 16.1019 19.7648 15.6471 19.7648H13.1765C12.7217 19.7648 12.3529 19.3961 12.3529 18.9413C12.3529 18.4864 12.7217 18.1177 13.1765 18.1177H14.8236V11.9412H1.64708Z" fill="#3F3F46"/>
</svg>
