<svg width="31" height="32" viewBox="0 0 31 32" fill="none" xmlns="http://www.w3.org/2000/svg">
<path d="M29.7183 29.9996H27.918V13.9777C27.918 13.6589 27.7617 13.3526 27.5054 13.1651L18.141 6.3825V1.0002C18.141 0.450088 17.691 0 17.1409 0C16.9346 0 16.7345 0.0625122 16.5657 0.181285L3.20688 9.52686C2.93807 9.7144 2.78179 10.0207 2.78179 10.3458V29.9996H1.0002C0.443837 29.9996 0 30.4497 0 30.9998C0 31.5499 0.450088 32 1.0002 32H29.7183C30.2747 32 30.7185 31.5499 30.7185 30.9998C30.7185 30.4497 30.2684 29.9996 29.7183 29.9996ZM4.78218 10.8709L16.1344 2.92557V29.9996H4.78218V10.8709ZM18.141 29.9996V8.85798L25.9176 14.4903V30.0059H18.141V29.9996Z" fill="#3F3F46"/>
<path d="M21.2542 14.4653H22.7982C23.0358 14.4653 23.2233 14.6529 23.2233 14.8904V16.4345C23.2233 16.672 23.0358 16.8596 22.7982 16.8596H21.2542C21.0166 16.8596 20.8291 16.672 20.8291 16.4345V14.8904C20.8291 14.6529 21.0229 14.4653 21.2542 14.4653Z" fill="#3F3F46"/>
<path d="M21.2542 18.3348H22.7982C23.0358 18.3348 23.2233 18.5224 23.2233 18.7599V20.304C23.2233 20.5415 23.0358 20.7291 22.7982 20.7291H21.2542C21.0166 20.7291 20.8291 20.5415 20.8291 20.304V18.7599C20.8291 18.5286 21.0229 18.3348 21.2542 18.3348Z" fill="#3F3F46"/>
<path d="M21.2542 22.2106H22.7982C23.0358 22.2106 23.2233 22.3981 23.2233 22.6357V24.1797C23.2233 24.4173 23.0358 24.6048 22.7982 24.6048H21.2542C21.0166 24.6048 20.8291 24.4173 20.8291 24.1797V22.6357C20.8291 22.3981 21.0229 22.2106 21.2542 22.2106Z" fill="#3F3F46"/>
<path d="M21.2542 26.0801H22.7982C23.0358 26.0801 23.2233 26.2676 23.2233 26.5052V28.0492C23.2233 28.2868 23.0358 28.4743 22.7982 28.4743H21.2542C21.0166 28.4743 20.8291 28.2868 20.8291 28.0492V26.5052C20.8291 26.2739 21.0229 26.0801 21.2542 26.0801Z" fill="#3F3F46"/>
<path d="M11.9898 26.0801H13.5338C13.7714 26.0801 13.9589 26.2676 13.9589 26.5052V28.0492C13.9589 28.2868 13.7714 28.4743 13.5338 28.4743H11.9898C11.7522 28.4743 11.5647 28.2868 11.5647 28.0492V26.5052C11.5647 26.2739 11.7585 26.0801 11.9898 26.0801Z" fill="#3F3F46"/>
<path d="M7.38285 26.0801H8.9269C9.16445 26.0801 9.35198 26.2676 9.35198 26.5052V28.0492C9.35198 28.2868 9.16445 28.4743 8.9269 28.4743H7.38285C7.1453 28.4743 6.95776 28.2868 6.95776 28.0492V26.5052C6.95776 26.2739 7.15155 26.0801 7.38285 26.0801Z" fill="#3F3F46"/>
<path d="M11.9898 22.2106H13.5338C13.7714 22.2106 13.9589 22.3981 13.9589 22.6357V24.1797C13.9589 24.4173 13.7714 24.6048 13.5338 24.6048H11.9898C11.7522 24.6048 11.5647 24.4173 11.5647 24.1797V22.6357C11.5647 22.3981 11.7585 22.2106 11.9898 22.2106Z" fill="#3F3F46"/>
<path d="M7.38285 22.2106H8.9269C9.16445 22.2106 9.35198 22.3981 9.35198 22.6357V24.1797C9.35198 24.4173 9.16445 24.6048 8.9269 24.6048H7.38285C7.1453 24.6048 6.95776 24.4173 6.95776 24.1797V22.6357C6.95776 22.3981 7.15155 22.2106 7.38285 22.2106Z" fill="#3F3F46"/>
<path d="M11.9898 18.3348H13.5338C13.7714 18.3348 13.9589 18.5224 13.9589 18.7599V20.304C13.9589 20.5415 13.7714 20.7291 13.5338 20.7291H11.9898C11.7522 20.7291 11.5647 20.5415 11.5647 20.304V18.7599C11.5647 18.5286 11.7585 18.3348 11.9898 18.3348Z" fill="#3F3F46"/>
<path d="M7.38285 18.3348H8.9269C9.16445 18.3348 9.35198 18.5224 9.35198 18.7599V20.304C9.35198 20.5415 9.16445 20.7291 8.9269 20.7291H7.38285C7.1453 20.7291 6.95776 20.5415 6.95776 20.304V18.7599C6.95776 18.5286 7.15155 18.3348 7.38285 18.3348Z" fill="#3F3F46"/>
<path d="M11.9898 14.4653H13.5338C13.7714 14.4653 13.9589 14.6529 13.9589 14.8904V16.4345C13.9589 16.672 13.7714 16.8596 13.5338 16.8596H11.9898C11.7522 16.8596 11.5647 16.672 11.5647 16.4345V14.8904C11.5647 14.6529 11.7585 14.4653 11.9898 14.4653Z" fill="#3F3F46"/>
<path d="M7.38285 14.4653H8.9269C9.16445 14.4653 9.35198 14.6529 9.35198 14.8904V16.4345C9.35198 16.672 9.16445 16.8596 8.9269 16.8596H7.38285C7.1453 16.8596 6.95776 16.672 6.95776 16.4345V14.8904C6.95776 14.6529 7.15155 14.4653 7.38285 14.4653Z" fill="#3F3F46"/>
<path d="M11.9898 10.5896H13.5338C13.7714 10.5896 13.9589 10.7771 13.9589 11.0147V12.5587C13.9589 12.7963 13.7714 12.9838 13.5338 12.9838H11.9898C11.7522 12.9838 11.5647 12.7963 11.5647 12.5587V11.0147C11.5647 10.7834 11.7585 10.5896 11.9898 10.5896Z" fill="#3F3F46"/>
<path d="M7.38285 10.5896H8.9269C9.16445 10.5896 9.35198 10.7771 9.35198 11.0147V12.5587C9.35198 12.7963 9.16445 12.9838 8.9269 12.9838H7.38285C7.1453 12.9838 6.95776 12.7963 6.95776 12.5587V11.0147C6.95776 10.7834 7.15155 10.5896 7.38285 10.5896Z" fill="#3F3F46"/>
<path d="M11.9898 6.72009H13.5338C13.7714 6.72009 13.9589 6.90763 13.9589 7.14518V8.68923C13.9589 8.92677 13.7714 9.11431 13.5338 9.11431H11.9898C11.7522 9.11431 11.5647 8.92677 11.5647 8.68923V7.14518C11.5647 6.90763 11.7585 6.72009 11.9898 6.72009Z" fill="#3F3F46"/>
</svg>
