<svg width="33" height="28" viewBox="0 0 33 28" fill="none" xmlns="http://www.w3.org/2000/svg">
<path d="M32.4462 26.7378L17.2584 4.21771L19.2611 1.28479C19.5197 0.915514 19.4301 0.40649 19.0608 0.147807C18.6916 -0.110875 18.1825 -0.0212309 17.9238 0.348042L16.2894 2.7706L14.655 0.348042C14.3963 -0.0212309 13.8873 -0.110875 13.518 0.147807C13.1488 0.40649 13.0591 0.915514 13.3178 1.28479L15.314 4.24999L0.126077 26.7378C-0.113123 27.1142 -0.00189517 27.6133 0.374509 27.8525C0.735824 28.0821 1.21346 27.9899 1.46336 27.6422L3.34328 24.8514V27.19C3.34328 27.636 3.70485 27.9975 4.15078 27.9975H28.4151C28.8611 27.9975 29.2226 27.636 29.2226 27.19V24.8514L31.1025 27.6422C31.3523 28.0133 31.8555 28.1117 32.2266 27.8619C32.5976 27.6121 32.696 27.1089 32.4462 26.7378ZM12.3422 26.3825L16.2894 19.5412L20.2301 26.3825H12.3422ZM27.6205 26.3825H22.0907L16.9871 17.5256C16.7625 17.1403 16.2682 17.01 15.8828 17.2345C15.7623 17.3048 15.662 17.4051 15.5918 17.5256L10.4818 26.3825H4.95827V22.4612L16.2894 5.66481L27.6205 22.4612L27.6205 26.3825Z" fill="#3F3F46"/>
</svg>
