<svg width="29" height="29" viewBox="0 0 29 29" fill="none" xmlns="http://www.w3.org/2000/svg">
<path d="M27.4542 11.9289L14.4974 0.249657C14.2699 0.0454754 13.9257 0.0513091 13.704 0.261325L0.677212 12.5939C0.315518 12.9381 0.105502 13.4223 0.0996686 13.924C0.0938348 14.6707 0.5197 15.3241 1.20225 15.6275C1.44727 15.7325 1.69812 15.785 1.94897 15.785C2.11232 15.785 2.26983 15.7558 2.42734 15.7092V27.5167C2.42734 27.8376 2.68986 28.1001 3.01072 28.1001H11.178H17.0118H25.1791C25.4999 28.1001 25.7624 27.8376 25.7624 27.5167V15.3183C26.1475 15.3941 26.55 15.3533 26.9292 15.1841C27.6468 14.8633 28.096 14.1749 28.096 13.3873C28.1018 12.8331 27.8626 12.3022 27.4542 11.9289ZM11.7672 26.9333V19.9328H16.4342V26.9333H11.7672ZM17.601 26.9333V19.3494C17.601 19.0286 17.3385 18.7661 17.0176 18.7661H11.1838C10.863 18.7661 10.6005 19.0286 10.6005 19.3494V26.9333H3.59993V14.9099L14.1066 4.98085L24.6015 14.6474V26.9333H17.601ZM26.4625 14.1165C26.165 14.2449 25.8441 14.1982 25.6049 13.9824L14.4974 3.74992C14.2699 3.53991 13.9257 3.54574 13.704 3.75576L2.40984 14.4316C2.10649 14.7116 1.77396 14.6007 1.67479 14.5599C1.57561 14.5132 1.26642 14.3441 1.26642 13.9299C1.26642 13.749 1.34226 13.5682 1.47644 13.4398L14.1124 1.47475L26.6667 12.7923C26.8359 12.944 26.9292 13.1598 26.9292 13.3873C26.935 13.714 26.76 13.9882 26.4625 14.1165Z" fill="#3F3F46" stroke="#3F3F46" stroke-width="0.2"/>
</svg>
