<svg width="33" height="33" viewBox="0 0 33 33" fill="none" xmlns="http://www.w3.org/2000/svg">
<path d="M31.5813 14.9178H30.2481V9.58479C30.2481 9.26482 30.0214 8.9915 29.7148 8.9315L23.5818 7.70492V6.50499L25.1751 6.99163C25.2417 7.01163 25.3084 7.01829 25.3684 7.01829C25.655 7.01829 25.9217 6.83164 26.0083 6.54499C26.115 6.19168 25.915 5.81837 25.5684 5.71171L23.2152 4.99176C23.1819 4.97176 23.1485 4.95176 23.1152 4.94509L19.7821 3.94516L7.78285 0.278729C7.42954 0.172069 7.05623 0.372056 6.94957 0.7187C6.84291 1.07201 7.04289 1.44532 7.38954 1.55198L8.91611 2.02528V7.70492L2.78317 8.9315C2.47652 8.9915 2.24987 9.26482 2.24987 9.58479V14.9178H0.916624C0.549981 14.9178 0.25 15.2178 0.25 15.5844V31.5834C0.25 31.95 0.549981 32.25 0.916624 32.25H13.5825H18.9155H31.5813C31.948 32.25 32.2479 31.95 32.2479 31.5834V15.5844C32.2479 15.2178 31.948 14.9178 31.5813 14.9178ZM28.9148 10.1314V14.9178H23.5818V9.06483L28.9148 10.1314ZM22.2486 6.09835V8.25155V14.9178H10.2494V8.25155V2.47859L19.3888 5.21841L22.2486 6.09835ZM3.58312 10.1314L8.91611 9.06483V14.9178H3.58312V10.1314ZM14.2491 30.9168V24.2505H18.2488V30.9168H14.2491ZM30.9147 30.9168H19.5821V24.2505H20.9153C21.282 24.2505 21.582 23.9505 21.582 23.5839C21.582 23.2172 21.282 22.9173 20.9153 22.9173H18.9155H13.5825H11.5826C11.216 22.9173 10.916 23.2172 10.916 23.5839C10.916 23.9505 11.216 24.2505 11.5826 24.2505H12.9158V30.9168H1.58325V16.251H2.91649H9.58273H22.9152H29.5814H30.9147V30.9168Z" fill="#3F3F46" stroke="#3F3F46" stroke-width="0.5"/>
<path d="M27.5816 18.9175H23.5819C23.2153 18.9175 22.9153 19.2175 22.9153 19.5841V23.5838C22.9153 23.9505 23.2153 24.2505 23.5819 24.2505H27.5816C27.9483 24.2505 28.2483 23.9505 28.2483 23.5838V19.5841C28.2483 19.2175 27.9483 18.9175 27.5816 18.9175ZM26.915 22.9172H24.2485V20.2507H26.915V22.9172Z" fill="#3F3F46" stroke="#3F3F46" stroke-width="0.5"/>
<path d="M8.91612 18.9175H4.91638C4.54974 18.9175 4.24976 19.2175 4.24976 19.5841V23.5838C4.24976 23.9505 4.54974 24.2505 4.91638 24.2505H8.91612C9.28276 24.2505 9.58275 23.9505 9.58275 23.5838V19.5841C9.58275 19.2175 9.28276 18.9175 8.91612 18.9175ZM8.2495 22.9172H5.583V20.2507H8.2495V22.9172Z" fill="#3F3F46" stroke="#3F3F46" stroke-width="0.5"/>
<path d="M12.9159 12.918H19.5821C19.9488 12.918 20.2488 12.618 20.2488 12.2513V8.25158C20.2488 7.88494 19.9488 7.58496 19.5821 7.58496H12.9159C12.5492 7.58496 12.2493 7.88494 12.2493 8.25158V12.2513C12.2493 12.618 12.5492 12.918 12.9159 12.918ZM18.9155 11.5847H16.9156V8.91821H18.9155V11.5847ZM13.5825 8.91821H15.5824V11.5847H13.5825V8.91821Z" fill="#3F3F46" stroke="#3F3F46" stroke-width="0.5"/>
</svg>
