<svg width="29" height="36" viewBox="0 0 29 36" fill="none" xmlns="http://www.w3.org/2000/svg">
<path d="M23.333 1C25.8408 1 27.8887 3.04782 27.8887 5.55566V34C27.8887 34.3361 27.7201 34.6499 27.4395 34.835C27.1588 35.02 26.8041 35.0513 26.4951 34.9189L14.4443 29.7539L2.39355 34.9189C2.08459 35.0513 1.72979 35.02 1.44922 34.835C1.16856 34.6498 0.99979 34.3353 1 33.999L1.01758 5.55469C1.01805 3.05378 3.0416 1 5.55566 1H23.333Z" fill="#27272A" stroke="#27272A" stroke-width="2" stroke-linejoin="round"/>
<path d="M22.1779 9.38738C21.6619 8.87071 20.824 8.87104 20.3073 9.38738L11.8887 17.8063L8.14701 14.0646C7.63035 13.548 6.79284 13.548 6.27617 14.0646C5.75951 14.5813 5.75951 15.4188 6.27617 15.9355L10.9531 20.6124C11.2113 20.8706 11.5498 21 11.8884 21C12.2269 21 12.5658 20.8709 12.8239 20.6124L22.1779 11.2582C22.6945 10.7419 22.6945 9.90401 22.1779 9.38738Z" fill="#FAFAFA"/>
</svg>
