<svg width="29" height="36" viewBox="0 0 29 36" fill="none" xmlns="http://www.w3.org/2000/svg">
<path d="M23.333 1C25.8408 1 27.8887 3.04782 27.8887 5.55566V34C27.8887 34.3361 27.7201 34.6499 27.4395 34.835C27.1588 35.02 26.8041 35.0513 26.4951 34.9189L14.4443 29.7539L2.39355 34.9189C2.08459 35.0513 1.72979 35.02 1.44922 34.835C1.16856 34.6498 0.99979 34.3353 1 33.999L1.01758 5.55469C1.01805 3.05378 3.0416 1 5.55566 1H23.333Z" fill="#F4F4F5" stroke="#27272A" stroke-width="2" stroke-linejoin="round"/>
<path d="M8.85714 15.8571C8.61429 15.8571 8.41071 15.775 8.24643 15.6107C8.08214 15.4464 8 15.2429 8 15C8 14.7571 8.08214 14.5536 8.24643 14.3893C8.41071 14.225 8.61429 14.1429 8.85714 14.1429H19.1429C19.3857 14.1429 19.5893 14.225 19.7536 14.3893C19.9179 14.5536 20 14.7571 20 15C20 15.2429 19.9179 15.4464 19.7536 15.6107C19.5893 15.775 19.3857 15.8571 19.1429 15.8571H8.85714Z" fill="#27272A"/>
<path d="M14.8571 20.1429C14.8571 20.3857 14.775 20.5893 14.6107 20.7536C14.4464 20.9179 14.2429 21 14 21C13.7571 21 13.5536 20.9179 13.3893 20.7536C13.225 20.5893 13.1429 20.3857 13.1429 20.1429V9.85714C13.1429 9.61429 13.225 9.41071 13.3893 9.24643C13.5536 9.08214 13.7571 9 14 9C14.2429 9 14.4464 9.08214 14.6107 9.24643C14.775 9.41071 14.8571 9.61429 14.8571 9.85714V20.1429Z" fill="#27272A"/>
</svg>
