<svg width="14" height="14" viewBox="0 0 14 14" fill="none" xmlns="http://www.w3.org/2000/svg">
<g clip-path="url(#clip0_4757_10220)">
<path d="M10.0507 7.02486C9.7817 6.89697 9.50719 6.7868 9.22788 6.69452C10.1325 6.01552 10.7187 4.93432 10.7187 3.71875C10.7187 1.66824 9.05052 0 6.99999 0C4.94945 0 3.28124 1.66824 3.28124 3.71875C3.28124 4.93566 3.8688 6.01792 4.77511 6.69678C3.94474 6.97017 3.16558 7.39556 2.48362 7.95648C1.23314 8.98507 0.363689 10.4198 0.0354817 11.9963C-0.0673855 12.4903 0.0558528 12.9977 0.373532 13.3883C0.689654 13.7771 1.15841 14 1.65956 14H8.39452C8.69656 14 8.9414 13.7552 8.9414 13.4531C8.9414 13.1511 8.69656 12.9062 8.39452 12.9062H1.65956C1.4261 12.9062 1.28526 12.7759 1.22209 12.6983C1.11302 12.5642 1.0708 12.3896 1.10626 12.2192C1.67378 9.4932 4.07828 7.50187 6.85501 7.43471C6.90311 7.43657 6.95143 7.4375 6.99999 7.4375C7.04902 7.4375 7.09783 7.43654 7.14639 7.43466C7.99733 7.45462 8.81572 7.64881 9.58118 8.0127C9.85399 8.14231 10.1802 8.02635 10.3099 7.75354C10.4395 7.48076 10.3235 7.15452 10.0507 7.02486ZM7.13337 6.34039C7.08899 6.33959 7.04453 6.33918 6.99999 6.33918C6.95586 6.33918 6.91172 6.33962 6.86765 6.34044C5.48145 6.27129 4.37499 5.12181 4.37499 3.71875C4.37499 2.27131 5.55255 1.09375 6.99999 1.09375C8.44743 1.09375 9.62499 2.27131 9.62499 3.71875C9.62499 5.12146 8.51907 6.27071 7.13337 6.34039Z" fill="#3F3F46"/>
<path d="M13.4531 10.8555H11.9492V9.35156C11.9492 9.04952 11.7044 8.80469 11.4023 8.80469C11.1003 8.80469 10.8555 9.04952 10.8555 9.35156V10.8555H9.35156C9.04952 10.8555 8.80469 11.1003 8.80469 11.4023C8.80469 11.7044 9.04952 11.9492 9.35156 11.9492H10.8555V13.4531C10.8555 13.7552 11.1003 14 11.4023 14C11.7044 14 11.9492 13.7552 11.9492 13.4531V11.9492H13.4531C13.7552 11.9492 14 11.7044 14 11.4023C14 11.1003 13.7552 10.8555 13.4531 10.8555Z" fill="#3F3F46"/>
</g>
<defs>
<clipPath id="clip0_4757_10220">
<rect width="14" height="14" fill="white"/>
</clipPath>
</defs>
</svg>
