<svg width="15" height="14" viewBox="0 0 15 14" fill="none" xmlns="http://www.w3.org/2000/svg">
<path d="M10.0507 7.02486C9.7817 6.89697 9.50719 6.7868 9.22788 6.69452C10.1325 6.01552 10.7187 4.93432 10.7187 3.71875C10.7187 1.66824 9.05052 0 6.99999 0C4.94945 0 3.28124 1.66824 3.28124 3.71875C3.28124 4.93566 3.8688 6.01792 4.77511 6.69678C3.94474 6.97017 3.16558 7.39556 2.48362 7.95648C1.23314 8.98507 0.363689 10.4198 0.0354817 11.9963C-0.0673855 12.4903 0.0558528 12.9977 0.373532 13.3883C0.689654 13.7771 1.15841 14 1.65956 14H5.76952C6.07156 14 6.3164 13.7552 6.3164 13.4531C6.3164 13.1511 6.07156 12.9062 5.76952 12.9062H1.65956C1.4261 12.9062 1.28526 12.7759 1.22209 12.6983C1.11302 12.5642 1.0708 12.3896 1.10626 12.2192C1.67378 9.4932 4.07828 7.50187 6.85501 7.43471C6.90311 7.43657 6.95143 7.4375 6.99999 7.4375C7.04902 7.4375 7.09783 7.43654 7.14639 7.43466C7.99733 7.45462 8.81572 7.64881 9.58118 8.0127C9.85399 8.14231 10.1802 8.02635 10.3099 7.75354C10.4395 7.48076 10.3235 7.15452 10.0507 7.02486ZM7.13337 6.34039C7.08899 6.33959 7.04453 6.33918 6.99999 6.33918C6.95586 6.33918 6.91172 6.33962 6.86765 6.34044C5.48145 6.27129 4.37499 5.12181 4.37499 3.71875C4.37499 2.27131 5.55255 1.09375 6.99999 1.09375C8.44743 1.09375 9.62499 2.27131 9.62499 3.71875C9.62499 5.12146 8.51907 6.27071 7.13337 6.34039Z" fill="#033C2E"/>
<path d="M11.7937 8.75034C11.6872 8.75341 11.5831 8.78234 11.4903 8.83473C11.3976 8.88712 11.319 8.96136 11.2614 9.05096L9.00337 12.4349L7.58712 11.4869C7.5153 11.4386 7.43466 11.4049 7.34982 11.3879C7.26498 11.3708 7.17761 11.3707 7.09271 11.3874C7.00782 11.4042 6.92706 11.4376 6.85509 11.4857C6.78311 11.5337 6.72131 11.5955 6.67325 11.6674C6.62519 11.7394 6.59181 11.8201 6.57501 11.905C6.55821 11.9899 6.55833 12.0773 6.57537 12.1622C6.5924 12.247 6.62601 12.3276 6.67427 12.3995C6.72253 12.4713 6.78449 12.5329 6.8566 12.5807L8.82554 13.8908C8.89726 13.9384 8.97767 13.9714 9.06214 13.9879C9.14662 14.0044 9.23353 14.004 9.31788 13.9869C9.40224 13.9698 9.4824 13.9363 9.55378 13.8882C9.62516 13.8401 9.68636 13.7784 9.73389 13.7066L12.3553 9.77514C12.4237 9.67525 12.463 9.55838 12.469 9.43749C12.475 9.3166 12.4473 9.19639 12.3892 9.09025C12.331 8.98411 12.2446 8.89617 12.1394 8.83617C12.0343 8.77617 11.9146 8.74645 11.7937 8.75034Z" fill="#033C2E"/>
</svg>
