<svg width="20" height="20" viewBox="0 0 20 20" fill="none" xmlns="http://www.w3.org/2000/svg">
<path d="M12.7468 9.20909L8.76621 6.31551C8.62013 6.20961 8.42621 6.19367 8.26609 6.27596C8.1047 6.35761 8.00391 6.52347 8.00391 6.70272V12.488C8.00391 12.6691 8.1047 12.8344 8.26609 12.916C8.33435 12.9505 8.40898 12.9677 8.48426 12.9677C8.58249 12.9677 8.68201 12.9364 8.76621 12.8745L12.7468 9.98352C12.8725 9.89102 12.9458 9.74813 12.9458 9.5963C12.9465 9.44193 12.8712 9.29967 12.7468 9.20909Z" fill="#52525B"/>
<path d="M9.5853 0C4.29061 0 0 4.29061 0 9.5853C0 14.8781 4.29061 19.1674 9.5853 19.1674C14.8787 19.1674 19.17 14.8774 19.17 9.5853C19.1706 4.29061 14.8787 0 9.5853 0ZM9.5853 17.5682C5.17604 17.5682 1.60117 13.9952 1.60117 9.5853C1.60117 5.17731 5.17604 1.59989 9.5853 1.59989C13.9939 1.59989 17.5682 5.17668 17.5682 9.5853C17.5688 13.9952 13.9939 17.5682 9.5853 17.5682Z" fill="#52525B"/>
</svg>
