<svg width="13" height="12" viewBox="0 0 13 12" fill="none" xmlns="http://www.w3.org/2000/svg">
<path d="M12.4892 4.53466C12.4073 4.2811 12.1824 4.10101 11.9163 4.07703L8.30215 3.74887L6.87301 0.403834C6.76764 0.158687 6.52765 0 6.26101 0C5.99436 0 5.75437 0.158687 5.649 0.404407L4.21986 3.74887L0.605129 4.07703C0.339536 4.10159 0.115216 4.2811 0.0327676 4.53466C-0.0496807 4.78821 0.0264621 5.06632 0.227376 5.24163L2.95925 7.6375L2.15369 11.186C2.09474 11.4469 2.19601 11.7166 2.41249 11.8731C2.52886 11.9572 2.665 12 2.80228 12C2.92066 12 3.03807 11.9681 3.14345 11.905L6.26101 10.0418L9.37742 11.905C9.60546 12.0422 9.89293 12.0297 10.1089 11.8731C10.3255 11.7162 10.4267 11.4464 10.3678 11.186L9.56219 7.6375L12.2941 5.24211C12.495 5.06632 12.5717 4.78869 12.4892 4.53466Z" fill="#3F3F46"/>
</svg>
