<svg width="66" height="53" viewBox="0 0 66 53" fill="none" xmlns="http://www.w3.org/2000/svg">
<path fill-rule="evenodd" clip-rule="evenodd" d="M7.80336 41.8789C9.18941 41.963 11.3099 40.2239 12.2402 39.3344C11.4244 38.339 10.5558 36.9028 9.1697 36.8189C7.78391 36.7345 5.40021 37.9404 4.4699 38.8299C5.28585 39.8252 6.41743 41.7947 7.80336 41.8789ZM10.2473 2.00775C9.58309 2.98892 10.1025 4.32359 10.3511 5.39336C11.4367 5.22698 12.8689 5.21346 13.5331 4.23229C14.1974 3.25125 13.678 1.91645 13.4293 0.84668C12.3439 1.01319 10.9117 1.02671 10.2473 2.00775ZM3.94706 9.17909C4.33881 10.3295 5.75177 10.7304 6.78072 11.1887C7.31631 10.1977 8.19124 9.01799 7.79949 7.8676C7.408 6.71734 5.99491 6.31633 4.96596 5.858C4.43037 6.84883 3.55544 8.0287 3.94706 9.17909ZM1.59941 16.3835C2.071 17.5035 3.50869 17.8041 4.56726 18.189C5.03177 17.1629 5.8217 15.9244 5.35011 14.8044C4.87865 13.6844 3.44083 13.3839 2.38239 12.9989C1.91788 14.0251 1.12795 15.2635 1.59941 16.3835ZM1.1859 25.1583C1.97699 26.1946 3.55106 26.1198 4.75412 26.2348C4.96042 25.0441 5.44747 23.5453 4.65638 22.509C3.86541 21.4728 2.29134 21.5474 1.08829 21.4326C0.881981 22.6231 0.394809 24.122 1.1859 25.1583ZM2.96718 33.9036C4.18582 34.569 6.29741 33.7176 7.51759 33.308C7.20234 32.0601 7.02669 30.391 5.80792 29.7256C4.58941 29.0602 2.47769 29.9114 1.25763 30.3209C1.57288 31.5689 1.74841 33.238 2.96718 33.9036Z" fill="#FFDF00"/>
<path fill-rule="evenodd" clip-rule="evenodd" d="M30.2517 41.2545L25.512 42.3394L28.7088 46.0032L28.276 50.8462L32.7482 48.938L37.2205 50.8462L36.7876 46.0032L39.9844 42.3394L35.2447 41.2545L32.7482 37.082L30.2517 41.2545Z" fill="#FFC45C"/>
<path fill-rule="evenodd" clip-rule="evenodd" d="M28.7172 41.6064L25.512 42.3401L28.7088 46.0039L28.276 50.8469L31.3003 49.5564L31.7048 45.0304L28.7172 41.6064Z" fill="#FF8E45"/>
<path fill-rule="evenodd" clip-rule="evenodd" d="M57.6927 41.8789C56.3066 41.963 54.1861 40.2239 53.2558 39.3344C54.0716 38.339 54.9403 36.9028 56.3263 36.8189C57.7122 36.7345 60.0958 37.9404 61.0261 38.8299C60.2102 39.8252 59.0786 41.7947 57.6927 41.8789ZM55.2486 2.00775C55.9128 2.98892 55.3934 4.32359 55.1448 5.39336C54.0591 5.22698 52.627 5.21346 51.9627 4.23229C51.2985 3.25125 51.8179 1.91645 52.0665 0.84668C53.1521 1.01319 54.5843 1.02671 55.2486 2.00775ZM61.549 9.17909C61.1572 10.3295 59.7442 10.7304 58.7153 11.1887C58.1797 10.1977 57.3048 9.01799 57.6965 7.8676C58.088 6.71734 59.5011 6.31633 60.53 5.858C61.0656 6.84883 61.9406 8.0287 61.549 9.17909ZM63.8966 16.3835C63.425 17.5035 61.9873 17.8041 60.9288 18.189C60.4642 17.1629 59.6743 15.9244 60.1459 14.8044C60.6174 13.6844 62.0552 13.3839 63.1136 12.9989C63.5781 14.0251 64.3681 15.2635 63.8966 16.3835ZM64.3101 25.1583C63.519 26.1946 61.945 26.1198 60.7419 26.2348C60.5356 25.0441 60.0485 23.5453 60.8396 22.509C61.6306 21.4728 63.2047 21.5474 64.4077 21.4326C64.614 22.6231 65.1012 24.122 64.3101 25.1583ZM62.5288 33.9036C61.3102 34.569 59.1986 33.7176 57.9784 33.308C58.2937 32.0601 58.4692 30.391 59.6881 29.7256C60.9066 29.0602 63.0183 29.9114 64.2384 30.3209C63.923 31.5689 63.7475 33.238 62.5288 33.9036Z" fill="#FFEE88"/>
<path d="M33.7139 44.6914H31.7822" stroke="white" stroke-width="1.5" stroke-miterlimit="22.9256"/>
<path fill-rule="evenodd" clip-rule="evenodd" d="M32.7482 37.082L35.2447 41.2545L39.9844 42.3394L36.7876 46.0032L37.2205 50.8462L32.7482 48.938L28.276 50.8462L28.7088 46.0032L25.512 42.3394L30.2517 41.2545L32.7482 37.082Z" stroke="black" stroke-width="1.5" stroke-miterlimit="22.9256"/>
<path fill-rule="evenodd" clip-rule="evenodd" d="M1.25776 30.3209C1.57301 31.5688 1.74854 33.238 2.96718 33.9034C4.18582 34.5688 6.29741 33.7175 7.51759 33.3078C7.20234 32.06 7.02669 30.3909 5.80792 29.7254C4.58954 29.06 2.47782 29.9114 1.25776 30.3209ZM61.0261 38.8296C60.2101 39.8251 59.0787 41.7945 57.6927 41.8787C56.3067 41.9628 54.1862 40.2238 53.2559 39.3343C54.0717 38.3389 54.9403 36.9027 56.3264 36.8187C57.7122 36.7344 60.0958 37.9403 61.0261 38.8296ZM52.0666 0.84668C53.1522 1.01306 54.5844 1.02658 55.2488 2.00763C55.913 2.9888 55.3936 4.32346 55.145 5.39323C54.0594 5.22685 52.6272 5.21333 51.963 4.23216C51.2986 3.25125 51.8179 1.91645 52.0666 0.84668ZM60.5301 5.85774C61.0656 6.8487 61.9405 8.02857 61.549 9.17896C61.1573 10.3293 59.7443 10.7302 58.7154 11.1886C58.1798 10.1976 57.3049 9.01786 57.6966 7.86747C58.0881 6.71709 59.5012 6.3162 60.5301 5.85774ZM63.1137 12.9988C63.5782 14.0249 64.3681 15.2634 63.8967 16.3834C63.4251 17.5034 61.9874 17.804 60.9288 18.1889C60.4643 17.1628 59.6744 15.9243 60.146 14.8043C60.6173 13.6843 62.0551 13.3837 63.1137 12.9988ZM64.4078 21.4323C64.6141 22.623 65.1013 24.1219 64.3102 25.1582C63.5191 26.1944 61.945 26.1196 60.742 26.2346C60.5357 25.0439 60.0486 23.5452 60.8397 22.5089C61.6308 21.4726 63.2049 21.5472 64.4078 21.4323ZM64.2383 30.3209C63.9231 31.5688 63.7476 33.238 62.5289 33.9034C61.3103 34.5688 59.1987 33.7175 57.9785 33.3078C58.2937 32.06 58.4693 30.3909 59.6882 29.7254C60.9066 29.06 63.0183 29.9114 64.2383 30.3209ZM4.47003 38.8296C5.28585 39.8251 6.41743 41.7945 7.80336 41.8787C9.18941 41.9628 11.3099 40.2238 12.2402 39.3343C11.4244 38.3389 10.5558 36.9027 9.1697 36.8187C7.78391 36.7344 5.40021 37.9403 4.47003 38.8296ZM4.96596 5.85774C4.4305 6.8487 3.55544 8.02857 3.94706 9.17896C4.33881 10.3293 5.75177 10.7302 6.78072 11.1886C7.31631 10.1976 8.19124 9.01786 7.79949 7.86747C7.408 6.71709 5.99478 6.3162 4.96596 5.85774ZM13.4295 0.84668C12.3439 1.01306 10.9117 1.02658 10.2473 2.00763C9.58309 2.9888 10.1025 4.32346 10.3511 5.39323C11.4367 5.22685 12.8689 5.21333 13.5331 4.23216C14.1975 3.25125 13.6781 1.91645 13.4295 0.84668ZM2.38239 12.9988C1.91788 14.0249 1.12795 15.2634 1.59941 16.3834C2.071 17.5034 3.50869 17.804 4.56726 18.1889C5.03177 17.1628 5.8217 15.9243 5.35011 14.8043C4.87878 13.6843 3.44096 13.3837 2.38239 12.9988ZM1.08829 21.4323C0.881981 22.623 0.394809 24.1219 1.1859 25.1582C1.97699 26.1944 3.55106 26.1196 4.75412 26.2346C4.96042 25.0439 5.44747 23.5452 4.65638 22.5089C3.86528 21.4726 2.29121 21.5472 1.08829 21.4323Z" stroke="black" stroke-width="1.5" stroke-miterlimit="22.9256"/>
<path d="M44.1084 44.6528C45.4077 44.1749 46.7373 43.556 47.982 42.89M49.7152 41.9015C51.2444 40.9728 52.5187 40.0409 53.2561 39.3346M21.3879 44.6528C17.7109 43.3004 13.7903 40.8188 12.2404 39.3345M10.1813 37.1397C9.16537 35.9337 8.29005 34.6525 7.51776 33.3082M5.80822 29.7258C5.37101 28.5625 5.00219 27.4581 4.75429 26.2348M4.32236 22.1444C4.28875 20.8115 4.36911 19.5079 4.56756 18.1891M5.35041 14.8046C5.70017 13.6782 6.26796 12.2449 6.78089 11.1889M55.3151 37.1397C56.3311 35.9337 57.2064 34.6525 57.9787 33.3082M59.6882 29.7258C60.1254 28.5625 60.4942 27.4581 60.7421 26.2348M61.1741 22.1444C61.2077 20.8115 61.1273 19.5079 60.9289 18.1891M60.146 14.8046C59.7961 13.6782 59.2285 12.2449 58.7155 11.1889M57.5901 8.51182C56.8307 7.25351 55.9942 6.3491 55.145 5.39355" stroke="black" stroke-width="1.5" stroke-miterlimit="22.9256"/>
<path d="M30.6941 4.38184H28.0178V10.7334H30.6941" stroke="black" stroke-width="1.5" stroke-miterlimit="10" stroke-linecap="square"/>
<path d="M30.4966 7.55762H28.3826" stroke="black" stroke-width="1.5" stroke-miterlimit="10" stroke-linecap="square"/>
<path d="M20.9632 7.27499H22.907C23.86 7.27499 24.6324 8.04741 24.6324 9.00038C24.6324 9.95322 23.8599 10.7334 22.907 10.7334H20.72V4.32324H22.5819C23.3965 4.32324 24.0568 4.98362 24.0568 5.79815C24.0568 6.61281 23.3965 7.27487 22.5819 7.27487" stroke="black" stroke-width="1.5" stroke-miterlimit="10" stroke-linecap="square"/>
<path d="M37.968 5.0115C37.968 5.0115 36.8178 4.04463 35.4615 4.45324C34.216 4.82838 34.0418 6.26453 34.9429 6.85189C34.9429 6.85189 35.8269 7.24634 36.8076 7.60808C39.1682 8.47889 38.1514 10.7627 36.251 10.7627C35.2993 10.7627 34.5006 10.3459 34.0173 9.8124" stroke="black" stroke-width="1.5" stroke-miterlimit="10" stroke-linecap="square" stroke-linejoin="round"/>
<path d="M41.2363 4.35254H44.7763" stroke="black" stroke-width="1.5" stroke-miterlimit="10" stroke-linecap="square" stroke-linejoin="round"/>
<path d="M42.9993 4.69727V10.7626" stroke="black" stroke-width="1.5" stroke-miterlimit="10" stroke-linecap="square" stroke-linejoin="round"/>
<path d="M46.6892 21.3342L48.8141 15.7551L49.0514 15.7549L51.1571 21.3342" stroke="black" stroke-width="1.5" stroke-miterlimit="10" stroke-linecap="square"/>
<path d="M47.3518 20.168H50.505" stroke="black" stroke-width="1.5" stroke-miterlimit="10" stroke-linecap="round" stroke-linejoin="bevel"/>
<path d="M54.7275 15.7549V21.4089H56.7091" stroke="black" stroke-width="1.5" stroke-miterlimit="3" stroke-linecap="square"/>
<path d="M24.4036 15.7598V21.4187" stroke="black" stroke-width="1.5" stroke-miterlimit="10" stroke-linecap="square" stroke-linejoin="round"/>
<path d="M31.1123 16.0728C30.7316 15.8802 30.2857 15.7612 29.8201 15.7598C28.2574 15.7598 26.9907 17.0266 26.9907 18.5892C26.9907 20.1518 28.2575 21.4186 29.8201 21.4186C31.3827 21.4186 32.2627 20.1518 32.2627 18.5892H30.5699" stroke="black" stroke-width="1.5" stroke-miterlimit="10" stroke-linecap="square"/>
<path d="M18.9175 18.957L20.7823 21.1615" stroke="black" stroke-width="1.5" stroke-miterlimit="10" stroke-linecap="square" stroke-linejoin="round"/>
<path d="M18.104 18.5894L19.4003 18.5829C20.242 18.5829 20.9542 17.9245 20.9542 17.1123C20.9542 16.3001 20.242 15.6416 19.4003 15.6416H17.8957L17.8948 21.3006" stroke="black" stroke-width="1.5" stroke-miterlimit="10" stroke-linecap="square"/>
<path fill-rule="evenodd" clip-rule="evenodd" d="M14.4459 18.471C14.4459 20.0337 13.1791 21.3004 11.6165 21.3004C10.0538 21.3004 8.78711 20.0336 8.78711 18.471C8.78711 16.9084 10.0539 15.6416 11.6165 15.6416C13.1791 15.6416 14.4459 16.9084 14.4459 18.471Z" stroke="black" stroke-width="1.5" stroke-miterlimit="10" stroke-linecap="round" stroke-linejoin="bevel"/>
<path d="M35.7119 15.7598V21.4187" stroke="black" stroke-width="1.5" stroke-miterlimit="10" stroke-linecap="square" stroke-linejoin="round"/>
<path d="M39.1614 21.4137V15.7653L39.4095 15.7654L42.9038 21.3267H43.1521V15.7549" stroke="black" stroke-width="1.5" stroke-miterlimit="10" stroke-linecap="square"/>
<path d="M21.207 26.8361C21.207 26.8361 20.2555 26.0363 19.1333 26.3743C18.1029 26.6847 17.9588 27.8728 18.7042 28.3588C18.7042 28.3588 19.4357 28.6851 20.247 28.9844C22.1999 29.7048 21.3587 31.5943 19.7865 31.5943C18.9991 31.5943 18.3383 31.2495 17.9385 30.8082" stroke="black" stroke-width="1.5" stroke-miterlimit="10" stroke-linecap="square" stroke-linejoin="round"/>
<path d="M44.1836 26.291L45.8776 28.8853L47.5576 26.3044" stroke="black" stroke-width="1.5" stroke-miterlimit="10" stroke-linecap="square" stroke-linejoin="round"/>
<path d="M45.8708 31.5938L45.8775 28.8848" stroke="black" stroke-width="1.5" stroke-miterlimit="10" stroke-linecap="square" stroke-linejoin="round"/>
<path d="M24.5974 26.291H27.5261" stroke="black" stroke-width="1.5" stroke-miterlimit="10" stroke-linecap="square" stroke-linejoin="round"/>
<path d="M26.0559 26.5762V31.5942" stroke="black" stroke-width="1.5" stroke-miterlimit="10" stroke-linecap="square" stroke-linejoin="round"/>
<path d="M39.5903 29.3975L41.338 31.4633" stroke="black" stroke-width="1.5" stroke-miterlimit="10" stroke-linecap="square" stroke-linejoin="round"/>
<path d="M38.828 29.0535L40.0429 29.0474C40.8316 29.0474 41.4991 28.4303 41.4991 27.6692C41.4991 26.908 40.8316 26.291 40.0429 26.291H38.6327L38.6318 31.5941" stroke="black" stroke-width="1.5" stroke-miterlimit="10" stroke-linecap="square"/>
<path d="M32.7482 31.5942C34.2127 31.5942 35.3998 30.407 35.3998 28.9426C35.3998 27.4782 34.2127 26.291 32.7482 26.291C31.2838 26.291 30.0967 27.4782 30.0967 28.9426C30.0967 30.407 31.2838 31.5942 32.7482 31.5942Z" stroke="black" stroke-width="1.5" stroke-miterlimit="10" stroke-linecap="round" stroke-linejoin="bevel"/>
</svg>
