<svg width="66" height="53" viewBox="0 0 66 53" fill="none" xmlns="http://www.w3.org/2000/svg">
<path fill-rule="evenodd" clip-rule="evenodd" d="M7.80337 41.8788C9.18943 41.9629 11.3099 40.2239 12.2402 39.3344C11.4244 38.339 10.5558 36.9028 9.16973 36.8188C7.78393 36.7345 5.40022 37.9404 4.46991 38.8297C5.28586 39.8252 6.41745 41.7946 7.80337 41.8788ZM10.2474 2.00776C9.58311 2.98893 10.1025 4.3236 10.3512 5.39337C11.4368 5.22699 12.8689 5.21347 13.5332 4.2323C14.1974 3.25125 13.678 1.91645 13.4294 0.84668C12.3439 1.01306 10.9117 1.02658 10.2474 2.00776ZM3.94707 9.17898C4.33881 10.3294 5.75179 10.7303 6.78074 11.1886C7.31633 10.1976 8.19126 9.01788 7.79951 7.86749C7.40802 6.7171 5.99492 6.31621 4.96597 5.85775C4.43038 6.84871 3.55545 8.02859 3.94707 9.17898ZM1.59941 16.3834C2.071 17.5034 3.5087 17.804 4.56727 18.1889C5.03178 17.1628 5.82171 15.9243 5.35012 14.8043C4.87866 13.6843 3.44083 13.3838 2.38239 12.9988C1.91789 14.025 1.12795 15.2634 1.59941 16.3834ZM1.1859 25.1582C1.977 26.1945 3.55107 26.1197 4.75413 26.2347C4.96043 25.044 5.44748 23.5453 4.65639 22.509C3.86542 21.4727 2.29135 21.5474 1.08829 21.4325C0.881982 22.6231 0.394808 24.1219 1.1859 25.1582ZM2.96718 33.9035C4.18582 34.5689 6.29742 33.7176 7.51761 33.3079C7.20236 32.06 7.0267 30.3909 5.80793 29.7255C4.58942 29.0601 2.47769 29.9114 1.25763 30.3209C1.57288 31.5689 1.74841 33.238 2.96718 33.9035Z" fill="#FFDF00"/>
<path fill-rule="evenodd" clip-rule="evenodd" d="M30.2517 41.2545L25.512 42.3395L28.7088 46.0032L28.276 50.8463L32.7482 48.938L37.2205 50.8463L36.7877 46.0032L39.9845 42.3395L35.2447 41.2545L32.7482 37.082L30.2517 41.2545Z" fill="#FFC45C"/>
<path fill-rule="evenodd" clip-rule="evenodd" d="M28.7172 41.6064L25.512 42.3401L28.7088 46.0039L28.276 50.8469L31.3004 49.5564L31.7048 45.0304L28.7172 41.6064Z" fill="#FF8E45"/>
<path fill-rule="evenodd" clip-rule="evenodd" d="M57.6919 41.8788C56.3059 41.9629 54.1854 40.2239 53.2551 39.3344C54.0709 38.339 54.9395 36.9028 56.3256 36.8188C57.7115 36.7345 60.0951 37.9404 61.0254 38.8297C60.2095 39.8252 59.0779 41.7946 57.6919 41.8788ZM55.2478 2.00776C55.9121 2.98893 55.3927 4.3236 55.144 5.39337C54.0584 5.22699 52.6263 5.21347 51.962 4.2323C51.2978 3.25125 51.8171 1.91645 52.0658 0.84668C53.1514 1.01306 54.5836 1.02658 55.2478 2.00776ZM61.5482 9.17898C61.1565 10.3294 59.7435 10.7303 58.7146 11.1886C58.179 10.1976 57.3041 9.01788 57.6958 7.86749C58.0873 6.7171 59.5004 6.31621 60.5293 5.85775C61.0649 6.84871 61.9399 8.02859 61.5482 9.17898ZM63.8959 16.3834C63.4243 17.5034 61.9866 17.804 60.928 18.1889C60.4635 17.1628 59.6736 15.9243 60.1452 14.8043C60.6167 13.6843 62.0545 13.3838 63.1129 12.9988C63.5774 14.025 64.3674 15.2634 63.8959 16.3834ZM64.3094 25.1582C63.5183 26.1945 61.9442 26.1197 60.7412 26.2347C60.5349 25.044 60.0478 23.5453 60.8389 22.509C61.6299 21.4727 63.204 21.5474 64.407 21.4325C64.6133 22.6231 65.1005 24.1219 64.3094 25.1582ZM62.5281 33.9035C61.3095 34.5689 59.1979 33.7176 57.9777 33.3079C58.293 32.06 58.4685 30.3909 59.6874 29.7255C60.9059 29.0601 63.0176 29.9114 64.2377 30.3209C63.9223 31.5689 63.7468 33.238 62.5281 33.9035Z" fill="#FFEE88"/>
<path d="M31.7822 44.6914H33.7139" stroke="white" stroke-width="1.5" stroke-miterlimit="22.9256"/>
<path fill-rule="evenodd" clip-rule="evenodd" d="M32.7482 37.082L35.2447 41.2545L39.9845 42.3395L36.7877 46.0032L37.2205 50.8463L32.7482 48.938L28.276 50.8463L28.7088 46.0032L25.512 42.3395L30.2517 41.2545L32.7482 37.082Z" stroke="black" stroke-width="1.5" stroke-miterlimit="22.9256"/>
<path fill-rule="evenodd" clip-rule="evenodd" d="M1.25776 30.321C1.57301 31.5689 1.74854 33.2381 2.96718 33.9035C4.18582 34.5689 6.29742 33.7176 7.51761 33.3079C7.20236 32.06 7.0267 30.3909 5.80793 29.7255C4.58955 29.0601 2.47782 29.9115 1.25776 30.321ZM61.0262 38.8297C60.2103 39.8252 59.0788 41.7946 57.6929 41.8788C56.3068 41.9629 54.1863 40.2239 53.256 39.3344C54.0719 38.339 54.9405 36.9028 56.3265 36.8188C57.7123 36.7345 60.0959 37.9404 61.0262 38.8297ZM52.0668 0.84668C53.1524 1.01306 54.5845 1.02658 55.2489 2.00763C55.9131 2.9888 55.3938 4.32347 55.1451 5.39325C54.0595 5.22686 52.6273 5.21334 51.9631 4.23217C51.2987 3.25125 51.8181 1.91645 52.0668 0.84668ZM60.5303 5.85775C61.0657 6.84871 61.9407 8.02859 61.5492 9.17898C61.1574 10.3294 59.7445 10.7303 58.7155 11.1886C58.1799 10.1976 57.305 9.01788 57.6967 7.86749C58.0882 6.7171 59.5013 6.31621 60.5303 5.85775ZM63.1139 12.9988C63.5784 14.025 64.3683 15.2634 63.8968 16.3834C63.4253 17.5034 61.9876 17.804 60.929 18.1889C60.4645 17.1628 59.6745 15.9243 60.1461 14.8043C60.6175 13.6843 62.0553 13.3838 63.1139 12.9988ZM64.408 21.4324C64.6143 22.6231 65.1014 24.1219 64.3104 25.1582C63.5193 26.1945 61.9452 26.1197 60.7421 26.2347C60.5358 25.044 60.0488 23.5453 60.8399 22.509C61.631 21.4727 63.205 21.5472 64.408 21.4324ZM64.2385 30.321C63.9232 31.5689 63.7477 33.2381 62.5291 33.9035C61.3104 34.5689 59.1988 33.7176 57.9786 33.3079C58.2939 32.06 58.4694 30.3909 59.6883 29.7255C60.9067 29.0601 63.0184 29.9115 64.2385 30.321ZM4.47004 38.8297C5.28586 39.8252 6.41745 41.7946 7.80337 41.8788C9.18943 41.9629 11.3099 40.2239 12.2402 39.3344C11.4244 38.339 10.5558 36.9028 9.16973 36.8188C7.78393 36.7345 5.40022 37.9404 4.47004 38.8297ZM4.96597 5.85775C4.43051 6.84871 3.55545 8.02859 3.94707 9.17898C4.33881 10.3294 5.75179 10.7303 6.78073 11.1886C7.31633 10.1976 8.19126 9.01788 7.79951 7.86749C7.40802 6.7171 5.99479 6.31621 4.96597 5.85775ZM13.4295 0.84668C12.3439 1.01306 10.9117 1.02658 10.2474 2.00763C9.58311 2.9888 10.1025 4.32347 10.3512 5.39325C11.4368 5.22686 12.8689 5.21334 13.5332 4.23217C14.1975 3.25125 13.6782 1.91645 13.4295 0.84668ZM2.38239 12.9988C1.91789 14.025 1.12795 15.2634 1.59941 16.3834C2.071 17.5034 3.5087 17.804 4.56727 18.1889C5.03178 17.1628 5.82171 15.9243 5.35012 14.8043C4.87879 13.6843 3.44096 13.3838 2.38239 12.9988ZM1.08829 21.4324C0.881982 22.6231 0.394808 24.1219 1.1859 25.1582C1.977 26.1945 3.55107 26.1197 4.75413 26.2347C4.96043 25.044 5.44748 23.5453 4.65639 22.509C3.86529 21.4727 2.29122 21.5472 1.08829 21.4324Z" stroke="black" stroke-width="1.5" stroke-miterlimit="22.9256"/>
<path d="M44.108 44.652C45.4258 44.1672 46.7747 43.5376 48.0348 42.8608M49.7671 41.8688C51.273 40.9506 52.5266 40.0319 53.2557 39.3338M21.3875 44.652C17.7105 43.2995 13.7899 40.8179 12.2399 39.3336M10.1808 37.1388C9.16489 35.9328 8.28958 34.6516 7.51728 33.3072M5.80773 29.7249C5.37053 28.5616 5.0017 27.4572 4.7538 26.2339M4.32187 22.1435C4.28826 20.8106 4.36862 19.507 4.56707 18.1881M5.34992 14.8037C5.69969 13.6772 6.26748 12.2439 6.78041 11.1879M55.3148 37.1388C56.3307 35.9328 57.206 34.6516 57.9783 33.3072M59.6879 29.7249C60.1251 28.5616 60.4939 27.4572 60.7418 26.2339M61.1737 22.1435C61.2073 20.8106 61.127 19.507 60.9285 18.1881M60.1457 14.8037C59.7958 13.6772 59.2281 12.2439 58.7152 11.1879M57.5898 8.51085C56.8304 7.25254 55.9938 6.34812 55.1446 5.39258" stroke="black" stroke-width="1.5" stroke-miterlimit="22.9256"/>
<path d="M30.4033 10.6953H27.3491V17.9438H30.4033" stroke="black" stroke-width="1.5" stroke-miterlimit="10" stroke-linecap="square"/>
<path d="M30.1787 14.3203H27.7661" stroke="black" stroke-width="1.5" stroke-miterlimit="10" stroke-linecap="square"/>
<path d="M19.2996 13.9974H21.518C22.6054 13.9974 23.487 14.879 23.487 15.9664C23.487 17.0539 22.6055 17.9441 21.518 17.9441H19.022V10.6289H21.1468C22.0765 10.6289 22.8301 11.3825 22.8301 12.3122C22.8301 13.2418 22.0766 13.9974 21.147 13.9974" stroke="black" stroke-width="1.5" stroke-miterlimit="10" stroke-linecap="square"/>
<path d="M38.706 11.4141C38.706 11.4141 37.3933 10.3107 35.8454 10.777C34.424 11.2052 34.2252 12.8441 35.2535 13.5145C35.2535 13.5145 36.2625 13.9646 37.3817 14.3775C40.0757 15.3711 38.9152 17.9774 36.7465 17.9774C35.6605 17.9774 34.749 17.5018 34.1973 16.893" stroke="black" stroke-width="1.5" stroke-miterlimit="10" stroke-linecap="square" stroke-linejoin="round"/>
<path d="M42.4351 10.6621H46.4749" stroke="black" stroke-width="1.5" stroke-miterlimit="10" stroke-linecap="square" stroke-linejoin="round"/>
<path d="M44.447 11.0557V17.9776" stroke="black" stroke-width="1.5" stroke-miterlimit="10" stroke-linecap="square" stroke-linejoin="round"/>
<path d="M17.6934 22.7363V28.9582" stroke="black" stroke-width="1.5" stroke-miterlimit="10" stroke-linecap="square" stroke-linejoin="round"/>
<path d="M55.1178 22.7363H52.52V28.9014H55.1178" stroke="black" stroke-width="1.5" stroke-miterlimit="10" stroke-linecap="square"/>
<path d="M54.926 25.8184H52.874" stroke="black" stroke-width="1.5" stroke-miterlimit="10" stroke-linecap="square"/>
<path d="M37.249 22.7365V27.0179C37.249 28.1437 38.3005 28.9569 39.372 28.9583C40.4647 28.9599 41.5724 28.1827 41.5724 27.0132V22.7363" stroke="black" stroke-width="1.5" stroke-miterlimit="10" stroke-linecap="square" stroke-linejoin="round"/>
<path d="M30.0205 22.7363H33.4566" stroke="black" stroke-width="1.5" stroke-miterlimit="10" stroke-linecap="square" stroke-linejoin="round"/>
<path d="M31.7314 23.0703V28.9576" stroke="black" stroke-width="1.5" stroke-miterlimit="10" stroke-linecap="square" stroke-linejoin="round"/>
<path d="M46.4878 26.3809L48.5382 28.8047" stroke="black" stroke-width="1.5" stroke-miterlimit="10" stroke-linecap="square" stroke-linejoin="round"/>
<path d="M45.5927 25.9773L47.018 25.9702C47.9434 25.9702 48.7265 25.2464 48.7265 24.3533C48.7265 23.4602 47.9434 22.7363 47.018 22.7363H45.3636L45.3625 28.9582" stroke="black" stroke-width="1.5" stroke-miterlimit="10" stroke-linecap="square"/>
<path d="M10.3794 28.9584V22.7363H12.1119C13.0816 22.7363 13.902 23.5224 13.902 24.4921C13.902 25.4618 13.0816 26.2479 12.1119 26.2479L10.7454 26.2556" stroke="black" stroke-width="1.5" stroke-miterlimit="10" stroke-linecap="square"/>
<path d="M26.3362 23.2677C25.8396 22.9322 25.2411 22.7363 24.5968 22.7363C22.8786 22.7363 21.4856 24.1292 21.4856 25.8474C21.4856 27.5656 22.8785 28.9584 24.5968 28.9584C25.3697 28.9584 26.0592 28.6736 26.5567 28.0802" stroke="black" stroke-width="1.5" stroke-miterlimit="10" stroke-linecap="square"/>
</svg>
