<svg width="66" height="53" viewBox="0 0 66 53" fill="none" xmlns="http://www.w3.org/2000/svg">
<path fill-rule="evenodd" clip-rule="evenodd" d="M7.80337 41.8788C9.18943 41.9629 11.3099 40.2239 12.2402 39.3344C11.4243 38.339 10.5558 36.9028 9.16973 36.8188C7.78393 36.7345 5.40022 37.9404 4.46991 38.8299C5.28586 39.8252 6.41745 41.7946 7.80337 41.8788ZM10.2474 2.00776C9.58311 2.98893 10.1025 4.3236 10.3512 5.39337C11.4368 5.22699 12.8689 5.21347 13.5332 4.2323C14.1974 3.25125 13.678 1.91645 13.4294 0.84668C12.3439 1.01306 10.9117 1.02658 10.2474 2.00776ZM3.94707 9.17898C4.33881 10.3294 5.75179 10.7303 6.78074 11.1886C7.31633 10.1976 8.19126 9.01788 7.79951 7.86749C7.40802 6.7171 5.99492 6.31621 4.96597 5.85788C4.43038 6.84871 3.55545 8.02859 3.94707 9.17898ZM1.59941 16.3834C2.071 17.5034 3.5087 17.804 4.56727 18.1889C5.03178 17.1628 5.82171 15.9243 5.35012 14.8043C4.87866 13.6843 3.44083 13.3838 2.38239 12.9988C1.91789 14.025 1.12795 15.2634 1.59941 16.3834ZM1.1859 25.1582C1.977 26.1945 3.55107 26.1197 4.75413 26.2347C4.96043 25.044 5.44748 23.5453 4.65639 22.509C3.86542 21.4727 2.29135 21.5474 1.08829 21.4325C0.881982 22.6231 0.394808 24.1219 1.1859 25.1582ZM2.96718 33.9035C4.18582 34.5689 6.29742 33.7176 7.51761 33.3079C7.20236 32.06 7.0267 30.3909 5.80793 29.7255C4.58942 29.0601 2.47769 29.9114 1.25763 30.3209C1.57288 31.5689 1.74841 33.238 2.96718 33.9035Z" fill="#FFDF00"/>
<path fill-rule="evenodd" clip-rule="evenodd" d="M30.2517 41.2546L25.512 42.3395L28.7088 46.0032L28.276 50.8463L32.7482 48.938L37.2205 50.8463L36.7877 46.0032L39.9845 42.3395L35.2447 41.2546L32.7482 37.082L30.2517 41.2546Z" fill="#FFC45C"/>
<path fill-rule="evenodd" clip-rule="evenodd" d="M28.7172 41.6064L25.512 42.3401L28.7088 46.0039L28.276 50.8469L31.3004 49.5565L31.7048 45.0304L28.7172 41.6064Z" fill="#FF8E45"/>
<path fill-rule="evenodd" clip-rule="evenodd" d="M57.6928 41.8788C56.3067 41.9629 54.1862 40.2239 53.2559 39.3344C54.0718 38.339 54.9404 36.9028 56.3264 36.8188C57.7124 36.7345 60.096 37.9404 61.0263 38.8299C60.2103 39.8252 59.0787 41.7946 57.6928 41.8788ZM55.2487 2.00776C55.9129 2.98893 55.3936 4.3236 55.1449 5.39337C54.0593 5.22699 52.6271 5.21347 51.9629 4.2323C51.2986 3.25125 51.818 1.91645 52.0667 0.84668C53.1523 1.01306 54.5844 1.02658 55.2487 2.00776ZM61.5491 9.17898C61.1574 10.3294 59.7444 10.7303 58.7154 11.1886C58.1798 10.1976 57.3049 9.01788 57.6965 7.86749C58.088 6.7171 59.5011 6.31621 60.5301 5.85788C61.0657 6.84871 61.9407 8.02859 61.5491 9.17898ZM63.8968 16.3834C63.4252 17.5034 61.9875 17.804 60.9289 18.1889C60.4644 17.1628 59.6745 15.9243 60.146 14.8043C60.6175 13.6843 62.0553 13.3838 63.1138 12.9988C63.5783 14.025 64.3682 15.2634 63.8968 16.3834ZM64.3103 25.1582C63.5192 26.1945 61.9451 26.1197 60.742 26.2347C60.5357 25.044 60.0487 23.5453 60.8398 22.509C61.6307 21.4727 63.2048 21.5474 64.4079 21.4325C64.6142 22.6231 65.1014 24.1219 64.3103 25.1582ZM62.529 33.9035C61.3103 34.5689 59.1987 33.7176 57.9786 33.3079C58.2938 32.06 58.4693 30.3909 59.6881 29.7255C60.9066 29.0601 63.0183 29.9114 64.2384 30.3209C63.9232 31.5689 63.7476 33.238 62.529 33.9035Z" fill="#FFEE88"/>
<path d="M31.7822 44.6914H33.7139" stroke="white" stroke-width="1.5" stroke-miterlimit="22.9256"/>
<path fill-rule="evenodd" clip-rule="evenodd" d="M32.7482 37.082L35.2447 41.2545L39.9845 42.3395L36.7877 46.0031L37.2205 50.8463L32.7482 48.938L28.276 50.8463L28.7088 46.0031L25.512 42.3395L30.2517 41.2545L32.7482 37.082Z" stroke="black" stroke-width="1.5" stroke-miterlimit="22.9256"/>
<path fill-rule="evenodd" clip-rule="evenodd" d="M1.25776 30.321C1.57301 31.5689 1.74854 33.2381 2.96718 33.9035C4.18582 34.5689 6.29742 33.7176 7.51761 33.3079C7.20236 32.06 7.0267 30.3909 5.80793 29.7255C4.58955 29.0601 2.47782 29.9115 1.25776 30.321ZM61.0262 38.8297C60.2104 39.8252 59.0788 41.7946 57.6929 41.8788C56.3068 41.9629 54.1863 40.2239 53.256 39.3344C54.0719 38.339 54.9405 36.9028 56.3265 36.8188C57.7123 36.7345 60.0959 37.9402 61.0262 38.8297ZM52.0668 0.84668C53.1524 1.01306 54.5845 1.02658 55.2489 2.00763C55.9131 2.9888 55.3938 4.32347 55.1451 5.39325C54.0595 5.22686 52.6273 5.21334 51.9631 4.23217C51.2987 3.25125 51.8181 1.91645 52.0668 0.84668ZM60.5303 5.85775C61.0657 6.84871 61.9408 8.02859 61.5492 9.17898C61.1574 10.3294 59.7445 10.7303 58.7155 11.1886C58.1799 10.1976 57.305 9.01788 57.6966 7.86749C58.0882 6.7171 59.5013 6.31621 60.5303 5.85775ZM63.1139 12.9987C63.5784 14.0248 64.3683 15.2633 63.8968 16.3833C63.4253 17.5033 61.9876 17.8039 60.929 18.1888C60.4645 17.1627 59.6745 15.9242 60.1461 14.8042C60.6175 13.6843 62.0553 13.3838 63.1139 12.9987ZM64.408 21.4324C64.6143 22.6231 65.1014 24.1218 64.3104 25.1581C63.5193 26.1944 61.9452 26.1196 60.7421 26.2346C60.5358 25.0439 60.0488 23.5451 60.8399 22.5088C61.631 21.4727 63.205 21.5472 64.408 21.4324ZM64.2385 30.321C63.9232 31.5689 63.7477 33.2381 62.5291 33.9035C61.3104 34.5689 59.1988 33.7176 57.9786 33.3079C58.2939 32.06 58.4694 30.3909 59.6882 29.7255C60.9067 29.0601 63.0184 29.9115 64.2385 30.321ZM4.47004 38.8297C5.28586 39.8252 6.41745 41.7946 7.80337 41.8788C9.18943 41.9629 11.3099 40.2239 12.2402 39.3344C11.4243 38.339 10.5558 36.9028 9.16973 36.8188C7.78393 36.7345 5.40022 37.9402 4.47004 38.8297ZM4.96597 5.85775C4.43051 6.84871 3.55545 8.02859 3.94707 9.17898C4.33881 10.3294 5.75179 10.7303 6.78073 11.1886C7.31633 10.1976 8.19126 9.01788 7.79951 7.86749C7.40802 6.7171 5.99479 6.31621 4.96597 5.85775ZM13.4295 0.84668C12.3439 1.01306 10.9117 1.02658 10.2474 2.00763C9.58311 2.9888 10.1025 4.32347 10.3512 5.39325C11.4368 5.22686 12.8689 5.21334 13.5332 4.23217C14.1975 3.25125 13.6782 1.91645 13.4295 0.84668ZM2.38239 12.9987C1.91789 14.0248 1.12795 15.2633 1.59941 16.3833C2.071 17.5033 3.5087 17.8039 4.56727 18.1888C5.03178 17.1627 5.82171 15.9242 5.35012 14.8042C4.87879 13.6843 3.44096 13.3838 2.38239 12.9987ZM1.08829 21.4324C0.881982 22.6231 0.394808 24.1218 1.1859 25.1581C1.977 26.1944 3.55107 26.1196 4.75413 26.2346C4.96043 25.0439 5.44748 23.5451 4.65639 22.5088C3.86529 21.4727 2.29122 21.5472 1.08829 21.4324Z" stroke="black" stroke-width="1.5" stroke-miterlimit="22.9256"/>
<path d="M44.1083 44.6529C45.4261 44.1682 46.7751 43.5386 48.0352 42.8617M49.7674 41.8698C51.2734 40.9516 52.5269 40.0328 53.2561 39.3346M21.3879 44.6529C17.7108 43.3005 13.7903 40.8189 12.2403 39.3346M10.1812 37.1398C9.16526 35.9338 8.28994 34.6526 7.51765 33.3082M5.8081 29.7258C5.37089 28.5626 5.00207 27.4582 4.75417 26.2349M4.32224 22.1444C4.28863 20.8116 4.36899 19.5079 4.56744 18.1891M5.35029 14.8046C5.70005 13.6782 6.26784 12.2449 6.78077 11.1889M55.3151 37.1398C56.3309 35.9338 57.2064 34.6526 57.9787 33.3082M59.6882 29.7258C60.1254 28.5626 60.4943 27.4582 60.7422 26.2349M61.1741 22.1444C61.2077 20.8116 61.1273 19.5079 60.9289 18.1891M60.146 14.8046C59.7963 13.6782 59.2285 12.2449 58.7156 11.1889M57.5902 8.51183C56.8307 7.25365 55.9942 6.3491 55.145 5.39355" stroke="black" stroke-width="1.5" stroke-miterlimit="22.9256"/>
<path d="M30.404 12.6279H27.3499V19.8763H30.404" stroke="black" stroke-width="1.5" stroke-miterlimit="10" stroke-linecap="square"/>
<path d="M30.1789 16.252H27.7664" stroke="black" stroke-width="1.5" stroke-miterlimit="10" stroke-linecap="square"/>
<path d="M19.299 15.929H21.5174C22.6048 15.929 23.4864 16.8107 23.4864 17.8981C23.4864 18.9855 22.6049 19.8757 21.5174 19.8757H19.0214V12.5605H21.1462C22.0759 12.5605 22.8295 13.3142 22.8295 14.2438C22.8295 15.1735 22.076 15.929 21.1464 15.929" stroke="black" stroke-width="1.5" stroke-miterlimit="10" stroke-linecap="square"/>
<path d="M38.7052 13.3457C38.7052 13.3457 37.3926 12.2424 35.8447 12.7087C34.4233 13.1369 34.2245 14.7757 35.2528 15.4461C35.2528 15.4461 36.2618 15.8962 37.381 16.3091C40.0749 17.3028 38.9145 19.909 36.7457 19.909C35.6597 19.909 34.7482 19.4334 34.1965 18.8247" stroke="black" stroke-width="1.5" stroke-miterlimit="10" stroke-linecap="square" stroke-linejoin="round"/>
<path d="M42.4352 12.5938H46.475" stroke="black" stroke-width="1.5" stroke-miterlimit="10" stroke-linecap="square" stroke-linejoin="round"/>
<path d="M44.4467 12.9873V19.9092" stroke="black" stroke-width="1.5" stroke-miterlimit="10" stroke-linecap="square" stroke-linejoin="round"/>
<path d="M14.6812 30.7734L17.0611 24.5247L17.3269 24.5244L19.6851 30.7734" stroke="black" stroke-width="1.5" stroke-miterlimit="10" stroke-linecap="square"/>
<path d="M15.4233 29.2168H18.9549" stroke="black" stroke-width="1.5" stroke-miterlimit="10" stroke-linecap="round" stroke-linejoin="bevel"/>
<path d="M31.1519 24.5244H34.6521" stroke="black" stroke-width="1.5" stroke-miterlimit="10" stroke-linecap="square" stroke-linejoin="round"/>
<path d="M32.8949 24.8652V30.8625" stroke="black" stroke-width="1.5" stroke-miterlimit="10" stroke-linecap="square" stroke-linejoin="round"/>
<path d="M43.7508 28.3716C44.0311 26.644 42.8579 25.0162 41.1303 24.7358C39.4027 24.4554 37.7749 25.6286 37.4945 27.3562C37.2141 29.0839 38.3873 30.7117 40.1149 30.9921C41.8426 31.2724 43.4704 30.0992 43.7508 28.3716Z" stroke="black" stroke-width="1.5" stroke-miterlimit="10" stroke-linecap="round" stroke-linejoin="bevel"/>
<path d="M27.5263 25.2356C27.0205 24.8938 26.4109 24.6943 25.7545 24.6943C24.0042 24.6943 22.5853 26.1132 22.5853 27.8635C22.5853 29.6137 24.0042 31.0326 25.7545 31.0326C26.5418 31.0326 27.2442 30.7423 27.7511 30.138" stroke="black" stroke-width="1.5" stroke-miterlimit="10" stroke-linecap="square"/>
<path d="M48.5339 28.2373L50.6226 30.7063" stroke="black" stroke-width="1.5" stroke-miterlimit="10" stroke-linecap="square" stroke-linejoin="round"/>
<path d="M47.6229 27.8259L49.0749 27.8187C50.0176 27.8187 50.8152 27.0812 50.8152 26.1716C50.8152 25.2619 50.0176 24.5244 49.0749 24.5244H47.3897L47.3887 30.8624" stroke="black" stroke-width="1.5" stroke-miterlimit="10" stroke-linecap="square"/>
</svg>
