<svg width="11" height="53" viewBox="0 0 11 53" fill="none" xmlns="http://www.w3.org/2000/svg">
<path fill-rule="evenodd" clip-rule="evenodd" d="M7.80336 41.8787C9.18941 41.9628 11.3099 40.2238 12.2402 39.3343C11.4244 38.3389 10.5558 36.9027 9.1697 36.8187C7.78391 36.7345 5.40021 37.9403 4.4699 38.8298C5.28585 39.8251 6.41743 41.7945 7.80336 41.8787ZM10.2473 2.00775C9.58309 2.98892 10.1025 4.32359 10.3511 5.39336C11.4367 5.22698 12.8689 5.21346 13.5331 4.23229C14.1974 3.25125 13.678 1.91645 13.4293 0.84668C12.3439 1.01319 10.9117 1.02671 10.2473 2.00775ZM3.94706 9.17909C4.33881 10.3295 5.75177 10.7304 6.78072 11.1887C7.31631 10.1977 8.19124 9.01799 7.79949 7.8676C7.408 6.71722 5.99491 6.31633 4.96596 5.85787C4.43037 6.84883 3.55544 8.0287 3.94706 9.17909ZM1.59941 16.3834C2.071 17.5034 3.50869 17.804 4.56726 18.1889C5.03177 17.1628 5.8217 15.9243 5.35011 14.8043C4.87865 13.6843 3.44083 13.3837 2.38239 12.9988C1.91788 14.0249 1.12795 15.2634 1.59941 16.3834ZM1.1859 25.1582C1.97699 26.1944 3.55106 26.1198 4.75412 26.2346C4.96042 25.0439 5.44747 23.5452 4.65638 22.5089C3.86541 21.4726 2.29134 21.5473 1.08829 21.4324C0.881981 22.6231 0.394809 24.1219 1.1859 25.1582ZM2.96718 33.9036C4.18582 34.569 6.29741 33.7176 7.51759 33.308C7.20234 32.0601 7.02669 30.391 5.80792 29.7256C4.58941 29.0602 2.47769 29.9114 1.25763 30.3209C1.57288 31.5688 1.74841 33.238 2.96718 33.9036Z" fill="#FFDF00"/>
<path fill-rule="evenodd" clip-rule="evenodd" d="M1.25776 30.3209C1.57301 31.5688 1.74854 33.238 2.96718 33.9034C4.18582 34.5688 6.29741 33.7175 7.51759 33.3078C7.20234 32.06 7.02669 30.3909 5.80792 29.7254C4.58954 29.06 2.47782 29.9114 1.25776 30.3209ZM61.0261 38.8296C60.2101 39.8251 59.0787 41.7945 57.6927 41.8787C56.3067 41.9628 54.1862 40.2238 53.2559 39.3343C54.0717 38.3389 54.9403 36.9027 56.3264 36.8187C57.7122 36.7344 60.0958 37.9403 61.0261 38.8296ZM52.0666 0.84668C53.1522 1.01306 54.5844 1.02658 55.2488 2.00763C55.913 2.9888 55.3936 4.32346 55.145 5.39323C54.0594 5.22685 52.6272 5.21333 51.963 4.23216C51.2986 3.25125 51.8179 1.91645 52.0666 0.84668ZM60.5301 5.85774C61.0656 6.8487 61.9405 8.02857 61.549 9.17896C61.1573 10.3293 59.7443 10.7302 58.7154 11.1886C58.1798 10.1976 57.3049 9.01786 57.6966 7.86747C58.0881 6.71709 59.5012 6.3162 60.5301 5.85774ZM63.1137 12.9988C63.5782 14.0249 64.3681 15.2634 63.8967 16.3834C63.4251 17.5034 61.9874 17.804 60.9288 18.1889C60.4643 17.1628 59.6744 15.9243 60.146 14.8043C60.6173 13.6843 62.0551 13.3837 63.1137 12.9988ZM64.4078 21.4323C64.6141 22.623 65.1013 24.1219 64.3102 25.1582C63.5191 26.1944 61.945 26.1198 60.742 26.2346C60.5357 25.0439 60.0486 23.5452 60.8397 22.5089C61.6308 21.4726 63.2049 21.5472 64.4078 21.4323ZM64.2383 30.3209C63.9231 31.5688 63.7476 33.238 62.5289 33.9034C61.3103 34.5688 59.1987 33.7175 57.9785 33.3078C58.2937 32.06 58.4693 30.3909 59.6882 29.7254C60.9066 29.06 63.0183 29.9114 64.2383 30.3209ZM4.47003 38.8296C5.28585 39.8251 6.41743 41.7945 7.80336 41.8787C9.18941 41.9628 11.3099 40.2238 12.2402 39.3343C11.4244 38.3389 10.5558 36.9027 9.1697 36.8187C7.78391 36.7344 5.40021 37.9403 4.47003 38.8296ZM4.96596 5.85774C4.4305 6.8487 3.55544 8.02857 3.94706 9.17896C4.33881 10.3293 5.75177 10.7302 6.78072 11.1886C7.31631 10.1976 8.19124 9.01786 7.79949 7.86747C7.408 6.71709 5.99478 6.3162 4.96596 5.85774ZM13.4295 0.84668C12.3439 1.01306 10.9117 1.02658 10.2473 2.00763C9.58309 2.9888 10.1025 4.32346 10.3511 5.39323C11.4367 5.22685 12.8689 5.21333 13.5331 4.23216C14.1975 3.25125 13.6781 1.91645 13.4295 0.84668ZM2.38239 12.9988C1.91788 14.0249 1.12795 15.2634 1.59941 16.3834C2.071 17.5034 3.50869 17.804 4.56726 18.1889C5.03177 17.1628 5.8217 15.9243 5.35011 14.8043C4.87878 13.6843 3.44096 13.3837 2.38239 12.9988ZM1.08829 21.4323C0.881981 22.623 0.394809 24.1219 1.1859 25.1582C1.97699 26.1944 3.55106 26.1198 4.75412 26.2346C4.96042 25.0439 5.44747 23.5452 4.65638 22.5089C3.86528 21.4726 2.29121 21.5472 1.08829 21.4323Z" stroke="black" stroke-width="1.5" stroke-miterlimit="22.9256"/>
<path d="M44.1084 44.6528C45.4854 44.1464 46.8967 43.4815 48.2047 42.77M49.931 41.7693C51.364 40.8849 52.5534 40.0073 53.2559 39.3345M21.3879 44.6528C17.7109 43.3004 13.7903 40.8188 12.2404 39.3345M10.1813 37.1397C9.16537 35.9337 8.29005 34.6525 7.51776 33.3082M5.80822 29.7258C5.37101 28.5625 5.00219 27.4581 4.75429 26.2348M4.32236 22.1444C4.28875 20.8115 4.36911 19.5079 4.56756 18.1891M5.35041 14.8046C5.70017 13.6782 6.26796 12.2449 6.78089 11.1889M55.3151 37.1397C56.3311 35.9337 57.2064 34.6525 57.9787 33.3082M59.6882 29.7258C60.1254 28.5625 60.4942 27.4581 60.7421 26.2348M61.1741 22.1444C61.2077 20.8115 61.1273 19.5079 60.9289 18.1891M60.146 14.8046C59.7961 13.6782 59.2285 12.2449 58.7155 11.1889M57.5901 8.51182C56.8307 7.25351 55.9942 6.3491 55.145 5.39355" stroke="black" stroke-width="1.5" stroke-miterlimit="22.9256"/>
</svg>
