<svg width="25" height="24" viewBox="0 0 25 24" fill="none" xmlns="http://www.w3.org/2000/svg">
<path d="M16.1377 21.1038C16.1377 21.1038 16.9653 22.3452 16.9653 23.5866H0.413574C0.413574 22.3452 1.24116 21.1038 1.24116 21.1038C1.24116 21.1038 1.13202 20.6093 0.992367 19.7419C0.609562 17.3181 0.416047 14.8681 0.413574 12.4142C0.413574 7.46675 2.06875 2.06934 2.06875 2.06934H15.3101C15.3101 2.06934 16.9653 7.46675 16.9653 12.4142C16.9628 14.8681 16.7693 17.3181 16.3865 19.7419C16.2468 20.6093 16.1377 21.1038 16.1377 21.1038Z" fill="#C48669"/>
<path d="M17.3791 23.5864H0.413574C0.413574 22.345 1.24116 21.1037 1.24116 21.1037C1.24116 21.1037 1.13202 20.6092 0.992367 19.7418C2.44633 17.1069 5.34754 15.3105 8.68944 15.3105C12.0313 15.3105 14.9325 17.1069 16.3865 19.7418C17.0382 20.9183 17.3798 22.2414 17.3791 23.5864Z" fill="#F0DFCE"/>
<path d="M0.827637 0.414062H16.5518V2.89682H0.827637V0.414062Z" fill="#A36F58"/>
<path d="M13.2411 7.03408H4.1377L4.55149 6.20649L4.1377 5.37891H13.2411L12.8274 6.20649L13.2411 7.03408Z" fill="#A36F58"/>
<path d="M8.68994 12.8271H7.86236C7.42338 12.8271 7.00238 12.6528 6.69197 12.3424C6.38157 12.032 6.20718 11.611 6.20718 11.172V9.5168C6.86565 9.5168 7.49715 9.77838 7.96276 10.244C8.42837 10.7096 8.68994 11.3411 8.68994 11.9996V12.8271Z" fill="#EA9F26"/>
<path d="M11.1727 9.51758V11.1728C11.1727 11.6117 10.9983 12.0327 10.6879 12.3431C10.3775 12.6535 9.95651 12.8279 9.51753 12.8279H8.68994V12.0003C8.68994 11.3419 8.95152 10.7104 9.41712 10.2448C9.88273 9.77915 10.5142 9.51758 11.1727 9.51758Z" fill="#EA9F26"/>
<path d="M8.68994 21.9307H7.86236C7.42338 21.9307 7.00238 21.7563 6.69197 21.4459C6.38157 21.1355 6.20718 20.7145 6.20718 20.2755V18.6203C6.86565 18.6203 7.49715 18.8819 7.96276 19.3475C8.42837 19.8131 8.68994 20.4446 8.68994 21.1031V21.9307Z" fill="#EA9F26"/>
<path d="M11.1727 18.6211V20.2763C11.1727 20.7152 10.9983 21.1362 10.6879 21.4466C10.3775 21.7571 9.95651 21.9314 9.51753 21.9314H8.68994V21.1039C8.68994 20.4454 8.95152 19.8139 9.41712 19.3483C9.88273 18.8827 10.5142 18.6211 11.1727 18.6211Z" fill="#EA9F26"/>
<path d="M8.68994 17.3789H7.86236C7.42338 17.3789 7.00238 17.2045 6.69197 16.8941C6.38157 16.5837 6.20718 16.1627 6.20718 15.7237V14.0686C6.86565 14.0686 7.49715 14.3301 7.96276 14.7957C8.42837 15.2614 8.68994 15.8929 8.68994 16.5513V17.3789Z" fill="#EA9F26"/>
<path d="M11.1727 14.0693V15.7245C11.1727 16.1635 10.9983 16.5845 10.6879 16.8949C10.3775 17.2053 9.95651 17.3797 9.51753 17.3797H8.68994V16.5521C8.68994 15.8936 8.95152 15.2621 9.41712 14.7965C9.88273 14.3309 10.5142 14.0693 11.1727 14.0693Z" fill="#EA9F26"/>
<path d="M8.68984 7.8621C9.60397 7.8621 10.345 7.12106 10.345 6.20693C10.345 5.2928 9.60397 4.55176 8.68984 4.55176C7.77571 4.55176 7.03467 5.2928 7.03467 6.20693C7.03467 7.12106 7.77571 7.8621 8.68984 7.8621Z" fill="#EA9F26"/>
<path d="M24.4138 11.1722V23.586H12.8276V11.586L13.064 11.1722L14.4828 8.68945H22.7587L23.1725 10.3446L24.4138 11.1722Z" fill="#FFB632"/>
<path d="M24.4139 11.1722V23.586H21.1035V11.586L22.7587 8.68945L23.1725 10.3446L24.4139 11.1722Z" fill="#F7B030"/>
<path d="M21.1035 20.276C21.1035 20.276 19.4483 18.207 16.9656 18.207C14.4828 18.207 12.8276 20.276 12.8276 20.276V23.5863H21.1035V20.276Z" fill="#FBE9D8"/>
<path d="M16.9657 16.5521C17.8798 16.5521 18.6209 15.9963 18.6209 15.3107C18.6209 14.6251 17.8798 14.0693 16.9657 14.0693C16.0516 14.0693 15.3105 14.6251 15.3105 15.3107C15.3105 15.9963 16.0516 16.5521 16.9657 16.5521Z" fill="#EA9F26"/>
<path d="M13.5933 5.16152C13.5562 5.10153 13.5044 5.052 13.4428 5.01766C13.3812 4.98331 13.3119 4.96528 13.2413 4.96528H10.3437C10.1512 4.70835 9.90149 4.49979 9.61438 4.35614C9.32728 4.21249 9.01066 4.1377 8.68962 4.1377C8.36859 4.1377 8.05197 4.21249 7.76486 4.35614C7.47776 4.49979 7.22807 4.70835 7.03559 4.96528H4.1379C4.06737 4.96528 3.998 4.98332 3.9364 5.01767C3.87479 5.05202 3.82299 5.10154 3.78591 5.16154C3.74883 5.22155 3.72771 5.29003 3.72454 5.36049C3.72137 5.43095 3.73627 5.50106 3.76781 5.56414L4.08907 6.20666L3.76781 6.84918C3.73627 6.91226 3.72137 6.98237 3.72454 7.05283C3.72771 7.12329 3.74883 7.19178 3.78591 7.25178C3.82299 7.31178 3.87479 7.36131 3.9364 7.39566C3.998 7.43001 4.06737 7.44804 4.1379 7.44804H7.03559C7.22807 7.70498 7.47776 7.91354 7.76486 8.05719C8.05197 8.20084 8.36859 8.27563 8.68962 8.27563C9.01066 8.27563 9.32728 8.20084 9.61438 8.05719C9.90149 7.91354 10.1512 7.70498 10.3437 7.44804H13.2413C13.3119 7.44804 13.3812 7.43001 13.4428 7.39566C13.5045 7.36131 13.5563 7.31178 13.5933 7.25178C13.6304 7.19178 13.6515 7.12329 13.6547 7.05283C13.6579 6.98237 13.643 6.91226 13.6114 6.84918L13.2902 6.20666L13.6114 5.56414C13.643 5.50105 13.6579 5.43095 13.6547 5.36048C13.6515 5.29001 13.6304 5.22153 13.5933 5.16152ZM6.6623 6.62045H4.80742L4.92178 6.39173C4.95051 6.33427 4.96547 6.27091 4.96547 6.20666C4.96547 6.14242 4.95051 6.07905 4.92178 6.02159L4.80742 5.79287H6.6623C6.60678 6.06594 6.60678 6.34739 6.6623 6.62045ZM8.68962 7.44804C8.4441 7.44804 8.20409 7.37524 7.99995 7.23883C7.79581 7.10243 7.6367 6.90855 7.54274 6.68172C7.44878 6.45488 7.4242 6.20528 7.4721 5.96448C7.52 5.72368 7.63823 5.50248 7.81184 5.32887C7.98545 5.15526 8.20664 5.03703 8.44744 4.98913C8.68825 4.94124 8.93785 4.96582 9.16468 5.05978C9.39151 5.15373 9.58539 5.31284 9.72179 5.51699C9.8582 5.72113 9.931 5.96114 9.931 6.20666C9.93062 6.53578 9.79971 6.8513 9.56699 7.08403C9.33427 7.31675 9.01874 7.44766 8.68962 7.44804ZM12.4575 6.39173L12.5718 6.62045H10.7172C10.7727 6.34739 10.7727 6.06594 10.7172 5.79287H12.5721L12.4577 6.02159C12.429 6.07903 12.4139 6.14239 12.4139 6.20663C12.4139 6.27088 12.4288 6.33425 12.4575 6.39173Z" fill="black"/>
<path d="M24.6433 10.8281L23.535 10.0893L23.16 8.58931C23.1597 8.58771 23.1591 8.58626 23.1587 8.58471C23.1575 8.58005 23.156 8.57545 23.1546 8.57085C23.1523 8.56334 23.15 8.5559 23.1474 8.54855C23.1457 8.5439 23.1438 8.53929 23.1419 8.53469C23.1391 8.5276 23.1361 8.52062 23.1329 8.514C23.1307 8.50935 23.1285 8.50479 23.1261 8.50019C23.1227 8.49362 23.1191 8.48721 23.1154 8.48084C23.1127 8.47629 23.1102 8.47174 23.1073 8.46729C23.1033 8.46103 23.099 8.45504 23.0947 8.44903C23.0917 8.44479 23.0888 8.4405 23.0856 8.43636C23.0787 8.42741 23.0714 8.41878 23.0638 8.4105C23.0601 8.40647 23.0561 8.40264 23.0522 8.39876C23.047 8.39359 23.0419 8.38805 23.036 8.38298C23.032 8.37936 23.0277 8.3759 23.0236 8.37264C23.0178 8.36778 23.0119 8.36309 23.0059 8.35857C23.0018 8.35552 22.9976 8.35257 22.9934 8.34967C22.9862 8.34471 22.9788 8.33998 22.9713 8.3355C22.9688 8.334 22.9665 8.33224 22.9639 8.33079C22.9629 8.33017 22.9618 8.32976 22.9608 8.32919C22.9496 8.32293 22.9382 8.31703 22.9264 8.31181C22.9253 8.31129 22.9242 8.31098 22.9232 8.31052C22.9128 8.30597 22.902 8.30188 22.8911 8.29821C22.8863 8.29655 22.8815 8.29521 22.8767 8.29376C22.8695 8.29164 22.8624 8.28962 22.8551 8.28791C22.8494 8.28652 22.8437 8.28533 22.838 8.28424C22.8322 8.28316 22.825 8.28186 22.8185 8.28093C22.8119 8.28 22.8063 8.27917 22.8002 8.27855C22.7941 8.27793 22.7875 8.27757 22.7811 8.27726C22.7747 8.27695 22.7687 8.27648 22.7625 8.27643C22.7612 8.27643 22.7599 8.27643 22.7586 8.27643H17.0659C16.8273 6.60446 16.4982 4.94666 16.08 3.31034H16.5517C16.6615 3.31034 16.7667 3.26675 16.8443 3.18915C16.9219 3.11155 16.9655 3.0063 16.9655 2.89655V0.413793C16.9655 0.304048 16.9219 0.198798 16.8443 0.121197C16.7667 0.0435959 16.6615 0 16.5517 0H0.827586C0.717841 0 0.612592 0.0435959 0.53499 0.121197C0.457389 0.198798 0.413793 0.304048 0.413793 0.413793V2.89655C0.413793 3.0063 0.457389 3.11155 0.53499 3.18915C0.612592 3.26675 0.717841 3.31034 0.827586 3.31034H1.29931C0.823293 5.17857 0 8.91626 0 12.4138C0 16.7657 0.644431 20.2388 0.802655 21.0256C0.571241 21.4142 0 22.4853 0 23.5862C0 23.696 0.0435959 23.8012 0.121197 23.8788C0.198798 23.9564 0.304048 24 0.413793 24H24.4138C24.5235 24 24.6288 23.9564 24.7064 23.8788C24.784 23.8012 24.8276 23.696 24.8276 23.5862V11.1724C24.8276 11.1043 24.8108 11.0372 24.7786 10.9772C24.7465 10.9171 24.7 10.8659 24.6433 10.8281ZM1.24138 2.48276V0.827586H16.1379V2.48276H1.24138ZM8.27586 21.5172H7.86207C7.53295 21.5169 7.21743 21.3859 6.9847 21.1532C6.75198 20.9205 6.62107 20.605 6.62069 20.2759V19.0759C7.0877 19.1719 7.50731 19.426 7.80882 19.7953C8.11032 20.1647 8.27527 20.6267 8.27586 21.1034V21.5172ZM8.27586 19.0791C8.00672 18.8029 7.68498 18.5834 7.32963 18.4336C6.97428 18.2838 6.59253 18.2067 6.2069 18.2069C6.09715 18.2069 5.9919 18.2505 5.9143 18.3281C5.8367 18.4057 5.7931 18.5109 5.7931 18.6207V20.2759C5.79372 20.8244 6.0119 21.3503 6.39977 21.7382C6.78764 22.126 7.31353 22.3442 7.86207 22.3448H8.27586V23.1724H0.860224C1.00464 22.219 1.57919 21.3426 1.58565 21.333C1.61657 21.2866 1.6378 21.2345 1.64808 21.1797C1.65835 21.1249 1.65746 21.0686 1.64545 21.0141C1.64266 21.0017 1.54878 20.5696 1.42552 19.8175C2.38966 18.1448 3.97241 16.8527 5.84902 16.2C5.9567 16.6531 6.2139 17.0568 6.57913 17.3458C6.94435 17.6349 7.39631 17.7924 7.86207 17.7931H8.27586V19.0791ZM8.27586 16.9655H7.86207C7.53295 16.9651 7.21743 16.8342 6.9847 16.6015C6.75198 16.3688 6.62107 16.0533 6.62069 15.7241V14.5241C7.0877 14.6202 7.50731 14.8743 7.80882 15.2436C8.11032 15.613 8.27527 16.0749 8.27586 16.5517V16.9655ZM8.27586 12.4138H7.86207C7.53295 12.4134 7.21743 12.2825 6.9847 12.0498C6.75198 11.8171 6.62107 11.5015 6.62069 11.1724V9.97241C7.0877 10.0684 7.50731 10.3225 7.80882 10.6919C8.11032 11.0612 8.27527 11.5232 8.27586 12V12.4138ZM12.4138 23.1724H9.10345V22.3448H9.51724C10.0658 22.3442 10.5917 22.126 10.9795 21.7382C11.3674 21.3503 11.5856 20.8244 11.5862 20.2759V18.6207C11.5862 18.5109 11.5426 18.4057 11.465 18.3281C11.3874 18.2505 11.2822 18.2069 11.1724 18.2069C10.7868 18.2067 10.405 18.2838 10.0497 18.4336C9.69433 18.5834 9.37259 18.8029 9.10345 19.0791V17.7931H9.51724C9.983 17.7924 10.435 17.6349 10.8002 17.3458C11.1654 17.0568 11.4226 16.6531 11.5303 16.2C11.8314 16.3045 12.1264 16.426 12.4138 16.5637V23.1724ZM9.10345 21.5172V21.1034C9.10404 20.6267 9.26899 20.1647 9.57049 19.7953C9.87199 19.426 10.2916 19.1719 10.7586 19.0759V20.2759C10.7582 20.605 10.6273 20.9205 10.3946 21.1532C10.1619 21.3859 9.84636 21.5169 9.51724 21.5172H9.10345ZM9.10345 16.9655V16.5517C9.10404 16.0749 9.26899 15.613 9.57049 15.2436C9.87199 14.8743 10.2916 14.6202 10.7586 14.5241V15.7241C10.7582 16.0533 10.6273 16.3688 10.3946 16.6015C10.1619 16.8342 9.84636 16.9651 9.51724 16.9655H9.10345ZM12.4138 11.5862V15.6551C12.1433 15.5393 11.8674 15.4364 11.5862 15.3464V14.069C11.5862 13.9592 11.5426 13.854 11.465 13.7764C11.3874 13.6988 11.2822 13.6552 11.1724 13.6552C10.7868 13.655 10.405 13.7321 10.0497 13.8819C9.69433 14.0317 9.37259 14.2512 9.10345 14.5273V13.2414H9.51724C10.0658 13.2408 10.5917 13.0226 10.9795 12.6347C11.3674 12.2468 11.5856 11.7209 11.5862 11.1724V9.51724C11.5862 9.4075 11.5426 9.30225 11.465 9.22465C11.3874 9.14704 11.2822 9.10345 11.1724 9.10345C10.6724 9.10374 10.181 9.23341 9.74592 9.47985C9.31087 9.72629 8.94698 10.0811 8.68966 10.5098C8.43233 10.0811 8.06844 9.72629 7.63339 9.47985C7.19833 9.23341 6.7069 9.10374 6.2069 9.10345C6.09715 9.10345 5.9919 9.14704 5.9143 9.22465C5.8367 9.30225 5.7931 9.4075 5.7931 9.51724V11.1724C5.79372 11.7209 6.0119 12.2468 6.39977 12.6347C6.78764 13.0226 7.31353 13.2408 7.86207 13.2414H8.27586V14.5273C8.00672 14.2512 7.68498 14.0317 7.32963 13.8819C6.97428 13.7321 6.59253 13.655 6.2069 13.6552C6.09715 13.6552 5.9919 13.6988 5.9143 13.7764C5.8367 13.854 5.7931 13.9592 5.7931 14.069V15.3466C3.97491 15.9249 2.38369 17.0585 1.24319 18.5881C0.969728 16.5413 0.830895 14.4788 0.827586 12.4138C0.827586 8.87343 1.69836 5.06157 2.1539 3.31034H15.2255C15.6512 4.94585 15.9866 6.60352 16.2303 8.27586H14.4828C14.4098 8.27586 14.3382 8.29515 14.2751 8.33176C14.212 8.36838 14.1597 8.42102 14.1235 8.48436L12.4683 11.3809C12.4326 11.4434 12.4138 11.5142 12.4138 11.5862ZM9.10345 12.4138V12C9.10404 11.5232 9.26899 11.0612 9.57049 10.6919C9.87199 10.3225 10.2916 10.0684 10.7586 9.97241V11.1724C10.7582 11.5015 10.6273 11.8171 10.3946 12.0498C10.1619 12.2825 9.84636 12.4134 9.51724 12.4138H9.10345ZM20.6897 23.1724H13.2414V20.431C13.6034 20.0328 15.0259 18.6207 16.9655 18.6207C18.9052 18.6207 20.3276 20.0328 20.6897 20.431V23.1724ZM19.4483 12H20.6897V19.2801C19.931 18.632 18.628 17.7931 16.9655 17.7931C15.303 17.7931 14 18.6321 13.2414 19.2802V12H17.7931C17.9028 12 18.0081 11.9564 18.0857 11.8788C18.1633 11.8012 18.2069 11.696 18.2069 11.5862C18.2069 11.4765 18.1633 11.3712 18.0857 11.2936C18.0081 11.216 17.9028 11.1724 17.7931 11.1724H13.5407L14.7229 9.10345H22.0456L20.8633 11.1724H19.4483C19.3385 11.1724 19.2333 11.216 19.1557 11.2936C19.0781 11.3712 19.0345 11.4765 19.0345 11.5862C19.0345 11.696 19.0781 11.8012 19.1557 11.8788C19.2333 11.9564 19.3385 12 19.4483 12ZM24 23.1724H23.1724V14.4828C23.1724 14.373 23.1288 14.2678 23.0512 14.1902C22.9736 14.1126 22.8684 14.069 22.7586 14.069C22.6489 14.069 22.5436 14.1126 22.466 14.1902C22.3884 14.2678 22.3448 14.373 22.3448 14.4828V23.1724H21.5172V12H22.3448C22.4546 12 22.5598 11.9564 22.6374 11.8788C22.715 11.8012 22.7586 11.696 22.7586 11.5862C22.7586 11.4765 22.715 11.3712 22.6374 11.2936C22.5598 11.216 22.4546 11.1724 22.3448 11.1724H21.8165L22.607 9.78905L22.771 10.4452C22.7959 10.545 22.8572 10.632 22.9429 10.6891L24 11.3938V23.1724Z" fill="black"/>
<path d="M16.9654 13.6553C15.8246 13.6553 14.8965 14.3978 14.8965 15.3104C14.8965 16.2231 15.8246 16.9656 16.9654 16.9656C18.1063 16.9656 19.0344 16.2231 19.0344 15.3104C19.0344 14.3978 18.1063 13.6553 16.9654 13.6553ZM16.9654 16.138C16.2926 16.138 15.7241 15.759 15.7241 15.3104C15.7241 14.8618 16.2926 14.4829 16.9654 14.4829C17.6383 14.4829 18.2068 14.8618 18.2068 15.3104C18.2068 15.759 17.6383 16.138 16.9654 16.138Z" fill="black"/>
</svg>
