<svg width="30" height="40" viewBox="0 0 30 40" fill="none" xmlns="http://www.w3.org/2000/svg">
<path d="M17.461 14.0871V37.7611C17.461 38.6742 16.7254 39.4143 15.818 39.4143H2.22891C1.32156 39.4143 0.585938 38.6742 0.585938 37.7611V14.1043C0.585938 9.72068 4.55305 12.3525 4.55305 9.05255V4.23535H13.528V9.06981C13.528 12.3013 17.461 9.72068 17.461 14.0871Z" fill="#F3F3F3"/>
<path d="M13.5278 9.06974V4.23535H11.1841V10.3847C11.1841 13.6162 15.1171 11.0356 15.1171 15.4019V37.761C15.1171 38.6741 14.3815 39.4142 13.4741 39.4142H15.8178C16.7253 39.4142 17.4608 38.6741 17.4608 37.761V14.087C17.4608 9.7206 13.5278 12.3012 13.5278 9.06974Z" fill="#E4E4E4"/>
<path d="M4.55322 4.23535H13.5282V7.36036H4.55322V4.23535Z" fill="#179AFE"/>
<path d="M11.1841 4.23535H13.5278V7.36036H11.1841V4.23535Z" fill="#6EABC9"/>
<path d="M14.1016 4.23532H3.94531C3.77273 4.23532 3.63281 4.0954 3.63281 3.92282V0.898438C3.63281 0.72586 3.77273 0.585938 3.94531 0.585938H14.1016C14.2742 0.585938 14.4141 0.72586 14.4141 0.898438V3.92282C14.4141 4.0954 14.2742 4.23532 14.1016 4.23532Z" fill="#D67B42"/>
<path d="M14.1016 0.585938H11.7578C11.9304 0.585938 12.0703 0.72586 12.0703 0.898438V3.92282C12.0703 4.0954 11.9304 4.23532 11.7578 4.23532H14.1016C14.2741 4.23532 14.4141 4.0954 14.4141 3.92282V0.898438C14.4141 0.72586 14.2741 0.585938 14.1016 0.585938Z" fill="#BE652B"/>
<path d="M26.0526 19.6896C22.3 15.9368 16.2156 15.9368 12.4629 19.6896C8.71027 23.4422 8.71027 29.5266 12.4629 33.2793C16.2156 37.0319 22.3 37.0319 26.0526 33.2793C29.8053 29.5266 29.8054 23.4422 26.0526 19.6896ZM14.1202 21.3468C16.671 18.796 20.6619 18.5425 23.4996 20.5853L13.3587 30.7262C11.3159 27.8886 11.5694 23.8976 14.1202 21.3468ZM24.3954 31.622C21.8446 34.1728 17.8536 34.4263 15.016 32.3835L25.1568 22.2426C27.1997 25.0803 26.9462 29.0712 24.3954 31.622Z" fill="#FE6F5E"/>
<path d="M26.467 19.2753C26.2954 19.1037 26.1161 18.9365 25.9338 18.7784C25.6894 18.5662 25.3193 18.5925 25.1072 18.8368C24.8951 19.0812 24.9213 19.4513 25.1657 19.6634C25.3272 19.8036 25.4862 19.9518 25.6383 20.1039C29.1565 23.6222 29.1565 29.3468 25.6383 32.8651C23.9341 34.5693 21.6682 35.5079 19.2579 35.5079C16.8476 35.5079 14.5817 34.5693 12.8773 32.865C9.35908 29.3467 9.35908 23.6222 12.8773 20.1039C15.6018 17.3795 19.7569 16.6839 23.2169 18.3729C23.5076 18.5149 23.8586 18.3942 24.0005 18.1034C24.1425 17.8126 24.0218 17.4618 23.731 17.3198C21.925 16.4382 19.9513 16.1315 18.0469 16.3602V14.0867C18.0469 11.3031 16.5409 10.8529 15.4412 10.5242C14.5576 10.26 14.1141 10.1274 14.1141 9.06955V4.8211C14.6038 4.81438 15 4.41407 15 3.92282V0.898439C15 0.403048 14.597 0 14.1016 0H12.2326C11.909 0 11.6467 0.262344 11.6467 0.585939C11.6467 0.909533 11.909 1.17188 12.2326 1.17188H13.8282V3.6493H13.5372C13.5342 3.64923 13.5312 3.64923 13.5282 3.64923H4.55313C4.55009 3.64923 4.54712 3.6493 4.54407 3.6493H4.21876V1.17188H9.72057C10.0442 1.17188 10.3065 0.909533 10.3065 0.585939C10.3065 0.262344 10.0442 0 9.72057 0H3.94532C3.44993 0 3.04688 0.403048 3.04688 0.898439V3.92274C3.04688 4.41813 3.44993 4.82118 3.94532 4.82118H3.9672V7.3572V7.36025V7.3633V9.05236C3.9672 10.1475 3.51501 10.281 2.61415 10.547C1.51094 10.8727 7.80822e-05 11.3188 7.80822e-05 14.1039V32.4963C7.80822e-05 32.8199 0.262422 33.0823 0.586017 33.0823C0.909611 33.0823 1.17196 32.8199 1.17196 32.4963V14.1039C1.17196 12.1947 1.9161 11.975 2.94602 11.6709C3.87157 11.3976 5.13915 11.0233 5.13915 9.05236V7.94619H12.9423V9.06947C12.9423 11.0001 14.1927 11.3739 15.1057 11.6469C16.1328 11.954 16.875 12.176 16.875 14.0867V16.5707C15.0885 17.0004 13.4103 17.9135 12.0487 19.2752C8.07361 23.2504 8.07361 29.7184 12.0487 33.6936C13.3995 35.0444 15.0625 35.9694 16.875 36.4013V37.7609C16.875 38.3494 16.4009 38.8281 15.818 38.8281H2.22891C1.6461 38.8281 1.17188 38.3494 1.17188 37.7609V34.9963C1.17188 34.6727 0.909533 34.4104 0.585939 34.4104C0.262344 34.4104 0 34.6727 0 34.9963V37.7609C0 38.9955 0.999846 40 2.22891 40H15.818C17.047 40 18.0469 38.9955 18.0469 37.7609V36.609C18.4458 36.6559 18.85 36.6797 19.2579 36.6797C21.9811 36.6797 24.5414 35.6192 26.467 33.6935C28.3927 31.768 29.4532 29.2077 29.4532 26.4844C29.4532 23.7611 28.3927 21.2009 26.467 19.2753ZM5.13907 6.77431V4.82118H12.9422V6.77431H5.13907Z" fill="#033C2E"/>
<path d="M23.8421 20.1099C22.3478 19.0341 20.5064 18.5193 18.6582 18.6593C16.7888 18.8012 15.0302 19.6085 13.7061 20.9326C12.382 22.2566 11.5747 24.0153 11.4328 25.8847C11.2925 27.7333 11.8076 29.5743 12.8834 31.0686C12.9837 31.2081 13.1404 31.2965 13.3116 31.3103C13.3275 31.3116 13.3432 31.3122 13.3589 31.3122C13.5136 31.3122 13.6629 31.2509 13.7732 31.1406L23.9141 20.9998C24.0356 20.8783 24.0977 20.7095 24.0838 20.5382C24.0699 20.3669 23.9816 20.2103 23.8421 20.1099ZM13.4572 29.7994C11.9652 27.2045 12.3734 23.9227 14.5347 21.7612C15.2211 21.0748 16.0205 20.5653 16.8752 20.2373V26.3814L13.4572 29.7994ZM18.047 25.2095V19.9069C19.566 19.6259 21.1699 19.8771 22.5728 20.6837L18.047 25.2095Z" fill="black"/>
<path d="M14.4321 32.4308C14.4459 32.6021 14.5343 32.7587 14.6738 32.8591C16.0069 33.8189 17.6158 34.3323 19.2601 34.3323C19.4589 34.3323 19.6584 34.3248 19.8578 34.3097C21.7272 34.1677 23.4858 33.3605 24.8098 32.0364C26.1339 30.7124 26.9412 28.9537 27.0831 27.0843C27.2234 25.2358 26.7083 23.3947 25.6326 21.9004C25.5322 21.761 25.3755 21.6725 25.2043 21.6587C25.033 21.6446 24.8642 21.7069 24.7427 21.8284L14.6018 31.9693C14.4803 32.0908 14.4183 32.2595 14.4321 32.4308ZM25.0587 23.1697C26.5506 25.7646 26.1425 29.0465 23.9812 31.2078C22.3748 32.8143 20.1493 33.4522 18.0469 33.0612V30.1814L25.0587 23.1697ZM16.8751 31.3533V32.7295C16.557 32.607 16.2454 32.459 15.943 32.2852L16.8751 31.3533Z" fill="black"/>
</svg>
