<svg width="24" height="24" viewBox="0 0 24 24" fill="none" xmlns="http://www.w3.org/2000/svg">
<path d="M23.0388 22.9865C22.6035 23.4201 21.9886 23.6219 21.381 23.5306C20.7734 23.4393 20.245 23.0657 19.9563 22.5233C19.9563 22.5193 19.9563 22.5193 19.9523 22.5193C19.3574 21.5491 18.7464 20.1955 17.8041 19.5286C17.2451 19.123 19.2967 21.1258 4.64347 6.47181C4.08646 5.36138 2.37031 4.61311 1.34932 3.96826C0.851689 3.654 0.523979 3.13049 0.458729 2.54557C0.393478 1.96064 0.597769 1.37779 1.01391 0.961593C1.77205 0.209417 2.99492 0.209417 3.75305 0.961593C4.38673 1.59527 5.17213 3.8892 6.52413 4.59115C21.0184 19.0854 19.2667 17.2946 19.573 17.7438C20.225 18.6694 21.5375 19.2803 22.7034 19.9798C23.1993 20.2955 23.5255 20.8187 23.5907 21.4029C23.6559 21.9871 23.4529 22.5693 23.0388 22.9865Z" fill="#FFE0B2"/>
<path d="M23.0386 22.9868C22.6033 23.4204 21.9883 23.6223 21.3808 23.531C20.7732 23.4397 20.2447 23.066 19.9561 22.5236C20.7082 22.9245 21.6339 22.7869 22.237 22.1847C22.8401 21.5826 22.9791 20.657 22.5794 19.9043C23.1197 20.195 23.4911 20.7236 23.5815 21.3305C23.6719 21.9373 23.4707 22.5513 23.0386 22.9868Z" fill="#DFC49C"/>
<path d="M18.5189 18.4667C17.2731 19.7165 16.0062 20.4719 15.6959 20.1637C14.5731 19.0481 5.16742 9.64715 3.83698 8.30473C3.61218 8.07794 3.95677 7.33845 4.64355 6.47199C5.20208 5.78028 5.8325 5.14986 6.52421 4.59132C7.39067 3.90454 8.12936 3.56115 8.35696 3.78476L20.2159 15.6437C20.5234 15.9552 19.7687 17.2209 18.5189 18.4667Z" fill="#6D4122"/>
<path d="M17.8481 17.7959C16.6023 19.0457 15.3358 19.8011 15.0251 19.4929C10.8394 15.3339 7.7141 12.2138 3.83698 8.30473C3.61218 8.07794 3.95677 7.33845 4.64355 6.47199C5.20208 5.78028 5.8325 5.14986 6.52421 4.59132C7.39067 3.90454 8.12936 3.56115 8.35696 3.78476L19.5451 14.9729C19.8526 15.2843 19.0979 16.5501 17.8481 17.7959Z" fill="#91562D"/>
<path d="M11.0637 15.6041C1.04265 25.6555 4.3388 22.329 3.65281 23.0149C3.17635 23.4921 2.48152 23.6789 1.83004 23.5048C1.17856 23.3308 0.669424 22.8224 0.49441 22.1712C0.319395 21.52 0.505094 20.8249 0.981555 20.3477C4.93454 16.3947 6.14559 15.194 8.3924 12.9368C9.13108 12.195 10.3304 12.1897 11.0756 12.9249H11.0796C11.8146 13.6693 11.8074 14.8685 11.0637 15.6041Z" fill="#0377BC"/>
<path d="M10.2651 14.8055C0.244038 24.8569 3.54019 21.5304 2.85421 22.2164C2.26911 22.8066 1.3687 22.9488 0.630153 22.5678C0.250799 21.8303 0.392971 20.932 0.981529 20.3477C5.03154 16.2981 6.01739 15.3226 8.39238 12.9369C8.97732 12.349 9.87589 12.2084 10.6124 12.5895C10.9967 13.3242 10.8557 14.2237 10.2651 14.8055Z" fill="#02A9F4"/>
<path d="M7.13807 14.1945L2.29866 19.0299C1.70371 19.6245 2.04311 20.679 2.68198 21.3179C3.42066 22.0566 4.44285 22.2283 4.96992 21.7012L9.80933 16.8658C10.4007 16.2732 10.0337 15.1688 9.42201 14.5778C8.7512 13.9282 7.71025 13.6171 7.13807 14.1945Z" fill="#9E9E9E"/>
<path d="M9.81007 16.8651L4.97065 21.7005C4.28068 22.3905 2.95064 21.8411 2.36328 20.9219C3.03409 21.3651 3.80472 21.405 4.23995 20.9698L9.07936 16.1344C9.55053 15.6632 9.42275 14.8607 9.03544 14.2617C10.1283 14.9796 10.3842 16.2909 9.81007 16.8651Z" fill="#707070"/>
<path d="M1.13656 4.30797C2.09765 4.91769 3.52792 5.54258 4.158 6.45336C3.38697 7.48553 3.17774 8.20545 3.55387 8.58798L7.86622 12.9003C6.64838 14.1218 8.06586 12.7007 0.727286 20.0385C0.115709 20.6091 -0.135803 21.4679 0.0713462 22.2783C0.278495 23.0887 0.911295 23.7215 1.72168 23.9287C2.53207 24.1358 3.39092 23.8843 3.96155 23.2727L11.1013 16.1346L15.4136 20.4469C15.9307 20.9572 16.9709 20.28 17.5498 19.8432C18.4586 20.4745 19.0835 21.9027 19.6928 22.8638C20.1723 23.6205 21.0423 24.0363 21.9323 23.934C22.8222 23.8317 23.5753 23.2294 23.8705 22.3836C24.1658 21.5379 23.9513 20.5978 23.3184 19.9638C22.632 19.2762 20.6855 18.6373 19.8945 17.4982C20.4722 16.7307 20.957 15.8267 20.4966 15.3608L17.5818 12.4459C18.3952 12.1328 19.186 11.7637 19.9484 11.3411C20.784 10.8746 21.5585 10.3063 22.2543 9.64929C25.7788 6.13154 23.3388 0.0818723 18.3524 0.0818723C16.8497 0.0791904 15.4085 0.678414 14.3507 1.74572C13.1171 3.1007 12.164 4.68658 11.5465 6.41184L8.63605 3.50021C8.25632 3.12727 7.5372 3.3353 6.50383 4.10713C5.59305 3.47665 4.96696 2.04479 4.35924 1.08449C3.84598 0.275424 2.89062 -0.138075 1.94946 0.0414874C1.0083 0.22105 0.272286 0.957243 0.0929567 1.89845C-0.0863727 2.83966 0.327364 3.79491 1.13656 4.30797ZM9.80597 12.743C10.4018 12.7577 10.9312 13.1266 11.1514 13.6804C11.3716 14.2342 11.24 14.8659 10.817 15.2857C10.777 15.3256 10.8968 15.2094 10.464 15.6427C10.2138 14.5993 9.39668 13.7863 8.35215 13.5412C8.81293 13.0792 8.66879 13.2285 8.71351 13.1818C9.00189 12.8916 9.39699 12.7329 9.80597 12.743ZM21.9552 2.60939C22.1628 3.17551 22.1574 3.79784 21.94 4.36028C20.7881 8.14436 15.1705 10.9534 11.6543 12.9295C11.6263 12.8895 11.3269 13.2417 21.9552 2.60939ZM21.3894 2.04599L11.0853 12.3541C11.0613 12.3373 11.0386 12.3194 11.0138 12.3034C12.7264 9.39894 14.4477 6.16148 16.6083 4.00371C18.2705 2.34426 20.3201 1.54008 21.3894 2.04599ZM4.68786 21.4188C4.12885 21.9778 2.66904 21.2363 2.41749 20.0724C2.33876 19.8084 2.39985 19.5225 2.5796 19.3137C7.97602 13.8978 7.31839 14.5781 7.42061 14.4763C7.55426 14.3463 7.73584 14.2775 7.92212 14.2863C9.02576 14.2839 10.1581 15.7924 9.52727 16.5822L4.68786 21.4188ZM1.27951 22.7205C0.698657 22.1318 0.704015 21.184 1.29148 20.6019L1.64086 20.2529C1.89758 21.2912 2.70705 22.1027 3.74473 22.3619L3.39815 22.7085C2.81594 23.2958 1.86831 23.3011 1.27951 22.7205ZM22.7546 20.5292C23.1723 20.9465 23.3141 21.5661 23.1195 22.1236C22.9248 22.681 22.4281 23.0777 21.8414 23.1442C21.2548 23.2108 20.6818 22.9355 20.3672 22.4358C19.7855 21.5174 19.1729 20.1199 18.1867 19.3241C18.6084 18.954 19.0054 18.5568 19.3754 18.135C20.3604 19.3577 22.2211 19.9957 22.7546 20.5292ZM19.8841 15.8774C19.8589 16.147 19.3742 17.0498 18.235 18.1849C17.0958 19.3201 16.1986 19.8073 15.9287 19.8324L11.6343 15.538C11.8654 15.2076 12.0048 14.8218 12.0384 14.42C13.4799 13.9189 15.1625 13.3703 16.7692 12.7626L19.8841 15.8774ZM21.6885 9.08589C19.6733 11.1155 15.8357 12.2738 12.2904 13.4877C16.0645 11.3666 22.0606 8.31326 22.836 4.03406C23.4687 5.79787 23.021 7.76848 21.6885 9.08589ZM13.3489 4.45411C13.7817 3.67861 14.3079 2.95905 14.9157 2.31152C16.2334 0.980374 18.2032 0.533453 19.9663 1.16555C15.7674 1.91781 12.8118 7.68158 10.6337 11.3754L12.0712 7.28549C12.41 6.3042 12.8378 5.35594 13.3493 4.45252L13.3489 4.45411ZM11.2422 7.23757L9.58477 11.952C9.17926 11.9855 8.79016 12.1271 8.45797 12.3621L4.16918 8.07289C4.32651 7.56937 4.59492 7.1076 4.95458 6.72169C5.49428 6.05336 6.10327 5.4441 6.77136 4.90411C7.15794 4.54434 7.62019 4.2757 8.12416 4.11791L11.2422 7.23757ZM1.29668 1.24541C1.62745 0.915383 2.09028 0.753568 2.55463 0.805602C3.01898 0.857637 3.43452 1.11788 3.68404 1.51293C4.2662 2.4313 4.88191 3.83321 5.86656 4.62741C5.44321 4.995 5.04627 5.39195 4.67867 5.8153C3.88408 4.82945 2.48257 4.21454 1.5642 3.63357C1.16912 3.38388 0.908881 2.96821 0.856851 2.50374C0.804821 2.03928 0.966635 1.57633 1.29668 1.24541Z" fill="black"/>
</svg>
