<svg width="40" height="40" viewBox="0 0 40 40" fill="none" xmlns="http://www.w3.org/2000/svg">
<path d="M24.982 13.4175C25.3752 13.5976 25.8399 13.4248 26.0199 13.0317C26.1999 12.6385 26.0272 12.1738 25.6341 11.9938L20.5316 9.65689C20.5246 9.65369 20.5176 9.65056 20.5105 9.64759C20.1714 9.50411 19.7837 9.57921 19.5221 9.83835C19.2608 10.0976 19.1828 10.485 19.3235 10.8252C19.3259 10.8312 19.3284 10.837 19.3311 10.8428L21.6043 15.9807C21.7793 16.3761 22.2417 16.5548 22.6371 16.3799C22.6632 16.3683 22.6884 16.3555 22.7127 16.3416C23.0547 16.1442 23.1998 15.7164 23.0363 15.347L22.9533 15.1593L24.7977 13.333L24.982 13.4175ZM22.2752 13.6268L21.4711 11.8095L23.2758 12.636L22.2752 13.6268Z" fill="#019371"/>
<path d="M20.7102 16.8545C20.6319 16.0673 20.2333 15.2747 19.5875 14.6224C19.4413 14.4748 19.2426 14.3914 19.035 14.3904C18.8273 14.3894 18.6276 14.471 18.4802 14.617L17.3482 15.7379C17.0409 16.0422 17.0385 16.538 17.3427 16.8452C17.647 17.1524 18.1424 17.1549 18.45 16.8507L18.9471 16.3584C19.0605 16.5747 19.1306 16.7951 19.1519 17.0092C19.1933 17.426 19.048 17.8018 18.7203 18.1264C18.3635 18.4795 17.8906 18.6729 17.3885 18.6704C16.8864 18.6679 16.4154 18.4701 16.0621 18.1133C15.7088 17.7565 15.5156 17.2835 15.5181 16.7814C15.5206 16.2793 15.7184 15.8083 16.0752 15.455C16.3428 15.1898 16.6789 15.013 17.0471 14.9436C17.472 14.8634 17.7516 14.4541 17.6715 14.0292C17.5914 13.6042 17.182 13.3247 16.7571 13.4048C16.0806 13.5323 15.4639 13.8567 14.9734 14.3422C14.3194 14.9898 13.9567 15.8533 13.9522 16.7737C13.9477 17.694 14.3018 18.561 14.9494 19.2151C15.597 19.8691 16.4604 20.2318 17.3809 20.2363C17.9996 20.2394 18.5942 20.0804 19.1162 19.779C19.3706 19.6321 19.6079 19.4513 19.8222 19.2391C20.4825 18.5852 20.7979 17.7383 20.7102 16.8545Z" fill="#019371"/>
<path d="M9.30122 27.4525C8.9483 27.8021 8.46933 27.9962 8.02029 27.9718C7.58828 27.9484 7.21942 28.2796 7.19614 28.7114C7.17277 29.1431 7.50388 29.5121 7.93565 29.5355C8.54685 29.5686 9.15962 29.4147 9.70048 29.1023C9.95267 28.9567 10.1894 28.7768 10.403 28.5653C11.2409 27.7356 11.4126 26.5005 10.8112 25.6286C10.3561 24.9686 9.38171 24.4855 8.01247 25.1086C7.39752 25.3884 6.79836 25.624 6.59236 25.7036C6.47975 25.709 6.40973 25.64 6.37628 25.5949C6.33314 25.5367 6.24773 25.3739 6.38589 25.1195C6.7571 24.4365 7.71864 24.2211 7.74708 24.215C8.16924 24.1294 8.44284 23.7184 8.35906 23.2954C8.27498 22.8712 7.8629 22.5956 7.43871 22.6796C7.26561 22.7139 5.72647 23.0527 5.01001 24.3719C4.62138 25.087 4.6628 25.913 5.11832 26.5274C5.54728 27.1062 6.24976 27.3761 6.95153 27.2319C6.99193 27.2236 7.03171 27.212 7.07032 27.1975C7.10204 27.1855 7.85641 26.9001 8.66119 26.5338C8.81694 26.463 9.33928 26.2523 9.52223 26.5176C9.66336 26.7223 9.61897 27.1379 9.30122 27.4525Z" fill="#019371"/>
<path d="M14.9151 20.6529L12.3394 18.0518C12.0352 17.7446 11.5398 17.7422 11.2322 18.0464C10.9249 18.3506 10.9225 18.8464 11.2267 19.1536L13.8023 21.7547C13.9678 21.9218 14.1128 22.165 13.933 22.7008C13.8768 22.8682 13.7814 23.0168 13.6417 23.1548C13.4907 23.3038 13.324 23.3962 13.1319 23.4377C12.6741 23.5362 12.4697 23.4425 12.2883 23.2594L9.70998 20.6554C9.40575 20.3482 8.91045 20.3459 8.6027 20.65C8.29542 20.9542 8.29292 21.45 8.59723 21.7572L11.1756 24.3612C11.7711 24.9625 12.5401 25.1669 13.4613 24.9688C13.7239 24.9123 13.9703 24.8175 14.1991 24.6855C14.3933 24.5734 14.5746 24.4344 14.742 24.2692C15.056 23.9591 15.2833 23.5991 15.4176 23.1992C15.747 22.2173 15.5686 21.313 14.9151 20.6529Z" fill="#019371"/>
<path d="M22.8938 6.49954C22.8936 6.4997 22.8935 6.49985 22.8932 6.50001C22.5859 6.80424 22.5834 7.30001 22.8878 7.60729L26.6347 11.3915C26.8905 11.6498 27.2815 11.6927 27.5822 11.5192C27.6393 11.4863 27.693 11.4455 27.742 11.397C28.0493 11.0928 28.0518 10.597 27.7475 10.2897L26.9055 9.43941L29.1834 9.59594C29.3445 9.60704 29.4977 9.56843 29.6279 9.49333C29.846 9.36743 29.9996 9.13869 30.0182 8.86845C30.0478 8.43708 29.7222 8.06329 29.2907 8.03367L27.4226 7.90527C27.5452 7.63652 27.6155 7.34464 27.6264 7.0433C27.6482 6.44108 27.4329 5.8799 27.0202 5.46321C26.1796 4.61397 24.7798 4.63202 23.9 5.50307L22.8945 6.49876C22.8942 6.49899 22.8941 6.4993 22.8938 6.49954ZM25.0019 6.61582C25.2637 6.35653 25.6784 6.33347 25.9075 6.56495C26.0495 6.70835 26.065 6.89075 26.0615 6.98664C26.055 7.16568 25.9771 7.3419 25.8476 7.47007C25.7415 7.57518 25.5727 7.74366 25.4038 7.91239C25.2406 7.74906 24.7256 7.23093 24.5543 7.059L25.0019 6.61582Z" fill="#019371"/>
<path d="M24.7553 27.318C24.9735 27.1921 25.127 26.9633 25.1456 26.6931C25.1752 26.2617 24.8496 25.8879 24.4181 25.8583L22.55 25.7299C22.6726 25.4612 22.7429 25.1693 22.7539 24.8679C22.7756 24.2657 22.5603 23.7045 22.1477 23.2878V23.2879C21.307 22.4388 19.9071 22.4567 19.0275 23.3279L18.0219 24.3235C18.0217 24.3238 18.0214 24.3241 18.0212 24.3243C18.0211 24.3245 18.0209 24.3246 18.0207 24.3248C17.7134 24.629 17.7109 25.1248 18.0152 25.4321L21.7622 29.2163C22.018 29.4745 22.4089 29.5175 22.7097 29.344C22.7667 29.3111 22.8205 29.2703 22.8695 29.2218C23.1767 28.9176 23.1792 28.4218 22.8749 28.1145L22.033 27.2642L24.3108 27.4207C24.472 27.4317 24.6252 27.3931 24.7553 27.318ZM20.1293 24.4405C20.3911 24.1814 20.8057 24.1581 21.0349 24.3897V24.3897C21.1769 24.5331 21.1923 24.7155 21.1889 24.8113C21.1824 24.9904 21.1045 25.1666 20.975 25.2948C20.8689 25.3999 20.7001 25.5684 20.5312 25.7371C20.3679 25.5738 19.8529 25.0556 19.6817 24.8837L20.1293 24.4405Z" fill="#019371"/>
<path d="M18.8426 28.3594C18.5384 28.0522 18.0428 28.0498 17.7353 28.354L16.8798 29.2011L16.1436 28.4576L17.121 27.4898C17.4283 27.1856 17.4308 26.6898 17.1265 26.3825C16.8222 26.0752 16.3266 26.0727 16.0192 26.377L14.4854 27.8957C14.3378 28.0418 14.2544 28.2406 14.2534 28.4482C14.2524 28.6559 14.3339 28.8554 14.48 29.003L16.3175 30.8587C16.3176 30.8589 16.3178 30.8591 16.318 30.8592C16.3182 30.8595 16.3184 30.8596 16.3186 30.8599L18.2269 32.7872C18.4827 33.0455 18.8736 33.0884 19.1744 32.9149C19.2313 32.8819 19.2852 32.8412 19.3342 32.7927C19.6415 32.4885 19.644 31.9927 19.3396 31.6854L17.9816 30.3139L18.8371 29.4669C19.1444 29.1625 19.1469 28.6668 18.8426 28.3594Z" fill="#019371"/>
<path d="M25.9829 25.1079C26.2706 25.3808 26.7441 25.4446 27.0902 25.1134L28.6847 23.5345C28.9919 23.2303 28.9944 22.7344 28.6901 22.4272C28.3859 22.12 27.8904 22.1175 27.5828 22.4218L26.5448 23.4497L25.7731 22.6704L26.6936 21.7589C27.0009 21.4547 27.0034 20.9589 26.6991 20.6516C26.3948 20.3444 25.8994 20.342 25.5918 20.6462L24.6712 21.5576L23.8995 20.7783L24.9377 19.7504C25.2449 19.4462 25.2474 18.9504 24.9431 18.6431C24.6389 18.3359 24.1434 18.3335 23.8359 18.6377L22.2413 20.2165C22.0937 20.3626 22.0102 20.5614 22.0093 20.769C22.0083 20.9766 22.0898 21.1762 22.2358 21.3238L25.9829 25.1079Z" fill="#019371"/>
<path d="M28.0322 19.3301C28.0324 19.3302 28.0325 19.3305 28.0327 19.3306C28.0329 19.3309 28.0332 19.331 28.0333 19.3312L29.9061 21.2228C30.1939 21.4957 30.6673 21.5595 31.0134 21.2282L32.608 19.6494C32.9153 19.3452 32.9178 18.8494 32.6134 18.5421C32.3092 18.2348 31.8137 18.2322 31.5062 18.5366L30.468 19.5645L29.6964 18.7852L30.617 17.8737C30.9243 17.5695 30.9268 17.0737 30.6225 16.7664C30.3182 16.4592 29.8228 16.4568 29.5152 16.7609L28.5946 17.6725L27.8229 16.8932L28.8611 15.8653C29.1683 15.5611 29.1708 15.0653 28.8665 14.758C28.5623 14.4506 28.0667 14.4482 27.7593 14.7525L26.1647 16.3314C25.8574 16.6356 25.8549 17.1314 26.1592 17.4386L28.0322 19.3301Z" fill="#019371"/>
<path d="M24.0624 1.28031C24.1865 0.866987 23.952 0.431231 23.5386 0.307131C23.1252 0.183031 22.6895 0.417555 22.5654 0.830961C22.4413 1.24437 22.6759 1.68004 23.0893 1.80414C23.5027 1.92824 23.9383 1.69364 24.0624 1.28031Z" fill="#019371"/>
<path d="M35.5223 7.37766C33.2694 4.60706 30.3187 2.48853 26.9894 1.25121C26.5841 1.10046 26.1333 1.30693 25.9827 1.71236C25.8321 2.11772 26.0385 2.5684 26.4439 2.71899C29.5115 3.8591 32.2306 5.81164 34.3073 8.36562C37.414 12.1862 38.8469 16.988 38.342 21.8864C37.8372 26.7847 35.455 31.1933 31.6343 34.2999C27.8139 37.4067 23.0119 38.8394 18.1136 38.3346C13.2153 37.8297 8.8067 35.4476 5.70006 31.6269C2.59343 27.8062 1.16049 23.0046 1.66541 18.1062C2.17025 13.2079 4.55237 8.79934 8.37305 5.6927C11.5876 3.07887 15.6544 1.61327 19.8244 1.56584C20.2566 1.56091 20.6034 1.20643 20.5984 0.774035C20.5935 0.341639 20.239 -0.00487154 19.8066 5.18214e-05C15.2844 0.0513954 10.873 1.64164 7.38502 4.47765C3.23995 7.84827 0.655419 12.6312 0.107676 17.9457C-0.440066 23.2602 1.11446 28.4697 4.48501 32.6149C7.85563 36.7601 12.6386 39.3446 17.953 39.8923C22.1867 40.3287 26.3532 39.4311 29.9687 37.3439C30.8916 36.8111 31.7793 36.2004 32.6223 35.515C36.7675 32.1443 39.3519 27.3614 39.8997 22.0469C40.4475 16.7325 38.8929 11.523 35.5223 7.37766Z" fill="#019371"/>
</svg>
