<svg width="40" height="40" viewBox="0 0 40 40" fill="none" xmlns="http://www.w3.org/2000/svg">
<mask id="mask0_5281_14970" style="mask-type:luminance" maskUnits="userSpaceOnUse" x="0" y="0" width="40" height="40">
<path d="M0 0H40V40H0V0Z" fill="white"/>
</mask>
<g mask="url(#mask0_5281_14970)">
<path d="M20 1.17188C14.9708 1.17188 10.2427 3.13031 6.68648 6.68649C3.13031 10.2427 1.17188 14.9708 1.17188 20C1.17188 25.0292 3.13031 29.7573 6.68648 33.3135C10.2427 36.8697 14.9708 38.8281 20 38.8281C25.0292 38.8281 29.7574 36.8697 33.3135 33.3135C36.8697 29.7574 38.8281 25.0292 38.8281 20C38.8281 14.9708 36.8697 10.2426 33.3135 6.68649C29.7574 3.13031 25.0292 1.17188 20 1.17188ZM20 40C14.6578 40 9.63539 37.9196 5.85781 34.1422C2.08039 30.3647 0 25.3422 0 20C0 14.6578 2.08039 9.63531 5.85781 5.85781C9.63539 2.08039 14.6578 0 20 0C25.3422 0 30.3647 2.08039 34.1422 5.85781C37.9196 9.63531 40 14.6578 40 20C40 25.3422 37.9196 30.3647 34.1422 34.1422C30.3647 37.9196 25.3422 40 20 40Z" fill="#019371"/>
<path d="M3.60059 23.0523C3.60059 23.0523 5.04463 20.8854 8.32563 19.7677C11.4355 18.7084 15.4745 19.4204 16.4767 22.7288C17.395 25.7601 14.8767 28.8555 11.6888 28.4733C7.38169 27.9569 7.36864 23.571 3.60059 23.0523Z" fill="#16CAA1"/>
<path d="M32.5755 8.37843C29.7244 7.29989 25.9252 6.71073 22.4996 7.72165C16.9513 9.35891 14.5923 15.1663 16.6131 18.4476C18.6797 21.8033 23.4824 22.4822 26.2797 19.2031C29.1384 15.852 27.4643 12.0304 32.5755 8.37843Z" fill="#16CAA1"/>
<path d="M24.4552 7.31536C26.0229 7.49853 27.5192 7.8877 28.8182 8.37907C23.707 12.031 25.3811 15.8526 22.5224 19.2039C21.7552 20.1031 20.8372 20.704 19.8662 21.0344C22.0185 21.7526 24.5379 21.2458 26.2797 19.2039C29.1384 15.8526 27.4643 12.031 32.5755 8.37907C30.2585 7.50257 27.3152 6.9494 24.4552 7.31536Z" fill="#019371"/>
<path d="M23.0952 13.2379C22.9232 12.889 22.5012 12.7452 22.1518 12.9174C21.9932 12.9956 18.2657 14.9119 18.2657 21.8331V27.5551C16.5803 24.9427 13.7346 22.8353 10.9767 22.3876C10.5921 22.3257 10.2307 22.5862 10.1684 22.9702C10.106 23.3542 10.3669 23.7161 10.7509 23.7785C13.8791 24.2862 17.2706 27.4367 18.1571 30.6581C18.18 30.7415 18.2178 30.8166 18.2657 30.8828V35.1949C18.2657 35.5841 18.5811 35.8994 18.9702 35.8994C19.3593 35.8994 19.6747 35.5841 19.6747 35.1949V21.8331C19.6747 15.8598 22.6426 14.2497 22.7795 14.1789C23.1249 14.0054 23.2663 13.5853 23.0952 13.2379Z" fill="#019371"/>
</g>
</svg>
