<svg width="160" height="120" viewBox="0 0 160 120" fill="none" xmlns="http://www.w3.org/2000/svg">
<path d="M160 18.3337V101.666C160 111.8 151.8 120 141.666 120H18.3337C16.6663 120 15.0671 119.8 13.5998 119.333C5.73364 117.267 0 110.133 0 101.666V18.3337C0 8.19946 8.19946 0 18.3337 0H141.666C151.8 0 160 8.19946 160 18.3337Z" fill="#ECEFF1"/>
<path d="M46.6662 33.3337C46.6662 40.697 40.697 46.6662 33.3337 46.6662C25.9692 46.6662 20 40.697 20 33.3337C20 25.9692 25.9692 20 33.3337 20C40.697 20 46.6662 25.9692 46.6662 33.3337Z" fill="#FFC107"/>
<path d="M160 86.267V101.666C160 111.8 151.8 120 141.666 120H18.3337C16.6663 120 15.0671 119.8 13.5999 119.333L95.0671 37.8661C99.5996 33.3337 107.067 33.3337 111.6 37.8661L160 86.267Z" fill="#388E3C"/>
<path d="M113.733 120H18.3337C16.6663 120 15.0671 119.8 13.5998 119.334C5.73364 117.267 0 110.133 0 101.666V99.5997L38.3996 61.2001C42.9333 56.6664 50.4004 56.6664 54.9328 61.2001L113.733 120Z" fill="#4CAF50"/>
</svg>
