<svg width="65" height="20" viewBox="0 0 65 20" fill="none" xmlns="http://www.w3.org/2000/svg">
<rect width="65" height="20" rx="10" fill="#EE3D42"/>
<path d="M14.6891 3.00022C14.4007 3.00349 14.2291 3.04038 12.569 3.34664C11.6778 3.51104 11.0701 3.63297 10.9456 3.67228C10.7029 3.74896 10.4255 3.89766 10.294 4.02114C10.173 4.13486 10.0002 4.42158 9.94916 4.59362C9.92813 4.66453 9.83583 5.16602 9.74343 5.70802C9.65103 6.25003 9.49449 7.1686 9.39557 7.74927C9.29664 8.32993 9.1568 9.14814 9.08511 9.5675C7.93896 16.272 7.99195 15.9447 8.00411 16.1953C8.01683 16.4577 8.05362 16.5752 8.16944 16.7305C8.31066 16.9199 8.55479 17.015 8.85843 16.9981C8.94402 16.9933 9.54671 16.8912 10.1983 16.7714C11.628 16.5085 11.7237 16.4804 12.0393 16.2356C12.3249 16.0142 12.5062 15.7349 12.6266 15.3289C12.6819 15.1424 12.8946 13.9623 12.8757 13.9469C12.8705 13.9426 12.6077 13.9869 12.2922 14.0453C11.6253 14.1688 11.4306 14.1809 11.2972 14.1076C11.0685 13.9818 11.0638 14.0369 11.5972 10.9263C11.8434 9.49077 12.1132 7.91294 12.1972 7.41995C12.2812 6.92697 12.3531 6.52082 12.3573 6.51756C12.3645 6.51193 15.1346 10.0115 15.1492 10.0447C15.153 10.0533 15.0888 10.0712 15.007 10.0844C14.2172 10.2113 13.7431 10.6278 13.5266 11.3833C13.4825 11.5369 13.109 13.681 13.1241 13.6934C13.1282 13.6967 14.0849 13.5243 15.2502 13.3103C16.4154 13.0962 17.3812 12.9206 17.3965 12.9205C17.4117 12.9204 17.6095 13.1558 17.8363 13.4435C18.3471 14.0912 18.4278 14.1811 18.6772 14.3795C18.9978 14.6345 19.3146 14.7817 19.7268 14.8676C19.8671 14.8969 19.9848 14.9044 20.2654 14.9031L20.6245 14.9012L21.9082 14.6636C22.6996 14.5169 23.258 14.4037 23.3625 14.3685C24.0007 14.1535 24.3909 13.6898 24.3021 13.251C24.2872 13.1771 24.2493 13.0699 24.2183 13.0134C24.1752 12.9345 20.3208 8.03546 17.4346 4.39139C17.1003 3.9693 16.9793 3.83657 16.7479 3.63746C16.421 3.35622 15.9904 3.13828 15.5733 3.0436C15.406 3.0056 15.3245 3.00055 14.927 3.00083C14.8283 3.00091 14.7556 2.99946 14.6891 3.00022Z" fill="#FAFAFA"/>
<path d="M32.2891 13L31.7305 11.4141H29.5469L28.9883 13H28L30.125 7.26562H31.1641L33.2852 13H32.2891ZM31.4883 10.6094L30.9453 9.04688C30.9245 8.97917 30.8945 8.88411 30.8555 8.76172C30.8164 8.63672 30.7773 8.51042 30.7383 8.38281C30.6992 8.2526 30.6667 8.14323 30.6406 8.05469C30.6146 8.16146 30.582 8.28125 30.543 8.41406C30.5065 8.54427 30.4701 8.66667 30.4336 8.78125C30.3997 8.89583 30.3737 8.98438 30.3555 9.04688L29.8086 10.6094H31.4883ZM34.8672 13H33.9453V6.92188H34.8672V13ZM38.3984 8.59375C38.9115 8.59375 39.3229 8.78125 39.6328 9.15625C39.9453 9.53125 40.1016 10.0885 40.1016 10.8281C40.1016 11.3177 40.0286 11.7305 39.8828 12.0664C39.7396 12.3997 39.5378 12.6523 39.2773 12.8242C39.0195 12.9935 38.7188 13.0781 38.375 13.0781C38.1562 13.0781 37.9661 13.0495 37.8047 12.9922C37.6432 12.9349 37.5052 12.8607 37.3906 12.7695C37.276 12.6758 37.1797 12.5742 37.1016 12.4648H37.0469C37.0599 12.569 37.0716 12.6849 37.082 12.8125C37.0951 12.9375 37.1016 13.0521 37.1016 13.1562V14.918H36.1797V8.67578H36.9297L37.0586 9.27344H37.1016C37.1823 9.15104 37.2799 9.03776 37.3945 8.93359C37.5117 8.82943 37.6523 8.7474 37.8164 8.6875C37.9831 8.625 38.1771 8.59375 38.3984 8.59375ZM38.1523 9.34375C37.8997 9.34375 37.6966 9.39453 37.543 9.49609C37.3919 9.59505 37.2812 9.74479 37.2109 9.94531C37.1432 10.1458 37.1068 10.3971 37.1016 10.6992V10.8281C37.1016 11.1484 37.1341 11.4206 37.1992 11.6445C37.2669 11.8659 37.3776 12.0352 37.5312 12.1523C37.6875 12.2669 37.8984 12.3242 38.1641 12.3242C38.388 12.3242 38.5729 12.263 38.7188 12.1406C38.8672 12.0182 38.9779 11.8438 39.0508 11.6172C39.1237 11.3906 39.1602 11.1237 39.1602 10.8164C39.1602 10.3503 39.0768 9.98828 38.9102 9.73047C38.7461 9.47266 38.4935 9.34375 38.1523 9.34375ZM42.082 6.92188V8.44922C42.082 8.60807 42.0768 8.76302 42.0664 8.91406C42.0586 9.0651 42.0495 9.18229 42.0391 9.26562H42.0898C42.181 9.11458 42.293 8.99089 42.4258 8.89453C42.5586 8.79557 42.707 8.72135 42.8711 8.67188C43.0378 8.6224 43.2148 8.59766 43.4023 8.59766C43.7331 8.59766 44.0143 8.65365 44.2461 8.76562C44.4779 8.875 44.6549 9.04557 44.7773 9.27734C44.9023 9.50911 44.9648 9.8099 44.9648 10.1797V13H44.0469V10.3516C44.0469 10.0156 43.9779 9.76432 43.8398 9.59766C43.7018 9.42839 43.4883 9.34375 43.1992 9.34375C42.9206 9.34375 42.6992 9.40234 42.5352 9.51953C42.3737 9.63411 42.2578 9.80469 42.1875 10.0312C42.1172 10.2552 42.082 10.5286 42.082 10.8516V13H41.1641V6.92188H42.082ZM47.9453 8.59375C48.4922 8.59375 48.9049 8.71484 49.1836 8.95703C49.4648 9.19922 49.6055 9.57682 49.6055 10.0898V13H48.9531L48.7773 12.3867H48.7461C48.6237 12.543 48.4974 12.6719 48.3672 12.7734C48.237 12.875 48.0859 12.9505 47.9141 13C47.7448 13.0521 47.5378 13.0781 47.293 13.0781C47.0352 13.0781 46.8047 13.0312 46.6016 12.9375C46.3984 12.8411 46.2383 12.6953 46.1211 12.5C46.0039 12.3047 45.9453 12.0573 45.9453 11.7578C45.9453 11.3125 46.1107 10.9779 46.4414 10.7539C46.7747 10.5299 47.2773 10.4062 47.9492 10.3828L48.6992 10.3555V10.1289C48.6992 9.82943 48.6289 9.61589 48.4883 9.48828C48.3503 9.36068 48.1549 9.29688 47.9023 9.29688C47.6862 9.29688 47.4766 9.32812 47.2734 9.39062C47.0703 9.45312 46.8724 9.52995 46.6797 9.62109L46.3828 8.97266C46.5938 8.86068 46.8333 8.76953 47.1016 8.69922C47.3724 8.62891 47.6536 8.59375 47.9453 8.59375ZM48.6953 10.9336L48.1367 10.9531C47.6784 10.9688 47.3568 11.0469 47.1719 11.1875C46.987 11.3281 46.8945 11.5208 46.8945 11.7656C46.8945 11.9792 46.9583 12.1354 47.0859 12.2344C47.2135 12.3307 47.3815 12.3789 47.5898 12.3789C47.9076 12.3789 48.1706 12.2891 48.3789 12.1094C48.5898 11.9271 48.6953 11.6602 48.6953 11.3086V10.9336ZM52.9648 13H52.0234V8.08594H50.3516V7.28906H54.6328V8.08594H52.9648V13ZM59.7422 7.28906L57.7461 13H56.7539L54.7578 7.28906H55.7188L56.9219 10.8672C56.9583 10.9714 56.9974 11.0977 57.0391 11.2461C57.0833 11.3945 57.1237 11.5443 57.1602 11.6953C57.1992 11.8464 57.2292 11.9805 57.25 12.0977C57.2708 11.9805 57.2995 11.8464 57.3359 11.6953C57.375 11.5443 57.4154 11.3945 57.457 11.2461C57.4987 11.0977 57.5378 10.9701 57.5742 10.8633L58.7812 7.28906H59.7422Z" fill="#FAFAFA"/>
</svg>
