<svg width="43" height="20" viewBox="0 0 43 20" fill="none" xmlns="http://www.w3.org/2000/svg">
<g clip-path="url(#clip0_10807_76006)">
<path d="M39.0951 7.07373C39.0951 7.07373 39.0485 7.07373 38.9647 7.07373C38.9647 7.07373 29.347 7.12033 27.8652 7.12033C26.43 7.12033 25.7963 8.42505 25.7963 8.42505L22.4226 14.2684C22.4226 13.1407 22.376 7.70745 22.376 7.39059C22.376 7.26012 22.3294 7.21352 22.2828 7.16693C22.2828 7.16693 22.2828 7.16693 22.2362 7.16693C22.1896 7.12033 22.1058 7.12033 22.1058 7.12033C21.8821 7.12033 21.5186 7.12033 21.2111 7.12033C20.9036 7.12033 20.5867 7.12033 20.2232 7.16693C19.3658 7.26012 18.6948 8.29458 18.6948 8.29458L13.215 17.8191C13.5785 16.067 15.2373 7.80065 15.3305 7.43719V7.39059V7.344C15.3305 7.344 15.3305 7.344 15.3305 7.2974V7.2508C15.2839 7.15761 15.2373 7.15761 15.1534 7.12033C15.1068 7.07373 15.023 7.12033 14.9764 7.12033C14.7993 7.12033 14.529 7.12033 14.3892 7.12033C14.3892 7.12033 14.3427 7.12033 14.2961 7.12033C14.0724 7.12033 13.8487 7.12033 13.5785 7.12033C13.0845 7.12033 12.4508 7.12033 11.873 7.16693C10.3446 7.26012 9.7202 8.10819 9.7202 8.10819L0 20.1117C0 20.1117 0 20.1117 0.0465973 20.1117H0.139792C0.139792 20.1117 1.26745 20.1117 2.11552 20.1117C2.24599 20.1117 2.38578 20.1117 2.47898 20.0651C2.97291 20.0185 3.24317 19.8414 3.51344 19.6177C3.7837 19.3941 4.37083 18.8069 4.72497 18.4062C4.90204 18.2291 5.04183 18.1359 5.1723 18.0893C5.2655 18.0893 5.30277 18.0893 5.30277 18.0427C5.39597 18.0427 7.91222 18.0427 8.44343 18.0427C8.53663 18.0427 8.57391 18.0427 8.6205 18.0427C8.6671 18.0427 8.7137 18.0427 8.7137 18.0427C9.11443 18.0427 9.11444 17.8191 9.11444 17.8191C9.11444 17.8191 9.4313 16.2907 9.47789 16.067C9.52449 15.8899 9.34742 15.8899 9.34742 15.8899C9.34742 15.8899 9.34742 15.8899 9.30082 15.8899C9.25423 15.8899 9.20763 15.8899 9.20763 15.8899C8.76029 15.8899 7.2785 15.8899 7.05483 15.8899C6.78457 15.8899 6.96164 15.6197 6.96164 15.6197L11.6773 9.82297C11.407 11.1743 9.65496 19.5245 9.60837 19.7948C9.56177 20.1117 9.78544 20.0651 9.78544 20.0651C9.78544 20.0651 9.87863 20.0651 10.0557 20.0651H13.7835C13.9606 20.0651 14.1469 20.0185 14.2774 20.0185C15.1721 19.8414 15.5821 19.1611 15.5821 19.1611L19.2633 12.7772C19.2633 13.9049 19.2633 19.4686 19.2633 19.7389C19.2633 20.0091 19.4404 20.0091 19.4404 20.0091C19.4404 20.0091 19.5336 20.0091 19.6641 20.0091C19.7107 20.0091 19.7107 20.0091 19.7573 20.0091H19.9343C20.158 20.0091 20.4749 20.0091 20.7917 20.0091C20.9688 20.0091 21.1925 20.0091 21.4161 20.0091C22.4506 19.9625 23.2148 18.6205 23.2148 18.6205L28.6108 9.18925C29.0581 9.18925 30.4933 9.18925 31.2202 9.18925C31.3973 9.18925 31.5371 9.18925 31.5837 9.18925C31.8539 9.18925 31.7141 9.36632 31.7141 9.36632C31.7141 9.36632 25.8242 19.7016 25.7404 19.8321C25.6472 19.9625 25.787 19.9625 25.787 19.9625C25.787 19.9625 25.8801 19.9625 26.0572 19.9625C26.1877 19.9625 26.8214 19.9625 27.3153 19.9625C27.3619 19.9625 27.4458 19.9625 27.539 19.9625C27.6322 19.9625 27.7161 19.9625 27.8559 19.9625C27.9025 19.9625 27.9025 19.9625 27.9491 19.9625C27.9957 19.9625 28.0795 19.9625 28.1727 19.9159C28.1727 19.9159 28.1727 19.9159 28.2193 19.9159C28.9835 19.6923 29.3843 18.9747 29.3843 18.9747C29.3843 18.9747 34.9107 9.4036 35.0039 9.27312C35.0971 9.14265 35.2742 9.09605 35.2742 9.09605H35.3208H35.4512C35.4512 9.09605 37.5202 9.09605 38.0607 9.09605C38.1073 9.09605 38.1539 9.09605 38.1912 9.09605C38.4148 9.09605 38.508 8.91898 38.508 8.91898C38.508 8.91898 39.179 7.53038 39.3654 7.26012C39.3561 7.07373 39.0951 7.07373 39.0951 7.07373Z" fill="black"/>
<path d="M42.9535 -0.0183776C42.9069 -0.0649749 42.9535 -0.0649749 42.9535 -0.0183776C42.9069 -0.0649749 42.9069 -0.111572 42.9069 -0.111572H42.8696C42.8696 -0.111572 42.8696 -0.111572 42.823 -0.111572C42.823 -0.111572 42.823 -0.111572 42.7764 -0.111572C42.7764 -0.111572 42.7764 -0.111572 42.7299 -0.111572H42.6833C42.6833 -0.111572 33.7832 3.39255 33.019 3.66281C32.6555 3.79328 32.4784 4.02627 32.3946 4.20334V4.24994C32.3946 4.38041 32.348 4.42701 32.348 4.4736C32.348 4.5668 32.348 4.60408 32.348 4.60408C32.348 4.82774 32.348 5.46147 32.348 5.76901C32.348 5.8622 32.348 5.89948 32.3946 5.94608C32.4412 6.03927 32.4412 6.03927 32.4878 6.03927C32.5344 6.03927 32.581 6.03927 32.581 6.03927C32.581 6.03927 40.7168 6.03927 40.9871 6.03927C41.1642 6.03927 41.1176 6.21634 41.1176 6.21634L41.071 6.30954C41.071 6.30954 40.5771 7.344 40.1297 8.28526L40.0831 8.33186C39.7663 9.00286 39.4587 9.63659 39.3655 9.76706C39.1885 10.1678 38.9648 10.1678 38.9648 10.1678H38.7411C38.3777 10.1678 37.0823 10.1678 36.812 10.1678C36.6815 10.1678 36.5883 10.2144 36.4951 10.261H36.4392C36.3926 10.261 36.3926 10.3542 36.3926 10.3542C36.3926 10.3542 36.169 10.7176 35.8521 11.342C34.5474 13.6812 31.0898 19.8321 31.0898 19.8787V19.9253C31.0898 19.9719 31.0898 20.0185 31.1364 20.0557C31.183 20.1023 31.2296 20.1023 31.2296 20.1023C31.2296 20.1023 31.2762 20.1023 31.3228 20.1023H31.3694C32.5344 20.1023 40.8007 20.1023 41.8352 20.1023C41.8818 20.1023 41.9284 20.1023 41.9657 20.1023C42.6367 20.1023 42.8603 19.655 42.9069 19.3381C42.9535 19.2077 42.9535 19.1145 42.9535 19.1145C42.9535 19.1145 42.9535 19.1145 42.9535 19.0679C42.9535 17.9402 43.0001 0.289165 43.0001 0.102775C42.9535 0.0189002 42.9535 -0.0183776 42.9535 -0.0183776Z" fill="black"/>
</g>
<defs>
<clipPath id="clip0_10807_76006">
<rect width="43" height="20.2232" fill="white" transform="translate(0 -0.111572)"/>
</clipPath>
</defs>
</svg>
