<svg width="67" height="20" viewBox="0 0 67 20" fill="none" xmlns="http://www.w3.org/2000/svg">
<path fill-rule="evenodd" clip-rule="evenodd" d="M46.3848 0.561644C46.3848 0.246575 46.6313 0 46.9464 0H66.0971C66.4122 0 66.6587 0.246575 66.6587 0.561644V19.4384C66.6587 19.7534 66.4122 20 66.0971 20H46.9464C46.6313 20 46.3848 19.7534 46.3848 19.4384V0.561644Z" fill="#00109F"/>
<path fill-rule="evenodd" clip-rule="evenodd" d="M59.6725 3.01367V17.1233H56.2204V8.91778L53.3574 10.5205V6.7123L56.2204 5.10956L59.6725 3.01367Z" fill="white"/>
<path fill-rule="evenodd" clip-rule="evenodd" d="M0.206785 2.05481H11.0698C11.1931 2.05481 11.289 2.1507 11.289 2.27399V5.95892C11.289 6.08221 11.1931 6.1781 11.0698 6.1781H4.86431V8.27399H9.57665C9.68624 8.27399 9.78213 8.36988 9.78213 8.47947V11.5206C9.78213 11.6302 9.68624 11.726 9.57665 11.726H4.87802V13.7671H11.0835C11.2068 13.7671 11.3027 13.863 11.3027 13.9863V17.6986C11.3027 17.8219 11.2068 17.9178 11.0835 17.9178H0.220484C0.0971963 17.9178 0.00130505 17.8219 0.00130505 17.6986V2.28769C-0.0123936 2.1507 0.0834968 2.05481 0.206785 2.05481Z" fill="#00109F"/>
<path fill-rule="evenodd" clip-rule="evenodd" d="M39.7274 2.05481H27.3027V2.06851C28.6178 3.1233 29.563 4.56166 29.9466 6.1781H31.974V17.6575C31.974 17.8082 32.0973 17.9315 32.2479 17.9315H36.5767C36.7274 17.9315 36.8507 17.8082 36.8507 17.6575V6.1781H39.7274C39.9192 6.1781 40.0836 6.01371 40.0836 5.82193V2.41097C40.0836 2.21919 39.9329 2.05481 39.7274 2.05481Z" fill="#00109F"/>
<path fill-rule="evenodd" clip-rule="evenodd" d="M18.9739 6.28769V9.78084H21.0698C22.0287 9.78084 22.8232 9.00002 22.8232 8.02741C22.8232 7.06851 22.0424 6.27399 21.0698 6.27399L18.9739 6.28769ZM14.3574 2.05481H21.3163C24.6314 2.05481 27.3027 4.73974 27.3027 8.04111C27.3027 11.3562 24.6177 14.0274 21.3163 14.0274H18.9739V17.6986C18.9739 17.8356 18.8643 17.9452 18.7273 17.9452H14.3437C14.2068 17.9452 14.0972 17.8356 14.0972 17.6986V2.30138C14.1246 2.1644 14.2205 2.05481 14.3574 2.05481Z" fill="#00109F"/>
</svg>
