<svg width="67" height="20" viewBox="0 0 67 20" fill="none" xmlns="http://www.w3.org/2000/svg">
<g clip-path="url(#clip0_10805_75942)">
<path fill-rule="evenodd" clip-rule="evenodd" d="M46.6265 0.515098C46.6265 0.198476 46.8743 -0.0493164 47.1909 -0.0493164H66.436C66.7526 -0.0493164 67.0004 0.198476 67.0004 0.515098V19.4849C67.0004 19.8015 66.7526 20.0493 66.436 20.0493H47.1909C46.8743 20.0493 46.6265 19.8015 46.6265 19.4849V0.515098Z" fill="#00AD01"/>
<path fill-rule="evenodd" clip-rule="evenodd" d="M61.783 3.11694L59.3464 8.07277C59.8145 8.21043 60.6955 8.66472 61.0672 8.98134C61.4526 9.31173 61.9482 9.98627 62.1547 10.7159C62.1547 10.7159 62.2786 11.8447 62.2924 12.2164C62.2924 12.3816 62.2648 12.9047 62.2648 12.9047L62.2098 13.0837L62.196 13.125L61.962 13.9785L61.6178 14.6392L61.5903 14.6805V14.6943L61.4526 14.9696C61.2461 15.2862 60.9984 15.5753 60.723 15.8369L60.6267 15.9057L60.5716 15.9746L60.3513 16.126L59.842 16.5114L59.5116 16.6629L59.2363 16.8418L58.9059 16.952L58.8371 16.9795L58.7269 17.007L58.6443 17.0346L58.6581 17.0621L57.9147 17.1997L57.7495 17.241H57.6945H57.6807H57.5293C57.5293 17.241 56.8547 17.2686 56.6345 17.2686C56.3729 17.2548 55.5882 17.1447 55.5882 17.1447C55.2303 17.0759 54.8724 16.9795 54.5145 16.8556L54.5282 16.8143L54.308 16.7455L53.7986 16.5114L53.7711 16.5527L51.8301 15.5065L53.3306 12.7395C53.3306 12.7395 54.7072 13.5379 55.189 13.7444C55.3818 13.827 56.0012 14.0335 56.896 14.0335C57.1301 14.0335 58.3415 13.8408 58.6443 13.0148C58.7958 12.6018 59.0023 11.8447 58.6856 11.2528C58.5067 10.9224 58.2726 10.6057 57.9285 10.4268C57.6807 10.2891 57.2677 10.0551 56.8547 10.0551C56.6758 10.0551 56.1527 10.0551 56.1527 10.0551H55.781H54.7623L56.841 6.04914H52.5872V3.11694H61.783Z" fill="white"/>
<path fill-rule="evenodd" clip-rule="evenodd" d="M0.2205 2.01562H11.1371C11.261 2.01562 11.3573 2.11199 11.3573 2.23588V5.93899C11.3573 6.06288 11.261 6.15925 11.1371 6.15925H4.901V8.26547H9.63657C9.7467 8.26547 9.84306 8.36183 9.84306 8.47196V11.5281C9.84306 11.6382 9.7467 11.7345 9.63657 11.7345H4.91477V13.7857H11.1508C11.2747 13.7857 11.3711 13.8821 11.3711 14.006V17.7366C11.3711 17.8605 11.2747 17.9569 11.1508 17.9569H0.234267C0.110371 17.9569 0.0140068 17.8605 0.0140068 17.7366V2.24965C0.000240621 2.11199 0.0966039 2.01562 0.2205 2.01562Z" fill="#00AD01"/>
<path fill-rule="evenodd" clip-rule="evenodd" d="M39.9361 2.01562H27.4502V2.02939C28.7717 3.08939 29.7216 4.53484 30.1071 6.15925H32.1445V17.6953C32.1445 17.8467 32.2684 17.9706 32.4198 17.9706H36.7699C36.9213 17.9706 37.0452 17.8467 37.0452 17.6953V6.15925H39.9361C40.1288 6.15925 40.294 5.99405 40.294 5.80132V2.37355C40.294 2.18082 40.1426 2.01562 39.9361 2.01562Z" fill="#00AD01"/>
<path fill-rule="evenodd" clip-rule="evenodd" d="M19.08 6.26937V9.77975H21.1862C22.1498 9.77975 22.9483 8.99508 22.9483 8.01768C22.9483 7.05405 22.1636 6.25561 21.1862 6.25561L19.08 6.26937ZM14.4408 2.01562H21.434C24.7654 2.01562 27.4498 4.7138 27.4498 8.03145C27.4498 11.3629 24.7516 14.0473 21.434 14.0473H19.08V17.7366C19.08 17.8743 18.9698 17.9844 18.8322 17.9844H14.427C14.2893 17.9844 14.1792 17.8743 14.1792 17.7366V2.26341C14.2067 2.12575 14.3031 2.01562 14.4408 2.01562Z" fill="#00AD01"/>
</g>
<defs>
<clipPath id="clip0_10805_75942">
<rect width="67" height="20.0986" fill="white" transform="translate(0 -0.0493164)"/>
</clipPath>
</defs>
</svg>
