<svg width="66" height="20" viewBox="0 0 66 20" fill="none" xmlns="http://www.w3.org/2000/svg">
<rect width="65.6663" height="20" rx="10" fill="#231F20"/>
<path d="M50.9623 9.43237V7.65382H53.5869C54.826 7.65382 55.8167 8.33631 56.1171 9.42608L50.9623 9.43237ZM56.3954 6.51215H49.6193C48.484 6.51215 47.6851 7.30629 47.6678 8.4338V9.58963H44.4079V12.3526H41.8368C40.3948 12.3306 39.2075 11.4625 39.2075 9.99377C39.2075 8.56747 40.3586 7.70886 41.7912 7.67269V7.66483H47.0985V6.51687H39.1226C37.5768 6.51687 36.1992 7.89914 35.9114 9.43709H28.5032C28.7611 8.33631 29.7864 7.69628 31.0192 7.66168H31.0586H36.0105V6.51372H28.3475C26.8095 6.51372 25.4351 7.88341 25.1379 9.4135V8.46997C25.1379 7.32516 24.3343 6.51215 23.1864 6.51215H9.27404C7.53323 6.51215 6 8.25768 6 10.0095C6 11.7613 7.53323 13.4943 9.27404 13.4943H11.4536V13.4534C10.2459 13.1216 9.45646 11.8384 9.45646 10.1384C9.45646 8.64452 10.6123 7.67112 12.0826 7.65067H14.4021V13.488H17.7045V8.15861C17.7042 7.98744 17.6782 7.81729 17.6274 7.65382H21.8418V13.488H25.1442V10.6055C25.4414 12.134 26.8158 13.488 28.3538 13.488H36.0184V12.3463H31.0648C29.8272 12.3259 28.7815 11.6843 28.5063 10.5709H35.9051C36.1866 12.1136 37.5705 13.4895 39.1226 13.4895H46.0638C46.4358 13.488 46.7964 13.3612 47.0874 13.1295C47.3785 12.8978 47.5829 12.5748 47.6678 12.2126V13.488H50.9623V10.5693H56.1894C56.0684 12.0507 55.3151 13.1452 54.2175 13.4471V13.488H56.3954C58.1347 13.488 59.6663 11.7582 59.6663 10.0032C59.6663 8.24824 58.1347 6.50586 56.3954 6.50586" fill="#FAFAFA"/>
</svg>
