<svg width="53" height="20" viewBox="0 0 53 20" fill="none" xmlns="http://www.w3.org/2000/svg">
<g clip-path="url(#clip0_10807_75982)">
<path d="M49.0141 2.51843H46.5459V18.3795H49.0141V2.51843Z" fill="#2672FF"/>
<path d="M45.0385 2.51843H42.5654V5.01069H45.0385V2.51843Z" fill="#2672FF"/>
<path d="M53 2.51843H50.5317V5.01069H53V2.51843Z" fill="#2672FF"/>
<path d="M6.02174 10.4706L0.00480203 18.3939H11.5489V15.9257H4.98451L9.12386 10.4706L4.9797 5.01548H11.5489V2.54724H0L6.02174 10.4706Z" fill="#2672FF"/>
<path d="M25.979 18.4132H28.7546L30.128 15.7336H38.9781L40.3371 18.4132H43.1078L34.5506 1.60608L25.979 18.4132ZM37.7152 13.2414H31.3813L34.5506 7.03717L37.7152 13.2414Z" fill="#2672FF"/>
<path d="M20.7062 2.51843L15.2895 10.2257L15.1118 10.4658L20.5573 18.2211L20.6822 18.3939H23.6978L18.1323 10.4706L23.7267 2.51843H20.7062Z" fill="#2672FF"/>
</g>
<defs>
<clipPath id="clip0_10807_75982">
<rect width="53" height="20.1905" fill="white" transform="translate(0 -0.0952148)"/>
</clipPath>
</defs>
</svg>
