<svg width="49" height="20" viewBox="0 0 49 20" fill="none" xmlns="http://www.w3.org/2000/svg">
<path d="M6.91358 16.4115C9.46502 16.4115 9.41564 15.4238 9.41564 15.0617C9.41564 14.4362 9.1358 14.1563 8.34568 13.8436C7.55556 13.5308 6.41975 13.2181 5.00412 12.9218C4.42798 12.7901 3.85185 12.6255 3.29218 12.4444C2.73251 12.2633 2.23868 12.0164 1.8107 11.7037C1.38272 11.4074 1.02058 11.0288 0.773663 10.5679C0.493827 10.1069 0.36214 9.56374 0.36214 8.88884C0.36214 7.91765 0.54321 7.12752 0.921811 6.50201C1.28395 5.8765 1.77778 5.38267 2.38683 5.03699C2.99588 4.69131 3.67078 4.42794 4.41152 4.27979C5.16872 4.13164 5.94239 4.0658 6.73251 4.0658C7.52263 4.0658 8.2963 4.1481 9.03704 4.29625C9.77778 4.4444 10.4527 4.70777 11.0288 5.08637C11.6049 5.44851 12.0988 5.94234 12.4774 6.55139C12.8724 7.16045 13.0864 7.93411 13.1687 8.87238H9.34979C9.28395 8.0658 8.52675 7.40736 6.60082 7.40736C4.55967 7.40736 4.24691 8.19748 4.24691 8.62547C4.24691 9.86003 6.58436 10.2551 7.12757 10.3539C7.67078 10.4691 8.23045 10.6008 8.79012 10.7325C9.36626 10.8806 9.94239 11.0452 10.5021 11.2263C11.0617 11.4238 11.5556 11.6872 11.9835 12C12.4115 12.3292 12.7737 12.7242 13.0206 13.2016C13.284 13.679 13.4156 14.2716 13.4156 14.9629C13.4156 15.9506 13.3498 16.5267 12.9712 17.2016C12.5761 17.8765 12.0823 18.4197 11.4568 18.8312C10.8313 19.2428 10.1235 19.5226 9.31687 19.6872C8.51029 19.8518 7.68724 19.9506 6.8642 19.9506C6.02469 19.9506 5.18519 19.8683 4.3786 19.6872C3.57202 19.5061 2.84774 19.2098 2.20576 18.8148C1.56379 18.4197 1.06996 17.86 0.658436 17.1851C0.246914 16.5267 0.0329218 15.6707 0 14.6666H3.81893C3.83539 15.0946 4.21399 16.4115 6.91358 16.4115Z" fill="#D71440"/>
<path d="M21.9751 8.11523V4.23045H18.5348L18.5513 0L14.436 4.23045V8.09877V12.4774C14.436 12.5761 14.436 12.6749 14.436 12.7737C14.436 16.7407 16.4607 19.8519 21.2509 19.8683V15.9342C21.0862 15.9342 20.971 15.9342 20.9546 15.9342C19.6377 15.9342 18.5513 14.8971 18.5513 13.5967V13.5638V8.11523H21.9751Z" fill="#D71440"/>
<path d="M38.2718 12C38.2718 7.572 34.6834 3.98352 30.2554 3.98352C25.8274 3.98352 22.2554 7.572 22.2554 12C22.2554 16.642 25.5969 20 30.2554 20C32.0167 20 33.4323 19.4897 34.3212 18.288V19.7531H38.2718V12.2304H38.2554C38.2718 12.1646 38.2718 12.0987 38.2718 12ZM30.2554 16.0987C28.0496 16.0987 26.2554 14.2551 26.2554 12C26.2554 9.72838 28.0496 7.90122 30.2554 7.90122C32.4776 7.90122 34.2554 9.74484 34.2554 12C34.2554 14.2551 32.4611 16.0987 30.2554 16.0987Z" fill="#D71440"/>
<path d="M48.5762 4.04944C48.5597 4.04944 48.5597 4.04944 48.5433 4.04944C47.5062 4.04944 45.2511 4.47742 43.9178 5.81076V4.21405H39.8354V19.7696H43.9178V12.1482C43.9178 10.6338 44.4939 9.5803 45.284 8.95479C46.0248 8.34574 47.0124 8.16467 47.7038 8.16467C48.1647 8.16467 48.5103 8.21405 48.5927 8.23051L48.5762 4.04944Z" fill="#D71440"/>
</svg>
