<svg width="48" height="48" viewBox="0 0 48 48" fill="none" xmlns="http://www.w3.org/2000/svg">
<path d="M24 25.9163L17.2928 32.6236C17.0418 32.8745 16.7224 33 16.3346 33C15.9468 33 15.6274 32.8745 15.3764 32.6236C15.1255 32.3726 15 32.0532 15 31.6654C15 31.2776 15.1255 30.9582 15.3764 30.7072L22.0837 24L15.3764 17.2928C15.1255 17.0418 15 16.7224 15 16.3346C15 15.9468 15.1255 15.6274 15.3764 15.3764C15.6274 15.1255 15.9468 15 16.3346 15C16.7224 15 17.0418 15.1255 17.2928 15.3764L24 22.0837L30.7072 15.3764C30.9582 15.1255 31.2776 15 31.6654 15C32.0532 15 32.3726 15.1255 32.6236 15.3764C32.8745 15.6274 33 15.9468 33 16.3346C33 16.7224 32.8745 17.0418 32.6236 17.2928L25.9163 24L32.6236 30.7072C32.8745 30.9582 33 31.2776 33 31.6654C33 32.0532 32.8745 32.3726 32.6236 32.6236C32.3726 32.8745 32.0532 33 31.6654 33C31.2776 33 30.9582 32.8745 30.7072 32.6236L24 25.9163Z" fill="#3F3F46"/>
</svg>
