<svg width="50" height="43" viewBox="0 0 50 43" fill="none" xmlns="http://www.w3.org/2000/svg">
<path fill-rule="evenodd" clip-rule="evenodd" d="M31.9227 23.4261C25.4667 23.4261 20.2212 18.1921 20.2212 11.7361C20.2212 5.2801 25.4667 0 31.9227 0C38.3787 0 43.5781 5.23398 43.5781 11.69C43.5781 18.146 38.3787 23.4261 31.9227 23.4261ZM4.74978 34.5512C2.90521 34.5512 1.78693 32.3031 3.17036 30.7814C4.42698 29.3979 6.99786 30.1934 7.03245 32.2801C7.03245 33.5367 6.0064 34.5512 4.7959 34.5512C4.7959 34.5512 4.7959 34.5512 4.74978 34.5512ZM4.8766 31.5077C3.66609 31.5077 3.91972 33.2254 4.83048 33.1332C6.12169 33.0064 5.77583 31.5077 4.8766 31.5077ZM2.10973 42.7135C1.06063 42.7135 0.207515 41.9065 0.207515 40.8458L0 29.3172C0 28.2566 0.818531 27.4496 1.83305 27.4035L7.59735 27.2882C8.30059 27.2882 8.92314 27.6571 9.25747 28.2105C13.3386 26.2276 15.8403 24.3138 20.8322 25.8241L28.9598 28.2566C30.8159 28.8215 31.4154 30.643 30.7468 32.1994C35.1276 31.231 39.9697 27.6802 44.4312 24.9709C48.57 22.4577 52.3514 28.81 48.2011 31.2656C19.0452 48.5585 22.3424 36.7993 9.62638 41.2839C9.39581 42.0679 8.70409 42.6328 7.83945 42.6328L2.10973 42.7135ZM9.51109 29.6746L9.69555 39.7967C14.111 38.3095 16.6358 38.7707 19.3335 39.2203C23.9564 40.0388 29.2365 40.9726 47.4402 30.0435C49.9649 28.4987 47.6477 24.6597 45.1229 26.193C43.8663 26.9654 42.725 27.6456 41.5837 28.3834C33.4675 33.456 28.5563 36.4995 16.9816 31.058C16.1055 30.6661 16.7856 29.3633 17.5811 29.8014C21.8121 31.7959 25.0632 32.6029 27.9453 32.5222C28.026 32.5222 28.0606 32.4876 28.1413 32.4876C29.5939 32.4876 30.2395 30.1588 28.5102 29.64L20.3826 27.2075C15.7596 25.8356 13.6268 27.7724 9.51109 29.6746ZM7.63193 28.7523L1.86763 28.8676C1.62553 28.8676 1.41802 29.0751 1.41802 29.3172L1.62553 40.8919C1.62553 41.134 1.83305 41.3416 2.07515 41.3416L7.83945 41.2147C8.08155 41.2147 8.28906 41.0072 8.28906 40.7651L8.08155 29.1904C8.08155 28.9483 7.88556 28.7523 7.63193 28.7523ZM31.9227 12.4163C29.4095 12.4163 27.3689 10.3873 27.3689 7.90862C27.3689 5.39538 29.4095 3.36635 31.9227 3.36635C34.4013 3.36635 36.4304 5.39538 36.4304 7.90862C36.4304 10.3873 34.4359 12.4163 31.9227 12.4163ZM31.9227 4.78437C30.2165 4.78437 28.7984 6.1678 28.7984 7.90862C28.7984 9.61485 30.1703 10.9983 31.9227 10.9983C33.6289 10.9983 35.0124 9.61485 35.0124 7.90862C35.0124 6.21391 33.6289 4.78437 31.9227 4.78437ZM39.5546 18.5265C35.4504 13.9381 28.3142 13.9957 24.2562 18.5265C28.3373 23.0918 35.4504 23.1264 39.5546 18.5265ZM23.3569 17.3621C27.9453 12.4624 35.7732 12.4278 40.4308 17.3851C44.927 10.6524 40.1887 1.41802 31.9227 1.41802C23.7028 1.41802 18.8723 10.6063 23.3569 17.3621Z" fill="#52525B"/>
<path fill-rule="evenodd" clip-rule="evenodd" d="M20.3832 27.2082C15.7602 25.8363 13.6274 27.7731 9.51172 29.6753L9.69618 39.7974C14.1116 38.3102 16.6364 38.7714 19.3341 39.221C23.9571 40.0395 29.2372 40.9733 47.4408 30.0442C49.9656 28.4994 47.6483 24.6604 45.1236 26.1937C43.8669 26.9661 42.7256 27.6463 41.5843 28.3841C33.4681 33.4567 28.557 36.5002 16.9823 31.0587C16.1061 30.6668 16.7863 29.364 17.5817 29.8021C21.8127 31.7966 25.0638 32.6036 27.9459 32.5229C28.0266 32.5229 28.0612 32.4883 28.1419 32.4883C29.5945 32.4883 30.2401 30.1595 28.5108 29.6407L20.3832 27.2082Z" fill="#FFBA9F"/>
<path fill-rule="evenodd" clip-rule="evenodd" d="M7.03044 32.2802C7.03044 33.5368 6.0044 34.5513 4.79389 34.5513C4.79389 34.5513 4.79389 34.5513 4.74778 34.5513C2.9032 34.5513 1.78493 32.3032 3.16836 30.7815C4.42498 29.398 6.99586 30.1935 7.03044 32.2802ZM1.41602 29.3173L1.62353 40.8921C1.62353 41.1342 1.83105 41.3417 2.07315 41.3417L7.83744 41.2149C8.07955 41.2149 8.28706 41.0073 8.28706 40.7652L8.07955 29.1905C8.07955 28.9484 7.88356 28.7524 7.62993 28.7524L1.86563 28.8677C1.62353 28.8677 1.41602 29.0752 1.41602 29.3173Z" fill="#FE6F5E"/>
<path fill-rule="evenodd" clip-rule="evenodd" d="M4.87316 31.5068C3.66265 31.5068 3.91628 33.2246 4.82704 33.1324C6.11825 33.0056 5.77239 31.5068 4.87316 31.5068Z" fill="#F2F2F7"/>
<path fill-rule="evenodd" clip-rule="evenodd" d="M24.2578 18.5266C28.3389 23.092 35.4521 23.1265 39.5563 18.5266C35.4521 13.9383 28.3159 13.9959 24.2578 18.5266Z" fill="#FE6F5E"/>
<path fill-rule="evenodd" clip-rule="evenodd" d="M28.8037 7.90892C28.8037 9.61515 30.1756 10.9986 31.928 10.9986C33.6342 10.9986 35.0176 9.61515 35.0176 7.90892C35.0176 6.21421 33.6342 4.78467 31.928 4.78467C30.2217 4.78467 28.8037 6.1681 28.8037 7.90892Z" fill="#FFBA9F"/>
<path fill-rule="evenodd" clip-rule="evenodd" d="M36.4273 7.90906C36.4273 10.3877 34.4328 12.4167 31.9196 12.4167C29.4064 12.4167 27.3658 10.3877 27.3658 7.90906C27.3658 5.39582 29.4064 3.36679 31.9196 3.36679C34.3982 3.36679 36.4273 5.39582 36.4273 7.90906ZM31.9196 1.41846C23.6997 1.41846 18.8692 10.6067 23.3538 17.3625C27.9422 12.4629 35.7701 12.4283 40.4277 17.3856C44.9239 10.6529 40.1856 1.41846 31.9196 1.41846Z" fill="#F2F2F7"/>
</svg>
