<svg width="32" height="32" viewBox="0 0 32 32" fill="none" xmlns="http://www.w3.org/2000/svg">
<rect width="32" height="32" rx="16" fill="#FF5A5F"/>
<path d="M22.8778 20.9454C22.7573 21.8421 22.1539 22.6175 21.3094 22.9621C20.8956 23.1341 20.4473 23.1863 19.9989 23.1341C19.5683 23.0827 19.1368 22.9445 18.6892 22.6866C18.0689 22.3411 17.4478 21.8075 16.7239 21.0145C17.8616 19.618 18.551 18.3429 18.8098 17.2051C18.9303 16.6708 18.948 16.1879 18.8957 15.7396C18.8266 15.3089 18.6716 14.912 18.4305 14.5673C17.8962 13.7919 16.9995 13.3436 15.9999 13.3436C15.0004 13.3436 14.1037 13.8088 13.5694 14.5673C13.3283 14.912 13.1733 15.3089 13.1042 15.7396C13.0351 16.1879 13.0527 16.6877 13.1901 17.2051C13.4489 18.3429 14.1551 19.6357 15.276 21.0314C14.5689 21.8244 13.9318 22.3587 13.3107 22.7034C12.8623 22.9621 12.4316 23.1003 12.001 23.1518C11.5566 23.2016 11.1075 23.1421 10.6913 22.9798C9.84682 22.6351 9.24339 21.859 9.12287 20.9631C9.07145 20.5324 9.106 20.1017 9.27794 19.6188C9.32937 19.4461 9.41615 19.2741 9.50212 19.0676C9.62264 18.792 9.76084 18.4988 9.89824 18.2055L9.91592 18.1709C11.1051 15.6022 12.381 12.982 13.7084 10.4309L13.7598 10.3273C13.898 10.0693 14.0354 9.79293 14.1736 9.53421C14.3118 9.25861 14.4669 8.99989 14.6565 8.77571C15.0189 8.36192 15.501 8.13774 16.0353 8.13774C16.5696 8.13774 17.0525 8.36192 17.4141 8.77571C17.6037 8.99989 17.7588 9.25861 17.897 9.53421C18.0352 9.79293 18.1726 10.0685 18.3108 10.3265L18.363 10.4301C19.6727 12.9981 20.9487 15.6182 22.1378 18.187V18.2039C22.276 18.4795 22.3965 18.7904 22.5339 19.066C22.6199 19.2733 22.7067 19.4453 22.7581 19.6172C22.8955 20.0664 22.9469 20.497 22.8778 20.9454ZM15.9999 20.1347C15.0695 18.9624 14.4661 17.8592 14.2588 16.9287C14.1728 16.5318 14.1551 16.1871 14.2074 15.877C14.2419 15.6014 14.3456 15.3595 14.483 15.153C14.8108 14.6878 15.362 14.3945 15.9999 14.3945C16.6379 14.3945 17.2068 14.6709 17.5169 15.153C17.6551 15.3603 17.758 15.6014 17.7925 15.877C17.844 16.1871 17.8271 16.5495 17.7411 16.9287C17.5346 17.8423 16.9312 18.9455 15.9999 20.1347ZM23.7745 19.2388C23.6886 19.0323 23.6018 18.8081 23.5158 18.6185C23.3776 18.3083 23.2402 18.0151 23.1189 17.7395L23.102 17.7226C21.9128 15.137 20.6369 12.5168 19.2927 9.93113L19.2412 9.82748C19.103 9.56876 18.9656 9.29316 18.8274 9.01757C18.6547 8.70742 18.4827 8.37959 18.2071 8.06945C17.6551 7.37925 16.8621 7 16.0176 7C15.1555 7 14.3801 7.37925 13.8104 8.03409C13.5517 8.34424 13.3621 8.67206 13.1901 8.98221C13.0519 9.25781 12.9145 9.53341 12.7763 9.79213L12.7249 9.89498C11.3976 12.4806 10.1047 15.1008 8.91557 17.6864L8.8987 17.721C8.77817 17.9966 8.63997 18.2898 8.50177 18.6C8.40937 18.8041 8.3234 19.0114 8.24305 19.2203C8.01887 19.8583 7.94977 20.4617 8.03575 21.082C8.22537 22.3748 9.08752 23.4611 10.2767 23.9432C10.725 24.1328 11.1903 24.2188 11.6732 24.2188C11.8114 24.2188 11.9833 24.2019 12.1215 24.1843C12.6904 24.1152 13.2761 23.9263 13.845 23.5985C14.5521 23.2024 15.2238 22.6335 15.9823 21.8059C16.7408 22.6335 17.4302 23.2024 18.1196 23.5985C18.6884 23.9263 19.2742 24.1152 19.843 24.1843C19.9812 24.2019 20.1532 24.2188 20.2914 24.2188C20.7743 24.2188 21.2564 24.1328 21.6879 23.9432C22.8947 23.4603 23.7392 22.3571 23.9288 21.082C24.067 20.4794 23.9979 19.8767 23.7745 19.2388Z" fill="white"/>
</svg>
