<svg width="33" height="32" viewBox="0 0 33 32" fill="none" xmlns="http://www.w3.org/2000/svg">
<g clip-path="url(#clip0_10555_69922)">
<path fill-rule="evenodd" clip-rule="evenodd" d="M32.7198 6.14409C32.7198 2.75321 29.9656 0.000244141 26.5747 0.000244141H6.14506C2.75421 0.000244141 0 2.75321 0 6.14409V25.8561C0 29.2461 2.75421 32 6.14508 32H26.5748C29.9656 32 32.7198 29.2461 32.7198 25.8561L32.7198 6.14409Z" fill="#0C3B7C"/>
<path fill-rule="evenodd" clip-rule="evenodd" d="M0.000976562 19.8799H16.3426V31.9998H0.000988538L0.000976562 19.8799Z" fill="#0C3B7C"/>
<path d="M14.8707 21.1812L12.2354 21.1785V18.0274C12.2354 17.3541 12.4965 17.0037 13.0727 16.9237H14.8707C16.1529 16.9237 16.9824 17.7321 16.9824 19.0406C16.9824 20.3845 16.1739 21.1799 14.8707 21.1812ZM12.2354 12.6819V11.8524C12.2354 11.1267 12.5425 10.7815 13.2157 10.7369H14.5649C15.7211 10.7369 16.4141 11.4285 16.4141 12.5874C16.4141 13.4694 15.939 14.4996 14.6069 14.4996H12.2354V12.6819ZM18.2358 15.8265L17.7594 15.5587L18.1754 15.2031C18.6597 14.787 19.4708 13.8513 19.4708 12.237C19.4708 9.76437 17.5533 8.16977 14.5859 8.16977H11.1998V8.16846H10.814C9.93466 8.20127 9.22989 8.91655 9.2207 9.80113V23.831H14.6528C17.951 23.831 20.0797 22.0356 20.0797 19.2545C20.0797 17.757 19.392 16.4774 18.2358 15.8265Z" fill="white"/>
<path d="M21.4941 21.8929C21.4941 20.8212 22.3585 19.9541 23.4236 19.9541C24.4913 19.9541 25.3597 20.8212 25.3597 21.8929C25.3597 22.9633 24.4913 23.8318 23.4235 23.8318C22.3585 23.8318 21.4941 22.9633 21.4941 21.8929Z" fill="#00BAFC"/>
</g>
<defs>
<clipPath id="clip0_10555_69922">
<rect width="32.7198" height="32" fill="white"/>
</clipPath>
</defs>
</svg>
