<svg width="92" height="20" viewBox="0 0 92 20" fill="none" xmlns="http://www.w3.org/2000/svg">
<g clip-path="url(#clip0_5355_16946)">
<path fill-rule="evenodd" clip-rule="evenodd" d="M20.4499 3.83991C20.4499 1.7206 18.7285 0 16.6092 0H3.84066C1.72138 0 0 1.7206 0 3.83991V16.1599C0 18.2787 1.72138 19.9998 3.84068 19.9998H16.6092C18.7285 19.9998 20.4499 18.2787 20.4499 16.1599L20.4499 3.83991Z" fill="#0C3B7C"/>
<path fill-rule="evenodd" clip-rule="evenodd" d="M0.000488281 12.4248H10.214V19.9997H0.000495766L0.000488281 12.4248Z" fill="#0C3B7C"/>
<path d="M9.29394 13.2384L7.64685 13.2368V11.2673C7.64685 10.8465 7.81008 10.6275 8.17018 10.5775H9.29394C10.0953 10.5775 10.6138 11.0828 10.6138 11.9006C10.6138 12.7405 10.1085 13.2376 9.29394 13.2384ZM7.64685 7.92637V7.40796C7.64685 6.95436 7.83879 6.73862 8.25959 6.71073H9.10282C9.82547 6.71073 10.2586 7.14301 10.2586 7.86731C10.2586 8.41853 9.96164 9.06244 9.12907 9.06244H7.64685V7.92637ZM11.3971 9.89173L11.0994 9.7244L11.3594 9.5021C11.662 9.24207 12.169 8.65723 12.169 7.6483C12.169 6.10292 10.9706 5.10629 9.11594 5.10629H6.99966V5.10547H6.7585C6.20892 5.12598 5.76844 5.57303 5.7627 6.12589V14.8945H9.15778C11.2191 14.8945 12.5496 13.7724 12.5496 12.0343C12.5496 11.0983 12.1198 10.2986 11.3971 9.89173Z" fill="white"/>
<path d="M13.4336 13.6835C13.4336 13.0136 13.9738 12.4717 14.6395 12.4717C15.3068 12.4717 15.8496 13.0136 15.8496 13.6835C15.8496 14.3525 15.3068 14.8952 14.6395 14.8952C13.9738 14.8952 13.4336 14.3525 13.4336 13.6835Z" fill="#00BAFC"/>
</g>
<path d="M29.9497 4.07812H33.3481C34.8221 4.07812 35.9341 4.29167 36.6841 4.71875C37.4341 5.14583 37.8091 5.88281 37.8091 6.92969C37.8091 7.36719 37.731 7.76302 37.5747 8.11719C37.4237 8.46615 37.2023 8.75521 36.9106 8.98438C36.619 9.20833 36.2596 9.35938 35.8325 9.4375V9.51562C36.2752 9.59375 36.6685 9.73177 37.0122 9.92969C37.3612 10.1276 37.6346 10.4115 37.8325 10.7812C38.0356 11.151 38.1372 11.6302 38.1372 12.2188C38.1372 12.9167 37.9705 13.5104 37.6372 14C37.3091 14.4896 36.8377 14.862 36.2231 15.1172C35.6138 15.3724 34.8898 15.5 34.0513 15.5H29.9497V4.07812ZM31.8247 8.78906H33.6216C34.4705 8.78906 35.0591 8.65104 35.3872 8.375C35.7153 8.09896 35.8794 7.69531 35.8794 7.16406C35.8794 6.6224 35.6841 6.23177 35.2935 5.99219C34.908 5.7526 34.2935 5.63281 33.4497 5.63281H31.8247V8.78906ZM31.8247 10.3047V13.9297H33.8013C34.6763 13.9297 35.2909 13.7604 35.645 13.4219C35.9992 13.0833 36.1763 12.625 36.1763 12.0469C36.1763 11.6927 36.0955 11.3854 35.9341 11.125C35.7778 10.8646 35.52 10.6641 35.1606 10.5234C34.8013 10.3776 34.3169 10.3047 33.7075 10.3047H31.8247ZM47.9653 11.1562C47.9653 11.875 47.8716 12.513 47.6841 13.0703C47.4966 13.6276 47.2231 14.099 46.8638 14.4844C46.5044 14.8646 46.0721 15.1562 45.5669 15.3594C45.0617 15.5573 44.4914 15.6562 43.856 15.6562C43.2622 15.6562 42.7179 15.5573 42.2231 15.3594C41.7284 15.1562 41.2987 14.8646 40.9341 14.4844C40.5747 14.099 40.2961 13.6276 40.0981 13.0703C39.9002 12.513 39.8013 11.875 39.8013 11.1562C39.8013 10.2031 39.9653 9.39583 40.2935 8.73438C40.6268 8.06771 41.1007 7.5599 41.7153 7.21094C42.3299 6.86198 43.0617 6.6875 43.9106 6.6875C44.7075 6.6875 45.4106 6.86198 46.02 7.21094C46.6294 7.5599 47.106 8.06771 47.4497 8.73438C47.7935 9.40104 47.9653 10.2083 47.9653 11.1562ZM41.6919 11.1562C41.6919 11.7865 41.7674 12.3255 41.9185 12.7734C42.0747 13.2214 42.3143 13.5651 42.6372 13.8047C42.9601 14.0391 43.3768 14.1562 43.8872 14.1562C44.3976 14.1562 44.8143 14.0391 45.1372 13.8047C45.4601 13.5651 45.6971 13.2214 45.8481 12.7734C45.9992 12.3255 46.0747 11.7865 46.0747 11.1562C46.0747 10.526 45.9992 9.99219 45.8481 9.55469C45.6971 9.11198 45.4601 8.77604 45.1372 8.54688C44.8143 8.3125 44.395 8.19531 43.8794 8.19531C43.119 8.19531 42.5643 8.45052 42.2153 8.96094C41.8664 9.47135 41.6919 10.2031 41.6919 11.1562ZM57.731 11.1562C57.731 11.875 57.6372 12.513 57.4497 13.0703C57.2622 13.6276 56.9888 14.099 56.6294 14.4844C56.27 14.8646 55.8377 15.1562 55.3325 15.3594C54.8273 15.5573 54.257 15.6562 53.6216 15.6562C53.0278 15.6562 52.4836 15.5573 51.9888 15.3594C51.494 15.1562 51.0643 14.8646 50.6997 14.4844C50.3403 14.099 50.0617 13.6276 49.8638 13.0703C49.6659 12.513 49.5669 11.875 49.5669 11.1562C49.5669 10.2031 49.731 9.39583 50.0591 8.73438C50.3924 8.06771 50.8664 7.5599 51.481 7.21094C52.0955 6.86198 52.8273 6.6875 53.6763 6.6875C54.4731 6.6875 55.1763 6.86198 55.7856 7.21094C56.395 7.5599 56.8716 8.06771 57.2153 8.73438C57.5591 9.40104 57.731 10.2083 57.731 11.1562ZM51.4575 11.1562C51.4575 11.7865 51.533 12.3255 51.6841 12.7734C51.8403 13.2214 52.0799 13.5651 52.4028 13.8047C52.7257 14.0391 53.1424 14.1562 53.6528 14.1562C54.1632 14.1562 54.5799 14.0391 54.9028 13.8047C55.2257 13.5651 55.4627 13.2214 55.6138 12.7734C55.7648 12.3255 55.8403 11.7865 55.8403 11.1562C55.8403 10.526 55.7648 9.99219 55.6138 9.55469C55.4627 9.11198 55.2257 8.77604 54.9028 8.54688C54.5799 8.3125 54.1606 8.19531 53.645 8.19531C52.8846 8.19531 52.3299 8.45052 51.981 8.96094C51.632 9.47135 51.4575 10.2031 51.4575 11.1562ZM61.6763 3.34375V9.21875C61.6763 9.48438 61.6659 9.77604 61.645 10.0938C61.6242 10.4062 61.6034 10.7005 61.5825 10.9766H61.6216C61.757 10.7943 61.9185 10.5807 62.106 10.3359C62.2987 10.0911 62.481 9.8776 62.6528 9.69531L65.2935 6.85156H67.4028L63.9419 10.5703L67.6294 15.5H65.4731L62.7075 11.7031L61.6763 12.5859V15.5H59.8403V3.34375H61.6763ZM70.8481 6.85156V15.5H69.0122V6.85156H70.8481ZM69.9419 3.53906C70.2231 3.53906 70.4653 3.61458 70.6685 3.76562C70.8768 3.91667 70.981 4.17708 70.981 4.54688C70.981 4.91146 70.8768 5.17188 70.6685 5.32812C70.4653 5.47917 70.2231 5.55469 69.9419 5.55469C69.6502 5.55469 69.4028 5.47917 69.1997 5.32812C69.0018 5.17188 68.9028 4.91146 68.9028 4.54688C68.9028 4.17708 69.0018 3.91667 69.1997 3.76562C69.4028 3.61458 69.6502 3.53906 69.9419 3.53906ZM77.9888 6.6875C78.9627 6.6875 79.7205 6.9401 80.2622 7.44531C80.8091 7.94531 81.0825 8.75 81.0825 9.85938V15.5H79.2466V10.2031C79.2466 9.53125 79.1086 9.02865 78.8325 8.69531C78.5565 8.35677 78.1294 8.1875 77.5513 8.1875C76.7127 8.1875 76.1294 8.44531 75.8013 8.96094C75.4784 9.47656 75.3169 10.224 75.3169 11.2031V15.5H73.481V6.85156H74.9106L75.1685 8.02344H75.27C75.4575 7.72135 75.6893 7.47396 75.9653 7.28125C76.2466 7.08333 76.5591 6.9349 76.9028 6.83594C77.2518 6.73698 77.6138 6.6875 77.9888 6.6875ZM86.1216 19.3438C84.9497 19.3438 84.0513 19.1328 83.4263 18.7109C82.8013 18.2891 82.4888 17.6979 82.4888 16.9375C82.4888 16.4062 82.6554 15.9557 82.9888 15.5859C83.3221 15.2214 83.7987 14.9688 84.4185 14.8281C84.1841 14.724 83.981 14.5625 83.8091 14.3438C83.6424 14.1198 83.5591 13.8724 83.5591 13.6016C83.5591 13.2786 83.6502 13.0026 83.8325 12.7734C84.0148 12.5443 84.2882 12.3229 84.6528 12.1094C84.1997 11.9167 83.8351 11.6042 83.5591 11.1719C83.2882 10.7344 83.1528 10.2214 83.1528 9.63281C83.1528 9.00781 83.2856 8.47656 83.5513 8.03906C83.8169 7.59635 84.2049 7.26042 84.7153 7.03125C85.2257 6.79688 85.8429 6.67969 86.5669 6.67969C86.7231 6.67969 86.8924 6.6901 87.0747 6.71094C87.2622 6.72656 87.4341 6.7474 87.5903 6.77344C87.7518 6.79427 87.8742 6.81771 87.9575 6.84375H90.9497V7.86719L89.481 8.14062C89.6216 8.33854 89.7336 8.5651 89.8169 8.82031C89.9002 9.07031 89.9419 9.34375 89.9419 9.64062C89.9419 10.5365 89.632 11.2422 89.0122 11.7578C88.3976 12.2682 87.5487 12.5234 86.4653 12.5234C86.2049 12.513 85.9523 12.4922 85.7075 12.4609C85.52 12.5755 85.3768 12.7031 85.2778 12.8438C85.1789 12.9792 85.1294 13.1328 85.1294 13.3047C85.1294 13.4453 85.1789 13.5599 85.2778 13.6484C85.3768 13.7318 85.5226 13.7943 85.7153 13.8359C85.9132 13.8776 86.1528 13.8984 86.4341 13.8984H87.9263C88.8742 13.8984 89.5981 14.099 90.0981 14.5C90.5981 14.901 90.8481 15.4896 90.8481 16.2656C90.8481 17.25 90.4419 18.0078 89.6294 18.5391C88.8169 19.0755 87.6476 19.3438 86.1216 19.3438ZM86.1919 18.0547C86.8325 18.0547 87.3716 17.9922 87.8091 17.8672C88.2466 17.7422 88.5773 17.5625 88.8013 17.3281C89.0252 17.099 89.1372 16.8255 89.1372 16.5078C89.1372 16.2266 89.0669 16.0104 88.9263 15.8594C88.7856 15.7083 88.5747 15.6042 88.2935 15.5469C88.0122 15.4896 87.6632 15.4609 87.2466 15.4609H85.8872C85.5487 15.4609 85.2492 15.513 84.9888 15.6172C84.7284 15.7266 84.5252 15.8828 84.3794 16.0859C84.2388 16.2891 84.1685 16.5339 84.1685 16.8203C84.1685 17.2161 84.3429 17.5208 84.6919 17.7344C85.0461 17.9479 85.5461 18.0547 86.1919 18.0547ZM86.5513 11.3203C87.0877 11.3203 87.4862 11.1745 87.7466 10.8828C88.007 10.5859 88.1372 10.1693 88.1372 9.63281C88.1372 9.04948 88.0018 8.61198 87.731 8.32031C87.4653 8.02865 87.0695 7.88281 86.5435 7.88281C86.0278 7.88281 85.6346 8.03125 85.3638 8.32812C85.0981 8.625 84.9653 9.0651 84.9653 9.64844C84.9653 10.1745 85.0981 10.5859 85.3638 10.8828C85.6346 11.1745 86.0304 11.3203 86.5513 11.3203Z" fill="#27272A"/>
<defs>
<clipPath id="clip0_5355_16946">
<rect width="20.4499" height="20" fill="white"/>
</clipPath>
</defs>
</svg>
