<svg width="95" height="32" viewBox="0 0 95 32" fill="none" xmlns="http://www.w3.org/2000/svg">
<path fill-rule="evenodd" clip-rule="evenodd" d="M6.44599 31.6371V26.0027H0.203857V19.6167H6.45592V0.0947266H40.1037V19.2827H39.9412L39.3994 19.2778H33.9584V26.9316H21.8921V31.6371H6.44599Z" fill="#FF8600"/>
<path fill-rule="evenodd" clip-rule="evenodd" d="M14.3764 10.4203C14.3696 10.4708 14.4053 10.5172 14.4561 10.5239C14.4646 10.525 14.4732 10.525 14.4817 10.5237H15.5888C15.7992 10.5319 16.0014 10.4422 16.1355 10.2806C16.4039 9.95802 16.4039 9.49127 16.1355 9.16869C16.0035 9.00394 15.8006 8.91138 15.5888 8.91923H14.4817C14.4115 8.91923 14.3764 8.95551 14.3764 9.029V10.4203ZM14.3764 7.33103C14.3694 7.38078 14.4044 7.42678 14.4546 7.43351C14.4634 7.43482 14.4727 7.43463 14.4817 7.43332H15.5888C15.7733 7.43314 15.9499 7.35833 16.0778 7.22631C16.2138 7.10233 16.2911 6.9273 16.2911 6.74385C16.2918 6.56208 16.2142 6.38873 16.0778 6.26756C15.9488 6.1374 15.7727 6.06429 15.5888 6.06447H14.4817C14.4115 6.06447 14.3764 6.10187 14.3764 6.17406V7.33103ZM12.9004 11.8004V4.79418C12.9012 4.7377 12.9253 4.68403 12.967 4.6457C13.0067 4.60568 13.0607 4.58286 13.1175 4.58212H15.6717C15.9625 4.5795 16.2508 4.63709 16.5181 4.75173C16.7718 4.86224 17.0021 5.02026 17.1964 5.21661C17.3893 5.41558 17.5419 5.64971 17.6453 5.90608C17.7557 6.17331 17.8118 6.45979 17.8095 6.7489C17.8061 7.00004 17.7507 7.248 17.6465 7.47689C17.5522 7.70522 17.4129 7.91261 17.2366 8.08652C17.1638 8.15515 17.1638 8.21985 17.2366 8.27857C17.3286 8.35973 17.4087 8.45323 17.4747 8.55645C17.546 8.66659 17.6056 8.78347 17.6529 8.90558C17.7036 9.03704 17.7428 9.17262 17.7695 9.31063C17.7954 9.4477 17.809 9.58664 17.8095 9.72596C17.8142 10.0465 17.7623 10.3655 17.6566 10.6684C17.5629 10.9385 17.4119 11.1855 17.2139 11.3927C17.0188 11.5935 16.7828 11.7508 16.5219 11.854C16.236 11.9659 15.9311 12.0214 15.6239 12.0173H13.1137C13.0575 12.0169 13.0039 11.9935 12.9657 11.9524C12.9234 11.9131 12.8997 11.858 12.9004 11.8004Z" fill="#2A292E"/>
<path fill-rule="evenodd" clip-rule="evenodd" d="M24.5984 7.52092C24.5821 7.77019 24.5746 8.03087 24.5746 8.2938C24.5746 8.55691 24.5746 8.81871 24.5945 9.07434C24.6146 9.32978 24.631 9.57307 24.6637 9.7898C24.6872 10.0191 24.7905 10.2328 24.9556 10.3946C25.1238 10.5616 25.3707 10.6438 25.6982 10.6438C26.0253 10.6438 26.2736 10.5616 26.443 10.3946C26.6095 10.2336 26.7143 10.0196 26.7389 9.7898C26.7664 9.57176 26.7852 9.3324 26.7966 9.07546C26.8077 8.81871 26.8117 8.55952 26.8104 8.2938C26.8091 8.02825 26.8104 7.77412 26.7953 7.52092C26.7803 7.26791 26.7664 7.02985 26.7389 6.8004C26.7148 6.57151 26.6099 6.35871 26.443 6.19957C26.2756 6.03314 26.0275 5.95011 25.6982 5.95011C25.427 5.93066 25.1593 6.02061 24.9556 6.19957C24.7914 6.35964 24.6882 6.5717 24.6637 6.7991C24.6351 7.02929 24.6133 7.26996 24.5984 7.52092ZM23.1212 9.07434C23.1062 8.81871 23.0986 8.55952 23.0986 8.2938C23.0986 8.02825 23.1062 7.77412 23.1212 7.52223C23.1364 7.27034 23.1577 7.03359 23.1852 6.80527C23.2194 6.49335 23.304 6.1891 23.4359 5.90411C23.5625 5.62604 23.7379 5.37284 23.9539 5.1561C24.1728 4.9403 24.4311 4.76808 24.7149 4.64858C25.3493 4.40099 26.0543 4.40099 26.6887 4.64858C26.9733 4.76752 27.2321 4.93974 27.451 5.1561C27.6669 5.37246 27.842 5.62585 27.9677 5.90411C28.0973 6.18985 28.1819 6.49391 28.2184 6.80527C28.246 7.03397 28.2649 7.27277 28.2748 7.52223C28.285 7.7715 28.2899 8.02881 28.2899 8.2938C28.2899 8.55896 28.285 8.81871 28.2748 9.07303C28.2649 9.3223 28.246 9.56297 28.2184 9.78494C28.1851 10.097 28.1005 10.4015 27.9677 10.6863C27.8413 10.9644 27.666 11.2177 27.4497 11.4343C27.2326 11.6525 26.9746 11.8262 26.6898 11.9454C26.0546 12.1931 25.3489 12.1931 24.7137 11.9454C24.429 11.8259 24.1704 11.6523 23.9526 11.4343C23.7364 11.2177 23.561 10.9644 23.4347 10.6863C23.3029 10.4011 23.2183 10.0967 23.1838 9.78494C23.1573 9.56709 23.1364 9.33034 23.1212 9.07434Z" fill="#2A292E"/>
<path fill-rule="evenodd" clip-rule="evenodd" d="M12.6472 22.8924L14.2172 19.3569C14.2345 19.3221 14.2452 19.2845 14.2484 19.2458C14.2454 19.2028 14.2347 19.1607 14.2172 19.1213L12.8302 16.0519C12.7928 15.9866 12.7928 15.9066 12.8302 15.8411C12.8641 15.7822 12.9286 15.7469 12.9971 15.7502H14.2022C14.2857 15.7502 14.3534 15.8039 14.4051 15.911L15.2917 18.1102C15.3055 18.1375 15.323 18.1511 15.3431 18.1511H15.3643C15.3854 18.1511 15.4029 18.1375 15.4172 18.1102L16.3035 15.911C16.3304 15.8202 16.4116 15.7558 16.5068 15.7502H17.7168C17.7841 15.7489 17.8467 15.7837 17.881 15.8411C17.9216 15.9051 17.9244 15.9855 17.8885 16.0519L16.4966 19.1312C16.4793 19.1708 16.4688 19.2127 16.4654 19.2559C16.469 19.2952 16.4797 19.3337 16.4966 19.3693L18.0666 22.895C18.0822 22.929 18.0907 22.966 18.0916 23.0034C18.0933 23.0388 18.0822 23.0737 18.0604 23.1018C18.0275 23.1588 17.9658 23.1932 17.8998 23.1916H16.6371C16.5329 23.1996 16.4381 23.1315 16.4128 23.0307L15.4172 20.515C15.4037 20.4877 15.3862 20.4737 15.3643 20.4737H15.3431C15.3232 20.4737 15.3055 20.4877 15.2917 20.515L14.2949 23.0307C14.2695 23.1315 14.1747 23.1996 14.0703 23.1916H12.8165C12.7479 23.1917 12.6845 23.1557 12.6497 23.0969C12.629 23.0668 12.6179 23.0311 12.6184 22.9946C12.6198 22.9587 12.6297 22.9238 12.6472 22.8924Z" fill="#2A292E"/>
<path fill-rule="evenodd" clip-rule="evenodd" d="M24.0225 20.0044V18.9409C24.0228 18.885 24.0452 18.8313 24.0853 18.7915C24.1237 18.7492 24.1784 18.7257 24.2358 18.7266H27.1511C27.2685 18.73 27.3629 18.824 27.3654 18.9409V20.0044C27.3652 20.0605 27.3415 20.1138 27.3003 20.1515C27.2614 20.1921 27.2076 20.2151 27.1511 20.2151H24.2358C24.1797 20.2149 24.1263 20.1919 24.0877 20.1515C24.0458 20.1141 24.0221 20.0605 24.0225 20.0044Z" fill="#2A292E"/>
<path fill-rule="evenodd" clip-rule="evenodd" d="M34.2415 18.0565V16.2655L34.2906 16.316L36.564 18.6586L36.9073 19.012H35.1695L34.8259 18.6586L34.2906 18.1069L34.2415 18.0565ZM33.068 26.1689H7.37645V1.21551H32.6986V1.21887H33.068V26.1689ZM7.36667 30.7845H21.191V27.4497H7.36667V30.7845ZM34.2415 13.0243L34.2906 13.0747L39.1128 18.0434L39.2446 18.1789V19.012H38.317L37.9737 18.6586L34.2906 14.8645L34.2415 14.814V13.0243ZM34.2415 9.78221L34.2906 9.8327L39.1128 14.8019L39.2446 14.9376V16.7258L39.1128 16.59L34.2906 11.6238L34.2415 11.5733V9.78221ZM34.2415 6.54074L34.2906 6.59141L39.1128 11.5598L39.2446 11.6956V13.4843L39.1128 13.3485L34.2906 8.38139L34.2415 8.33071V6.54074ZM34.2415 3.2987L34.2906 3.34938L39.1128 8.31781L39.2446 8.45338V10.2422L39.1128 10.1065L34.2906 5.13973L34.2415 5.08923V3.2987ZM34.2415 1.10162H35.2549L35.3689 1.21887L39.1128 5.07633L39.2446 5.21209V7.00076L39.1128 6.865L34.2906 1.89769L34.2415 1.84701V1.10162ZM36.6659 1.10162H38.4007L38.5148 1.21887L39.1128 1.83504L39.2446 1.9708V3.75835L39.1128 3.62259L36.7799 1.21887L36.6659 1.10162ZM1.22257 25.2579H6.14409V20.3646H1.22257V25.2579ZM34.2906 0H34.2185H6.15387V19.1491H0V26.4734H6.14409V32H22.4137V27.3844H34.2906V19.8767H39.1128V19.8818H40.3359V19.8767H40.3393V0H34.2906Z" fill="#2A292E"/>
<path d="M54.2144 8.72266H58.4624C60.3049 8.72266 61.6948 8.98958 62.6323 9.52344C63.5698 10.0573 64.0386 10.9785 64.0386 12.2871C64.0386 12.834 63.9409 13.3288 63.7456 13.7715C63.5568 14.2077 63.2801 14.569 62.9155 14.8555C62.5509 15.1354 62.1017 15.3242 61.5679 15.4219V15.5195C62.1213 15.6172 62.6128 15.7897 63.0425 16.0371C63.4787 16.2845 63.8205 16.6393 64.0679 17.1016C64.3218 17.5638 64.4487 18.1628 64.4487 18.8984C64.4487 19.7708 64.2404 20.513 63.8237 21.125C63.4136 21.737 62.8244 22.2025 62.0562 22.5215C61.2944 22.8405 60.3895 23 59.3413 23H54.2144V8.72266ZM56.5581 14.6113H58.8042C59.8654 14.6113 60.6011 14.4388 61.0112 14.0938C61.4214 13.7487 61.6265 13.2441 61.6265 12.5801C61.6265 11.903 61.3823 11.4147 60.894 11.1152C60.4123 10.8158 59.644 10.666 58.5894 10.666H56.5581V14.6113ZM56.5581 16.5059V21.0371H59.0288C60.1226 21.0371 60.8908 20.8255 61.3335 20.4023C61.7762 19.9792 61.9976 19.4062 61.9976 18.6836C61.9976 18.2409 61.8966 17.8568 61.6948 17.5312C61.4995 17.2057 61.1772 16.9551 60.728 16.7793C60.2788 16.597 59.6733 16.5059 58.9116 16.5059H56.5581ZM80.0737 15.8418C80.0737 16.9421 79.9338 17.9447 79.6538 18.8496C79.3804 19.748 78.967 20.5228 78.4136 21.1738C77.8602 21.8184 77.1668 22.3164 76.3335 22.668C75.5002 23.0195 74.5236 23.1953 73.4038 23.1953C72.2645 23.1953 71.2749 23.0195 70.4351 22.668C69.6017 22.3164 68.9084 21.8151 68.355 21.1641C67.8081 20.513 67.3979 19.735 67.1245 18.8301C66.8511 17.9251 66.7144 16.9225 66.7144 15.8223C66.7144 14.3509 66.9552 13.0684 67.437 11.9746C67.9253 10.8743 68.6642 10.0215 69.6538 9.41602C70.6499 8.80404 71.9064 8.49805 73.4233 8.49805C74.9077 8.49805 76.1414 8.80078 77.1245 9.40625C78.1076 10.0117 78.8433 10.8646 79.3315 11.9648C79.8263 13.0586 80.0737 14.3509 80.0737 15.8418ZM69.1753 15.8418C69.1753 16.9421 69.325 17.8958 69.6245 18.7031C69.924 19.5039 70.383 20.1224 71.0015 20.5586C71.6265 20.9883 72.4272 21.2031 73.4038 21.2031C74.3869 21.2031 75.1877 20.9883 75.8062 20.5586C76.4246 20.1224 76.8804 19.5039 77.1733 18.7031C77.4663 17.8958 77.6128 16.9421 77.6128 15.8418C77.6128 14.1686 77.2775 12.86 76.6069 11.916C75.9429 10.9655 74.8817 10.4902 73.4233 10.4902C72.4468 10.4902 71.6427 10.7051 71.0112 11.1348C70.3862 11.5645 69.924 12.1797 69.6245 12.9805C69.325 13.7747 69.1753 14.7285 69.1753 15.8418ZM93.6772 23H91.0112L87.4175 17.1504L83.8042 23H81.2944L86.0405 15.5977L81.6167 8.72266H84.2046L87.5249 14.1328L90.8257 8.72266H93.3354L88.8921 15.666L93.6772 23Z" fill="#18181B"/>
</svg>
