<svg width="40" height="40" viewBox="0 0 40 40" fill="none" xmlns="http://www.w3.org/2000/svg">
<circle cx="20" cy="20" r="20" fill="#101C50"/>
<path d="M25.5138 21.8655C25.1447 21.9501 24.1733 21.9988 24.1733 21.9988L24.0503 22.3833C24.0503 22.3833 24.5347 22.3423 24.8884 22.3781C24.8884 22.3781 25.0037 22.3653 25.0165 22.5089C25.0217 22.6421 25.0063 22.7857 25.0063 22.7857C25.0063 22.7857 24.9986 22.8728 24.8756 22.8933C24.7423 22.9164 23.8298 22.9497 23.8298 22.9497L23.6812 23.4495C23.6812 23.4495 23.6274 23.5648 23.7504 23.5315C23.8657 23.5008 24.8217 23.3213 24.9473 23.347C25.0806 23.3803 25.2293 23.5571 25.1857 23.7212C25.1344 23.9211 24.181 24.5311 23.5992 24.4875C23.5992 24.4875 23.2942 24.508 23.0353 24.0954C22.7944 23.7032 23.1276 22.9574 23.1276 22.9574C23.1276 22.9574 22.9763 22.6088 23.0866 22.4935C23.0866 22.4935 23.1532 22.4345 23.3429 22.4192L23.5761 21.9347C23.5761 21.9347 23.3095 21.9527 23.1506 21.7579C23.002 21.5708 22.9917 21.4862 23.1045 21.4349C23.225 21.376 24.3348 21.1735 25.0986 21.1991C25.0986 21.1991 25.3651 21.1735 25.5932 21.6349C25.5907 21.6349 25.7034 21.822 25.5138 21.8655ZM22.6406 23.7263C22.5432 23.957 22.2843 24.203 21.9639 24.0493C21.6461 23.8955 21.1412 22.8626 21.1412 22.8626C21.1412 22.8626 20.949 22.4781 20.9131 22.4858C20.9131 22.4858 20.8721 22.4115 20.8464 22.8318C20.8208 23.2521 20.8516 24.0698 20.685 24.1979C20.5261 24.3261 20.3338 24.2748 20.2339 24.1236C20.1442 23.9749 20.1057 23.6212 20.1544 23.001C20.2134 22.3807 20.3569 21.7194 20.5414 21.5118C20.726 21.3068 20.8746 21.4554 20.931 21.5093C20.931 21.5093 21.1771 21.7323 21.5846 22.3884L21.6564 22.5089C21.6564 22.5089 22.0255 23.1291 22.0639 23.1266C22.0639 23.1266 22.0947 23.1547 22.1203 23.1342C22.1587 23.124 22.1434 22.9241 22.1434 22.9241C22.1434 22.9241 22.0665 22.25 21.7307 21.1069C21.7307 21.1069 21.6794 20.9633 21.7153 20.8301C21.7486 20.6942 21.8845 20.7583 21.8845 20.7583C21.8845 20.7583 22.4073 21.0197 22.6585 21.8707C22.9071 22.7293 22.738 23.4956 22.6406 23.7263ZM20.0724 21.54C20.0288 21.6272 20.0032 21.7528 19.7828 21.7861C19.7828 21.7861 17.6734 21.9296 17.5734 22.0783C17.5734 22.0783 17.4991 22.1654 17.6144 22.191C17.7298 22.2141 18.2065 22.2782 18.4372 22.291C18.6832 22.2936 19.5137 22.3013 19.811 22.6729C19.811 22.6729 19.9878 22.8497 19.9801 23.2496C19.9724 23.6597 19.9007 23.8032 19.7418 23.9519C19.5752 24.0903 18.145 24.731 17.2223 23.7468C17.2223 23.7468 16.7968 23.2726 17.3684 22.9138C17.3684 22.9138 17.781 22.6652 18.8293 22.9574C18.8293 22.9574 19.1471 23.0727 19.1318 23.1881C19.1138 23.3111 18.8703 23.4418 18.5166 23.4341C18.1732 23.4239 17.922 23.2598 17.9707 23.2855C18.0168 23.3034 17.6016 23.0855 17.4735 23.2342C17.3453 23.37 17.3761 23.4546 17.5017 23.5392C17.822 23.7212 19.06 23.6571 19.4291 23.247C19.4291 23.247 19.5752 23.0804 19.3522 22.9446C19.1292 22.8164 18.491 22.7395 18.2424 22.7267C18.004 22.7139 17.1172 22.7293 16.9891 22.4935C16.9891 22.4935 16.8609 22.3346 17.0019 21.8835C17.1505 21.4119 18.1834 21.2299 18.6294 21.1889C18.6294 21.1889 19.8571 21.1453 20.0827 21.3965C20.0801 21.3965 20.1109 21.4554 20.0724 21.54ZM16.5867 24.3056C16.438 24.4158 16.1227 24.3671 16.033 24.244C15.9433 24.1338 15.9126 23.6956 15.9305 23.0087C15.9485 22.3141 15.9638 21.4529 16.1125 21.317C16.2714 21.1786 16.3688 21.2991 16.4303 21.3939C16.497 21.4862 16.5764 21.5887 16.5943 21.8066C16.6097 22.0244 16.661 23.1676 16.661 23.1676C16.661 23.1676 16.7276 24.1979 16.5867 24.3056ZM16.907 20.6199C16.4739 20.7634 16.1766 20.7147 15.9254 20.6071C15.8152 20.7993 15.7511 20.8583 15.6665 20.8711C15.5435 20.8839 15.4333 20.6865 15.4128 20.6225C15.3923 20.5738 15.3333 20.4917 15.4051 20.2969C15.159 20.0765 15.1411 19.7792 15.1821 19.5793C15.2436 19.3486 15.6588 18.4721 16.9224 18.3695C16.9224 18.3695 17.5401 18.3234 17.6452 18.654H17.6631C17.6631 18.654 18.2629 18.6566 18.2501 19.1897C18.2424 19.7254 17.5837 20.3918 16.907 20.6199ZM15.728 19.4332C15.5999 19.6382 15.5948 19.7613 15.6537 19.8458C15.7998 19.6229 16.0664 19.2717 16.4585 19.0052C16.1561 19.0308 15.9023 19.1615 15.728 19.4332ZM17.4735 19.0897C17.0762 19.1487 16.4611 19.6818 16.1689 20.1175C16.6174 20.1995 17.4094 20.1688 17.7605 19.4537C17.758 19.4537 17.9271 19.0103 17.4735 19.0897ZM28.2588 23.2188C28.0204 23.634 27.3515 24.5003 26.4595 24.2979C26.1648 25.013 25.9187 25.7332 25.7778 26.8148C25.7778 26.8148 25.747 27.025 25.5727 26.9506C25.401 26.8891 25.1139 26.6021 25.0575 26.2048C24.996 25.6819 25.2293 24.7977 25.7034 23.7853C25.565 23.5597 25.4702 23.2368 25.5522 22.778C25.5522 22.778 25.6727 21.927 26.5262 21.1581C26.5262 21.1581 26.6287 21.0684 26.6876 21.0966C26.7543 21.1248 26.7235 21.4016 26.6697 21.5349C26.6159 21.6682 26.234 22.3294 26.234 22.3294C26.234 22.3294 25.9956 22.7754 26.0623 23.1266C26.5108 22.4371 27.5309 21.0454 28.164 21.4836C28.3767 21.6349 28.4741 21.9655 28.4741 22.3218C28.4715 22.637 28.3972 22.9702 28.2588 23.2188ZM28.0743 22.127C28.0743 22.127 28.0384 21.8527 27.7718 22.1552C27.5411 22.4089 27.1259 22.8882 26.7902 23.5366C27.1413 23.4982 27.4796 23.306 27.5821 23.2086C27.7487 23.0599 28.1358 22.6601 28.0743 22.127ZM15.6306 22.4755C15.5819 23.0958 15.3436 24.139 13.6545 24.6541C12.5396 24.9899 11.4862 24.8284 10.9121 24.6823C10.8992 24.9104 10.8736 25.0078 10.8377 25.0463C10.789 25.095 10.4251 25.3051 10.2252 25.0078C10.1355 24.8669 10.0893 24.6106 10.0637 24.3825C8.77191 23.7878 8.17728 22.9318 8.15422 22.8933C8.12602 22.8651 7.83127 22.5576 8.12602 22.1808C8.40283 21.8399 9.30759 21.499 10.1226 21.3606C10.1508 20.6635 10.2329 20.138 10.3302 19.8971C10.4481 19.6177 10.5968 19.8689 10.725 20.0586C10.8326 20.1995 10.8967 20.807 10.9018 21.2914C11.4349 21.2658 11.7502 21.3042 12.3448 21.4119C13.1188 21.5528 13.6366 21.9476 13.5904 22.3961C13.5571 22.8369 13.1522 23.0189 12.9984 23.0317C12.8369 23.0445 12.5857 22.9292 12.5857 22.9292C12.414 22.8472 12.5729 22.7754 12.7805 22.6857C13.0061 22.5755 12.9548 22.4627 12.9548 22.4627C12.8702 22.2167 11.8655 22.0449 10.8659 22.0449C10.8608 22.596 10.889 23.511 10.9018 24.0441C11.6015 24.1774 12.1244 24.1518 12.1244 24.1518C12.1244 24.1518 14.6772 24.08 14.7541 22.4499C14.8335 20.8172 12.209 19.2512 10.2687 18.754C8.33107 18.2465 7.23408 18.6002 7.13925 18.6489C7.03673 18.7002 7.13156 18.7155 7.13156 18.7155C7.13156 18.7155 7.23664 18.7309 7.41862 18.7924C7.61085 18.8539 7.46219 18.9539 7.46219 18.9539C7.13156 19.059 6.75992 18.9924 6.68815 18.8411C6.61638 18.6899 6.73685 18.5541 6.87525 18.3593C7.01366 18.1542 7.16488 18.1619 7.16488 18.1619C9.56133 17.3315 12.4806 18.8334 12.4806 18.8334C15.2154 20.2201 15.6819 21.845 15.6306 22.4755ZM8.39771 22.391C8.12602 22.5242 8.31313 22.7165 8.31313 22.7165C8.82317 23.265 9.45112 23.6084 10.0483 23.8211C10.1175 22.8754 10.1073 22.5422 10.115 22.0655C9.182 22.1295 8.64376 22.2782 8.39771 22.391Z" fill="white"/>
<path d="M33.3342 22.1961V22.5344C33.3342 22.6087 33.2752 22.6677 33.2009 22.6677H31.5887C31.5887 22.7523 31.5913 22.8266 31.5913 22.8958C31.5913 23.3956 31.5708 23.8031 31.5221 24.2619C31.5144 24.3311 31.458 24.3824 31.3914 24.3824H31.0428C31.0069 24.3824 30.9736 24.367 30.9505 24.3414C30.9275 24.3157 30.9146 24.2799 30.9198 24.244C30.9685 23.7878 30.9915 23.3854 30.9915 22.8958C30.9915 22.824 30.9915 22.7497 30.989 22.6677H29.3948C29.3204 22.6677 29.2615 22.6087 29.2615 22.5344V22.1961C29.2615 22.1218 29.3204 22.0628 29.3948 22.0628H30.9659C30.9326 21.5118 30.8659 20.9812 30.7583 20.443C30.7532 20.4097 30.7609 20.3763 30.7814 20.3507C30.8019 20.3251 30.8326 20.3097 30.8659 20.3097H31.2427C31.3017 20.3097 31.3504 20.3507 31.3632 20.4097C31.4683 20.9658 31.5349 21.5066 31.5682 22.0628H33.2009C33.2727 22.0628 33.3342 22.1243 33.3342 22.1961Z" fill="white"/>
<path d="M31.1397 19.5125C30.3067 17.4646 28.8996 15.7192 27.0696 14.4633C25.196 13.1792 22.9994 12.5 20.7183 12.5C16.9455 12.5 13.4444 14.3736 11.3555 17.5133C11.3324 17.5466 11.3273 17.5902 11.3401 17.6287C11.3529 17.6697 11.3837 17.6979 11.4221 17.7107L11.7143 17.8106C11.7323 17.8158 11.7502 17.8183 11.7656 17.8183C11.8194 17.8183 11.8707 17.7901 11.9014 17.7466C12.86 16.3369 14.1569 15.1656 15.6537 14.3557C17.1993 13.5201 18.9498 13.0767 20.7158 13.0767C22.8508 13.0767 24.9089 13.7072 26.6723 14.8965C28.3921 16.0575 29.7274 17.6799 30.5348 19.5843C30.5579 19.6407 30.6143 19.6791 30.6758 19.6791H31.0244C31.0654 19.6791 31.1038 19.6586 31.1243 19.6253C31.1499 19.592 31.1551 19.551 31.1397 19.5125ZM30.604 19.633C30.6117 19.6381 30.6194 19.6432 30.6271 19.6458C30.6194 19.6407 30.6117 19.6381 30.604 19.633Z" fill="url(#paint0_radial_5583_16136)"/>
<defs>
<radialGradient id="paint0_radial_5583_16136" cx="0" cy="0" r="1" gradientUnits="userSpaceOnUse" gradientTransform="translate(30.8122 19.6662) scale(19.4824 19.4824)">
<stop offset="0.007" stop-color="white"/>
<stop offset="0.03" stop-color="#CBFFFF"/>
<stop offset="0.057" stop-color="#96FFFF"/>
<stop offset="0.084" stop-color="#68FFFF"/>
<stop offset="0.111" stop-color="#43FFFF"/>
<stop offset="0.138" stop-color="#25FFFF"/>
<stop offset="0.165" stop-color="#11FFFF"/>
<stop offset="0.191" stop-color="#04FFFF"/>
<stop offset="0.216" stop-color="#00FFFF"/>
<stop offset="1" stop-color="#0000FF" stop-opacity="0"/>
</radialGradient>
</defs>
</svg>
