<svg width="94" height="32" viewBox="0 0 94 32" fill="none" xmlns="http://www.w3.org/2000/svg">
<path fill-rule="evenodd" clip-rule="evenodd" d="M16.9477 17.124H32.0441V16C32.0441 7.22865 24.8154 0 16.022 0C7.22865 0 0 7.22865 0 16C0 24.7713 7.22865 32 16.022 32C16.1543 32 16.2645 32 16.3967 32H16.595H16.7713L17.0579 31.978H17.124C20.5179 31.7576 23.7355 30.4573 26.3581 28.2755L24.9256 26.5565C22.4353 28.6501 19.3499 29.7741 16.0661 29.7741C12.3857 29.7741 8.92562 28.3416 6.32507 25.741C3.72452 23.1405 2.29201 19.6804 2.29201 16C2.29201 12.3196 3.72452 8.8595 6.32507 6.25895C8.92562 3.6584 12.3857 2.22589 16.0661 2.22589C19.7466 2.22589 23.2066 3.6584 25.8072 6.25895C28.1432 8.59504 29.5317 11.6143 29.7961 14.876H27.6584C27.3939 12.1873 26.2259 9.69697 24.3085 7.77962C22.1047 5.57576 19.1736 4.36364 16.0661 4.36364C12.9587 4.36364 10.0275 5.57576 7.82369 7.77962C5.61983 9.98347 4.40771 12.8926 4.40771 16C4.40771 19.1074 5.61983 22.0165 7.82369 24.2204C10.0275 26.4242 12.9587 27.6364 16.0661 27.6364C18.843 27.6364 21.4656 26.6667 23.5592 24.9256L22.1047 23.2066C20.4738 24.573 18.3581 25.4105 16.0661 25.4105C10.8871 25.4105 6.65565 21.2011 6.65565 16.022C6.65565 10.843 10.865 6.63361 16.0661 6.63361C20.8705 6.63361 24.8595 10.2479 25.4105 14.8981H23.2507C22.6997 11.416 19.7025 8.77135 16.0661 8.77135C12.0551 8.77135 8.79339 12.0331 8.79339 16.022C8.79339 20.011 12.0551 23.2727 16.0661 23.2727C17.8512 23.2727 19.4821 22.6336 20.7383 21.5758L19.3058 19.8567C18.4242 20.584 17.3003 21.0248 16.0661 21.0248C13.2893 21.0248 11.0413 18.7769 11.0413 16C11.0413 13.2231 13.2893 10.9752 16.0661 10.9752C18.4463 10.9752 20.4518 12.6501 20.9587 14.876H15.1405L16.9477 17.124Z" fill="#E73231"/>
<path fill-rule="evenodd" clip-rule="evenodd" d="M46.9818 17.5573H46.8601L46.9122 17.453C47.312 16.6187 48.129 16.0451 49.085 16.0451C50.041 16.0451 50.858 16.6187 51.2578 17.4704L51.3099 17.5747H51.1882L46.9818 17.5573ZM54.0563 19.6606C54.1084 19.3477 54.1432 19.0348 54.1432 18.7046C54.1432 18.3569 54.1084 18.0267 54.0563 17.7138C53.6217 15.2803 51.5706 13.4378 49.1024 13.4378C46.3039 13.4378 44.0442 15.7844 44.0442 18.6872C44.0442 21.59 46.3039 23.9539 49.085 23.9539C50.7537 23.9539 51.9183 23.1891 52.9438 22.181L53.135 21.9898L52.9091 21.8681L50.8058 20.6687L50.6842 20.5992C50.6842 20.5992 50.6146 20.6687 50.5799 20.6861C50.1627 21.0164 49.6586 21.2076 49.1024 21.2076C48.494 21.2076 47.9378 20.9642 47.5206 20.5818C47.2425 20.3211 47.0165 20.0082 46.8775 19.6432L54.0563 19.6606ZM61.8087 13.6116L60.0531 16.4796H58.5756V23.9713H55.6902L55.7076 16.4796H54.317V13.5942H55.7076V12.0994C55.7076 9.23131 58.1758 7.70168 60.4877 8.34482C61.2699 8.57079 61.8435 8.91843 62.504 9.54419L62.7647 9.78754L60.4877 11.4562L60.366 11.3867C59.3578 10.8652 58.5061 11.5084 58.6104 13.5073C58.6104 13.5247 58.6104 13.5768 58.6104 13.5768L61.8087 13.6116Z" fill="#E73231"/>
<path fill-rule="evenodd" clip-rule="evenodd" d="M66.0675 21.0859C64.5031 21.2771 63.1994 19.9735 63.408 18.4091C63.5471 17.3488 64.3988 16.4971 65.4591 16.358C67.0235 16.1668 68.3271 17.4705 68.1185 19.0348C67.9969 20.0952 67.1278 20.9469 66.0675 21.0859ZM66.1196 13.4726C62.9387 13.264 60.314 15.8887 60.5052 19.0522C60.6616 21.6769 62.7996 23.7975 65.4069 23.9714C68.5879 24.1799 71.2126 21.5726 71.0214 18.3917C70.8649 15.767 68.7443 13.6464 66.1196 13.4726ZM77.1746 21.0859C75.6102 21.2771 74.3066 19.9735 74.5152 18.4091C74.6542 17.3488 75.5059 16.4971 76.5662 16.358C78.1306 16.1668 79.4343 17.4705 79.2257 19.0348C79.0867 20.1125 78.2349 20.9643 77.1746 21.0859ZM77.2094 13.49C74.0285 13.2814 71.4038 15.9061 71.595 19.0696C71.7514 21.6943 73.8894 23.8149 76.4967 23.9887C79.6776 24.1973 82.3023 21.5726 82.0938 18.4091C81.9547 15.7844 79.8341 13.6638 77.2094 13.49Z" fill="#E73231"/>
<path fill-rule="evenodd" clip-rule="evenodd" d="M88.7464 21.0018C87.0081 21.5407 85.4438 20.1675 85.6176 18.4814C85.7392 17.3863 86.6257 16.4998 87.7208 16.3956C89.1635 16.2391 90.3629 17.3516 90.3629 18.7595C90.3629 19.7677 89.7197 20.7063 88.7464 21.0018ZM90.3803 9.92941V13.9273V14.049L90.276 13.9968C89.3895 13.5797 88.3639 13.3885 87.2689 13.5275C84.6616 13.8751 82.6974 16.1696 82.7321 18.7943C82.7669 21.6623 84.8875 23.9915 87.773 23.9915C88.6247 23.9915 89.6502 23.5744 90.2586 23.0008L90.3977 22.8617V23.0529V23.9915H93.2831L93.3005 8.52146V8L92.8485 8.26073L90.6062 9.56439L90.415 9.68606C90.3803 9.70345 90.3803 9.85989 90.3803 9.92941Z" fill="#E73231"/>
</svg>
