<svg width="12" height="16" viewBox="0 0 12 16" fill="none" xmlns="http://www.w3.org/2000/svg">
<path d="M3.06982 11.8528C3.56347 12.4702 4.06624 13.2465 4.32935 13.7154C4.64977 14.325 4.78262 14.7366 5.02098 15.4738C5.16035 15.8776 5.2932 16 5.57194 16C5.87673 16 6.0161 15.7942 6.1229 15.4738C6.34563 14.7822 6.51756 14.2559 6.78978 13.7545C7.83961 11.7747 9.5511 10.368 10.515 8.44025C10.515 8.44025 11.1493 7.26278 11.1493 5.6138C11.1493 4.07685 10.5241 3.00879 10.5241 3.00879L3.07373 11.8658L3.06982 11.8528Z" fill="#34A853"/>
<path d="M0.543297 8.23145C1.14375 9.59909 2.28866 10.7974 3.07016 11.8524L7.21213 6.94197C7.21213 6.94197 6.62731 7.70785 5.57098 7.70785C4.39351 7.70785 3.43486 6.77004 3.43486 5.58476C3.43486 4.76939 3.9207 4.2041 3.9207 4.2041C0.872832 4.65737 1.04216 5.3959 0.53418 8.22885L0.543297 8.23145Z" fill="#FBBC04"/>
<path d="M7.26411 0.256836C8.64476 0.700991 9.81702 1.63749 10.5204 3.00513L7.212 6.95172C7.212 6.95172 7.69784 6.38383 7.69784 5.57107C7.69784 4.36104 6.67667 3.44798 5.57475 3.44798C4.52884 3.44798 3.93359 4.20474 3.93359 4.20474C4.18758 3.62642 6.81214 0.453515 7.26801 0.258138L7.26411 0.256836Z" fill="#4285F4"/>
<path d="M1.29883 1.99284C2.12201 1.01335 3.56519 0 5.55803 0C6.52058 0 7.25129 0.255291 7.25129 0.255291L3.92989 4.20189C3.70586 4.08036 1.52025 2.37838 1.29883 1.98763V1.99284Z" fill="#1A73E8"/>
<path d="M0.543146 8.23184C0.543146 8.23184 0 7.15337 0 5.60078C0 4.12895 0.575708 2.83946 1.30251 2.00586L3.93357 4.22012L0.547053 8.23184H0.543146Z" fill="#EA4335"/>
</svg>
