<svg width="76" height="20" viewBox="0 0 76 20" fill="none" xmlns="http://www.w3.org/2000/svg">
<path d="M3.83789 14.8163C4.45495 15.588 5.08341 16.5584 5.4123 17.1445C5.81282 17.9065 5.97889 18.421 6.27684 19.3425C6.45105 19.8472 6.61712 20.0002 6.96554 20.0002C7.34652 20.0002 7.52073 19.743 7.65424 19.3425C7.93265 18.4779 8.14756 17.8202 8.48784 17.1933C9.80012 14.7186 11.9395 12.9602 13.1443 10.5506C13.1443 10.5506 13.9372 9.07872 13.9372 7.0175C13.9372 5.0963 13.1557 3.76123 13.1557 3.76123L3.84277 14.8325L3.83789 14.8163Z" fill="#34A853"/>
<path d="M0.678878 10.2896C1.42945 11.9991 2.86058 13.497 3.83746 14.8158L9.01493 8.67771C9.01493 8.67771 8.28389 9.63505 6.96348 9.63505C5.49164 9.63505 4.29334 8.4628 4.29334 6.98119C4.29334 5.96198 4.90063 5.25537 4.90063 5.25537C1.0908 5.82196 1.30245 6.74511 0.66748 10.2863L0.678878 10.2896Z" fill="#FBBC04"/>
<path d="M9.08013 0.320801C10.806 0.875995 12.2713 2.04662 13.1505 3.75616L9.01501 8.68941C9.01501 8.68941 9.6223 7.97955 9.6223 6.96359C9.6223 5.45105 8.34584 4.30973 6.96844 4.30973C5.66105 4.30973 4.91699 5.25568 4.91699 5.25568C5.23448 4.53278 8.51517 0.566649 9.08502 0.322429L9.08013 0.320801Z" fill="#4285F4"/>
<path d="M1.62354 2.49105C2.65252 1.26669 4.45649 0 6.94754 0C8.15073 0 9.06411 0.319114 9.06411 0.319114L4.91237 5.25236C4.63233 5.10046 1.90032 2.97297 1.62354 2.48453V2.49105Z" fill="#1A73E8"/>
<path d="M0.678932 10.2898C0.678932 10.2898 0 8.94171 0 7.00098C0 5.16118 0.719635 3.54933 1.62813 2.50732L4.91697 5.27515L0.683816 10.2898H0.678932Z" fill="#EA4335"/>
<path d="M28.0464 9.29688H32.312V15.0312C31.7131 15.2292 31.0933 15.3828 30.4526 15.4922C29.812 15.6016 29.0933 15.6562 28.2964 15.6562C27.1349 15.6562 26.1506 15.4271 25.3433 14.9688C24.5412 14.5052 23.9318 13.8359 23.5151 12.9609C23.0985 12.0807 22.8901 11.0208 22.8901 9.78125C22.8901 8.58854 23.1219 7.55469 23.5854 6.67969C24.049 5.79948 24.7235 5.11979 25.6089 4.64062C26.4943 4.15625 27.5672 3.91406 28.8276 3.91406C29.4474 3.91406 30.0464 3.97656 30.6245 4.10156C31.2078 4.22135 31.7417 4.38802 32.2261 4.60156L31.5698 6.14844C31.1844 5.96615 30.7521 5.8125 30.2729 5.6875C29.7938 5.5625 29.2964 5.5 28.7808 5.5C27.9631 5.5 27.2573 5.67708 26.6636 6.03125C26.075 6.38542 25.6219 6.88542 25.3042 7.53125C24.9865 8.17188 24.8276 8.92969 24.8276 9.80469C24.8276 10.6536 24.9552 11.3984 25.2104 12.0391C25.4657 12.6797 25.8641 13.1797 26.4058 13.5391C26.9526 13.8932 27.6584 14.0703 28.5229 14.0703C28.9552 14.0703 29.3224 14.0469 29.6245 14C29.9266 13.9531 30.2052 13.901 30.4604 13.8438V10.8984H28.0464V9.29688ZM42.5151 11.1562C42.5151 11.875 42.4214 12.513 42.2339 13.0703C42.0464 13.6276 41.7729 14.099 41.4136 14.4844C41.0542 14.8646 40.6219 15.1562 40.1167 15.3594C39.6115 15.5573 39.0412 15.6562 38.4058 15.6562C37.812 15.6562 37.2677 15.5573 36.7729 15.3594C36.2782 15.1562 35.8485 14.8646 35.4839 14.4844C35.1245 14.099 34.8459 13.6276 34.6479 13.0703C34.45 12.513 34.3511 11.875 34.3511 11.1562C34.3511 10.2031 34.5151 9.39583 34.8433 8.73438C35.1766 8.06771 35.6506 7.5599 36.2651 7.21094C36.8797 6.86198 37.6115 6.6875 38.4604 6.6875C39.2573 6.6875 39.9604 6.86198 40.5698 7.21094C41.1792 7.5599 41.6558 8.06771 41.9995 8.73438C42.3433 9.40104 42.5151 10.2083 42.5151 11.1562ZM36.2417 11.1562C36.2417 11.7865 36.3172 12.3255 36.4683 12.7734C36.6245 13.2214 36.8641 13.5651 37.187 13.8047C37.5099 14.0391 37.9266 14.1562 38.437 14.1562C38.9474 14.1562 39.3641 14.0391 39.687 13.8047C40.0099 13.5651 40.2469 13.2214 40.3979 12.7734C40.549 12.3255 40.6245 11.7865 40.6245 11.1562C40.6245 10.526 40.549 9.99219 40.3979 9.55469C40.2469 9.11198 40.0099 8.77604 39.687 8.54688C39.3641 8.3125 38.9448 8.19531 38.4292 8.19531C37.6688 8.19531 37.1141 8.45052 36.7651 8.96094C36.4162 9.47135 36.2417 10.2031 36.2417 11.1562ZM52.2808 11.1562C52.2808 11.875 52.187 12.513 51.9995 13.0703C51.812 13.6276 51.5386 14.099 51.1792 14.4844C50.8198 14.8646 50.3875 15.1562 49.8823 15.3594C49.3771 15.5573 48.8068 15.6562 48.1714 15.6562C47.5776 15.6562 47.0334 15.5573 46.5386 15.3594C46.0438 15.1562 45.6141 14.8646 45.2495 14.4844C44.8901 14.099 44.6115 13.6276 44.4136 13.0703C44.2157 12.513 44.1167 11.875 44.1167 11.1562C44.1167 10.2031 44.2808 9.39583 44.6089 8.73438C44.9422 8.06771 45.4162 7.5599 46.0308 7.21094C46.6453 6.86198 47.3771 6.6875 48.2261 6.6875C49.0229 6.6875 49.7261 6.86198 50.3354 7.21094C50.9448 7.5599 51.4214 8.06771 51.7651 8.73438C52.1089 9.40104 52.2808 10.2083 52.2808 11.1562ZM46.0073 11.1562C46.0073 11.7865 46.0828 12.3255 46.2339 12.7734C46.3901 13.2214 46.6297 13.5651 46.9526 13.8047C47.2756 14.0391 47.6922 14.1562 48.2026 14.1562C48.7131 14.1562 49.1297 14.0391 49.4526 13.8047C49.7756 13.5651 50.0125 13.2214 50.1636 12.7734C50.3146 12.3255 50.3901 11.7865 50.3901 11.1562C50.3901 10.526 50.3146 9.99219 50.1636 9.55469C50.0125 9.11198 49.7756 8.77604 49.4526 8.54688C49.1297 8.3125 48.7104 8.19531 48.1948 8.19531C47.4344 8.19531 46.8797 8.45052 46.5308 8.96094C46.1818 9.47135 46.0073 10.2031 46.0073 11.1562ZM56.8589 19.3438C55.687 19.3438 54.7886 19.1328 54.1636 18.7109C53.5386 18.2891 53.2261 17.6979 53.2261 16.9375C53.2261 16.4062 53.3927 15.9557 53.7261 15.5859C54.0594 15.2214 54.536 14.9688 55.1558 14.8281C54.9214 14.724 54.7183 14.5625 54.5464 14.3438C54.3797 14.1198 54.2964 13.8724 54.2964 13.6016C54.2964 13.2786 54.3875 13.0026 54.5698 12.7734C54.7521 12.5443 55.0256 12.3229 55.3901 12.1094C54.937 11.9167 54.5724 11.6042 54.2964 11.1719C54.0256 10.7344 53.8901 10.2214 53.8901 9.63281C53.8901 9.00781 54.0229 8.47656 54.2886 8.03906C54.5542 7.59635 54.9422 7.26042 55.4526 7.03125C55.9631 6.79688 56.5802 6.67969 57.3042 6.67969C57.4604 6.67969 57.6297 6.6901 57.812 6.71094C57.9995 6.72656 58.1714 6.7474 58.3276 6.77344C58.4891 6.79427 58.6115 6.81771 58.6948 6.84375H61.687V7.86719L60.2183 8.14062C60.3589 8.33854 60.4709 8.5651 60.5542 8.82031C60.6375 9.07031 60.6792 9.34375 60.6792 9.64062C60.6792 10.5365 60.3693 11.2422 59.7495 11.7578C59.1349 12.2682 58.286 12.5234 57.2026 12.5234C56.9422 12.513 56.6896 12.4922 56.4448 12.4609C56.2573 12.5755 56.1141 12.7031 56.0151 12.8438C55.9162 12.9792 55.8667 13.1328 55.8667 13.3047C55.8667 13.4453 55.9162 13.5599 56.0151 13.6484C56.1141 13.7318 56.2599 13.7943 56.4526 13.8359C56.6506 13.8776 56.8901 13.8984 57.1714 13.8984H58.6636C59.6115 13.8984 60.3354 14.099 60.8354 14.5C61.3354 14.901 61.5854 15.4896 61.5854 16.2656C61.5854 17.25 61.1792 18.0078 60.3667 18.5391C59.5542 19.0755 58.3849 19.3438 56.8589 19.3438ZM56.9292 18.0547C57.5698 18.0547 58.1089 17.9922 58.5464 17.8672C58.9839 17.7422 59.3146 17.5625 59.5386 17.3281C59.7625 17.099 59.8745 16.8255 59.8745 16.5078C59.8745 16.2266 59.8042 16.0104 59.6636 15.8594C59.5229 15.7083 59.312 15.6042 59.0308 15.5469C58.7495 15.4896 58.4006 15.4609 57.9839 15.4609H56.6245C56.286 15.4609 55.9865 15.513 55.7261 15.6172C55.4657 15.7266 55.2625 15.8828 55.1167 16.0859C54.9761 16.2891 54.9058 16.5339 54.9058 16.8203C54.9058 17.2161 55.0802 17.5208 55.4292 17.7344C55.7834 17.9479 56.2834 18.0547 56.9292 18.0547ZM57.2886 11.3203C57.825 11.3203 58.2235 11.1745 58.4839 10.8828C58.7443 10.5859 58.8745 10.1693 58.8745 9.63281C58.8745 9.04948 58.7391 8.61198 58.4683 8.32031C58.2026 8.02865 57.8068 7.88281 57.2808 7.88281C56.7651 7.88281 56.3719 8.03125 56.1011 8.32812C55.8354 8.625 55.7026 9.0651 55.7026 9.64844C55.7026 10.1745 55.8354 10.5859 56.1011 10.8828C56.3719 11.1745 56.7677 11.3203 57.2886 11.3203ZM65.1089 15.5H63.2651V3.34375H65.1089V15.5ZM71.1792 6.6875C71.95 6.6875 72.6115 6.84635 73.1636 7.16406C73.7157 7.48177 74.1401 7.93229 74.437 8.51562C74.7339 9.09896 74.8823 9.79688 74.8823 10.6094V11.5938H69.1089C69.1297 12.4323 69.3537 13.0781 69.7808 13.5312C70.2131 13.9844 70.8172 14.2109 71.5933 14.2109C72.1453 14.2109 72.6401 14.1589 73.0776 14.0547C73.5203 13.9453 73.9761 13.7865 74.4448 13.5781V15.0703C74.0125 15.2734 73.5724 15.4219 73.1245 15.5156C72.6766 15.6094 72.1401 15.6562 71.5151 15.6562C70.6662 15.6562 69.9188 15.4922 69.2729 15.1641C68.6323 14.8307 68.1297 14.3359 67.7651 13.6797C67.4058 13.0234 67.2261 12.2083 67.2261 11.2344C67.2261 10.2656 67.3901 9.44271 67.7183 8.76562C68.0464 8.08854 68.5073 7.57292 69.1011 7.21875C69.6948 6.86458 70.3875 6.6875 71.1792 6.6875ZM71.1792 8.07031C70.6011 8.07031 70.1323 8.25781 69.7729 8.63281C69.4188 9.00781 69.2104 9.55729 69.1479 10.2812H73.0854C73.0802 9.84896 73.0073 9.46615 72.8667 9.13281C72.7313 8.79948 72.5229 8.53906 72.2417 8.35156C71.9657 8.16406 71.6115 8.07031 71.1792 8.07031Z" fill="#27272A"/>
</svg>
