<svg width="86" height="32" viewBox="0 0 86 32" fill="none" xmlns="http://www.w3.org/2000/svg">
<path d="M30.1712 0H1.82812C0.819875 0 0 1.67723 0 3.7381V28.2627C0 30.3235 0.819875 32 1.82812 32H30.1712C31.1794 32 32 30.3235 32 28.2627V3.7381C32 1.67723 31.1794 0 30.1712 0Z" fill="#E6B91E"/>
<path fill-rule="evenodd" clip-rule="evenodd" d="M5 11H7.36806V20.1309H5V11Z" fill="#010101"/>
<path fill-rule="evenodd" clip-rule="evenodd" d="M12.4222 11.0001L11.8735 15.2668L11.5369 12.9477C11.4352 12.2041 11.3424 11.5534 11.2495 11H8.17773V20.1309H10.2534L10.2625 14.1029L11.1344 20.1309H12.6127L13.4447 13.9701L13.449 20.1309H15.52V11.0001H12.4222Z" fill="#010101"/>
<path fill-rule="evenodd" clip-rule="evenodd" d="M19.2026 20.1309C19.7692 20.1309 20.194 20.0998 20.4776 20.038C20.7559 19.9762 20.9953 19.8699 21.1854 19.7104C21.3758 19.5551 21.5133 19.3387 21.5882 19.0641C21.6679 18.7899 21.7121 18.2413 21.7121 17.4224V14.2179C21.7121 13.3549 21.6767 12.7751 21.6281 12.4786C21.5751 12.1866 21.4424 11.9164 21.2296 11.6777C21.0216 11.4383 20.712 11.2658 20.3091 11.1601C19.9063 11.0537 19.2425 11 18.0961 11H16.3301V20.1309H19.2026ZM19.2249 12.6468C19.3174 12.6998 19.3799 12.7843 19.4066 12.9034C19.4329 13.0186 19.4465 13.284 19.4465 13.6956V17.2317C19.4465 17.8429 19.4066 18.2146 19.3266 18.3521C19.2472 18.4892 19.0392 18.5553 18.6982 18.5553V12.5631C18.9548 12.5631 19.1316 12.5894 19.2249 12.6468Z" fill="#010101"/>
<path fill-rule="evenodd" clip-rule="evenodd" d="M22.5176 11V20.1309H24.6513L24.8015 19.5511C24.9916 19.7858 25.2043 19.958 25.4388 20.0779C26.2126 20.4558 27.5264 20.1956 27.7761 19.2587C27.8514 18.9892 27.8868 18.582 27.8868 18.0373V15.4751C27.8868 14.9221 27.8777 14.5632 27.8514 14.3954C27.7856 13.9763 27.4922 13.6289 27.1075 13.4654C26.6179 13.2572 25.9189 13.2549 25.4343 13.4836C25.2044 13.5896 24.9916 13.7534 24.8015 13.9702V11.0001L22.5176 11ZM25.6028 17.9181C25.6028 18.3564 25.5805 18.6394 25.5363 18.7545C25.4921 18.8696 25.3016 18.9267 25.1555 18.9267C25.0143 18.9267 24.9208 18.874 24.8725 18.7592C24.8283 18.6484 24.8016 18.3918 24.8016 17.989V15.5767C24.8016 15.1603 24.8235 14.9037 24.8637 14.7974C24.908 14.6957 25.0008 14.6427 25.1379 14.6427C25.2838 14.6427 25.4783 14.7049 25.5276 14.82C25.5762 14.9392 25.6029 15.1918 25.6029 15.5768V17.9181H25.6028Z" fill="#010101"/>
<path d="M45.5 21.5V10.0781H47.375V21.5H45.5ZM55.3203 21.5L52.0312 11.9609H51.9609C51.9766 12.1745 51.9948 12.4661 52.0156 12.8359C52.0365 13.2057 52.0547 13.6016 52.0703 14.0234C52.0859 14.4453 52.0938 14.849 52.0938 15.2344V21.5H50.3906V10.0781H53.0234L56.1875 19.1953H56.2344L59.5078 10.0781H62.1328V21.5H60.3438V15.1406C60.3438 14.7917 60.349 14.4141 60.3594 14.0078C60.375 13.6016 60.3906 13.2161 60.4062 12.8516C60.4271 12.487 60.4427 12.1953 60.4531 11.9766H60.3906L56.9766 21.5H55.3203ZM74.4141 15.6797C74.4141 16.9661 74.1745 18.0417 73.6953 18.9062C73.2161 19.7656 72.5208 20.4141 71.6094 20.8516C70.6979 21.2839 69.599 21.5 68.3125 21.5H65.1406V10.0781H68.6562C69.8385 10.0781 70.8594 10.2917 71.7188 10.7188C72.5781 11.1406 73.2422 11.7682 73.7109 12.6016C74.1797 13.4297 74.4141 14.4557 74.4141 15.6797ZM72.4609 15.7344C72.4609 14.7969 72.3125 14.026 72.0156 13.4219C71.724 12.8177 71.2917 12.3698 70.7188 12.0781C70.151 11.7812 69.4505 11.6328 68.6172 11.6328H67.0156V19.9297H68.3438C69.724 19.9297 70.7552 19.5781 71.4375 18.875C72.1198 18.1719 72.4609 17.125 72.4609 15.7344ZM78.5234 9.34375V12.2734C78.5234 12.612 78.513 12.9453 78.4922 13.2734C78.4766 13.5964 78.4609 13.849 78.4453 14.0312H78.5234C78.7578 13.6562 79.0833 13.3411 79.5 13.0859C79.9219 12.8255 80.4609 12.6953 81.1172 12.6953C82.1432 12.6953 82.9688 13.0729 83.5938 13.8281C84.2188 14.5781 84.5312 15.6901 84.5312 17.1641C84.5312 18.1432 84.388 18.9661 84.1016 19.6328C83.8151 20.2995 83.4115 20.8047 82.8906 21.1484C82.375 21.487 81.7682 21.6562 81.0703 21.6562C80.4141 21.6562 79.8828 21.5365 79.4766 21.2969C79.0755 21.0521 78.7604 20.7682 78.5312 20.4453H78.3984L78.0625 21.5H76.6875V9.34375H78.5234ZM80.6328 14.1875C80.112 14.1875 79.6979 14.2917 79.3906 14.5C79.0885 14.7083 78.8698 15.0208 78.7344 15.4375C78.599 15.849 78.5286 16.3724 78.5234 17.0078V17.1719C78.5234 18.1354 78.6745 18.8724 78.9766 19.3828C79.2839 19.8932 79.8411 20.1484 80.6484 20.1484C81.2891 20.1484 81.7812 19.8906 82.125 19.375C82.4688 18.8542 82.6406 18.1094 82.6406 17.1406C82.6406 16.1615 82.4688 15.4245 82.125 14.9297C81.7865 14.4349 81.2891 14.1875 80.6328 14.1875Z" fill="#27272A"/>
</svg>
