<svg width="123" height="30" viewBox="0 0 123 30" fill="none" xmlns="http://www.w3.org/2000/svg">
<path d="M47.7664 26.6405C47.5672 27.5399 46.8743 29.093 44.4961 29.1305H41.1062V25.2846C40.0796 26.6801 38.7885 27.7925 37.3299 28.538C35.8714 29.2836 34.2833 29.6429 32.6852 29.5891C30.8247 29.7088 28.9839 29.104 27.4653 27.8742C26.8415 27.324 26.3425 26.6118 26.0099 25.797C25.6774 24.9823 25.521 24.0887 25.5539 23.191V11.5546C25.6907 10.7312 26.2632 9.03795 28.5964 8.88214H32.2132V21.8183C32.2132 24.1193 33.1509 25.2681 35.0263 25.2649C37.1291 25.2649 39.1558 24.042 41.1062 21.5964V11.8337C41.1547 11.2301 41.5315 9.05866 44.1877 8.88313H47.7655V26.6425M66.5726 8.4295C69.5294 8.4295 71.8471 9.31704 73.5446 11.0921C74.4049 12.0409 75.0768 13.1884 75.5151 14.4575C75.9534 15.7266 76.148 17.0878 76.0857 18.4497C76.1464 19.9559 75.9217 21.4594 75.4267 22.8579C74.9318 24.2564 74.1782 25.5173 73.2172 26.5547C71.1089 28.6592 68.3639 29.7465 65.5636 29.5861C63.0379 29.6624 60.5627 28.7713 58.5345 27.0557L58.3318 26.8752C58.241 27.4523 58.0175 27.9916 57.684 28.4383C57.1969 28.8891 56.5873 29.1332 55.9596 29.1285H51.8708V3.13296C51.8708 3.13296 51.8708 0.0118337 55.2884 0H58.5336V12.7458C60.2323 9.86434 62.9117 8.42424 66.5718 8.42556M67.5244 24.0884C68.5424 22.6229 69.0577 20.786 68.9743 18.92C68.9743 14.8046 67.3636 12.7465 64.1424 12.7458C62.1972 12.7458 60.3267 13.7839 58.531 15.8601V23.8064C59.9568 25.2035 61.7687 25.9854 63.6496 26.0153C64.3816 26.0491 65.1109 25.8931 65.7823 25.5591C66.4537 25.2252 67.0497 24.7219 67.5253 24.0874M79.3734 3.03434V29.1295H86.0423V0.00492046H82.7918C79.7285 0.0147818 79.408 2.51071 79.376 3.03534M91.2873 5.60817H97.9509V1.06207H91.2873V5.60817ZM97.9509 25.9995V8.88017H91.2873V29.1295H94.5949C97.9432 29.0714 97.9509 25.9995 97.9509 25.9995ZM115.983 25.8684C114.096 25.9771 112.239 25.3049 110.754 23.976C110.111 23.3613 109.6 22.5872 109.259 21.713C108.919 20.8387 108.759 19.8874 108.792 18.9319C108.759 18.0072 108.904 17.0855 109.217 16.2315C109.53 15.3776 110.004 14.6123 110.605 13.9893C111.937 12.7072 113.646 12.0469 115.389 12.1413C117.587 12.2307 119.771 12.587 121.903 13.2044V9.25984C119.614 8.74432 117.288 8.46574 114.955 8.42753C110.814 8.42753 107.565 9.36043 105.208 11.2262C104.087 12.0685 103.174 13.2241 102.557 14.5828C101.94 15.9414 101.639 17.4575 101.684 18.9861C101.643 20.5003 101.934 22.0023 102.532 23.3558C103.13 24.7093 104.015 25.8715 105.107 26.7372C107.398 28.6332 110.513 29.5825 114.453 29.5851C117.036 29.5538 119.607 29.1989 122.122 28.527V24.8033C120.132 25.4957 118.064 25.8545 115.984 25.8684M20.2829 3.49389C21.1364 4.04831 21.8338 4.86761 22.2938 5.85622C22.7539 6.84483 22.9576 7.96199 22.8811 9.0774C22.9053 10.4774 22.5948 11.8585 21.9827 13.073C21.3707 14.2876 20.4801 15.2898 19.4064 15.9725C17.0905 17.616 13.8507 18.4378 9.68718 18.4378H6.8109V29.1335H0V4.93858L0.0112562 4.92675C0.0493195 4.08001 0.374648 3.28318 0.918654 2.70424C1.46266 2.1253 2.18284 1.80948 2.92737 1.82337H11.6108C15.6554 1.82337 18.5461 2.37987 20.2829 3.49289M13.7283 13.3543C14.3389 13.0152 14.8539 12.4883 15.215 11.8332C15.5761 11.178 15.7688 10.4208 15.7714 9.64738C15.7714 6.91315 13.6793 5.54669 9.49491 5.54801H6.81004V14.725H8.15334C10.0848 14.8343 12.0075 14.3619 13.7275 13.3553" fill="#FE5900"/>
</svg>
