<svg width="120" height="32" viewBox="0 0 120 32" fill="none" xmlns="http://www.w3.org/2000/svg">
<g clip-path="url(#clip0_5391_18733)">
<path d="M3.82886 8.96689C-2.8435 15.5143 0.591643 23.4288 2.46969 26.0172C10.8262 35.9618 24.4648 32.0235 28.9918 24.617C30.1202 22.6727 34.3379 11.9433 23.3086 6.12598L3.82886 8.96689Z" fill="#F93208"/>
<path d="M8.44141 8.59636L9.57392 6.49605L16.3072 5.30176L18.9428 7.48444L8.44141 8.59636Z" fill="#F93208"/>
<path d="M8.3996 1.32004L10.5254 0.0678711L12.127 3.73697C13.026 2.23828 15.3958 -0.130529 18.0385 2.63038C16.9178 2.9299 16.2569 3.54423 16.2039 4.6397C19.7938 3.65133 23.6333 5.40123 24.1539 6.79463C21.5581 5.77205 17.5891 9.25436 14.2526 7.34787C14.2547 10.9141 11.2619 11.2912 9.5351 11.3955C10.0274 10.2113 10.8604 9.02657 9.88449 7.84304C8.07874 9.77987 6.59584 10.3718 2.02197 8.94953C3.17777 8.55155 5.54031 6.24968 7.81705 6.24138C6.21113 5.65661 4.90387 5.74669 3.59448 5.89175C4.28591 4.95285 6.47424 2.2895 10.3797 3.88263L8.3996 1.32004Z" fill="#02902E"/>
</g>
<path d="M47.5259 2.07812C48.5103 2.07812 49.3228 2.19792 49.9634 2.4375C50.6092 2.67708 51.0884 3.04167 51.4009 3.53125C51.7186 4.02083 51.8774 4.64323 51.8774 5.39844C51.8774 5.96094 51.7733 6.4401 51.5649 6.83594C51.3566 7.23177 51.0832 7.5599 50.7446 7.82031C50.4061 8.08073 50.0441 8.28906 49.6587 8.44531L52.9009 13.5H50.7837L48.0259 8.92188H46.1899V13.5H44.3149V2.07812H47.5259ZM47.4009 3.64062H46.1899V7.375H47.4868C48.3566 7.375 48.9868 7.21354 49.3774 6.89062C49.7733 6.56771 49.9712 6.09115 49.9712 5.46094C49.9712 4.79948 49.7603 4.33073 49.3384 4.05469C48.9217 3.77865 48.2759 3.64062 47.4009 3.64062ZM62.0024 9.15625C62.0024 9.875 61.9087 10.513 61.7212 11.0703C61.5337 11.6276 61.2603 12.099 60.9009 12.4844C60.5415 12.8646 60.1092 13.1562 59.604 13.3594C59.0988 13.5573 58.5285 13.6562 57.8931 13.6562C57.2993 13.6562 56.755 13.5573 56.2603 13.3594C55.7655 13.1562 55.3358 12.8646 54.9712 12.4844C54.6118 12.099 54.3332 11.6276 54.1353 11.0703C53.9373 10.513 53.8384 9.875 53.8384 9.15625C53.8384 8.20312 54.0024 7.39583 54.3306 6.73438C54.6639 6.06771 55.1379 5.5599 55.7524 5.21094C56.367 4.86198 57.0988 4.6875 57.9478 4.6875C58.7446 4.6875 59.4478 4.86198 60.0571 5.21094C60.6665 5.5599 61.1431 6.06771 61.4868 6.73438C61.8306 7.40104 62.0024 8.20833 62.0024 9.15625ZM55.729 9.15625C55.729 9.78646 55.8045 10.3255 55.9556 10.7734C56.1118 11.2214 56.3514 11.5651 56.6743 11.8047C56.9972 12.0391 57.4139 12.1562 57.9243 12.1562C58.4347 12.1562 58.8514 12.0391 59.1743 11.8047C59.4972 11.5651 59.7342 11.2214 59.8853 10.7734C60.0363 10.3255 60.1118 9.78646 60.1118 9.15625C60.1118 8.52604 60.0363 7.99219 59.8853 7.55469C59.7342 7.11198 59.4972 6.77604 59.1743 6.54688C58.8514 6.3125 58.4321 6.19531 57.9165 6.19531C57.1561 6.19531 56.6014 6.45052 56.2524 6.96094C55.9035 7.47135 55.729 8.20312 55.729 9.15625ZM67.3306 12.1719C67.5701 12.1719 67.8071 12.151 68.0415 12.1094C68.2759 12.0625 68.4894 12.0078 68.6821 11.9453V13.3359C68.479 13.4245 68.216 13.5 67.8931 13.5625C67.5701 13.625 67.2342 13.6562 66.8853 13.6562C66.3957 13.6562 65.9556 13.5755 65.5649 13.4141C65.1743 13.2474 64.8644 12.9635 64.6353 12.5625C64.4061 12.1615 64.2915 11.6068 64.2915 10.8984V6.25H63.1118V5.42969L64.3774 4.78125L64.979 2.92969H66.1353V4.85156H68.6118V6.25H66.1353V10.875C66.1353 11.3125 66.2446 11.638 66.4634 11.8516C66.6821 12.0651 66.9712 12.1719 67.3306 12.1719ZM73.6587 12.1719C73.8983 12.1719 74.1353 12.151 74.3696 12.1094C74.604 12.0625 74.8175 12.0078 75.0103 11.9453V13.3359C74.8071 13.4245 74.5441 13.5 74.2212 13.5625C73.8983 13.625 73.5623 13.6562 73.2134 13.6562C72.7238 13.6562 72.2837 13.5755 71.8931 13.4141C71.5024 13.2474 71.1925 12.9635 70.9634 12.5625C70.7342 12.1615 70.6196 11.6068 70.6196 10.8984V6.25H69.4399V5.42969L70.7056 4.78125L71.3071 2.92969H72.4634V4.85156H74.9399V6.25H72.4634V10.875C72.4634 11.3125 72.5728 11.638 72.7915 11.8516C73.0103 12.0651 73.2993 12.1719 73.6587 12.1719ZM80.2134 4.6875C80.9842 4.6875 81.6457 4.84635 82.1978 5.16406C82.7498 5.48177 83.1743 5.93229 83.4712 6.51562C83.7681 7.09896 83.9165 7.79688 83.9165 8.60938V9.59375H78.1431C78.1639 10.4323 78.3879 11.0781 78.8149 11.5312C79.2472 11.9844 79.8514 12.2109 80.6274 12.2109C81.1795 12.2109 81.6743 12.1589 82.1118 12.0547C82.5545 11.9453 83.0103 11.7865 83.479 11.5781V13.0703C83.0467 13.2734 82.6066 13.4219 82.1587 13.5156C81.7108 13.6094 81.1743 13.6562 80.5493 13.6562C79.7004 13.6562 78.953 13.4922 78.3071 13.1641C77.6665 12.8307 77.1639 12.3359 76.7993 11.6797C76.4399 11.0234 76.2603 10.2083 76.2603 9.23438C76.2603 8.26562 76.4243 7.44271 76.7524 6.76562C77.0806 6.08854 77.5415 5.57292 78.1353 5.21875C78.729 4.86458 79.4217 4.6875 80.2134 4.6875ZM80.2134 6.07031C79.6353 6.07031 79.1665 6.25781 78.8071 6.63281C78.453 7.00781 78.2446 7.55729 78.1821 8.28125H82.1196C82.1144 7.84896 82.0415 7.46615 81.9009 7.13281C81.7655 6.79948 81.5571 6.53906 81.2759 6.35156C80.9998 6.16406 80.6457 6.07031 80.2134 6.07031ZM90.4946 4.6875C91.4686 4.6875 92.2264 4.9401 92.7681 5.44531C93.3149 5.94531 93.5884 6.75 93.5884 7.85938V13.5H91.7524V8.20312C91.7524 7.53125 91.6144 7.02865 91.3384 6.69531C91.0623 6.35677 90.6353 6.1875 90.0571 6.1875C89.2186 6.1875 88.6353 6.44531 88.3071 6.96094C87.9842 7.47656 87.8228 8.22396 87.8228 9.20312V13.5H85.9868V4.85156H87.4165L87.6743 6.02344H87.7759C87.9634 5.72135 88.1951 5.47396 88.4712 5.28125C88.7524 5.08333 89.0649 4.9349 89.4087 4.83594C89.7576 4.73698 90.1196 4.6875 90.4946 4.6875ZM48.2759 29.5H46.3931V19.6719H43.0493V18.0781H51.6118V19.6719H48.2759V29.5ZM60.8306 25.1562C60.8306 25.875 60.7368 26.513 60.5493 27.0703C60.3618 27.6276 60.0884 28.099 59.729 28.4844C59.3696 28.8646 58.9373 29.1562 58.4321 29.3594C57.9269 29.5573 57.3566 29.6562 56.7212 29.6562C56.1274 29.6562 55.5832 29.5573 55.0884 29.3594C54.5936 29.1562 54.1639 28.8646 53.7993 28.4844C53.4399 28.099 53.1613 27.6276 52.9634 27.0703C52.7655 26.513 52.6665 25.875 52.6665 25.1562C52.6665 24.2031 52.8306 23.3958 53.1587 22.7344C53.492 22.0677 53.966 21.5599 54.5806 21.2109C55.1951 20.862 55.9269 20.6875 56.7759 20.6875C57.5728 20.6875 58.2759 20.862 58.8853 21.2109C59.4946 21.5599 59.9712 22.0677 60.3149 22.7344C60.6587 23.401 60.8306 24.2083 60.8306 25.1562ZM54.5571 25.1562C54.5571 25.7865 54.6326 26.3255 54.7837 26.7734C54.9399 27.2214 55.1795 27.5651 55.5024 27.8047C55.8254 28.0391 56.242 28.1562 56.7524 28.1562C57.2629 28.1562 57.6795 28.0391 58.0024 27.8047C58.3254 27.5651 58.5623 27.2214 58.7134 26.7734C58.8644 26.3255 58.9399 25.7865 58.9399 25.1562C58.9399 24.526 58.8644 23.9922 58.7134 23.5547C58.5623 23.112 58.3254 22.776 58.0024 22.5469C57.6795 22.3125 57.2603 22.1953 56.7446 22.1953C55.9842 22.1953 55.4295 22.4505 55.0806 22.9609C54.7316 23.4714 54.5571 24.2031 54.5571 25.1562ZM72.7134 20.6875C73.6821 20.6875 74.4113 20.9375 74.9009 21.4375C75.3957 21.9375 75.6431 22.7396 75.6431 23.8438V29.5H73.8071V24.1719C73.8071 23.5156 73.6795 23.0208 73.4243 22.6875C73.1691 22.3542 72.7811 22.1875 72.2603 22.1875C71.5311 22.1875 71.005 22.4219 70.6821 22.8906C70.3644 23.3542 70.2056 24.0286 70.2056 24.9141V29.5H68.3696V24.1719C68.3696 23.7344 68.3123 23.3698 68.1978 23.0781C68.0884 22.7812 67.9191 22.5599 67.6899 22.4141C67.4608 22.263 67.1717 22.1875 66.8228 22.1875C66.3175 22.1875 65.9139 22.3021 65.6118 22.5312C65.3149 22.7604 65.1014 23.099 64.9712 23.5469C64.841 23.9896 64.7759 24.5339 64.7759 25.1797V29.5H62.9399V20.8516H64.3696L64.6274 22.0156H64.729C64.9061 21.7135 65.1248 21.4661 65.3853 21.2734C65.6509 21.0755 65.9451 20.9297 66.2681 20.8359C66.591 20.737 66.9269 20.6875 67.2759 20.6875C67.9217 20.6875 68.466 20.8021 68.9087 21.0312C69.3514 21.2552 69.6821 21.599 69.9009 22.0625H70.0415C70.3123 21.5938 70.6899 21.2474 71.1743 21.0234C71.6587 20.7995 72.1717 20.6875 72.7134 20.6875ZM81.5962 20.6875C82.6899 20.6875 83.5155 20.9297 84.0728 21.4141C84.6353 21.8984 84.9165 22.6536 84.9165 23.6797V29.5H83.6118L83.2603 28.2734H83.1978C82.953 28.5859 82.7004 28.8438 82.4399 29.0469C82.1795 29.25 81.8774 29.401 81.5337 29.5C81.1951 29.6042 80.7811 29.6562 80.2915 29.6562C79.7759 29.6562 79.3149 29.5625 78.9087 29.375C78.5024 29.1823 78.1821 28.8906 77.9478 28.5C77.7134 28.1094 77.5962 27.6146 77.5962 27.0156C77.5962 26.125 77.9269 25.4557 78.5884 25.0078C79.255 24.5599 80.2603 24.3125 81.604 24.2656L83.104 24.2109V23.7578C83.104 23.1589 82.9634 22.7318 82.6821 22.4766C82.4061 22.2214 82.0155 22.0938 81.5103 22.0938C81.078 22.0938 80.6587 22.1562 80.2524 22.2812C79.8462 22.4062 79.4504 22.5599 79.0649 22.7422L78.4712 21.4453C78.8931 21.2214 79.3722 21.0391 79.9087 20.8984C80.4504 20.7578 81.0129 20.6875 81.5962 20.6875ZM83.0962 25.3672L81.979 25.4062C81.0623 25.4375 80.4191 25.5938 80.0493 25.875C79.6795 26.1562 79.4946 26.5417 79.4946 27.0312C79.4946 27.4583 79.6222 27.7708 79.8774 27.9688C80.1326 28.1615 80.4686 28.2578 80.8853 28.2578C81.5207 28.2578 82.0467 28.0781 82.4634 27.7188C82.8853 27.3542 83.0962 26.8203 83.0962 26.1172V25.3672ZM90.7056 28.1719C90.9451 28.1719 91.1821 28.151 91.4165 28.1094C91.6509 28.0625 91.8644 28.0078 92.0571 27.9453V29.3359C91.854 29.4245 91.591 29.5 91.2681 29.5625C90.9451 29.625 90.6092 29.6562 90.2603 29.6562C89.7707 29.6562 89.3306 29.5755 88.9399 29.4141C88.5493 29.2474 88.2394 28.9635 88.0103 28.5625C87.7811 28.1615 87.6665 27.6068 87.6665 26.8984V22.25H86.4868V21.4297L87.7524 20.7812L88.354 18.9297H89.5103V20.8516H91.9868V22.25H89.5103V26.875C89.5103 27.3125 89.6196 27.638 89.8384 27.8516C90.0571 28.0651 90.3462 28.1719 90.7056 28.1719ZM101.471 25.1562C101.471 25.875 101.377 26.513 101.19 27.0703C101.002 27.6276 100.729 28.099 100.37 28.4844C100.01 28.8646 99.578 29.1562 99.0728 29.3594C98.5675 29.5573 97.9972 29.6562 97.3618 29.6562C96.7681 29.6562 96.2238 29.5573 95.729 29.3594C95.2342 29.1562 94.8045 28.8646 94.4399 28.4844C94.0806 28.099 93.8019 27.6276 93.604 27.0703C93.4061 26.513 93.3071 25.875 93.3071 25.1562C93.3071 24.2031 93.4712 23.3958 93.7993 22.7344C94.1326 22.0677 94.6066 21.5599 95.2212 21.2109C95.8358 20.862 96.5675 20.6875 97.4165 20.6875C98.2134 20.6875 98.9165 20.862 99.5259 21.2109C100.135 21.5599 100.612 22.0677 100.956 22.7344C101.299 23.401 101.471 24.2083 101.471 25.1562ZM95.1978 25.1562C95.1978 25.7865 95.2733 26.3255 95.4243 26.7734C95.5806 27.2214 95.8201 27.5651 96.1431 27.8047C96.466 28.0391 96.8826 28.1562 97.3931 28.1562C97.9035 28.1562 98.3201 28.0391 98.6431 27.8047C98.966 27.5651 99.203 27.2214 99.354 26.7734C99.505 26.3255 99.5806 25.7865 99.5806 25.1562C99.5806 24.526 99.505 23.9922 99.354 23.5547C99.203 23.112 98.966 22.776 98.6431 22.5469C98.3201 22.3125 97.9009 22.1953 97.3853 22.1953C96.6248 22.1953 96.0701 22.4505 95.7212 22.9609C95.3722 23.4714 95.1978 24.2031 95.1978 25.1562ZM107.026 20.6875C107.797 20.6875 108.458 20.8464 109.01 21.1641C109.562 21.4818 109.987 21.9323 110.284 22.5156C110.581 23.099 110.729 23.7969 110.729 24.6094V25.5938H104.956C104.976 26.4323 105.2 27.0781 105.627 27.5312C106.06 27.9844 106.664 28.2109 107.44 28.2109C107.992 28.2109 108.487 28.1589 108.924 28.0547C109.367 27.9453 109.823 27.7865 110.292 27.5781V29.0703C109.859 29.2734 109.419 29.4219 108.971 29.5156C108.523 29.6094 107.987 29.6562 107.362 29.6562C106.513 29.6562 105.765 29.4922 105.12 29.1641C104.479 28.8307 103.976 28.3359 103.612 27.6797C103.252 27.0234 103.073 26.2083 103.073 25.2344C103.073 24.2656 103.237 23.4427 103.565 22.7656C103.893 22.0885 104.354 21.5729 104.948 21.2188C105.542 20.8646 106.234 20.6875 107.026 20.6875ZM107.026 22.0703C106.448 22.0703 105.979 22.2578 105.62 22.6328C105.265 23.0078 105.057 23.5573 104.995 24.2812H108.932C108.927 23.849 108.854 23.4661 108.713 23.1328C108.578 22.7995 108.37 22.5391 108.088 22.3516C107.812 22.1641 107.458 22.0703 107.026 22.0703ZM118.612 27.0312C118.612 27.599 118.474 28.0781 118.198 28.4688C117.922 28.8594 117.518 29.1562 116.987 29.3594C116.461 29.5573 115.815 29.6562 115.049 29.6562C114.445 29.6562 113.924 29.612 113.487 29.5234C113.055 29.4401 112.646 29.3099 112.26 29.1328V27.5469C112.672 27.7396 113.133 27.9062 113.643 28.0469C114.159 28.1875 114.646 28.2578 115.104 28.2578C115.708 28.2578 116.143 28.1641 116.409 27.9766C116.674 27.7839 116.807 27.5286 116.807 27.2109C116.807 27.0234 116.752 26.8568 116.643 26.7109C116.539 26.5599 116.341 26.4062 116.049 26.25C115.763 26.0885 115.341 25.8958 114.784 25.6719C114.237 25.4531 113.776 25.2344 113.401 25.0156C113.026 24.7969 112.742 24.5339 112.549 24.2266C112.357 23.9141 112.26 23.5156 112.26 23.0312C112.26 22.2656 112.562 21.6849 113.167 21.2891C113.776 20.888 114.581 20.6875 115.581 20.6875C116.112 20.6875 116.612 20.7422 117.081 20.8516C117.555 20.9557 118.018 21.1094 118.471 21.3125L117.893 22.6953C117.502 22.5234 117.109 22.3828 116.713 22.2734C116.323 22.1589 115.924 22.1016 115.518 22.1016C115.044 22.1016 114.682 22.1745 114.432 22.3203C114.187 22.4661 114.065 22.6745 114.065 22.9453C114.065 23.1484 114.125 23.3203 114.245 23.4609C114.364 23.6016 114.57 23.7422 114.862 23.8828C115.159 24.0234 115.57 24.1979 116.096 24.4062C116.612 24.6042 117.057 24.8125 117.432 25.0312C117.812 25.2448 118.104 25.5078 118.307 25.8203C118.51 26.1328 118.612 26.5365 118.612 27.0312Z" fill="#27272A"/>
<defs>
<clipPath id="clip0_5391_18733">
<rect width="30.8148" height="32" fill="white"/>
</clipPath>
</defs>
</svg>
