<svg width="40" height="40" viewBox="0 0 40 40" fill="none" xmlns="http://www.w3.org/2000/svg">
<path d="M20 40C31.0457 40 40 31.0457 40 20C40 8.95431 31.0457 0 20 0C8.95431 0 0 8.95431 0 20C0 31.0457 8.95431 40 20 40Z" fill="#FF0000"/>
<path d="M26.5444 12.4764H13.455C12.9319 12.4764 12.4139 12.5795 11.9307 12.7798C11.4474 12.98 11.0084 13.2735 10.6386 13.6435C10.2689 14.0136 9.97565 14.4528 9.77571 14.9362C9.57578 15.4195 9.47304 15.9376 9.47339 16.4607V23.5396C9.47304 24.0627 9.57578 24.5807 9.77571 25.0641C9.97565 25.5475 10.2689 25.9867 10.6386 26.3567C11.0084 26.7267 11.4474 27.0202 11.9307 27.2205C12.4139 27.4207 12.9319 27.5238 13.455 27.5238H26.5444C27.0675 27.5238 27.5855 27.4207 28.0687 27.2205C28.552 27.0202 28.991 26.7267 29.3608 26.3567C29.7305 25.9867 30.0238 25.5475 30.2237 25.0641C30.4236 24.5807 30.5264 24.0627 30.526 23.5396V16.4607C30.5264 15.9376 30.4236 15.4195 30.2237 14.9362C30.0238 14.4528 29.7305 14.0136 29.3608 13.6435C28.991 13.2735 28.552 12.98 28.0687 12.7798C27.5855 12.5795 27.0675 12.4764 26.5444 12.4764ZM17.226 23.2264V16.7738L22.7734 20.0001L17.226 23.2264Z" fill="white"/>
</svg>
