<svg width="26" height="28" viewBox="0 0 26 28" fill="none" xmlns="http://www.w3.org/2000/svg">
<path d="M14.9852 12.2935L14.9115 12.3524L14.8379 12.2935C14.8868 12.2869 14.9363 12.2869 14.9852 12.2935Z" fill="#3F3F46"/>
<path d="M25.2804 5.40954C25.3609 5.34631 25.4197 5.25955 25.4485 5.16133C25.4774 5.06312 25.4749 4.95835 25.4414 4.86162C25.4079 4.7649 25.3451 4.68103 25.2616 4.62171C25.1782 4.56238 25.0784 4.53056 24.976 4.53067H10.2856C10.1427 3.37139 9.61085 2.29485 8.77699 1.47692C7.94312 0.658994 6.85651 0.148042 5.69469 0.0275481C4.53288 -0.0929461 3.36454 0.18414 2.38057 0.813536C1.3966 1.44293 0.655166 2.38743 0.277413 3.4927C-0.100341 4.59798 -0.0920832 5.7987 0.300836 6.89868C0.693755 7.99866 1.44811 8.93287 2.44064 9.54867C3.43317 10.1645 4.60521 10.4255 5.76526 10.289C6.92531 10.1525 8.00479 9.62669 8.82733 8.79737L9.12192 9.02814C9.14437 9.04885 9.16907 9.06697 9.19557 9.08215L14.4197 13.2163V24.7496L9.73566 27.0671C9.6364 27.1163 9.55664 27.1975 9.50929 27.2977C9.46195 27.3979 9.44979 27.5111 9.47478 27.619C9.49977 27.7269 9.56046 27.8232 9.64701 27.8924C9.73356 27.9615 9.84092 27.9995 9.9517 28H19.8697C19.9805 27.9995 20.0878 27.9615 20.1744 27.8924C20.2609 27.8232 20.3216 27.7269 20.3466 27.619C20.3716 27.5111 20.3595 27.3979 20.3121 27.2977C20.2648 27.1975 20.185 27.1163 20.0857 27.0671L15.4017 24.7447V13.2163L25.2804 5.40954ZM5.16945 9.34237C4.37109 9.34331 3.58921 9.11524 2.91656 8.6852C2.24391 8.25517 1.70872 7.64122 1.37448 6.9162C1.04024 6.19117 0.920972 5.38548 1.03082 4.59471C1.14068 3.80394 1.47504 3.06127 1.99425 2.4548C2.51346 1.84833 3.19573 1.40351 3.96013 1.17311C4.72452 0.942712 5.53897 0.936396 6.30684 1.15491C7.07472 1.37343 7.76381 1.80762 8.29236 2.40596C8.82092 3.0043 9.16676 3.7417 9.28886 4.53067H4.8454C4.74368 4.53191 4.64482 4.5645 4.56231 4.62401C4.4798 4.68351 4.41766 4.76702 4.38437 4.86314C4.35108 4.95926 4.34825 5.06332 4.37628 5.16111C4.40431 5.25889 4.46183 5.34565 4.54099 5.40954L8.05157 8.18364C7.27808 8.92995 6.24428 9.34558 5.16945 9.34237ZM9.09247 7.75157L9.08756 7.74666C9.08265 7.74175 9.07774 7.74175 9.07283 7.73684L6.25945 5.51265H23.5619L22.9629 5.98891C20.5622 6.01828 18.1761 6.36834 15.8681 7.02981C13.8195 7.59325 11.7244 7.9712 9.60801 8.15909L9.09247 7.75157ZM17.7732 27.018H12.0531L14.9107 25.604L17.7732 27.018ZM14.9843 12.2932L14.9107 12.3521L14.8371 12.2932L10.7176 9.03796C12.5376 8.81575 14.3393 8.46297 16.1087 7.98233C17.9201 7.47146 19.7793 7.14897 21.6569 7.01999L14.9843 12.2932Z" fill="#3F3F46"/>
<path d="M5.16872 3.45078C5.03851 3.45078 4.91362 3.39905 4.82154 3.30697C4.72946 3.21489 4.67773 3.09001 4.67773 2.95979V1.97781C4.67773 1.84759 4.72946 1.7227 4.82154 1.63062C4.91362 1.53855 5.03851 1.48682 5.16872 1.48682C5.29894 1.48682 5.42383 1.53855 5.51591 1.63062C5.60798 1.7227 5.65971 1.84759 5.65971 1.97781V2.95979C5.65971 3.09001 5.60798 3.21489 5.51591 3.30697C5.42383 3.39905 5.29894 3.45078 5.16872 3.45078Z" fill="#3F3F46"/>
<path d="M3.62694 4.07765C3.56142 4.07772 3.49656 4.06465 3.43619 4.03919C3.37582 4.01374 3.32117 3.97643 3.27549 3.92947L2.58982 3.22607C2.54414 3.18006 2.50802 3.12545 2.48355 3.0654C2.45909 3.00535 2.44676 2.94105 2.44728 2.87622C2.4478 2.81138 2.46116 2.74728 2.48658 2.68763C2.51201 2.62799 2.54899 2.57396 2.59541 2.52869C2.64182 2.48341 2.69675 2.44777 2.75701 2.42384C2.81727 2.3999 2.88168 2.38814 2.94651 2.38923C3.01134 2.39032 3.07531 2.40424 3.13474 2.43019C3.19416 2.45613 3.24785 2.4936 3.29272 2.54041L3.97839 3.2438C4.04584 3.31294 4.0914 3.40044 4.10936 3.49534C4.12732 3.59025 4.1169 3.68835 4.07938 3.77735C4.04187 3.86636 3.97893 3.94233 3.89845 3.99574C3.81797 4.04916 3.72353 4.07765 3.62694 4.07765Z" fill="#3F3F46"/>
<path d="M6.70999 4.07716C6.61341 4.07721 6.51895 4.04877 6.43845 3.99541C6.35795 3.94204 6.29498 3.86612 6.25741 3.77714C6.21985 3.68816 6.20936 3.59008 6.22726 3.49517C6.24516 3.40026 6.29065 3.31274 6.35805 3.24356L7.04322 2.54016C7.13408 2.44682 7.2583 2.3934 7.38855 2.39165C7.5188 2.38989 7.64441 2.43995 7.73776 2.53081C7.8311 2.62167 7.88452 2.74589 7.88627 2.87614C7.88803 3.00639 7.83797 3.132 7.74711 3.22534L7.06188 3.92873C7.01613 3.97574 6.96141 4.0131 6.90097 4.03859C6.84053 4.06409 6.77559 4.0772 6.70999 4.07716Z" fill="#3F3F46"/>
<path d="M2.94216 7.94557C2.84557 7.94557 2.75112 7.91708 2.67065 7.86366C2.59017 7.81025 2.52723 7.73428 2.48972 7.64527C2.4522 7.55626 2.44177 7.45817 2.45974 7.36326C2.4777 7.26836 2.52326 7.18086 2.59071 7.11172L3.27638 6.40857C3.32124 6.36176 3.37494 6.3243 3.43436 6.29835C3.49378 6.2724 3.55776 6.25848 3.62259 6.25739C3.68742 6.2563 3.75183 6.26807 3.81209 6.292C3.87235 6.31594 3.92727 6.35157 3.97369 6.39685C4.0201 6.44213 4.05709 6.49615 4.08251 6.5558C4.10794 6.61545 4.1213 6.67954 4.12182 6.74438C4.12234 6.80922 4.11001 6.87352 4.08554 6.93357C4.06108 6.99362 4.02496 7.04822 3.97928 7.09424L3.29361 7.79739C3.2479 7.84431 3.19325 7.8816 3.13288 7.90705C3.07252 7.9325 3.00767 7.9456 2.94216 7.94557Z" fill="#3F3F46"/>
<path d="M2.9593 5.6602H1.97732C1.8471 5.6602 1.72221 5.60847 1.63014 5.5164C1.53806 5.42432 1.48633 5.29943 1.48633 5.16921C1.48633 5.03899 1.53806 4.91411 1.63014 4.82203C1.72221 4.72995 1.8471 4.67822 1.97732 4.67822H2.9593C3.08952 4.67822 3.2144 4.72995 3.30648 4.82203C3.39856 4.91411 3.45029 5.03899 3.45029 5.16921C3.45029 5.29943 3.39856 5.42432 3.30648 5.5164C3.2144 5.60847 3.08952 5.6602 2.9593 5.6602Z" fill="#3F3F46"/>
<path d="M5.16775 8.85019C5.03753 8.85019 4.91264 8.79846 4.82057 8.70638C4.72849 8.6143 4.67676 8.48942 4.67676 8.3592V7.37722C4.67676 7.247 4.72849 7.12212 4.82057 7.03004C4.91264 6.93796 5.03753 6.88623 5.16775 6.88623C5.29797 6.88623 5.42285 6.93796 5.51493 7.03004C5.60701 7.12212 5.65874 7.247 5.65874 7.37722V8.3592C5.65874 8.48942 5.60701 8.6143 5.51493 8.70638C5.42285 8.79846 5.29797 8.85019 5.16775 8.85019Z" fill="#3F3F46"/>
</svg>
