<svg width="45" height="40" viewBox="0 0 45 40" fill="none" xmlns="http://www.w3.org/2000/svg">
<path d="M13.1689 19.9434V23.6914" stroke="#71717A" stroke-width="1.5" stroke-miterlimit="10" stroke-linecap="round" stroke-linejoin="round"/>
<path d="M8.78223 21.1675V24.418" stroke="#71717A" stroke-width="1.5" stroke-miterlimit="10" stroke-linecap="round" stroke-linejoin="round"/>
<path d="M34.7853 29.5824C36.6776 27.895 38.2503 26.5758 38.2503 23.4326V12.4375C38.2503 11.6425 37.5993 10.9939 36.8068 10.9939H28.0651H19.3258C18.5309 10.9939 17.8799 11.6425 17.8799 12.4375V23.4326C17.8799 26.5758 19.4526 27.895 21.3448 29.5824V30.7114C21.3448 31.4088 21.9154 31.9795 22.6152 31.9795H33.5174C34.2148 31.9795 34.7853 31.4088 34.7853 30.7114V29.5824Z" stroke="#71717A" stroke-width="1.5" stroke-miterlimit="10" stroke-linecap="round" stroke-linejoin="round"/>
<path d="M17.8795 20.326C10.8763 18.3825 2.82227 22.9425 2.82227 29.5629C2.82227 31.8868 4.72179 31.9795 6.17022 31.9795" stroke="#71717A" stroke-width="1.5" stroke-miterlimit="10" stroke-linecap="round" stroke-linejoin="round"/>
<path d="M38.25 24.2471H39.1839C41.4931 24.2471 43.3975 22.55 43.3975 20.4943C43.3975 18.4362 42.9269 16.7414 40.6177 16.7414H38.25" stroke="#71717A" stroke-width="1.5" stroke-miterlimit="10" stroke-linecap="round" stroke-linejoin="round"/>
<path d="M29.5551 15.4004H38.2504M17.8799 15.4004H26.5778" stroke="#71717A" stroke-width="1.5" stroke-miterlimit="10" stroke-linecap="round" stroke-linejoin="round"/>
<path d="M19.7012 35.291H2.30067C1.38867 35.291 0.64502 34.5473 0.64502 33.6353C0.64502 32.7258 1.38867 31.9795 2.30067 31.9795H40.079C40.9909 31.9795 41.7347 32.7258 41.7347 33.6353C41.7347 34.5473 40.9909 35.291 40.079 35.291H22.681" stroke="#71717A" stroke-width="1.5" stroke-miterlimit="10" stroke-linecap="round" stroke-linejoin="round"/>
<path d="M37.3261 35.2908V37.2197C37.3261 38.2804 36.4581 39.1484 35.3974 39.1484H6.98016C5.91934 39.1484 5.05371 38.2804 5.05371 37.2197V35.2908" stroke="#71717A" stroke-width="1.5" stroke-miterlimit="10" stroke-linecap="round" stroke-linejoin="round"/>
<path d="M22.4614 0.750016C23.3343 1.65221 23.3343 3.11535 22.4614 4.01754C21.5884 4.91982 21.5884 6.38288 22.4614 7.28516" stroke="#71717A" stroke-width="1.5" stroke-miterlimit="10" stroke-linecap="round" stroke-linejoin="round"/>
<path d="M33.6708 0.750016C34.5437 1.65221 34.5437 3.11535 33.6708 4.01754C32.7979 4.91982 32.7979 6.38288 33.6708 7.28516" stroke="#71717A" stroke-width="1.5" stroke-miterlimit="10" stroke-linecap="round" stroke-linejoin="round"/>
<path d="M28.0649 0.750016C28.9378 1.65221 28.9378 3.11535 28.0649 4.01754C27.1919 4.91982 27.1919 6.38288 28.0649 7.28516" stroke="#71717A" stroke-width="1.5" stroke-miterlimit="10" stroke-linecap="round" stroke-linejoin="round"/>
</svg>
