<svg width="26" height="28" viewBox="0 0 26 28" fill="none" xmlns="http://www.w3.org/2000/svg">
<path d="M4.86328 10.3572C5.32672 10.0883 5.92049 10.2525 6.18555 10.7185C6.45148 11.1844 6.29025 11.7771 5.82422 12.0417H5.82324C3.52086 13.3576 2.08984 15.8236 2.08984 18.4802C2.09 22.5768 5.42294 25.9097 9.51953 25.9099C12.3863 25.9099 14.984 24.2688 16.2119 21.7048L16.3262 21.4539C16.5377 20.9621 17.1098 20.7342 17.5996 20.95L17.6006 20.9509C18.0933 21.1644 18.3188 21.7357 18.1055 22.2263H18.1045C16.623 25.642 13.2533 27.8503 9.51953 27.8503C4.35323 27.8501 0.15055 23.6465 0.150391 18.4802C0.150391 15.1292 1.95575 12.017 4.8623 10.3582L4.86328 10.3572Z" fill="#3F3F46" stroke="white" stroke-width="0.3"/>
<path d="M8.39941 0.150391C9.86099 0.150391 11.0497 1.33825 11.0498 2.7998C11.0498 3.78801 10.4998 4.64176 9.69238 5.09863L9.60156 5.14941L9.61816 5.25195L10.1973 8.9834L10.2168 9.11035H15.1191C15.6556 9.11035 16.0898 9.54359 16.0898 10.0801C16.0898 10.6165 15.6556 11.0498 15.1191 11.0498H10.5176L10.5439 11.2227L10.8926 13.4629L10.9121 13.5898H19.04C19.4117 13.59 19.7454 13.8009 19.9082 14.125L19.9668 14.2715L22.4053 22.0752L22.4541 22.2295L22.6045 22.1699L24.2803 21.499L24.2793 21.498C24.7799 21.2982 25.3409 21.5409 25.541 22.04C25.7399 22.5377 25.4981 23.1018 25.001 23.3008L22.2002 24.4209C22.0843 24.4672 21.9625 24.4902 21.8398 24.4902C21.698 24.4902 21.554 24.4591 21.4238 24.3965V24.3955L21.335 24.3477C21.1633 24.2429 21.0282 24.0879 20.9482 23.9033L20.9131 23.8086L18.3594 15.6357L18.3271 15.5303H10.0801C9.60202 15.5303 9.19488 15.1816 9.12109 14.708L7.68164 5.42578L7.66797 5.33496L7.58105 5.30664L7.38574 5.2334C6.42709 4.83392 5.75 3.89838 5.75 2.7998C5.75011 1.33836 6.93904 0.150497 8.39941 0.150391Z" fill="#3F3F46" stroke="white" stroke-width="0.3"/>
</svg>
