<svg width="40" height="40" viewBox="0 0 40 40" fill="none" xmlns="http://www.w3.org/2000/svg">
<mask id="mask0_5382_17749" style="mask-type:luminance" maskUnits="userSpaceOnUse" x="0" y="0" width="40" height="40">
<path d="M39.25 39.25V0.75H0.75V39.25H39.25Z" fill="white" stroke="white" stroke-width="1.5"/>
</mask>
<g mask="url(#mask0_5382_17749)">
<path d="M38.4375 38.4375V14.2187L20 1.875L1.5625 14.2187V38.4375" stroke="#71717A" stroke-width="1.5" stroke-miterlimit="10" stroke-linecap="square"/>
<path d="M29.0625 35.3125H10.9375C9.21156 35.3125 7.8125 33.9134 7.8125 32.1875V28.2812C7.8125 26.5554 9.21156 25.1562 10.9375 25.1562H29.0625C30.7884 25.1562 32.1875 26.5554 32.1875 28.2812V32.1875C32.1875 33.9134 30.7884 35.3125 29.0625 35.3125Z" stroke="#71717A" stroke-width="1.5" stroke-miterlimit="10"/>
<path d="M23.5938 30.2344H16.4844" stroke="#71717A" stroke-width="1.5" stroke-miterlimit="10"/>
<path d="M10 26.0909L12.2549 19.1102C12.5443 18.2806 13.3268 17.7249 14.2054 17.7249H25.7812C26.6598 17.7249 27.4423 18.2806 27.7316 19.1102L30.0047 26.1426" stroke="#71717A" stroke-width="1.5" stroke-miterlimit="10"/>
<path d="M10.9375 35.8594V36.875C10.9375 37.738 10.238 38.4375 9.375 38.4375C8.51203 38.4375 7.8125 37.738 7.8125 36.875V30.3125" stroke="#71717A" stroke-width="1.5" stroke-miterlimit="10"/>
<path d="M29.0625 35.8594V36.875C29.0625 37.738 29.762 38.4375 30.625 38.4375C31.488 38.4375 32.1875 37.738 32.1875 36.875V30.3125" stroke="#71717A" stroke-width="1.5" stroke-miterlimit="10"/>
<path d="M27.1094 31.0469C27.5581 31.0469 27.9219 30.6831 27.9219 30.2344C27.9219 29.7856 27.5581 29.4219 27.1094 29.4219C26.6606 29.4219 26.2969 29.7856 26.2969 30.2344C26.2969 30.6831 26.6606 31.0469 27.1094 31.0469Z" fill="black" stroke="#71717A" stroke-width="1.5"/>
<path d="M12.9688 31.0469C13.4175 31.0469 13.7812 30.6831 13.7812 30.2344C13.7812 29.7856 13.4175 29.4219 12.9688 29.4219C12.52 29.4219 12.1562 29.7856 12.1562 30.2344C12.1562 30.6831 12.52 31.0469 12.9688 31.0469Z" fill="black" stroke="#71717A" stroke-width="1.5"/>
</g>
</svg>
