<svg width="27" height="29" viewBox="0 0 27 29" fill="none" xmlns="http://www.w3.org/2000/svg">
<path d="M6.74945 17.9643H5.5208C4.9549 17.9643 4.49609 18.4231 4.49609 18.989V21.4538C4.49609 22.0198 4.9549 22.4785 5.5208 22.4785H6.74945C7.31535 22.4785 7.7741 22.0198 7.7741 21.4538V18.989C7.7741 18.4231 7.31535 17.9643 6.74945 17.9643Z" stroke="#3F3F46" stroke-miterlimit="10" stroke-linecap="round" stroke-linejoin="round"/>
<path d="M6.74945 10.6076H5.5208C4.9549 10.6076 4.49609 11.0664 4.49609 11.6323V14.0972C4.49609 14.6631 4.9549 15.1218 5.5208 15.1218H6.74945C7.31535 15.1218 7.7741 14.6631 7.7741 14.0972V11.6323C7.7741 11.0664 7.31535 10.6076 6.74945 10.6076Z" stroke="#3F3F46" stroke-miterlimit="10" stroke-linecap="round" stroke-linejoin="round"/>
<path d="M13.682 10.6079H12.4534C11.8875 10.6079 11.4287 11.0667 11.4287 11.6325V14.0974C11.4287 14.6633 11.8875 15.1221 12.4534 15.1221H13.682C14.2479 15.1221 14.7067 14.6633 14.7067 14.0974V11.6325C14.7067 11.0667 14.2479 10.6079 13.682 10.6079Z" stroke="#3F3F46" stroke-miterlimit="10" stroke-linecap="round" stroke-linejoin="round"/>
<path d="M19.386 17.9643H20.6146C21.1805 17.9643 21.6393 18.4231 21.6393 18.989V21.4538C21.6393 22.0198 21.1805 22.4785 20.6146 22.4785H19.386C18.8201 22.4785 18.3613 22.0198 18.3613 21.4538V18.989C18.3613 18.4231 18.8201 17.9643 19.386 17.9643Z" stroke="#3F3F46" stroke-miterlimit="10" stroke-linecap="round" stroke-linejoin="round"/>
<path d="M19.386 10.6076H20.6146C21.1805 10.6076 21.6393 11.0664 21.6393 11.6323V14.0972C21.6393 14.6631 21.1805 15.1218 20.6146 15.1218H19.386C18.8201 15.1218 18.3613 14.6631 18.3613 14.0972V11.6323C18.3613 11.0664 18.8201 10.6076 19.386 10.6076Z" stroke="#3F3F46" stroke-miterlimit="10" stroke-linecap="round" stroke-linejoin="round"/>
<path d="M19.3916 2.33257V5.53345C19.427 5.53948 20.5134 5.53345 20.5134 5.53345" stroke="#3F3F46" stroke-miterlimit="10" stroke-linecap="round" stroke-linejoin="round"/>
<path d="M5.62207 2.33157V5.53516" stroke="#3F3F46" stroke-miterlimit="10" stroke-linecap="round" stroke-linejoin="round"/>
<path d="M7.83887 2.33254V5.53613" stroke="#3F3F46" stroke-miterlimit="10" stroke-linecap="round" stroke-linejoin="round"/>
<path d="M5.62207 3.87915H7.83898" stroke="#3F3F46" stroke-miterlimit="10" stroke-linecap="round" stroke-linejoin="round"/>
<path d="M17.8825 2.36178H16.5449V5.53613H17.8825" stroke="#3F3F46" stroke-miterlimit="10" stroke-linecap="round" stroke-linejoin="round"/>
<path d="M17.7838 3.94824H16.5449" stroke="#3F3F46" stroke-miterlimit="10" stroke-linecap="round" stroke-linejoin="round"/>
<path d="M13.3066 2.33276H15.0758" stroke="#3F3F46" stroke-miterlimit="10" stroke-linecap="round" stroke-linejoin="round"/>
<path d="M14.1895 2.43485V5.53613" stroke="#3F3F46" stroke-miterlimit="10" stroke-linecap="round" stroke-linejoin="round"/>
<path d="M12.3764 3.93339C12.3764 4.81805 11.6593 5.53516 10.7746 5.53516C9.89002 5.53516 9.17285 4.81805 9.17285 3.93339C9.17285 3.04873 9.89002 2.33157 10.7746 2.33157C11.6593 2.33157 12.3764 3.04873 12.3764 3.93339Z" stroke="#3F3F46" stroke-miterlimit="10" stroke-linecap="round" stroke-linejoin="round"/>
<path d="M5.04266 7.33817H21.0907C21.6008 7.33817 22.0811 7.46516 22.5025 7.68848V2.7816C22.5025 1.52146 21.481 0.499964 20.2208 0.499964H5.9125C4.65241 0.499964 3.63086 1.52146 3.63086 2.7816V7.68848C4.05226 7.46516 4.53253 7.33817 5.04266 7.33817Z" stroke="#3F3F46" stroke-miterlimit="10" stroke-linecap="round" stroke-linejoin="round"/>
<path d="M2.02441 18.4581V24.7686C2.08988 24.761 2.1563 24.7567 2.22379 24.7567H23.9131C23.9805 24.7567 24.047 24.761 24.1124 24.7686V12.8174" stroke="#3F3F46" stroke-miterlimit="10" stroke-linecap="round" stroke-linejoin="round"/>
<path d="M24.1124 12.9504V10.3599C24.1124 8.69208 22.7603 7.34 21.0924 7.34H5.0444C3.3765 7.34 2.02441 8.69208 2.02441 10.3599V18.9709" stroke="#3F3F46" stroke-miterlimit="10" stroke-linecap="round" stroke-linejoin="round"/>
<path d="M15.889 24.7578V19.3765C15.889 18.5973 15.2574 17.9658 14.4783 17.9658H11.6558C10.8767 17.9658 10.2451 18.5973 10.2451 19.3765V24.7578H15.889Z" stroke="#3F3F46" stroke-miterlimit="10" stroke-linecap="round" stroke-linejoin="round"/>
<path d="M23.9124 24.7576H2.22306C1.27148 24.7576 0.5 25.529 0.5 26.4806V27.5434C0.5 28.0723 0.928724 28.501 1.45761 28.501H24.6778C25.2067 28.501 25.6354 28.0723 25.6354 27.5434V26.4806C25.6354 25.529 24.864 24.7576 23.9124 24.7576Z" stroke="#3F3F46" stroke-miterlimit="10" stroke-linecap="round" stroke-linejoin="round"/>
</svg>
