<svg width="33" height="28" viewBox="0 0 33 28" fill="none" xmlns="http://www.w3.org/2000/svg">
<path d="M8.66174 1.83924C8.92209 1.83924 9.13305 1.62822 9.13305 1.36793V0.471311C9.13305 0.211022 8.92209 0 8.66174 0C8.40139 0 8.19043 0.211022 8.19043 0.471311V1.36787C8.19043 1.62822 8.40145 1.83924 8.66174 1.83924Z" fill="#3F3F46"/>
<path d="M8.19043 8.7157V9.61225C8.19043 9.87254 8.40139 10.0836 8.66174 10.0836C8.92209 10.0836 9.13305 9.87254 9.13305 9.61225V8.7157C9.13305 8.45541 8.92209 8.24438 8.66174 8.24438C8.40139 8.24438 8.19043 8.45541 8.19043 8.7157Z" fill="#3F3F46"/>
<path d="M5.73012 2.7772C5.91399 2.9612 6.21243 2.96132 6.39668 2.7772C6.58074 2.59313 6.58074 2.2947 6.39661 2.11064L5.76261 1.47669C5.57861 1.29257 5.28017 1.29263 5.09605 1.47669C4.91198 1.66076 4.91198 1.95919 5.09611 2.14325L5.73012 2.7772Z" fill="#3F3F46"/>
<path d="M11.5928 7.3065C11.4086 7.12244 11.1103 7.12244 10.9261 7.3065C10.7421 7.49057 10.7421 7.789 10.9261 7.97306L11.5601 8.60707C11.7443 8.79113 12.0426 8.79113 12.2268 8.60707C12.4109 8.42301 12.4108 8.12457 12.2268 7.94051L11.5928 7.3065Z" fill="#3F3F46"/>
<path d="M4.09045 5.51318H4.98707C5.24743 5.51318 5.45838 5.30216 5.45838 5.04187C5.45838 4.78158 5.24743 4.57056 4.98707 4.57056H4.09045C3.8301 4.57056 3.61914 4.78158 3.61914 5.04187C3.61914 5.30216 3.8301 5.51318 4.09045 5.51318Z" fill="#3F3F46"/>
<path d="M11.8643 5.04187C11.8643 5.30216 12.0752 5.51318 12.3356 5.51318H13.2322C13.4925 5.51318 13.7035 5.30216 13.7035 5.04187C13.7035 4.78158 13.4925 4.57056 13.2322 4.57056H12.3356C12.0753 4.57056 11.8643 4.78158 11.8643 5.04187Z" fill="#3F3F46"/>
<path d="M5.73063 7.3065L5.09662 7.94051C4.79869 8.23844 5.01392 8.74513 5.42993 8.74513C5.55052 8.74513 5.67118 8.69913 5.76324 8.60707L6.39725 7.97306C6.58131 7.789 6.58131 7.49057 6.39725 7.3065C6.21312 7.12244 5.91475 7.12244 5.73063 7.3065Z" fill="#3F3F46"/>
<path d="M11.5927 2.7772L12.2268 2.14325C12.4109 1.95919 12.4109 1.66082 12.2268 1.47669C12.0428 1.29263 11.7443 1.29257 11.5603 1.47669L10.9262 2.11064C10.7421 2.2947 10.7421 2.59307 10.9261 2.7772C11.1102 2.96126 11.4087 2.96132 11.5927 2.7772Z" fill="#3F3F46"/>
<path d="M32.1736 26.4356C32.1388 25.5702 31.3322 24.8655 30.4288 25.0136C30.0658 24.3195 31.652 27.4848 25.1362 14.4533L22.9028 9.98657C22.4596 9.10006 21.195 9.10302 20.7533 9.98657C20.5531 10.3871 19.2468 12.9998 18.976 13.5411L16.3035 8.19609C15.9013 7.39134 14.7516 7.39134 14.3493 8.19609L12.1584 12.5778C12.0657 12.7632 11.8004 12.7645 11.7071 12.5778C11.3047 11.7732 10.1552 11.7732 9.75287 12.5778L6.20911 19.6657L6.11309 19.4736C5.81604 18.8795 4.97271 18.8856 4.67873 19.4736V19.4734C4.67873 19.4735 4.67873 19.4735 4.67873 19.4736L0.886756 27.0573H0.471311C0.210959 27.0573 0 27.2683 0 27.5286C0 27.7889 0.210959 27.9999 0.471311 27.9999C0.980264 27.9999 23.7015 27.9999 24.2089 27.9999C24.4693 27.9999 24.6802 27.7889 24.6802 27.5286C24.6802 27.2683 24.4693 27.0573 24.2089 27.0573H18.9879C18.7773 27.0573 18.608 26.8854 18.6109 26.6747C18.6138 26.4682 18.8055 26.2797 19.0293 26.3056C19.3884 26.3472 19.7106 26.1111 19.7782 25.7562C19.8587 25.3354 20.2282 25.0304 20.6565 25.0304C20.9716 25.0304 21.272 25.1997 21.4338 25.4837C21.5889 25.7561 21.9046 25.895 22.2024 25.8297C22.2709 25.8146 22.4287 25.7451 22.6455 25.8151C23.1967 25.9929 23.3019 25.4973 23.8334 25.603C24.2036 25.6768 24.5598 25.4258 24.6093 25.0548C24.7064 24.3288 25.3321 23.7814 26.0648 23.7814C26.5939 23.7814 27.0845 24.069 27.345 24.5318C27.4962 24.8004 27.7843 24.9545 28.0781 24.9415C28.1458 24.9384 28.2139 24.9266 28.2807 24.9051C28.84 24.7257 29.4211 25.023 29.635 25.5392C29.778 25.8845 30.1566 26.065 30.5156 25.9589C30.8693 25.8544 31.2177 26.1245 31.2317 26.4733C31.2446 26.7946 30.989 27.0573 30.6717 27.0573H26.4086C26.1482 27.0573 25.9372 27.2683 25.9372 27.5286C25.9372 27.7889 26.1482 27.9999 26.4086 27.9999H30.6717C31.5248 27.9999 32.2078 27.2927 32.1736 26.4356ZM21.5965 10.408C21.6922 10.2168 21.9644 10.2176 22.0597 10.408C22.2415 10.7716 23.6153 13.5192 24.1428 14.5744L22.4816 16.2717C22.4413 16.3128 22.3759 16.3155 22.3324 16.2781L21.3256 15.4118C20.8761 15.0249 20.1964 15.0856 19.8226 15.5466L19.2828 16.2124C19.2434 16.2612 19.1709 16.2669 19.124 16.2237L18.8264 15.9483C20.6948 12.2115 20.6466 12.3079 21.5965 10.408ZM5.39582 20.147L6.68231 22.72L5.99803 23.4192L5.24362 22.77C4.90723 22.4806 4.43478 22.4847 4.10851 22.7214L5.39582 20.147ZM1.94073 27.0573L3.31753 24.3037C3.99301 24.4728 4.29572 23.9378 4.64907 23.502L5.40166 24.1496C5.7674 24.4644 6.31789 24.4401 6.65485 24.0959L7.12836 23.6121L8.85103 27.0573H1.94073ZM12.2179 27.0573H9.90494L6.73604 20.7195L10.5961 12.9994C10.6516 12.8885 10.8086 12.8885 10.8641 12.9995C11.3046 13.8805 12.5616 13.8796 13.0017 12.9995L15.1925 8.61763C15.248 8.50671 15.405 8.50671 15.4604 8.61763L18.4492 14.595C18.1821 15.1289 12.7332 26.0269 12.2179 27.0573ZM28.5629 23.9108C28.4096 23.9147 28.2579 23.9358 28.1097 23.9738C27.669 23.2687 26.8943 22.8387 26.0649 22.8387C24.9589 22.8387 24.0014 23.5983 23.7303 24.6471C23.4201 24.6401 23.1076 24.7194 22.8294 24.8879C22.6109 24.8339 22.3806 24.8275 22.1591 24.8694C21.8172 24.3834 21.2561 24.0878 20.6566 24.0878C19.8516 24.0878 19.1484 24.6122 18.9075 25.3629C18.2303 25.404 17.6782 25.9648 17.6684 26.6613V26.6614C17.6666 26.7907 17.6874 26.9362 17.7225 27.0572H13.272L18.3874 16.8263L18.4841 16.9157C18.4841 16.9157 18.4841 16.9157 18.4841 16.9157C18.9297 17.3278 19.6328 17.2777 20.0153 16.806L20.555 16.1403C20.594 16.0922 20.6642 16.0861 20.7109 16.1262L21.7178 16.9926C22.137 17.3533 22.7686 17.3263 23.1554 16.9311L24.5889 15.4663L28.8156 23.9197C28.7328 23.9116 28.647 23.9086 28.5629 23.9108Z" fill="#3F3F46"/>
<path d="M8.66174 7.8617C9.70749 7.8617 10.6622 7.28727 11.1533 6.36268C11.2753 6.13281 11.188 5.84744 10.9581 5.72528C10.7282 5.60312 10.4429 5.69059 10.3207 5.9204C9.99361 6.53637 9.3579 6.91895 8.66174 6.91895C7.62662 6.91895 6.78448 6.07681 6.78448 5.04169C6.78448 4.00657 7.62662 3.16443 8.66174 3.16443C9.3579 3.16443 9.99354 3.54701 10.3207 4.16298C10.4427 4.39279 10.7281 4.48026 10.9581 4.3581C11.188 4.236 11.2754 3.9507 11.1533 3.7207C10.6622 2.79605 9.70749 2.22168 8.66174 2.22168C7.10686 2.22168 5.8418 3.48668 5.8418 5.04163C5.8418 6.59658 7.10686 7.8617 8.66174 7.8617Z" fill="#3F3F46"/>
</svg>
