<svg width="33" height="18" viewBox="0 0 33 18" fill="none" xmlns="http://www.w3.org/2000/svg">
<path d="M22.9072 1.04542C24.1772 1.62901 24.6416 2.87402 26.6225 2.87402C29.21 2.87402 29.21 0.750061 31.7973 0.750061" stroke="#3F3F46" stroke-width="1.5" stroke-miterlimit="10" stroke-linecap="round" stroke-linejoin="round"/>
<path d="M0.75 0.750061C3.33717 0.750061 3.33717 2.87402 5.92441 2.87402C8.51165 2.87402 8.51165 0.750061 11.0989 0.750061C13.6861 0.750061 13.6861 2.87402 16.2732 2.87402C18.8201 2.87402 18.8598 0.815903 21.3284 0.75156" stroke="#3F3F46" stroke-width="1.5" stroke-miterlimit="10" stroke-linecap="round" stroke-linejoin="round"/>
<path d="M0.75 5.24249C3.33717 5.24249 3.33717 7.36646 5.92441 7.36646C8.51165 7.36646 8.51165 5.24249 11.0989 5.24249C13.6861 5.24249 13.6861 7.36646 16.2732 7.36646C18.8605 7.36646 18.8605 5.24249 21.4478 5.24249C24.0352 5.24249 24.0352 7.36646 26.6226 7.36646C29.21 7.36646 29.21 5.24249 31.7973 5.24249" stroke="#3F3F46" stroke-width="1.5" stroke-miterlimit="10" stroke-linecap="round" stroke-linejoin="round"/>
<path d="M0.75 9.73492C3.33717 9.73492 3.33717 11.8589 5.92441 11.8589C8.51165 11.8589 8.51165 9.73492 11.0989 9.73492C13.6861 9.73492 13.6861 11.8589 16.2732 11.8589C18.8605 11.8589 18.8605 9.73492 21.4478 9.73492C24.0352 9.73492 24.0352 11.8589 26.6226 11.8589C29.21 11.8589 29.21 9.73492 31.7973 9.73492" stroke="#3F3F46" stroke-width="1.5" stroke-miterlimit="10" stroke-linecap="round" stroke-linejoin="round"/>
<path d="M12.3154 14.4234C13.777 14.9492 14.1712 16.3513 16.2732 16.3513C18.8605 16.3513 18.8605 14.2274 21.4478 14.2274C24.0352 14.2274 24.0352 16.3513 26.6226 16.3513C29.21 16.3513 29.21 14.2274 31.7974 14.2274" stroke="#3F3F46" stroke-width="1.5" stroke-miterlimit="10" stroke-linecap="round" stroke-linejoin="round"/>
<path d="M0.75 14.2274C3.33717 14.2274 3.33717 16.3513 5.92441 16.3513C8.39545 16.3513 8.5064 14.4138 10.7654 14.2398" stroke="#3F3F46" stroke-width="1.5" stroke-miterlimit="10" stroke-linecap="round" stroke-linejoin="round"/>
</svg>
