<svg width="32" height="30" viewBox="0 0 32 30" fill="none" xmlns="http://www.w3.org/2000/svg">
<path d="M19.7437 10.8733C18.3753 10.8733 17.074 11.3115 16.0003 12.1216C14.9266 11.3115 13.6255 10.8733 12.2569 10.8733C10.5923 10.8733 9.0274 11.5215 7.8504 12.6987C5.42096 15.1284 5.42096 19.0818 7.8504 21.5115L15.3375 28.9983C15.5206 29.1814 15.7603 29.2729 16.0003 29.2729C16.2403 29.2729 16.4803 29.1814 16.6631 28.9983L24.1502 21.5115C25.3272 20.3345 25.9754 18.7695 25.9754 17.105C25.9754 15.4404 25.3272 13.8755 24.1502 12.6987C22.9732 11.5215 21.4083 10.8733 19.7437 10.8733ZM22.8243 20.1855L16.0003 27.0095L9.17633 20.1855C7.47784 18.4868 7.47784 15.7231 9.17633 14.0244C9.99933 13.2014 11.0933 12.7483 12.2569 12.7483C13.4205 12.7483 14.5145 13.2014 15.3375 14.0244C15.5132 14.2002 15.7515 14.2991 16.0003 14.2991C16.2488 14.2991 16.4874 14.2002 16.6631 14.0244C17.4861 13.2014 18.5801 12.7483 19.744 12.7483C20.9075 12.7483 22.0015 13.2014 22.8245 14.0244C23.6473 14.8472 24.1004 15.9412 24.1004 17.105C24.1004 18.2686 23.6473 19.3628 22.8243 20.1855Z" fill="#3F3F46"/>
<path d="M11.6484 9.9082C12.7393 9.9082 13.7891 9.34277 14.5286 8.35693C15.2183 7.43701 15.5984 6.22852 15.5984 4.9541C15.5984 3.67969 15.2183 2.47144 14.5286 1.55151C13.7891 0.56543 12.7393 0 11.6484 0C10.5574 0 9.50757 0.56543 8.76831 1.55151C8.07837 2.47144 7.69824 3.67993 7.69824 4.9541C7.69824 6.22852 8.07837 7.43701 8.76831 8.35693C9.50757 9.34277 10.5574 9.9082 11.6484 9.9082ZM11.6484 1.875C12.7729 1.875 13.7234 3.28491 13.7234 4.9541C13.7234 6.62305 12.7729 8.0332 11.6484 8.0332C10.5234 8.0332 9.57324 6.62329 9.57324 4.9541C9.57324 3.28491 10.5234 1.875 11.6484 1.875Z" fill="#3F3F46"/>
<path d="M20.3511 9.9082C21.4421 9.9082 22.4919 9.34277 23.2314 8.35693C23.9211 7.43701 24.3013 6.22852 24.3013 4.9541C24.3013 3.67969 23.9214 2.47144 23.2314 1.55151C22.4919 0.56543 21.4421 0 20.3511 0C19.2603 0 18.2104 0.56543 17.4709 1.55151C16.7812 2.47144 16.4014 3.67993 16.4014 4.9541C16.4014 6.22852 16.7812 7.43701 17.4709 8.35693C18.2104 9.34277 19.2603 9.9082 20.3511 9.9082ZM20.3511 1.875C21.4761 1.875 22.4263 3.28491 22.4263 4.9541C22.4263 6.62305 21.4758 8.0332 20.3511 8.0332C19.2266 8.0332 18.2764 6.62329 18.2764 4.9541C18.2764 3.28491 19.2266 1.875 20.3511 1.875Z" fill="#3F3F46"/>
<path d="M31.0776 5.70679C30.4316 4.84546 29.5112 4.35132 28.5525 4.35132C27.5938 4.35132 26.6733 4.84521 26.0273 5.70679C25.4321 6.50024 25.1045 7.54053 25.1045 8.63599C25.1045 9.73169 25.4321 10.772 26.0273 11.5654C26.6733 12.4268 27.5938 12.9209 28.5525 12.9209C29.5112 12.9209 30.4316 12.4268 31.0776 11.5654C31.6726 10.772 32.0002 9.73169 32.0002 8.63599C32.0002 7.54053 31.6726 6.50024 31.0776 5.70679ZM28.5525 11.0457C27.6997 11.0457 26.9795 9.94214 26.9795 8.63599C26.9795 7.32983 27.6997 6.22632 28.5525 6.22632C29.405 6.22632 30.1252 7.32983 30.1252 8.63599C30.1252 9.94214 29.405 11.0457 28.5525 11.0457Z" fill="#3F3F46"/>
<path d="M5.97314 5.70679C5.32715 4.84521 4.40674 4.35132 3.448 4.35132C2.48926 4.35132 1.56885 4.84521 0.922852 5.70679C0.327637 6.50024 0 7.54053 0 8.63599C0 9.73145 0.327637 10.772 0.922852 11.5654C1.56885 12.4268 2.48926 12.9207 3.448 12.9207C4.40674 12.9207 5.32715 12.4268 5.97314 11.5654C6.56812 10.772 6.896 9.73145 6.896 8.63599C6.896 7.54053 6.56812 6.50024 5.97314 5.70679ZM3.448 11.0457C2.59521 11.0457 1.875 9.94214 1.875 8.63599C1.875 7.32983 2.59521 6.22632 3.448 6.22632C4.30054 6.22632 5.021 7.32983 5.021 8.63599C5.021 9.94214 4.30054 11.0457 3.448 11.0457Z" fill="#3F3F46"/>
</svg>
