<svg width="32" height="27" viewBox="0 0 32 27" fill="none" xmlns="http://www.w3.org/2000/svg">
<path d="M31.4667 23.6172H29.6713L20.8347 4.9043L21.2241 3.54111C21.324 3.19153 21.3513 2.82522 21.3045 2.46469C21.2576 2.10416 21.1374 1.75703 20.9515 1.44462C20.7655 1.13221 20.5176 0.861135 20.2231 0.648039C19.9285 0.434944 19.5935 0.284334 19.2386 0.205465L18.6111 0.065999C17.9476 -0.0806911 17.2531 0.0311337 16.6692 0.378685C16.0853 0.726237 15.6559 1.28336 15.4685 1.93652L14.1502 6.55062H13.0788L12.3014 4.9043L12.6909 3.54111C12.7907 3.19153 12.8181 2.82522 12.7712 2.46469C12.7243 2.10416 12.6042 1.75703 12.4182 1.44462C12.2322 1.13221 11.9844 0.861135 11.6898 0.648039C11.3952 0.434944 11.0602 0.284334 10.7053 0.205465L10.0602 0.0621324C9.40084 -0.0825286 8.71113 0.0275301 8.12951 0.370224C7.54789 0.712918 7.11738 1.26289 6.92438 1.90979L0.020231 26.1383C0.00111942 26.2057 -0.00452729 26.2762 0.00361314 26.3458C0.0117536 26.4154 0.0335218 26.4827 0.0676749 26.5439C0.101828 26.6051 0.147697 26.6589 0.202664 26.7024C0.25763 26.7458 0.320617 26.778 0.388028 26.7971C0.45544 26.8163 0.525955 26.8219 0.595549 26.8138C0.665143 26.8056 0.732452 26.7838 0.793633 26.7497C0.854814 26.7155 0.908669 26.6697 0.952123 26.6147C0.995577 26.5597 1.02778 26.4968 1.04689 26.4293L1.84402 23.6172H9.27403L8.55404 26.1371C8.53478 26.2045 8.52897 26.275 8.53694 26.3445C8.54492 26.4141 8.56652 26.4815 8.60052 26.5427C8.63452 26.6039 8.68025 26.6579 8.73509 26.7014C8.78994 26.745 8.85283 26.7773 8.92017 26.7966C8.98751 26.8159 9.05798 26.8217 9.12757 26.8137C9.19716 26.8057 9.26449 26.7841 9.32573 26.7501C9.38696 26.7161 9.4409 26.6704 9.48447 26.6155C9.52803 26.5607 9.56037 26.4978 9.57963 26.4305L13.0099 14.4244L18.7178 26.5117C18.761 26.6031 18.8293 26.6803 18.9147 26.7344C19 26.7884 19.099 26.8172 19.2001 26.8171H31.4667C31.6081 26.8171 31.7438 26.761 31.8438 26.6609C31.9438 26.5609 32 26.4253 32 26.2838V24.1505C32 24.009 31.9438 23.8734 31.8438 23.7734C31.7438 23.6734 31.6081 23.6172 31.4667 23.6172ZM16.4942 2.22958C16.6065 1.83763 16.8641 1.50328 17.2145 1.29474C17.5648 1.08619 17.9815 1.01917 18.3796 1.10732L19.0072 1.24672C19.2201 1.29405 19.4211 1.38442 19.5979 1.51228C19.7746 1.64013 19.9233 1.80278 20.0349 1.99022C20.1465 2.17767 20.2185 2.38595 20.2467 2.60226C20.2748 2.81858 20.2584 3.03836 20.1985 3.24811L19.8644 4.4173H15.8691L16.4942 2.22958ZM7.94757 2.21198C8.06339 1.82391 8.32166 1.49398 8.67057 1.28838C9.01948 1.08277 9.43323 1.01669 9.82883 1.10339L10.4739 1.24672C10.6868 1.29405 10.8879 1.38442 11.0646 1.51228C11.2413 1.64014 11.3901 1.8028 11.5017 1.99025C11.6132 2.1777 11.6853 2.38599 11.7134 2.60231C11.7416 2.81863 11.7251 3.03843 11.6652 3.24818L11.3312 4.4173H7.29585L7.94757 2.21198ZM3.961 16.1505L4.56587 14.0172H12.0169L11.4073 16.1505H3.961ZM11.1026 17.2172L10.4931 19.3505H3.05354L3.6584 17.2172H11.1026ZM4.86826 12.9506L5.47313 10.8173H11.3064L12.3138 12.9506H4.86826ZM5.77559 9.7506L6.38045 7.61728H9.79556L10.803 9.7506H5.77559ZM2.14642 22.5505L2.75128 20.4172H10.1884L9.57883 22.5505H2.14642ZM22.4001 25.7505H19.538L10.6158 6.85622C10.5726 6.76481 10.5043 6.68756 10.419 6.63345C10.3336 6.57935 10.2346 6.55062 10.1335 6.55062H6.68285L6.98531 5.48396H11.3955L20.3178 24.3782C20.361 24.4696 20.4292 24.5469 20.5146 24.601C20.6 24.6551 20.699 24.6838 20.8001 24.6838H22.4001V25.7505ZM23.4667 25.7505V24.1505C23.4667 24.009 23.4105 23.8734 23.3105 23.7734C23.2105 23.6734 23.0748 23.6172 22.9334 23.6172H21.138L13.5825 7.61728H18.3288L26.8917 25.7505H23.4667ZM30.9333 25.7505H28.0713L19.149 6.85622C19.1059 6.76481 19.0376 6.68756 18.9522 6.63345C18.8668 6.57935 18.7678 6.55062 18.6668 6.55062H15.2596L15.5643 5.48396H19.9288L28.8511 24.3782C28.8943 24.4696 28.9625 24.5469 29.0479 24.601C29.1333 24.6551 29.2323 24.6838 29.3334 24.6838H30.9333V25.7505Z" fill="#3F3F46"/>
</svg>
