<svg width="32" height="32" viewBox="0 0 32 32" fill="none" xmlns="http://www.w3.org/2000/svg">
<g clip-path="url(#clip0_11600_57672)">
<path d="M16.6087 25.9888H5.37788C4.05184 25.9888 2.97351 24.9105 2.97351 23.5844V8.24327C2.97351 6.91723 4.05184 5.8389 5.37788 5.8389H7.63862V6.40513C7.63862 6.92243 8.05808 7.34189 8.57539 7.34189C9.09269 7.34189 9.51215 6.92243 9.51215 6.40513V5.8389H20.7159V6.40513C20.7159 6.92243 21.1354 7.34189 21.6527 7.34189C22.17 7.34189 22.5894 6.92243 22.5894 6.40513V5.8389H24.8418C26.1668 5.8389 27.2462 6.91723 27.2462 8.24327V14.936C27.2462 15.4533 27.6657 15.8727 28.183 15.8727C28.7003 15.8727 29.1198 15.4533 29.1198 14.936V8.24327C29.1198 5.8847 27.2004 3.96537 24.8418 3.96537H22.5894V3.48657C22.5894 2.96927 22.17 2.5498 21.6527 2.5498C21.1354 2.5498 20.7159 2.96927 20.7159 3.48657V3.96537H9.51215V3.48657C9.51215 2.96927 9.09269 2.5498 8.57539 2.5498C8.05808 2.5498 7.63862 2.96927 7.63862 3.48657V3.96537H5.37788C3.01931 3.96537 1.09998 5.8847 1.09998 8.24327V23.5855C1.09998 25.9451 3.01931 27.8634 5.37788 27.8634H16.6087C17.126 27.8634 17.5455 27.4439 17.5455 26.9266C17.5455 26.4093 17.126 25.9888 16.6087 25.9888Z" fill="#3F3F46" stroke="white" stroke-width="0.4"/>
<path d="M8.37973 12.6406C7.78228 12.6406 7.29828 13.1246 7.29828 13.7221C7.29828 14.3195 7.78228 14.8035 8.37973 14.8035C8.97718 14.8035 9.46117 14.3195 9.46117 13.7221C9.46117 13.1246 8.97718 12.6406 8.37973 12.6406Z" fill="#3F3F46" stroke="white" stroke-width="0.4"/>
<path d="M15.113 12.6406C14.5156 12.6406 14.0316 13.1246 14.0316 13.7221C14.0316 14.3195 14.5156 14.8035 15.113 14.8035C15.7105 14.8035 16.1944 14.3195 16.1944 13.7221C16.1944 13.1246 15.7094 12.6406 15.113 12.6406Z" fill="#3F3F46" stroke="white" stroke-width="0.4"/>
<path d="M20.7638 13.7221C20.7638 14.3195 21.2478 14.8035 21.8452 14.8035C22.4427 14.8035 22.9267 14.3195 22.9267 13.7221C22.9267 13.1246 22.4427 12.6406 21.8452 12.6406C21.2478 12.6406 20.7638 13.1246 20.7638 13.7221Z" fill="#3F3F46" stroke="white" stroke-width="0.4"/>
<path d="M8.37973 18.5322C7.78228 18.5322 7.29828 19.0162 7.29828 19.6137C7.29828 20.2111 7.78228 20.6951 8.37973 20.6951C8.97718 20.6951 9.46117 20.2111 9.46117 19.6137C9.46117 19.0162 8.97718 18.5322 8.37973 18.5322Z" fill="#3F3F46" stroke="white" stroke-width="0.4"/>
<path d="M15.113 18.5322C14.5156 18.5322 14.0316 19.0162 14.0316 19.6137C14.0316 20.2111 14.5156 20.6951 15.113 20.6951C15.7105 20.6951 16.1944 20.2111 16.1944 19.6137C16.1944 19.0162 15.7094 18.5322 15.113 18.5322Z" fill="#3F3F46" stroke="white" stroke-width="0.4"/>
<path d="M25.4633 17.2412C21.7943 17.2412 18.808 20.2264 18.808 23.8954C18.808 27.5634 21.7932 30.5496 25.4633 30.5496C29.1333 30.5496 32.1185 27.5644 32.1185 23.8954C32.1174 20.2253 29.1323 17.2412 25.4633 17.2412ZM25.4633 28.6739C22.8278 28.6739 20.6826 26.5298 20.6826 23.8943C20.6826 21.2589 22.8278 19.1137 25.4633 19.1137C28.0987 19.1137 30.2439 21.2589 30.2439 23.8943C30.2439 26.5298 28.0987 28.6739 25.4633 28.6739Z" fill="#3F3F46" stroke="white" stroke-width="0.4"/>
<path d="M26.8205 22.1914L24.7679 23.8454L24.2569 23.1927C23.9363 22.7858 23.3503 22.715 22.9412 23.0345C22.5343 23.3541 22.4635 23.9422 22.783 24.3502L23.8801 25.7491C24.0341 25.9458 24.261 26.0738 24.5098 26.1019C24.5452 26.1061 24.5806 26.1082 24.617 26.1082C24.8293 26.1082 25.0375 26.0353 25.2041 25.901L27.9956 23.6528C28.3995 23.327 28.4619 22.7379 28.1382 22.3351C27.8135 21.9323 27.2233 21.8657 26.8205 22.1914Z" fill="#3F3F46" stroke="white" stroke-width="0.4"/>
</g>
<defs>
<clipPath id="clip0_11600_57672">
<rect width="32" height="32" fill="white"/>
</clipPath>
</defs>
</svg>
