<svg width="28" height="28" viewBox="0 0 28 28" fill="none" xmlns="http://www.w3.org/2000/svg">
<g clip-path="url(#clip0_11487_39876)">
<path d="M9.38965 17.9502C10.9441 17.7944 12.5086 18.2968 13.6807 19.3281C13.8653 19.4906 14.0119 19.636 14.1553 19.7344C14.3065 19.8381 14.4624 19.8975 14.6738 19.8975H17.3359C18.3463 19.8975 19.2107 20.5356 19.5469 21.4307L19.6016 21.5762L19.7109 21.4658L22.2295 18.9482C23.1499 18.0278 24.6471 18.0279 25.5674 18.9482C26.4877 19.8686 26.4877 21.3657 25.5674 22.2861L20.6455 27.208C20.1994 27.6542 19.6072 27.9004 18.9766 27.9004H2.46094C2.06313 27.9004 1.74023 27.5775 1.74023 27.1797V20.6172C1.74029 20.2194 2.06317 19.8975 2.46094 19.8975H5.66309L5.69336 19.8623C6.64918 18.7686 7.94714 18.0946 9.38965 17.9502ZM3.18164 26.46H5.13086V21.3379H3.18164V26.46ZM12.7285 20.4102C11.8556 19.642 10.691 19.2681 9.5332 19.3838C8.36383 19.5008 7.32017 20.089 6.59277 21.0381L6.57227 21.0645V26.46H18.9766C19.2189 26.46 19.4555 26.361 19.627 26.1895L24.5488 21.2676C24.9076 20.9088 24.9077 20.3256 24.5488 19.9668C24.19 19.608 23.6069 19.608 23.248 19.9668L18.8066 24.4082C18.6716 24.5432 18.4879 24.6191 18.2969 24.6191H13.9844C13.69 24.6193 13.4118 24.7615 13.2393 25C13.006 25.3224 12.5556 25.3942 12.2334 25.1611C11.911 24.928 11.8382 24.4776 12.0713 24.1553C12.5138 23.5435 13.2293 23.1788 13.9844 23.1787H17.3359C17.8435 23.1787 18.2559 22.7654 18.2559 22.2578C18.2558 21.7503 17.8435 21.3379 17.3359 21.3379H14.6738C13.6721 21.3379 13.1497 20.7809 12.7285 20.4102Z" fill="#3F3F46" stroke="white" stroke-width="0.2"/>
<path d="M14.0547 0.0996094C15.3564 0.0996094 16.416 1.15921 16.416 2.46094C16.416 2.81215 16.3383 3.14548 16.2002 3.44531L16.1455 3.5625L16.2725 3.58594C21.6472 4.58489 25.8634 9.21056 26.2324 14.8818L26.2383 14.9746H27.1797C27.5775 14.9746 27.9004 15.2975 27.9004 15.6953C27.9004 16.0931 27.5775 16.416 27.1797 16.416H0.820312C0.42251 16.416 0.0996094 16.0931 0.0996094 15.6953C0.0996094 15.2975 0.42251 14.9746 0.820312 14.9746H1.76172L1.76855 14.8818C2.14579 9.19093 6.46215 4.57621 11.8369 3.58398L11.9629 3.56152L11.9092 3.44434C11.7713 3.14471 11.6934 2.81181 11.6934 2.46094C11.6934 1.15921 12.753 0.0996094 14.0547 0.0996094ZM14.0547 4.81055C8.43733 4.81055 3.65307 9.342 3.21387 14.8672L3.20605 14.9746H24.7959L24.7881 14.8672C24.3679 9.25782 19.7154 4.81055 14.0547 4.81055ZM14.0547 1.54102C13.5471 1.54102 13.1348 1.95339 13.1348 2.46094C13.1348 2.96849 13.5471 3.38086 14.0547 3.38086C14.5622 3.38086 14.9746 2.96849 14.9746 2.46094C14.9746 1.95339 14.5622 1.54102 14.0547 1.54102Z" fill="#3F3F46" stroke="white" stroke-width="0.2"/>
</g>
<defs>
<clipPath id="clip0_11487_39876">
<rect width="28" height="28" fill="white"/>
</clipPath>
</defs>
</svg>
