<svg width="32" height="29" viewBox="0 0 32 29" fill="none" xmlns="http://www.w3.org/2000/svg">
<path d="M19.9993 17.6007H16.7993V9.60065H29.5994C30.0408 9.60089 30.3989 9.24323 30.3992 8.80158C30.3992 8.80133 30.3992 8.80084 30.3992 8.8006V7.20075C30.3989 6.89093 30.22 6.60919 29.9397 6.47736L16.3401 0.0774536C16.1248 -0.0258179 15.874 -0.0258179 15.6587 0.0774536L2.05884 6.47736C1.77881 6.60919 1.59985 6.89118 1.59961 7.20075V8.8006C1.59937 9.24225 1.95703 9.6004 2.39868 9.60065H2.39966H15.1995V17.6007H11.9995C11.5579 17.6007 11.1997 17.9588 11.1997 18.4005C11.1997 18.8424 11.5579 19.2005 11.9995 19.2005H15.1995V27.2005H14.3997C13.9578 27.2005 13.5996 27.5587 13.5996 28.0003C13.5996 28.4422 13.9578 28.8004 14.3997 28.8004H17.5994C18.041 28.8004 18.3992 28.4422 18.3992 28.0003C18.3992 27.5587 18.041 27.2005 17.5994 27.2005H16.7993V19.2005H19.9993C20.4412 19.2005 20.7993 18.8424 20.7993 18.4005C20.7993 17.9588 20.4412 17.6007 19.9993 17.6007ZM3.19946 7.7088L15.9995 1.68561L28.7993 7.7088V8.00055H3.19946V7.7088Z" fill="#3F3F46"/>
<path d="M7.95945 22.9474C7.85007 22.6209 7.54441 22.4007 7.19992 22.4005H2.97678L1.56003 18.1476C1.42014 17.7281 0.966768 17.5016 0.547578 17.6414C0.128145 17.7811 -0.098418 18.2345 0.0412305 18.6539L1.55661 23.2005L0.0409864 27.7474C-0.0976855 28.1666 0.128389 28.6192 0.54709 28.7599C0.628633 28.787 0.714082 28.8009 0.80002 28.8006C1.14401 28.7999 1.44968 28.5799 1.5593 28.2538L2.97727 24.0006H6.62375L8.04099 28.2538C8.15061 28.5797 8.45578 28.7997 8.79978 28.8006C8.88572 28.8009 8.97141 28.7872 9.05295 28.7599C9.47165 28.6192 9.69773 28.1668 9.55906 27.7474L7.95945 22.9474Z" fill="#3F3F46"/>
<path d="M30.4429 23.2005L31.9585 18.6536C32.0982 18.2344 31.8716 17.7811 31.4522 17.6412C31.0328 17.5013 30.5796 17.7281 30.4397 18.1475L29.0227 22.4005H24.7996C24.4554 22.4007 24.1495 22.6209 24.0401 22.9473L22.4402 27.7474C22.3016 28.1666 22.5276 28.6192 22.9463 28.7598C23.0279 28.7869 23.1136 28.8006 23.1995 28.8004C23.5437 28.7999 23.8492 28.5797 23.9588 28.2537L25.376 24.0006H29.0223L30.4397 28.2535C30.5496 28.5799 30.8553 28.7999 31.1995 28.8004C31.2854 28.8006 31.3711 28.7869 31.4527 28.7598C31.8714 28.6192 32.0977 28.1666 31.959 27.7474L30.4429 23.2005Z" fill="#3F3F46"/>
</svg>
