<svg width="28" height="28" viewBox="0 0 28 28" fill="none" xmlns="http://www.w3.org/2000/svg">
<path d="M27.4167 27.9995H0.438115C0.196107 27.9995 0 27.8034 0 27.5614C0 27.3195 0.196162 27.1233 0.438115 27.1233H27.4167C27.6586 27.1233 27.8548 27.3195 27.8548 27.5614C27.8548 27.8034 27.6586 27.9995 27.4167 27.9995Z" fill="#3F3F46"/>
<path d="M25.7299 28.0002H2.12366C1.88165 28.0002 1.68555 27.804 1.68555 27.562V5.6554C1.68555 5.41339 1.88171 5.21729 2.12366 5.21729H25.7299C25.9718 5.21729 26.168 5.41345 26.168 5.6554V27.562C26.168 27.804 25.9718 28.0002 25.7299 28.0002ZM2.56178 27.1239H25.2918V6.09352H2.56178V27.1239Z" fill="#3F3F46"/>
<path d="M27.4167 6.09336H0.438114C0.292953 6.09336 0.15717 6.02147 0.0756778 5.90137C-0.005869 5.78127 -0.02265 5.62859 0.0308737 5.49363L2.10113 0.276557C2.16738 0.109625 2.32877 0 2.50837 0H25.4588C25.6414 0 25.8049 0.113244 25.869 0.28418L27.8269 5.50131C27.8774 5.63583 27.8586 5.78664 27.7768 5.90477C27.6949 6.02289 27.5603 6.09336 27.4167 6.09336ZM1.08336 5.21713H26.7843L25.1552 0.876285H2.80588L1.08336 5.21713Z" fill="#3F3F46"/>
<path d="M13.9841 27.9997C13.7421 27.9997 13.546 27.8036 13.546 27.5616V21.1099H10.1506V27.5616C10.1506 27.8036 9.95448 27.9997 9.71253 27.9997C9.47052 27.9997 9.27441 27.8036 9.27441 27.5616V20.6718C9.27441 20.4298 9.47058 20.2336 9.71253 20.2336H13.9841C14.2261 20.2336 14.4222 20.4298 14.4222 20.6718V27.5616C14.4222 27.8036 14.2261 27.9997 13.9841 27.9997Z" fill="#3F3F46"/>
<path d="M18.1421 27.9997C17.9002 27.9997 17.704 27.8036 17.704 27.5616V21.1099H14.4212V27.5616C14.4212 27.8036 14.225 27.9997 13.983 27.9997C13.741 27.9997 13.5449 27.8036 13.5449 27.5616V20.6718C13.5449 20.4298 13.7411 20.2336 13.983 20.2336H18.1422C18.3842 20.2336 18.5803 20.4298 18.5803 20.6718V27.5616C18.5803 27.8036 18.3841 27.9997 18.1421 27.9997Z" fill="#3F3F46"/>
<path d="M8.86903 12.0945H5.49671C5.2547 12.0945 5.05859 11.8983 5.05859 11.6564V8.28406C5.05859 8.04205 5.25476 7.84595 5.49671 7.84595H8.86903C9.11104 7.84595 9.30714 8.04211 9.30714 8.28406V11.6564C9.30714 11.8983 9.11104 12.0945 8.86903 12.0945ZM5.93482 11.2183H8.43086V8.72223H5.93482V11.2183Z" fill="#3F3F46"/>
<path d="M15.6141 12.0947H12.2418C11.9998 12.0947 11.8037 11.8986 11.8037 11.6566V8.28431C11.8037 8.0423 11.9999 7.84619 12.2418 7.84619H15.6141C15.8561 7.84619 16.0523 8.04235 16.0523 8.28431V11.6566C16.0523 11.8986 15.8561 12.0947 15.6141 12.0947ZM12.6799 11.2185H15.176V8.72248H12.6799V11.2185Z" fill="#3F3F46"/>
<path d="M22.3583 12.0945H18.986C18.744 12.0945 18.5479 11.8983 18.5479 11.6564V8.28406C18.5479 8.04205 18.744 7.84595 18.986 7.84595H22.3583C22.6002 7.84595 22.7964 8.04211 22.7964 8.28406V11.6564C22.7964 11.8983 22.6002 12.0945 22.3583 12.0945ZM19.4241 11.2183H21.9201V8.72223H19.4241V11.2183Z" fill="#3F3F46"/>
<path d="M8.86903 18.0484H5.49671C5.2547 18.0484 5.05859 17.8522 5.05859 17.6102V14.2379C5.05859 13.9959 5.25476 13.7998 5.49671 13.7998H8.86903C9.11104 13.7998 9.30714 13.996 9.30714 14.2379V17.6102C9.30714 17.8522 9.11104 18.0484 8.86903 18.0484ZM5.93482 17.1721H8.43086V14.6761H5.93482V17.1721Z" fill="#3F3F46"/>
<path d="M15.6141 18.0484H12.2418C11.9998 18.0484 11.8037 17.8522 11.8037 17.6102V14.2379C11.8037 13.9959 11.9999 13.7998 12.2418 13.7998H15.6141C15.8561 13.7998 16.0523 13.996 16.0523 14.2379V17.6102C16.0523 17.8522 15.8561 18.0484 15.6141 18.0484ZM12.6799 17.1721H15.176V14.6761H12.6799V17.1721Z" fill="#3F3F46"/>
<path d="M22.3583 18.0484H18.986C18.744 18.0484 18.5479 17.8522 18.5479 17.6102V14.2379C18.5479 13.9959 18.744 13.7998 18.986 13.7998H22.3583C22.6002 13.7998 22.7964 13.996 22.7964 14.2379V17.6102C22.7964 17.8522 22.6002 18.0484 22.3583 18.0484ZM19.4241 17.1721H21.9201V14.6761H19.4241V17.1721Z" fill="#3F3F46"/>
<path d="M26.4136 3.47021H1.49476C1.25275 3.47021 1.05664 3.2735 1.05664 3.03149C1.05664 2.78948 1.2528 2.59277 1.49476 2.59277H26.4136C26.6555 2.59277 26.8517 2.78948 26.8517 3.03149C26.8517 3.2735 26.6555 3.47021 26.4136 3.47021Z" fill="#3F3F46"/>
</svg>
