<svg width="26" height="28" viewBox="0 0 26 28" fill="none" xmlns="http://www.w3.org/2000/svg">
<path d="M23.3774 18.0022C23.2528 17.7219 22.9102 17.5661 22.6299 17.6907C19.8891 18.8743 18.5498 18.3136 17.1171 17.6907C15.6533 17.0678 14.1583 16.4449 11.4797 17.6907C8.73892 18.8743 7.39965 18.3136 5.96695 17.6907C4.5031 17.0678 3.00811 16.4449 0.32958 17.6907C0.0492684 17.8153 -0.0753142 18.1579 0.0492685 18.4382C0.173851 18.7185 0.516454 18.8431 0.796765 18.7185C3.00811 17.6907 4.1605 18.189 5.49976 18.7497C6.37184 19.1234 7.33736 19.5283 8.58319 19.5283C9.48641 19.5283 10.5765 19.3103 11.9158 18.7497C14.1271 17.7219 15.2795 18.2202 16.6188 18.7808C17.4909 19.1546 18.4564 19.5595 19.7022 19.5595C20.6054 19.5595 21.6955 19.3414 23.0348 18.7808C23.3774 18.6251 23.502 18.2825 23.3774 18.0022Z" fill="#3F3F46"/>
<path d="M23.3151 22.2693C23.2528 21.9267 22.9102 21.771 22.6299 21.8955C19.8891 23.0791 18.5498 22.5185 17.1171 21.8955C15.6533 21.2726 14.1583 20.6497 11.4797 21.8955C8.73892 23.0791 7.39965 22.5185 5.96695 21.8955C4.5031 21.2726 2.97696 20.6497 0.32958 21.8955C0.0492684 22.0513 -0.0753142 22.3939 0.0492685 22.6742C0.173851 22.9545 0.516454 23.0791 0.796765 22.9545C3.00811 21.9267 4.1605 22.425 5.49976 22.9856C6.37184 23.3594 7.33736 23.7643 8.58319 23.7643C9.48641 23.7643 10.5765 23.5463 11.9158 22.9856C14.1271 21.9578 15.2795 22.4562 16.6188 23.0168C17.4909 23.3905 18.4564 23.7954 19.7022 23.7954C20.6054 23.7954 21.6955 23.5774 23.0348 23.0168C23.3151 22.8922 23.4708 22.5496 23.3151 22.2693Z" fill="#3F3F46"/>
<path d="M23.3458 26.4739C23.2213 26.1935 22.8787 26.0378 22.5984 26.1624C19.8575 27.3459 18.5183 26.7853 17.0856 26.1624C15.6217 25.5395 14.1267 24.9166 11.4482 26.1624C8.70738 27.3459 7.36811 26.7853 5.93541 26.1624C4.47156 25.5395 2.97657 24.9166 0.29804 26.1624C0.0488743 26.2558 -0.0757083 26.5984 0.0488744 26.8787C0.173457 27.1591 0.51606 27.2836 0.796371 27.1591C3.00771 26.1312 4.16011 26.6296 5.49937 27.1902C6.37145 27.564 7.33697 27.9688 8.58279 27.9688C9.48602 27.9688 10.5761 27.7508 11.9154 27.1902C14.1267 26.1624 15.2791 26.6607 16.6184 27.2213C17.4905 27.5951 18.456 28 19.7018 28C20.605 28 21.6951 27.782 23.0344 27.2213C23.3147 27.0968 23.4704 26.7542 23.3458 26.4739Z" fill="#3F3F46"/>
<path d="M24.4668 7.44382H21.4457C21.3522 6.63403 21.0096 5.88654 20.5425 5.29477L22.6915 3.14571C22.9095 2.9277 22.9095 2.55395 22.6915 2.33593C22.4735 2.11791 22.0997 2.11791 21.8817 2.33593L19.7327 4.48498C19.1098 4.01779 18.3623 3.67519 17.5836 3.58175V0.560622C17.5836 0.249166 17.3345 0 17.023 0C16.7115 0 16.4624 0.249166 16.4624 0.560622V3.58175C15.6526 3.67519 14.9051 4.01779 14.3133 4.48498L12.1643 2.33593C11.9462 2.11791 11.5725 2.11791 11.3545 2.33593C11.1365 2.55395 11.1365 2.9277 11.3545 3.14571L13.5035 5.29477C13.0363 5.91768 12.6937 6.66518 12.6003 7.44382H9.57918C9.26772 7.44382 9.01855 7.69299 9.01855 8.00444C9.01855 8.3159 9.26772 8.56507 9.57918 8.56507H12.6003C12.6937 9.37485 13.0363 10.1224 13.5035 10.7141L11.3545 12.8632C11.1365 13.0812 11.1365 13.4549 11.3545 13.673C11.4791 13.7975 11.6036 13.8287 11.7594 13.8287C11.9151 13.8287 12.0397 13.7664 12.1643 13.673L14.3133 11.5239C14.9362 11.9911 15.6837 12.3337 16.4624 12.4271V15.4483C16.4624 15.7597 16.7115 16.0089 17.023 16.0089C17.3345 16.0089 17.5836 15.7597 17.5836 15.4483V12.4271C18.3934 12.3337 19.1409 11.9911 19.7327 11.5239L21.8817 13.673C22.0063 13.7975 22.1309 13.8287 22.2866 13.8287C22.4423 13.8287 22.5669 13.7664 22.6915 13.673C22.9095 13.4549 22.9095 13.0812 22.6915 12.8632L20.5425 10.7141C21.0096 10.0912 21.3522 9.34371 21.4457 8.56507H24.4668C24.7783 8.56507 25.0274 8.3159 25.0274 8.00444C25.0274 7.69299 24.7783 7.44382 24.4668 7.44382ZM16.9919 11.337C15.1543 11.337 13.6593 9.84204 13.6593 8.00444C13.6593 6.16685 15.1543 4.67185 16.9919 4.67185C18.8294 4.67185 20.3244 6.16685 20.3244 8.00444C20.3244 9.84204 18.8294 11.337 16.9919 11.337Z" fill="#3F3F46"/>
</svg>
