<svg width="38" height="34" viewBox="0 0 38 34" fill="none" xmlns="http://www.w3.org/2000/svg">
<path d="M14.604 32.7502H1.82544V31.3184C1.82544 30.923 2.14594 30.6025 2.54132 30.6025H34.5413C34.9367 30.6025 35.2572 30.923 35.2572 31.3184V32.7502H16.7516" stroke="#3F3F46" stroke-width="1.5" stroke-miterlimit="10" stroke-linecap="round" stroke-linejoin="round"/>
<path d="M20.0801 5.34302H33.5507L36.2344 10.0149C36.5086 10.4922 36.164 11.0874 35.6137 11.0874H14.353L9.69976 7.49067L5.04651 11.0874H1.46817C0.917796 11.0874 0.573241 10.4922 0.847424 10.0149L3.53113 5.34302H17.9324" stroke="#3F3F46" stroke-width="1.5" stroke-miterlimit="10" stroke-linecap="round" stroke-linejoin="round"/>
<path d="M2.89966 22.5415V30.6024" stroke="#3F3F46" stroke-width="1.5" stroke-miterlimit="10" stroke-linecap="round" stroke-linejoin="round"/>
<path d="M2.89966 11.2305V18.2461" stroke="#3F3F46" stroke-width="1.5" stroke-miterlimit="10" stroke-linecap="round" stroke-linejoin="round"/>
<path d="M34.1831 24.6891V30.6023" stroke="#3F3F46" stroke-width="1.5" stroke-miterlimit="10" stroke-linecap="round" stroke-linejoin="round"/>
<path d="M34.1831 11.0874V18.2462" stroke="#3F3F46" stroke-width="1.5" stroke-miterlimit="10" stroke-linecap="round" stroke-linejoin="round"/>
<path d="M26.9797 5.34297V0.75H30.5692V5.34297" stroke="#3F3F46" stroke-width="1.5" stroke-miterlimit="10" stroke-linecap="round" stroke-linejoin="round"/>
<path d="M11.4888 11.0874H7.90942V16.0986H11.4888V11.0874Z" stroke="#3F3F46" stroke-width="1.5" stroke-miterlimit="10" stroke-linecap="round" stroke-linejoin="round"/>
<path d="M7.90942 13.9507H11.4888" stroke="#3F3F46" stroke-width="1.5" stroke-miterlimit="10" stroke-linecap="round" stroke-linejoin="round"/>
<path d="M21.5123 11.0874V16.0986H17.9329V11.0874" stroke="#3F3F46" stroke-width="1.5" stroke-miterlimit="10" stroke-linecap="round" stroke-linejoin="round"/>
<path d="M17.9329 13.9507H21.5123" stroke="#3F3F46" stroke-width="1.5" stroke-miterlimit="10" stroke-linecap="round" stroke-linejoin="round"/>
<path d="M30.5633 11.0874V16.0986H26.9839V11.0874" stroke="#3F3F46" stroke-width="1.5" stroke-miterlimit="10" stroke-linecap="round" stroke-linejoin="round"/>
<path d="M26.9839 13.9509H30.5633" stroke="#3F3F46" stroke-width="1.5" stroke-miterlimit="10" stroke-linecap="round" stroke-linejoin="round"/>
<path d="M10.098 22.5588V27.57H6.51855V22.5588" stroke="#3F3F46" stroke-width="1.5" stroke-miterlimit="10" stroke-linecap="round" stroke-linejoin="round"/>
<path d="M6.51855 25.4224H10.098" stroke="#3F3F46" stroke-width="1.5" stroke-miterlimit="10" stroke-linecap="round" stroke-linejoin="round"/>
<path d="M30.5633 22.5588V27.57H26.9839V22.5588" stroke="#3F3F46" stroke-width="1.5" stroke-miterlimit="10" stroke-linecap="round" stroke-linejoin="round"/>
<path d="M26.9839 25.4224H30.5633" stroke="#3F3F46" stroke-width="1.5" stroke-miterlimit="10" stroke-linecap="round" stroke-linejoin="round"/>
<path d="M5.72693 18.2461H2.89933L1.03804 21.4863C0.75827 21.9635 1.07784 22.5587 1.62821 22.5587H12.9619L18.5414 18.2461L24.1208 22.5587H35.4239C35.9743 22.5587 36.3189 21.9635 36.0447 21.4863L34.1834 18.2461H7.87458" stroke="#3F3F46" stroke-width="1.5" stroke-miterlimit="10" stroke-linecap="round" stroke-linejoin="round"/>
<path d="M20.3306 30.6024V22.5588H16.7512V30.6024" stroke="#3F3F46" stroke-width="1.5" stroke-miterlimit="10" stroke-linecap="round" stroke-linejoin="round"/>
<path d="M12.9622 22.5586V30.5544" stroke="#3F3F46" stroke-width="1.5" stroke-miterlimit="10" stroke-linecap="round" stroke-linejoin="round"/>
<path d="M24.1204 22.5588V30.5547" stroke="#3F3F46" stroke-width="1.5" stroke-miterlimit="10" stroke-linecap="round" stroke-linejoin="round"/>
</svg>
