<svg width="27" height="28" viewBox="0 0 27 28" fill="none" xmlns="http://www.w3.org/2000/svg">
<path d="M21.9067 0C19.5141 0 17.5742 1.93995 17.5742 4.33256V6.62817H7.29241V4.33256C7.29241 2.5866 8.71504 1.16397 10.461 1.16397C12.207 1.16397 13.6296 2.5866 13.6296 4.33256C13.6296 4.65588 13.8882 4.91454 14.2116 4.91454C14.5349 4.91454 14.7936 4.65588 14.7936 4.33256C14.7936 1.93995 12.8536 0 10.461 0C8.06839 0 6.12844 1.93995 6.12844 4.33256V19.0439C6.09611 19.3672 6.3871 19.6582 6.71042 19.6582C7.03375 19.6582 7.29241 19.3995 7.29241 19.0762V17.6212H17.6065V19.0762C17.6065 19.3995 17.8651 19.6582 18.1885 19.6582C18.5118 19.6582 18.7705 19.3995 18.7705 19.0762V4.33256C18.7705 2.5866 20.1931 1.16397 21.939 1.16397C23.685 1.16397 25.0753 2.5866 25.0753 4.33256C25.0753 4.65588 25.334 4.91454 25.6573 4.91454C25.9806 4.91454 26.2393 4.65588 26.2393 4.33256C26.2393 1.93995 24.2993 0 21.9067 0ZM17.6065 16.3926H7.29241V14.3233H17.6065V16.3926ZM17.6065 13.1593H7.29241V11.0901H17.6065V13.1593ZM17.6065 9.86142H7.29241V7.79214H17.6065V9.86142Z" fill="#3F3F46"/>
<path d="M24.7844 21.9215C24.6551 21.6305 24.2994 21.4688 24.0084 21.6305C21.0985 22.8915 19.6759 22.2771 18.1562 21.6305C16.6043 20.9838 15.02 20.3049 12.2071 21.6305C9.29713 22.8915 7.8745 22.2771 6.35487 21.6305C4.80291 20.9838 3.18628 20.3049 0.373351 21.6305C0.0823588 21.7598 -0.0469714 22.1155 0.0823587 22.4065C0.211689 22.6975 0.567347 22.8268 0.858339 22.6975C3.21861 21.5982 4.44725 22.1155 5.86988 22.7298C6.80752 23.1178 7.80983 23.5381 9.13546 23.5381C10.1054 23.5381 11.2371 23.3118 12.6597 22.6975C15.02 21.5982 16.2486 22.1155 17.6712 22.7298C18.6089 23.1178 19.6112 23.5381 20.9368 23.5381C21.9068 23.5381 23.0385 23.3118 24.4611 22.6975C24.7521 22.5681 24.9137 22.2125 24.7844 21.9215Z" fill="#3F3F46"/>
<path d="M24.7522 26.3834C24.6228 26.0924 24.2672 25.9307 23.9762 26.0924C21.0663 27.3534 19.6436 26.7391 18.124 26.0924C16.5721 25.4458 14.9878 24.7668 12.1748 26.0924C9.2649 27.3534 7.84227 26.7391 6.32264 26.0924C4.77068 25.4458 3.18639 24.7668 0.341125 26.0924C0.0501321 26.2217 -0.0791979 26.5774 0.0501322 26.8684C0.211795 27.1594 0.567453 27.2887 0.858445 27.1594C3.21872 26.0601 4.44736 26.5774 5.86999 27.1917C6.80763 27.5797 7.80994 28 9.13557 28C10.1055 28 11.2372 27.7737 12.6598 27.1594C15.0201 26.0601 16.2487 26.5774 17.6714 27.1917C18.609 27.5797 19.6113 28 20.9369 28C21.9069 28 23.0386 27.7737 24.4612 27.1594C24.7522 27.03 24.9138 26.6744 24.7522 26.3834Z" fill="#3F3F46"/>
</svg>
