<svg width="35" height="32" viewBox="0 0 35 32" fill="none" xmlns="http://www.w3.org/2000/svg">
<path d="M33.6053 15.7792H24.2402V8.6276C24.2402 8.16338 23.8635 7.78662 23.3993 7.78662H11.047C10.5828 7.78662 10.2061 8.16338 10.2061 8.6276V15.786H0.840974C0.376756 15.786 0 16.1627 0 16.6202V31.159C0 31.6232 0.376756 31.9999 0.840974 31.9999H33.6053C34.0695 31.9999 34.4463 31.6299 34.4463 31.1657C34.4463 31.1657 34.4463 31.1657 34.4463 31.159V16.6202C34.4463 16.156 34.0695 15.7792 33.6053 15.7792ZM1.68195 17.4612H10.2061V30.318H1.68195V17.4612ZM11.888 16.6202V9.46857H22.565V30.3247H11.888V16.6202ZM32.7643 30.3247H24.2402V17.4612H32.7643V30.3247Z" fill="#3F3F46"/>
<path d="M14.5926 11.09H15.7699C16.039 11.09 16.2543 11.3053 16.2543 11.5744V14.9921C16.2543 15.2612 16.039 15.4765 15.7699 15.4765H14.5926C14.3234 15.4765 14.1082 15.2612 14.1082 14.9921V11.5744C14.1082 11.3053 14.3234 11.09 14.5926 11.09Z" fill="#3F3F46"/>
<path d="M18.6763 11.09H19.8537C20.1228 11.09 20.3381 11.3053 20.3381 11.5744V14.9921C20.3381 15.2612 20.1228 15.4765 19.8537 15.4765H18.6763C18.4072 15.4765 18.1919 15.2612 18.1919 14.9921V11.5744C18.1919 11.3053 18.4072 11.09 18.6763 11.09Z" fill="#3F3F46"/>
<path d="M14.5926 17.3199H15.7699C16.039 17.3199 16.2543 17.5352 16.2543 17.8043V21.2221C16.2543 21.4912 16.039 21.7065 15.7699 21.7065H14.5926C14.3234 21.7065 14.1082 21.4912 14.1082 21.2221V17.8043C14.1082 17.5352 14.3234 17.3199 14.5926 17.3199Z" fill="#3F3F46"/>
<path d="M18.6763 17.3199H19.8537C20.1228 17.3199 20.3381 17.5352 20.3381 17.8043V21.2221C20.3381 21.4912 20.1228 21.7065 19.8537 21.7065H18.6763C18.4072 21.7065 18.1919 21.4912 18.1919 21.2221V17.8043C18.1919 17.5352 18.4072 17.3199 18.6763 17.3199Z" fill="#3F3F46"/>
<path d="M14.5926 23.5499H15.7699C16.039 23.5499 16.2543 23.7652 16.2543 24.0343V27.452C16.2543 27.7212 16.039 27.9364 15.7699 27.9364H14.5926C14.3234 27.9364 14.1082 27.7212 14.1082 27.452V24.0343C14.1082 23.7652 14.3234 23.5499 14.5926 23.5499Z" fill="#3F3F46"/>
<path d="M18.6763 23.5499H19.8537C20.1228 23.5499 20.3381 23.7652 20.3381 24.0343V27.452C20.3381 27.7212 20.1228 27.9364 19.8537 27.9364H18.6763C18.4072 27.9364 18.1919 27.7212 18.1919 27.452V24.0343C18.1919 23.7652 18.4072 23.5499 18.6763 23.5499Z" fill="#3F3F46"/>
<path d="M3.16875 19.1432H4.44703C4.68923 19.1432 4.88434 19.3383 4.88434 19.5805V20.8588C4.88434 21.101 4.68923 21.2961 4.44703 21.2961H3.16875C2.92655 21.2961 2.73145 21.101 2.73145 20.8588V19.5805C2.73145 19.3383 2.92655 19.1432 3.16875 19.1432Z" fill="#3F3F46"/>
<path d="M7.44097 19.1432H8.71252C8.95472 19.1432 9.14983 19.3383 9.14983 19.5805V20.8588C9.14983 21.101 8.95472 21.2961 8.71252 21.2961H7.44097C7.19877 21.2961 7.00366 21.101 7.00366 20.8588V19.5805C7.00366 19.3383 7.19877 19.1432 7.44097 19.1432Z" fill="#3F3F46"/>
<path d="M3.16875 22.8098H4.44703C4.68923 22.8098 4.88434 23.0049 4.88434 23.2471V24.5254C4.88434 24.7676 4.68923 24.9627 4.44703 24.9627H3.16875C2.92655 24.9627 2.73145 24.7676 2.73145 24.5254V23.2471C2.73145 23.0049 2.92655 22.8098 3.16875 22.8098Z" fill="#3F3F46"/>
<path d="M7.44097 22.8098H8.71252C8.95472 22.8098 9.14983 23.0049 9.14983 23.2471V24.5254C9.14983 24.7676 8.95472 24.9627 8.71252 24.9627H7.44097C7.19877 24.9627 7.00366 24.7676 7.00366 24.5254V23.2471C7.00366 23.0049 7.19877 22.8098 7.44097 22.8098Z" fill="#3F3F46"/>
<path d="M3.16875 26.4764H4.44703C4.68923 26.4764 4.88434 26.6715 4.88434 26.9137V28.192C4.88434 28.4342 4.68923 28.6293 4.44703 28.6293H3.16875C2.92655 28.6293 2.73145 28.4342 2.73145 28.192V26.9137C2.73145 26.6715 2.92655 26.4764 3.16875 26.4764Z" fill="#3F3F46"/>
<path d="M7.44097 26.4764H8.71252C8.95472 26.4764 9.14983 26.6715 9.14983 26.9137V28.192C9.14983 28.4342 8.95472 28.6293 8.71252 28.6293H7.44097C7.19877 28.6293 7.00366 28.4342 7.00366 28.192V26.9137C7.00366 26.6715 7.19877 26.4764 7.44097 26.4764Z" fill="#3F3F46"/>
<path d="M25.7337 19.1432H27.012C27.2542 19.1432 27.4493 19.3383 27.4493 19.5805V20.8588C27.4493 21.101 27.2542 21.2961 27.012 21.2961H25.7337C25.4915 21.2961 25.2964 21.101 25.2964 20.8588V19.5805C25.2964 19.3383 25.4915 19.1432 25.7337 19.1432Z" fill="#3F3F46"/>
<path d="M29.9993 19.1432H31.2776C31.5198 19.1432 31.7149 19.3383 31.7149 19.5805V20.8588C31.7149 21.101 31.5198 21.2961 31.2776 21.2961H29.9993C29.7571 21.2961 29.562 21.101 29.562 20.8588V19.5805C29.562 19.3383 29.7571 19.1432 29.9993 19.1432Z" fill="#3F3F46"/>
<path d="M25.7337 22.8098H27.012C27.2542 22.8098 27.4493 23.0049 27.4493 23.2471V24.5254C27.4493 24.7676 27.2542 24.9627 27.012 24.9627H25.7337C25.4915 24.9627 25.2964 24.7676 25.2964 24.5254V23.2471C25.2964 23.0049 25.4915 22.8098 25.7337 22.8098Z" fill="#3F3F46"/>
<path d="M29.9993 22.8098H31.2776C31.5198 22.8098 31.7149 23.0049 31.7149 23.2471V24.5254C31.7149 24.7676 31.5198 24.9627 31.2776 24.9627H29.9993C29.7571 24.9627 29.562 24.7676 29.562 24.5254V23.2471C29.562 23.0049 29.7571 22.8098 29.9993 22.8098Z" fill="#3F3F46"/>
<path d="M25.7337 26.4764H27.012C27.2542 26.4764 27.4493 26.6715 27.4493 26.9137V28.192C27.4493 28.4342 27.2542 28.6293 27.012 28.6293H25.7337C25.4915 28.6293 25.2964 28.4342 25.2964 28.192V26.9137C25.2964 26.6715 25.4915 26.4764 25.7337 26.4764Z" fill="#3F3F46"/>
<path d="M29.9993 26.4764H31.2776C31.5198 26.4764 31.7149 26.6715 31.7149 26.9137V28.192C31.7149 28.4342 31.5198 28.6293 31.2776 28.6293H29.9993C29.7571 28.6293 29.562 28.4342 29.562 28.192V26.9137C29.562 26.6715 29.7571 26.4764 29.9993 26.4764Z" fill="#3F3F46"/>
<path d="M8.59795 3.52126L8.38939 4.75244C8.33556 5.07538 8.55085 5.38485 8.88052 5.43868C8.91415 5.4454 8.94779 5.4454 8.98143 5.4454C9.07562 5.4454 9.17654 5.42522 9.25727 5.37813L10.3606 4.79954L11.464 5.37813C11.5514 5.42522 11.6456 5.4454 11.7398 5.4454C12.0695 5.4454 12.3386 5.17629 12.3386 4.84663C12.3386 4.81299 12.3386 4.77935 12.3319 4.74571L12.1233 3.51453L13.0181 2.63991C13.2536 2.41117 13.2603 2.03441 13.0316 1.79894C12.9374 1.70475 12.823 1.6442 12.6884 1.62402L11.4505 1.4491L10.8989 0.332282C10.7508 0.0362591 10.3943 -0.0848411 10.0982 0.0631703C9.98387 0.12372 9.88968 0.21791 9.82913 0.332282L9.27745 1.4491L8.03954 1.62402C7.71661 1.67111 7.48786 1.97386 7.53496 2.2968C7.55514 2.42462 7.61569 2.54573 7.70988 2.63991L8.59795 3.52126ZM10.0512 2.53227L10.3539 1.91331L10.6634 2.53227L11.3496 2.63319L10.8518 3.11759L10.9661 3.79709L10.3539 3.47416L9.74167 3.79709L9.85605 3.11759L9.35819 2.63319L10.0512 2.53227Z" fill="#3F3F46"/>
<path d="M15.4604 3.52125L15.2518 4.75244C15.198 5.07537 15.4133 5.38485 15.743 5.43867C15.7766 5.4454 15.8102 5.4454 15.8439 5.4454C15.9381 5.4454 16.039 5.42522 16.1197 5.37812L17.2231 4.79281L18.3264 5.37812C18.4139 5.42522 18.5081 5.4454 18.6023 5.4454C18.9319 5.4454 19.201 5.17629 19.201 4.84663C19.201 4.81299 19.201 4.77935 19.1943 4.74571L18.9858 3.51453L19.8805 2.63991C20.116 2.41117 20.1228 2.03441 19.894 1.79894C19.7998 1.70475 19.6854 1.6442 19.5509 1.62402L18.313 1.44237L17.7613 0.339009C17.62 0.0429865 17.2634 -0.0848415 16.9607 0.0631699C16.8396 0.12372 16.7387 0.217909 16.6848 0.339009L16.1332 1.45582L14.8953 1.63747C14.5723 1.68457 14.3436 1.98732 14.3907 2.31025C14.4109 2.43808 14.4714 2.55918 14.5656 2.65337L15.4604 3.52125ZM16.9203 2.53227L17.2231 1.91331L17.5258 2.53227L18.2121 2.63319L17.7142 3.11759L17.8286 3.79709L17.2163 3.47416L16.6041 3.79709L16.7185 3.11759L16.2206 2.63319L16.9203 2.53227Z" fill="#3F3F46"/>
<path d="M22.3295 3.52124L22.121 4.75243C22.0671 5.07536 22.2824 5.38484 22.6121 5.43866C22.6457 5.44539 22.6794 5.44539 22.713 5.44539C22.8072 5.44539 22.9081 5.42521 22.9889 5.37811L24.0922 4.79952L25.1956 5.37811C25.283 5.42521 25.3772 5.44539 25.4714 5.44539C25.8011 5.44539 26.0702 5.17628 26.0702 4.84662C26.0702 4.81298 26.0702 4.77934 26.0635 4.7457L25.8549 3.51451L26.7497 2.6399C26.9852 2.41116 26.9919 2.0344 26.7631 1.79893C26.669 1.70474 26.5546 1.64419 26.42 1.624L25.1821 1.44235L24.6237 0.338996C24.4757 0.042973 24.1191 -0.0781272 23.8231 0.0698842C23.702 0.130434 23.6078 0.224623 23.554 0.338996L23.0023 1.45581L21.7644 1.63746C21.4415 1.68455 21.2127 1.9873 21.2598 2.31024C21.28 2.43807 21.3405 2.55917 21.4347 2.65336L22.3295 3.52124ZM23.7827 2.53226L24.0855 1.9133L24.3882 2.53226L25.0745 2.63317L24.5766 3.11757L24.691 3.79708L24.0788 3.47415L23.4665 3.79708L23.5809 3.11757L23.083 2.63317L23.7827 2.53226Z" fill="#3F3F46"/>
</svg>
