<svg width="29" height="29" viewBox="0 0 29 29" fill="none" xmlns="http://www.w3.org/2000/svg">
<path d="M26.2183 4.43407H23.9667L21.3148 0.552981C21.1226 0.271819 20.806 0.123105 20.4667 0.153893L18.3981 0.345014C18.0286 0.379288 17.719 0.587836 17.5482 0.917215C17.3774 1.24659 17.3855 1.62012 17.5703 1.94137L19.004 4.43349H17.0428L16.0361 2.91324C15.8676 2.6588 15.5957 2.50776 15.2902 2.49963L13.1118 2.44153C12.7214 2.4334 12.3676 2.6251 12.1666 2.96029C11.9656 3.29548 11.961 3.69863 12.1544 4.03789L14.1115 7.47342C14.4908 8.13972 15.1484 8.52197 15.9152 8.52197H18.9587L17.6923 10.4413C17.4791 10.7643 17.4541 11.1494 17.6237 11.4974C17.7933 11.8454 18.1123 12.0632 18.498 12.094L20.4987 12.2549C20.5248 12.2572 20.5509 12.2578 20.5771 12.2578C20.8617 12.2578 21.122 12.1312 21.3003 11.9035L23.9516 8.5208H26.2178C27.2832 8.5208 28.1499 7.65408 28.1499 6.58868V6.36561C28.1505 5.30021 27.2837 4.43407 26.2183 4.43407ZM18.175 1.59398C18.1076 1.47722 18.1053 1.35755 18.1675 1.23788C18.2296 1.11821 18.3289 1.05141 18.4631 1.03921L20.5318 0.848086C20.6201 0.840534 20.6904 0.873065 20.7403 0.94626L23.1232 4.43407H19.8085L18.175 1.59398ZM26.2183 7.82487H23.7826C23.6757 7.82487 23.5746 7.87425 23.5084 7.95848L20.7525 11.4742C20.702 11.5387 20.6369 11.5671 20.5556 11.5607L18.5549 11.3998C18.4167 11.3888 18.3115 11.3167 18.2511 11.1924C18.1907 11.0681 18.1988 10.9409 18.2749 10.8253L19.898 8.3657C19.9689 8.25881 19.9747 8.12172 19.9137 8.00844C19.8527 7.89516 19.7348 7.82487 19.607 7.82487H15.9158C15.4064 7.82487 14.9695 7.57101 14.718 7.12835L12.7609 3.69282C12.6906 3.56967 12.6923 3.44013 12.7649 3.31813C12.8358 3.19963 12.945 3.13747 13.081 3.13747H13.0932L15.2716 3.19556C15.3512 3.19788 15.411 3.231 15.4552 3.29722L16.5653 4.97374C16.6298 5.07133 16.739 5.13001 16.8557 5.13001H19.6064H23.7826H26.2183C26.69 5.13001 27.1008 5.39665 27.3087 5.78644H25.3173C25.1251 5.78644 24.9688 5.94271 24.9688 6.13499C24.9688 6.32727 25.1251 6.48354 25.3173 6.48354H27.4534V6.58926C27.4534 7.27068 26.8992 7.82487 26.2183 7.82487ZM26.2044 19.5297L23.2272 18.8012C22.8723 18.7141 22.6004 18.5596 22.3442 18.2988L18.6967 14.585C18.1988 14.0778 17.586 13.8211 16.8749 13.8211H13.7513L13.4225 12.7661C13.2866 12.3304 12.8887 12.0377 12.4321 12.0377H10.7015C10.2449 12.0377 9.84701 12.3304 9.71108 12.7661L9.38228 13.8211H6.25871C5.54825 13.8211 4.93538 14.0784 4.43696 14.585L0.882343 18.2046C0.396698 18.699 0.150391 19.3008 0.150391 19.9939V23.2342C0.150391 24.6656 1.31512 25.8297 2.74592 25.8297H3.01546C3.18683 27.1368 4.30741 28.1499 5.66036 28.1499C7.01331 28.1499 8.1339 27.1368 8.30527 25.8297H19.9933C20.1646 27.1368 21.2852 28.1499 22.6382 28.1499C23.9917 28.1499 25.1117 27.1368 25.2831 25.8297H25.5398C26.9788 25.8297 28.1493 24.6592 28.1493 23.2203V22.0096C28.1505 20.8112 27.3686 19.8144 26.2044 19.5297ZM10.3768 12.9735C10.4227 12.826 10.5476 12.7342 10.7015 12.7342H12.4321C12.5866 12.7342 12.7109 12.826 12.7568 12.9735L13.0211 13.8211H10.1125L10.3768 12.9735ZM5.66036 27.4528C4.57347 27.4528 3.68874 26.5681 3.68874 25.4812C3.68874 24.3943 4.57347 23.5096 5.66036 23.5096C6.74725 23.5096 7.63199 24.3937 7.63199 25.4812C7.63199 26.5687 6.74784 27.4528 5.66036 27.4528ZM22.6388 27.4528C21.5519 27.4528 20.6671 26.5681 20.6671 25.4812C20.6671 24.3943 21.5519 23.5096 22.6388 23.5096C23.7256 23.5096 24.6104 24.3937 24.6104 25.4812C24.6104 26.5687 23.7262 27.4528 22.6388 27.4528ZM27.4534 22.2664H26.2927C26.1004 22.2664 25.9442 22.4227 25.9442 22.6149C25.9442 22.8072 26.1004 22.9635 26.2927 22.9635H27.4534V23.2203C27.4534 24.2746 26.5954 25.1326 25.541 25.1326H25.2842C25.1129 23.8256 23.9923 22.8125 22.6393 22.8125C21.2858 22.8125 20.1658 23.825 19.9944 25.1326H8.30643C8.13506 23.8256 7.01448 22.8125 5.66153 22.8125C4.30858 22.8125 3.18799 23.825 3.01662 25.1326H2.74708C1.69911 25.1326 0.847488 24.281 0.847488 23.2342V19.9939C0.847488 19.4832 1.02176 19.0574 1.37961 18.6932L4.9348 15.0735C5.30194 14.7 5.7353 14.5182 6.25871 14.5182H16.8749C17.3989 14.5182 17.8323 14.7 18.1988 15.0735L21.8464 18.7873C22.1938 19.1411 22.5795 19.3607 23.0611 19.478L26.0383 20.2065C26.8847 20.4139 27.4534 21.1383 27.4534 22.0096V22.2664ZM17.1822 15.9524C17.1172 15.888 17.0289 15.8514 16.9371 15.8514H6.19655C6.10476 15.8514 6.01646 15.8874 5.9514 15.9524L2.84177 19.0319C2.64135 19.2305 2.58094 19.5274 2.68841 19.7882C2.79587 20.049 3.04741 20.2175 3.32915 20.2175H19.805C20.0874 20.2175 20.3389 20.049 20.4458 19.7882C20.5533 19.5274 20.4929 19.2305 20.2924 19.0319L17.1822 15.9524ZM11.7112 16.5485V19.5198H8.48767V16.5485H11.7112ZM6.34003 16.5485H7.79058V19.5198H3.33903L6.34003 16.5485ZM12.4083 19.5204V16.549H16.7936L19.794 19.521L12.4083 19.5204ZM5.66036 24.299C5.00858 24.299 4.47762 24.8294 4.47762 25.4812C4.47762 26.133 5.008 26.6639 5.66036 26.6639C6.31215 26.6639 6.84252 26.1335 6.84252 25.4812C6.84252 24.8288 6.31273 24.299 5.66036 24.299ZM5.66036 25.9668C5.39256 25.9668 5.17472 25.749 5.17472 25.4812C5.17472 25.2134 5.39256 24.9961 5.66036 24.9961C5.92817 24.9961 6.14543 25.214 6.14543 25.4812C6.14601 25.749 5.92817 25.9668 5.66036 25.9668ZM22.6388 24.299C21.987 24.299 21.4566 24.8294 21.4566 25.4812C21.4566 26.133 21.987 26.6639 22.6388 26.6639C23.2905 26.6639 23.8209 26.1335 23.8209 25.4812C23.8209 24.8288 23.2911 24.299 22.6388 24.299ZM22.6388 25.9668C22.3709 25.9668 22.1537 25.749 22.1537 25.4812C22.1537 25.2134 22.3715 24.9961 22.6388 24.9961C22.906 24.9961 23.1238 25.214 23.1238 25.4812C23.1244 25.749 22.9066 25.9668 22.6388 25.9668Z" fill="#3F3F46" stroke="#3F3F46" stroke-width="0.3"/>
</svg>
