<svg width="24" height="24" viewBox="0 0 24 24" fill="none" xmlns="http://www.w3.org/2000/svg">
<g clip-path="url(#clip0_11487_54348)">
<path d="M23.4722 5.03406C22.896 2.35413 22.0026 0.477307 21.9649 0.398755C21.8098 0.0757582 21.4365 -0.0789655 21.0983 0.0398696C21.0322 0.0629409 19.4578 0.621228 17.4744 1.80464C15.8377 2.7815 13.6379 4.36756 11.9729 6.58074C11.6028 6.08783 11.193 5.60736 10.7446 5.14117C9.74321 4.1004 8.54753 3.1283 7.19036 2.25159C4.888 0.76405 2.92933 0.0688002 2.84693 0.0398696C2.50892 -0.0789655 2.13557 0.0757582 1.98029 0.398755C1.94257 0.477307 1.0492 2.35413 0.472972 5.03406C0.133496 6.61352 -0.0247071 8.14647 0.00312487 9.59044C0.038281 11.4158 0.372264 13.1042 0.995371 14.6086C1.61866 16.1132 2.57648 17.5432 3.84229 18.8588C4.8435 19.8994 6.03936 20.8717 7.39635 21.7484C9.69872 23.236 11.6574 23.9314 11.7398 23.9603C11.815 23.9867 11.8938 23.9999 11.9725 23.9999C12.0512 23.9999 12.13 23.9867 12.2054 23.9603C12.2876 23.9314 14.2465 23.236 16.5489 21.7484C17.9058 20.8717 19.1015 19.8994 20.1029 18.8588C21.3687 17.5432 22.3265 16.1132 22.9497 14.6086C23.5729 13.1042 23.9067 11.4158 23.9419 9.59044C23.9699 8.14647 23.8117 6.61352 23.4722 5.03406ZM2.29468 14.0707C1.03346 11.026 1.35169 7.6552 1.84058 5.36346C2.19562 3.69904 2.69037 2.34425 2.98883 1.60871C4.58569 2.28547 8.94194 4.39795 11.3694 8.17431C11.3763 8.18603 11.3838 8.19774 11.3915 8.2091C11.7358 8.74852 12.0404 9.32164 12.2922 9.92937C14.0432 14.1571 12.8069 19.009 11.9604 21.4298L5.70922 6.33813C5.56073 5.97943 5.14929 5.80896 4.79059 5.95764C4.43188 6.10632 4.26141 6.51757 4.41009 6.87646L10.6611 21.9678C9.95598 21.6285 9.0692 21.157 8.13042 20.5485C6.16424 19.2738 3.55573 17.1151 2.29468 14.0707ZM21.6505 14.0707C20.3895 17.1151 17.781 19.2738 15.8148 20.5485C14.876 21.1572 13.9896 21.6283 13.2843 21.9676L20.2514 5.14703C20.4001 4.78833 20.2296 4.37689 19.8709 4.2284C19.512 4.0799 19.1008 4.25018 18.9523 4.60889L14.5834 15.1565C14.6358 13.0442 14.3045 11.1131 13.5913 9.39122C13.3713 8.86003 13.1094 8.33782 12.8071 7.82696C14.3518 5.59582 16.5531 3.9953 18.1671 3.02906C19.322 2.33765 20.3424 1.86744 20.9562 1.60816C21.2547 2.34351 21.7494 3.69867 22.1046 5.36346C22.5935 7.6552 22.9118 11.026 21.6505 14.0707Z" fill="#3F3F46"/>
</g>
<defs>
<clipPath id="clip0_11487_54348">
<rect width="24" height="24" fill="white"/>
</clipPath>
</defs>
</svg>
