<svg width="34" height="24" viewBox="0 0 34 24" fill="none" xmlns="http://www.w3.org/2000/svg">
<path d="M1.99707 5.43555C11.2047 -1.95439 24.6163 -1.52139 33.3301 6.73633C33.723 7.10873 33.7395 7.7291 33.3672 8.12207C32.9948 8.51507 32.3744 8.53157 31.9814 8.15918C23.9851 0.581342 11.6732 0.183255 3.22363 6.96484C2.75516 7.34089 2.29811 7.73878 1.85449 8.15918C1.4615 8.53159 0.84117 8.51506 0.46875 8.12207C0.0965141 7.72908 0.112943 7.10869 0.505859 6.73633C0.988698 6.27875 1.48659 5.8453 1.99707 5.43555Z" fill="#3F3F46" stroke="white" stroke-width="0.4"/>
<path d="M5.20898 12.1318C11.676 5.66523 22.161 5.66518 28.6279 12.1318C29.0108 12.5147 29.0107 13.1357 28.6279 13.5186C28.2451 13.9014 27.6241 13.9014 27.2412 13.5186C21.5398 7.81751 12.296 7.81731 6.59473 13.5186C6.21186 13.9012 5.59177 13.9013 5.20898 13.5186C4.82613 13.1357 4.82613 12.5147 5.20898 12.1318Z" fill="#3F3F46" stroke="white" stroke-width="0.4"/>
<path d="M9.92969 17.2585C13.7892 13.3991 20.0468 13.3991 23.9062 17.2585C24.2889 17.6414 24.289 18.2625 23.9062 18.6453C23.5234 19.028 22.9024 19.028 22.5195 18.6453C19.4256 15.5513 14.4093 15.5513 11.3154 18.6453C10.9326 19.0276 10.3124 19.0277 9.92969 18.6453C9.54684 18.2624 9.54684 17.6414 9.92969 17.2585Z" fill="#3F3F46" stroke="white" stroke-width="0.4"/>
<path d="M16.918 20.2659C17.8938 20.2659 18.6853 21.0566 18.6855 22.0325C18.6855 23.0084 17.8939 23.8 16.918 23.8C15.9421 23.7998 15.1514 23.0083 15.1514 22.0325C15.1516 21.0567 15.9422 20.2661 16.918 20.2659Z" fill="#3F3F46" stroke="white" stroke-width="0.4"/>
</svg>
