<svg width="36" height="25" viewBox="0 0 36 25" fill="none" xmlns="http://www.w3.org/2000/svg">
<path fill-rule="evenodd" clip-rule="evenodd" d="M6.80782 0.376132C6.80782 0.376132 4.05312 2.09713 4.23972 3.61203C4.42624 5.12685 5.17509 5.17594 5.17509 5.17594C5.17509 5.17594 7.92247 5.13428 6.80782 0.376132ZM13.1846 23.7314C13.1846 23.7314 11.1415 25.2265 9.64404 24.532C8.14666 23.8373 8.04743 23.5148 8.04743 23.5148C8.04743 23.5148 11.1122 21.0636 13.1846 23.7314ZM10.0859 22.0577C10.0859 22.0577 8.11915 20.8369 8.09467 19.4371C8.07027 18.0374 8.24597 17.6104 8.24597 17.6104C8.24597 17.6104 11.747 19.3816 10.0859 22.0577ZM3.98327 17.6964C3.98327 17.6964 1.71376 17.1243 1.10641 16.0454C0.499131 14.9664 0.785155 13.8316 0.785155 13.8316C0.785155 13.8316 3.78105 13.5218 3.98327 17.6964ZM7.92245 21.594C7.92245 21.594 7.62964 19.2601 6.33872 18.9343C5.04779 18.6086 3.90028 18.749 3.90028 18.749C3.90028 18.749 4.43513 22.837 7.92245 21.594ZM5.79153 17.7262C5.79153 17.7262 6.97089 15.8972 6.18918 14.3562C5.40741 12.8153 5.40741 12.8153 5.40741 12.8153C5.40741 12.8153 4.45154 13.9667 4.27258 15.4833C4.09368 16.9997 5.79153 17.7262 5.79153 17.7262ZM2.04773 8.85784C2.04773 8.85784 3.46417 10.4208 3.60753 11.9926C3.75096 13.5644 3.61652 13.8184 3.61652 13.8184C3.61652 13.8184 0.0246505 12.372 2.04773 8.85784ZM3.76824 9.92756C3.76824 9.92756 3.99274 7.44275 5.14 6.63547C6.28717 5.82812 6.5661 5.70785 6.5661 5.70785C6.5661 5.70785 7.35795 10.224 3.76824 9.92756ZM2.48129 2.97861C2.48129 2.97861 3.95212 4.22874 3.96026 5.78217C3.96855 7.33544 3.32694 7.82637 3.32694 7.82637C3.32694 7.82637 0.403878 6.81762 2.48129 2.97861Z" fill="#C0C0C0"/>
<path d="M22.2031 18.9578H13.2207V17.0681L16.4463 13.8074C17.0967 13.1394 17.6182 12.5828 18.0107 12.1375C18.4092 11.6863 18.6963 11.2761 18.8721 10.907C19.0537 10.5378 19.1445 10.1423 19.1445 9.72046C19.1445 9.21069 19.001 8.82983 18.7139 8.57788C18.4326 8.32007 18.0547 8.19116 17.5801 8.19116C17.082 8.19116 16.5986 8.30542 16.1299 8.53394C15.6611 8.76245 15.1719 9.08765 14.6621 9.50952L13.1855 7.7605C13.5547 7.44409 13.9443 7.14526 14.3545 6.86401C14.7705 6.58276 15.251 6.35718 15.7959 6.18726C16.3467 6.01147 17.0059 5.92358 17.7734 5.92358C18.6172 5.92358 19.3408 6.07593 19.9443 6.38062C20.5537 6.6853 21.0225 7.10132 21.3506 7.62866C21.6787 8.15015 21.8428 8.74194 21.8428 9.40405C21.8428 10.113 21.7021 10.7605 21.4209 11.3464C21.1396 11.9324 20.7295 12.5125 20.1904 13.0867C19.6572 13.6609 19.0127 14.2966 18.2568 14.9939L16.6045 16.5496V16.6726H22.2031V18.9578Z" fill="#27272A"/>
<path fill-rule="evenodd" clip-rule="evenodd" d="M29.1922 0.376132C29.1922 0.376132 31.9469 2.09713 31.7603 3.61203C31.5738 5.12685 30.8249 5.17594 30.8249 5.17594C30.8249 5.17594 28.0775 5.13428 29.1922 0.376132ZM22.8154 23.7314C22.8154 23.7314 24.8585 25.2265 26.356 24.532C27.8533 23.8373 27.9526 23.5148 27.9526 23.5148C27.9526 23.5148 24.8878 21.0636 22.8154 23.7314ZM25.9141 22.0577C25.9141 22.0577 27.8809 20.8369 27.9053 19.4371C27.9297 18.0374 27.754 17.6104 27.754 17.6104C27.754 17.6104 24.253 19.3816 25.9141 22.0577ZM32.0167 17.6964C32.0167 17.6964 34.2862 17.1243 34.8936 16.0454C35.5009 14.9664 35.2148 13.8316 35.2148 13.8316C35.2148 13.8316 32.2189 13.5218 32.0167 17.6964ZM28.0775 21.594C28.0775 21.594 28.3704 19.2601 29.6613 18.9343C30.9522 18.6086 32.0997 18.749 32.0997 18.749C32.0997 18.749 31.5649 22.837 28.0775 21.594ZM30.2085 17.7262C30.2085 17.7262 29.0291 15.8972 29.8108 14.3562C30.5926 12.8153 30.5926 12.8153 30.5926 12.8153C30.5926 12.8153 31.5485 13.9667 31.7274 15.4833C31.9063 16.9997 30.2085 17.7262 30.2085 17.7262ZM33.9523 8.85784C33.9523 8.85784 32.5358 10.4208 32.3925 11.9926C32.249 13.5644 32.3835 13.8184 32.3835 13.8184C32.3835 13.8184 35.9753 12.372 33.9523 8.85784ZM32.2318 9.92756C32.2318 9.92756 32.0073 7.44275 30.86 6.63547C29.7128 5.82812 29.4339 5.70785 29.4339 5.70785C29.4339 5.70785 28.642 10.224 32.2318 9.92756ZM33.5187 2.97861C33.5187 2.97861 32.0479 4.22874 32.0397 5.78217C32.0315 7.33544 32.6731 7.82637 32.6731 7.82637C32.6731 7.82637 35.5961 6.81762 33.5187 2.97861Z" fill="#C0C0C0"/>
</svg>
