<svg width="36" height="25" viewBox="0 0 36 25" fill="none" xmlns="http://www.w3.org/2000/svg">
<path fill-rule="evenodd" clip-rule="evenodd" d="M6.80782 0.376132C6.80782 0.376132 4.05312 2.09713 4.23972 3.61203C4.42624 5.12685 5.17509 5.17594 5.17509 5.17594C5.17509 5.17594 7.92247 5.13428 6.80782 0.376132ZM13.1846 23.7314C13.1846 23.7314 11.1415 25.2265 9.64404 24.532C8.14666 23.8373 8.04743 23.5148 8.04743 23.5148C8.04743 23.5148 11.1122 21.0636 13.1846 23.7314ZM10.0859 22.0577C10.0859 22.0577 8.11915 20.8369 8.09467 19.4371C8.07027 18.0374 8.24597 17.6104 8.24597 17.6104C8.24597 17.6104 11.747 19.3816 10.0859 22.0577ZM3.98327 17.6964C3.98327 17.6964 1.71376 17.1243 1.10641 16.0454C0.499131 14.9664 0.785155 13.8316 0.785155 13.8316C0.785155 13.8316 3.78105 13.5218 3.98327 17.6964ZM7.92245 21.594C7.92245 21.594 7.62964 19.2601 6.33872 18.9343C5.04779 18.6086 3.90028 18.749 3.90028 18.749C3.90028 18.749 4.43513 22.837 7.92245 21.594ZM5.79153 17.7262C5.79153 17.7262 6.97089 15.8972 6.18918 14.3562C5.40741 12.8153 5.40741 12.8153 5.40741 12.8153C5.40741 12.8153 4.45154 13.9667 4.27258 15.4833C4.09368 16.9997 5.79153 17.7262 5.79153 17.7262ZM2.04773 8.85784C2.04773 8.85784 3.46417 10.4208 3.60753 11.9926C3.75096 13.5644 3.61652 13.8184 3.61652 13.8184C3.61652 13.8184 0.0246505 12.372 2.04773 8.85784ZM3.76824 9.92756C3.76824 9.92756 3.99274 7.44275 5.14 6.63547C6.28717 5.82812 6.5661 5.70785 6.5661 5.70785C6.5661 5.70785 7.35795 10.224 3.76824 9.92756ZM2.48129 2.97861C2.48129 2.97861 3.95212 4.22874 3.96026 5.78217C3.96855 7.33544 3.32694 7.82637 3.32694 7.82637C3.32694 7.82637 0.403878 6.81762 2.48129 2.97861Z" fill="#CD7F32"/>
<path d="M21.7021 8.98218C21.7021 9.57397 21.5791 10.0867 21.333 10.5203C21.0869 10.9539 20.7529 11.3083 20.3311 11.5837C19.915 11.8591 19.4463 12.0613 18.9248 12.1902V12.2429C19.9561 12.3718 20.7383 12.6882 21.2715 13.1921C21.8105 13.696 22.0801 14.3699 22.0801 15.2136C22.0801 15.9636 21.8955 16.6345 21.5264 17.2263C21.1631 17.8181 20.6006 18.2839 19.8389 18.6238C19.0771 18.9636 18.0957 19.1335 16.8945 19.1335C16.1855 19.1335 15.5234 19.075 14.9082 18.9578C14.2988 18.8464 13.7246 18.6736 13.1855 18.4392V16.1277C13.7363 16.4089 14.3135 16.6228 14.917 16.7693C15.5205 16.9099 16.083 16.9802 16.6045 16.9802C17.5771 16.9802 18.2568 16.8132 18.6436 16.4792C19.0361 16.1394 19.2324 15.6648 19.2324 15.0554C19.2324 14.698 19.1416 14.3962 18.96 14.1501C18.7783 13.9041 18.4619 13.7166 18.0107 13.5876C17.5654 13.4587 16.9414 13.3943 16.1387 13.3943H15.1631V11.3113H16.1562C16.9473 11.3113 17.5479 11.238 17.958 11.0916C18.374 10.9392 18.6553 10.7341 18.8018 10.4763C18.9541 10.2126 19.0303 9.91382 19.0303 9.57983C19.0303 9.1228 18.8896 8.76538 18.6084 8.50757C18.3271 8.24976 17.8584 8.12085 17.2021 8.12085C16.792 8.12085 16.417 8.17358 16.0771 8.27905C15.7432 8.37866 15.4414 8.50171 15.1719 8.64819C14.9023 8.78882 14.665 8.92651 14.46 9.06128L13.2031 7.18921C13.707 6.82593 14.2959 6.52417 14.9697 6.28394C15.6494 6.0437 16.458 5.92358 17.3955 5.92358C18.7197 5.92358 19.7686 6.19019 20.542 6.72339C21.3154 7.25659 21.7021 8.00952 21.7021 8.98218Z" fill="#27272A"/>
<path fill-rule="evenodd" clip-rule="evenodd" d="M29.1922 0.376132C29.1922 0.376132 31.9469 2.09713 31.7603 3.61203C31.5738 5.12685 30.8249 5.17594 30.8249 5.17594C30.8249 5.17594 28.0775 5.13428 29.1922 0.376132ZM22.8154 23.7314C22.8154 23.7314 24.8585 25.2265 26.356 24.532C27.8533 23.8373 27.9526 23.5148 27.9526 23.5148C27.9526 23.5148 24.8878 21.0636 22.8154 23.7314ZM25.9141 22.0577C25.9141 22.0577 27.8809 20.8369 27.9053 19.4371C27.9297 18.0374 27.754 17.6104 27.754 17.6104C27.754 17.6104 24.253 19.3816 25.9141 22.0577ZM32.0167 17.6964C32.0167 17.6964 34.2862 17.1243 34.8936 16.0454C35.5009 14.9664 35.2148 13.8316 35.2148 13.8316C35.2148 13.8316 32.2189 13.5218 32.0167 17.6964ZM28.0775 21.594C28.0775 21.594 28.3704 19.2601 29.6613 18.9343C30.9522 18.6086 32.0997 18.749 32.0997 18.749C32.0997 18.749 31.5649 22.837 28.0775 21.594ZM30.2085 17.7262C30.2085 17.7262 29.0291 15.8972 29.8108 14.3562C30.5926 12.8153 30.5926 12.8153 30.5926 12.8153C30.5926 12.8153 31.5485 13.9667 31.7274 15.4833C31.9063 16.9997 30.2085 17.7262 30.2085 17.7262ZM33.9523 8.85784C33.9523 8.85784 32.5358 10.4208 32.3925 11.9926C32.249 13.5644 32.3835 13.8184 32.3835 13.8184C32.3835 13.8184 35.9753 12.372 33.9523 8.85784ZM32.2318 9.92756C32.2318 9.92756 32.0073 7.44275 30.86 6.63547C29.7128 5.82812 29.4339 5.70785 29.4339 5.70785C29.4339 5.70785 28.642 10.224 32.2318 9.92756ZM33.5187 2.97861C33.5187 2.97861 32.0479 4.22874 32.0397 5.78217C32.0315 7.33544 32.6731 7.82637 32.6731 7.82637C32.6731 7.82637 35.5961 6.81762 33.5187 2.97861Z" fill="#CD7F32"/>
</svg>
