<svg width="127" height="134" viewBox="0 0 127 134" fill="none" xmlns="http://www.w3.org/2000/svg">
<path d="M84.2137 49.6287C84.2137 49.6287 92.0205 47.0224 94.8187 38.7894C97.6222 30.554 92.1821 23.4612 92.1821 23.4612C92.1821 23.4612 85.1578 26.7754 82.2697 35.2312C79.4052 43.6825 84.2137 49.6287 84.2137 49.6287Z" fill="#F4F4F5"/>
<path d="M58.2351 46.432C63.0712 53.6708 71.2751 54.1753 71.2751 54.1753C71.2751 54.1753 74.3822 47.2007 69.4386 39.773C64.4713 32.3498 56.8394 30.9516 56.8394 30.9516C56.8394 30.9516 53.4064 39.2092 58.2351 46.432Z" fill="#F4F4F5"/>
<path d="M59.308 53.4737C59.308 53.4737 54.833 61.2154 58.658 69.0161C62.5042 76.807 70.5868 78.3957 70.5868 78.3957C70.5868 78.3957 74.5805 71.8672 70.6406 63.8616C66.6925 55.8662 59.308 53.4737 59.308 53.4737Z" fill="#F4F4F5"/>
<path d="M50.151 86.1546C53.2494 94.2683 61.1336 96.5958 61.1336 96.5958C61.1336 96.5958 65.721 90.495 62.548 82.1381C59.3615 73.7941 52.239 70.7301 52.239 70.7301C52.239 70.7301 47.0689 78.0204 50.151 86.1546Z" fill="#F4F4F5"/>
<path d="M39.6719 101.866C40.2995 110.544 47.1919 115.027 47.1919 115.027C47.1919 115.027 53.3429 110.491 52.7107 101.596C52.0605 92.6896 46.0992 87.6947 46.0992 87.6947C46.0992 87.6947 39.0548 93.1833 39.6719 101.866Z" fill="#F4F4F5"/>
<path d="M73.4449 33.659C73.4449 33.659 78.4857 27.1722 76.2546 18.7704C74.0133 10.3605 65.5444 7.47194 65.5444 7.47194C65.5444 7.47194 61.5442 14.1391 63.8481 22.7525C66.141 31.384 73.4449 33.659 73.4449 33.659Z" fill="#F4F4F5"/>
<path d="M86.9628 53.7235C81.7318 60.9388 84.5693 68.0496 84.5693 68.0496C84.5693 68.0496 92.7869 67.8627 97.8979 60.8197C103.004 53.7792 99.8943 45.3927 99.8943 45.3927C99.8943 45.3927 92.2072 46.4955 86.9628 53.7235Z" fill="#F4F4F5"/>
<path d="M84.4413 73.6223C77.7401 79.5003 78.9251 87.0585 78.9251 87.0585C78.9251 87.0585 86.9825 88.7042 93.5305 82.9688C100.068 77.2383 98.9109 68.3679 98.9109 68.3679C98.9109 68.3679 91.156 67.7316 84.4413 73.6223Z" fill="#F4F4F5"/>
<path d="M79.3901 91.7148C71.2189 95.286 70.0663 102.848 70.0663 102.848C70.0663 102.848 77.2441 106.863 85.2192 103.37C93.1808 99.89 94.7605 91.0813 94.7605 91.0813C94.7605 91.0813 87.5849 88.1391 79.3901 91.7148Z" fill="#F4F4F5"/>
<path d="M66.1923 109.399C57.6499 111.98 55.6096 119.329 55.6096 119.329C55.6096 119.329 62.251 124.175 70.579 121.675C78.9151 119.164 81.5152 110.603 81.5152 110.603C81.5152 110.603 74.7447 106.839 66.1923 109.399Z" fill="#F4F4F5"/>
<path d="M76.43 36.8876L72.6372 38.8437C73.4513 40.4094 91.6616 77.7844 39.9651 123.742L42.7896 126.916C97.0933 78.6639 76.6387 37.3074 76.43 36.8876Z" fill="#F4F4F5"/>
</svg>
