<svg width="127" height="134" viewBox="0 0 127 134" fill="none" xmlns="http://www.w3.org/2000/svg">
<path d="M42.0722 49.6298C42.0722 49.6298 46.8732 43.6726 44.0088 35.2334C41.128 26.7736 34.0979 23.4695 34.0979 23.4695C34.0979 23.4695 28.6595 30.5579 31.4609 38.7997C34.2645 47.0232 42.0722 49.6298 42.0722 49.6298Z" fill="#F4F4F5"/>
<path d="M55.0064 54.1747C55.0064 54.1747 63.2089 53.6754 68.0481 46.4303C72.8827 39.209 69.4542 30.9398 69.4542 30.9398C69.4542 30.9398 61.8189 32.3435 56.8534 39.7623C51.8961 47.1914 55.0064 54.1747 55.0064 54.1747Z" fill="#F4F4F5"/>
<path d="M55.6924 78.4033C55.6924 78.4033 63.771 76.825 67.6227 69.0226C71.4535 61.2233 66.9779 53.4806 66.9779 53.4806C66.9779 53.4806 59.5945 55.855 55.6438 63.8698C51.6956 71.8793 55.6924 78.4033 55.6924 78.4033Z" fill="#F4F4F5"/>
<path d="M76.1335 86.158C79.2217 78.0383 74.0378 70.7474 74.0378 70.7474C74.0378 70.7474 66.9115 73.804 63.73 82.1516C60.5484 90.4992 65.142 96.6164 65.142 96.6164C65.142 96.6164 73.0375 94.2805 76.1335 86.158Z" fill="#F4F4F5"/>
<path d="M79.0902 115.039C79.0902 115.039 85.9835 110.556 86.6138 101.871C87.2415 93.1926 80.1725 87.6986 80.1725 87.6986C80.1725 87.6986 74.2182 92.6914 73.5679 101.599C72.9332 110.501 79.0902 115.039 79.0902 115.039Z" fill="#F4F4F5"/>
<path d="M52.8424 33.658C52.8424 33.658 60.1472 31.3827 62.4432 22.7579C64.7368 14.1384 60.7414 7.47282 60.7414 7.47282C60.7414 7.47282 52.2767 10.3642 50.0351 18.7752C47.8009 27.1704 52.8424 33.658 52.8424 33.658Z" fill="#F4F4F5"/>
<path d="M41.703 68.0535C41.703 68.0535 44.541 60.9418 39.3118 53.7203C34.0617 46.5019 26.3761 45.3937 26.3761 45.3937C26.3761 45.3937 23.2689 53.776 28.3752 60.8174C33.4922 67.8638 41.703 68.0535 41.703 68.0535Z" fill="#F4F4F5"/>
<path d="M47.3535 87.0543C47.3535 87.0543 48.5386 79.4951 41.8365 73.6163C35.1185 67.7301 27.3782 68.3609 27.3782 68.3609C27.3782 68.3609 26.2236 77.2272 32.7593 82.9637C39.3032 88.7105 47.3535 87.0543 47.3535 87.0543Z" fill="#F4F4F5"/>
<path d="M56.2191 102.849C56.2191 102.849 55.0639 95.2906 46.8916 91.719C38.7088 88.1424 31.5216 91.0801 31.5216 91.0801C31.5216 91.0801 33.0991 99.8952 41.0642 103.37C49.0326 106.866 56.2191 102.849 56.2191 102.849Z" fill="#F4F4F5"/>
<path d="M60.0884 109.41C51.535 106.85 44.7586 110.626 44.7586 110.626C44.7586 110.626 47.3669 119.185 55.6988 121.693C64.0384 124.199 70.6729 119.355 70.6729 119.355C70.6729 119.355 68.6267 111.989 60.0884 109.41Z" fill="#F4F4F5"/>
<path d="M53.6345 38.8491L49.8466 36.8953C49.6379 37.315 29.1806 78.6769 83.481 126.944L86.3085 123.763C34.6052 77.8001 52.8253 40.4044 53.6345 38.8491Z" fill="#F4F4F5"/>
</svg>
