<svg width="31" height="24" viewBox="0 0 31 24" fill="none" xmlns="http://www.w3.org/2000/svg">
<path d="M18.7354 20.2753C19.8457 21.0095 20.723 22.0839 21.1886 23.3911L19.5055 23.9999C18.8788 22.2093 17.1777 21.0098 15.2797 21.0098C13.3816 21.0098 11.6805 22.2093 11.0538 23.9999L9.3707 23.3911C9.8363 22.0839 10.7136 21.0095 11.8239 20.2753C7.70554 18.4847 4.80469 13.5429 4.80469 7.58008H6.59528C6.59528 10.839 7.5442 13.7576 9.12006 15.8527C10.6777 17.9476 12.8444 19.2189 15.2797 19.2189C20.1499 19.2189 23.964 14.1157 23.964 7.58008H25.7546C25.7546 13.5429 22.8538 18.4847 18.7354 20.2753Z" fill="#FF9F00"/>
<path d="M18.735 20.2753C19.8453 21.0095 20.7227 22.0839 21.1883 23.3912L19.5051 23.9999C18.8784 22.2093 17.1774 21.0098 15.2793 21.0098V19.2192C20.1496 19.2192 23.9637 14.1158 23.9637 7.58032H25.7543C25.7543 13.5429 22.8534 18.4847 18.735 20.2753Z" fill="#FF7816"/>
<path d="M23.7094 21.0734C23.0039 21.0734 21.3196 21.0315 18.9268 18.3875C20.5523 16.5914 22.0209 15.7017 23.7094 15.7017C24.4146 15.7017 26.0992 15.7446 28.4927 18.3875C26.866 20.1837 25.3971 21.0734 23.7094 21.0734Z" fill="#FF9F00"/>
<path d="M22.75 14.3272C23.0517 11.9242 23.7442 10.3525 25.1263 9.38398C25.7045 8.9797 27.0826 8.0492 30.5596 8.84004C30.2579 11.2443 29.5913 12.8162 28.2083 13.7845C26.5555 14.942 24.5749 14.7485 22.75 14.3272Z" fill="#FF9F00"/>
<path d="M24.3515 8.66968C23.4112 6.43587 23.2256 4.72898 23.9388 3.19905C24.2368 2.55975 24.987 1.05151 28.3943 0C29.3344 2.23288 29.5199 3.94 28.807 5.4697C28.5088 6.109 27.7583 7.61678 24.3515 8.66968Z" fill="#FF9F00"/>
<path d="M6.84804 21.0734C6.14252 21.0734 4.45825 21.0315 2.06543 18.3875C3.69095 16.5914 5.15956 15.7017 6.84804 15.7017C7.55332 15.7017 9.23782 15.7446 11.6313 18.3875C10.0047 20.1837 8.53581 21.0734 6.84804 21.0734Z" fill="#FDBF00"/>
<path d="M2.28813 13.7845C1.71016 13.38 0.443918 12.3782 0 8.84013C2.35925 8.30342 4.04539 8.41626 5.4289 9.38407C6.00664 9.78858 7.36195 10.7893 7.8061 14.3273C7.61934 14.3446 4.57953 15.3881 2.28813 13.7845Z" fill="#FDBF00"/>
<path d="M6.20474 8.66968C3.89003 7.95415 2.46268 6.9994 1.74924 5.4697C1.45128 4.8304 0.778174 3.28625 2.16192 0C4.4764 0.714139 5.90421 1.66935 6.61742 3.19905C6.91538 3.83835 7.58825 5.3832 6.20474 8.66968Z" fill="#FDBF00"/>
<path d="M18.9321 9.15605L19.7917 14.0622L15.2793 11.7345V0.47168L17.5355 4.93021L22.6028 5.64644L18.9321 9.15605Z" fill="#FF9F00"/>
<path d="M22.603 5.64644L17.5357 4.93021L15.2795 0.47168L13.0233 4.93021L7.95605 5.64644L11.6268 9.15605L10.7671 14.0622L15.2795 11.7345L19.7919 14.0622L18.9323 9.15605L22.603 5.64644Z" fill="#FDBF00"/>
</svg>
