<svg width="15" height="14" viewBox="0 0 15 14" fill="none" xmlns="http://www.w3.org/2000/svg">
<path d="M11.0783 14C10.8864 14.0001 10.6974 13.9533 10.5278 13.8635L7.37699 12.2075C7.35257 12.1944 7.32531 12.1876 7.29762 12.1876C7.26994 12.1876 7.24268 12.1944 7.21826 12.2075L4.06799 13.8635C3.87277 13.9662 3.6527 14.0123 3.43267 13.9964C3.21264 13.9806 3.00144 13.9035 2.82297 13.7738C2.64449 13.6441 2.50587 13.4671 2.42279 13.2628C2.3397 13.0584 2.31547 12.8349 2.35283 12.6175L2.95438 9.1098C2.959 9.08232 2.95681 9.05412 2.94799 9.02768C2.93918 9.00124 2.92401 8.97737 2.90383 8.95815L0.357122 6.47261C0.199003 6.31856 0.0871901 6.12331 0.0343524 5.90897C-0.0184852 5.69463 -0.0102354 5.46978 0.0581672 5.25989C0.12657 5.05 0.252391 4.86346 0.421373 4.72141C0.590356 4.57936 0.795746 4.48748 1.01427 4.45618L4.53406 3.94512C4.56145 3.94113 4.58745 3.93054 4.60983 3.91424C4.6322 3.89795 4.65026 3.87645 4.66246 3.8516L6.23608 0.659374C6.33354 0.461482 6.48447 0.294833 6.67177 0.178299C6.85907 0.0617642 7.07526 0 7.29586 0C7.51645 0 7.73264 0.0617642 7.91994 0.178299C8.10723 0.294833 8.25817 0.461482 8.35563 0.659374L9.93026 3.85059C9.94256 3.87536 9.96066 3.89679 9.98301 3.91307C10.0054 3.92935 10.0313 3.94 10.0587 3.94411L13.5815 4.45567C13.7999 4.48715 14.0052 4.57913 14.174 4.7212C14.3429 4.86327 14.4686 5.04976 14.537 5.25958C14.6054 5.46939 14.6137 5.69416 14.5609 5.90844C14.5082 6.12273 14.3966 6.31798 14.2386 6.47211L11.6894 8.95613C11.6693 8.9754 11.6542 8.99928 11.6454 9.0257C11.6365 9.05212 11.6343 9.0803 11.6388 9.10778L12.2404 12.6154C12.2693 12.7849 12.261 12.9587 12.216 13.1246C12.1709 13.2905 12.0903 13.4447 11.9796 13.5763C11.8689 13.7078 11.7309 13.8137 11.5752 13.8866C11.4194 13.9594 11.2497 13.9974 11.0777 13.998L11.0783 14ZM7.29762 11.1763C7.48934 11.1762 7.67815 11.2231 7.84761 11.3128L10.9979 12.9683C11.0258 12.9842 11.0577 12.9915 11.0898 12.9893C11.1218 12.987 11.1525 12.9753 11.1778 12.9556C11.2043 12.9375 11.2249 12.9119 11.237 12.8822C11.2492 12.8525 11.2523 12.8198 11.2461 12.7883L10.644 9.28016C10.6119 9.09135 10.626 8.89756 10.6851 8.7154C10.7443 8.53325 10.8468 8.36815 10.9837 8.23428L13.533 5.74975C13.5557 5.72746 13.5718 5.69926 13.5794 5.66832C13.5869 5.63738 13.5857 5.60494 13.5758 5.57466C13.566 5.54438 13.5478 5.51746 13.5234 5.49695C13.4991 5.47644 13.4694 5.46315 13.4379 5.45858L9.9156 4.94651C9.72597 4.91905 9.54587 4.84584 9.39086 4.7332C9.23586 4.62055 9.1106 4.47187 9.02593 4.29998L7.44927 1.10826C7.43515 1.07969 7.41333 1.05565 7.38626 1.03884C7.3592 1.02202 7.32797 1.01311 7.29611 1.01311C7.26425 1.01311 7.23302 1.02202 7.20595 1.03884C7.17889 1.05565 7.15706 1.07969 7.14294 1.10826L5.56932 4.29897C5.4846 4.47092 5.35927 4.61965 5.20417 4.73229C5.04907 4.84494 4.86886 4.91812 4.67914 4.9455L1.15733 5.45858C1.12574 5.46305 1.09604 5.4763 1.07161 5.49682C1.04718 5.51734 1.02901 5.54431 1.01916 5.57465C1.00931 5.605 1.00817 5.6375 1.01589 5.66846C1.02361 5.69941 1.03986 5.72758 1.0628 5.74975L3.61153 8.23428C3.74849 8.36815 3.85095 8.53325 3.91011 8.7154C3.96928 8.89756 3.98338 9.09135 3.95122 9.28016L3.34917 12.7883C3.34371 12.8198 3.3472 12.8523 3.35926 12.8819C3.37132 12.9115 3.39145 12.9372 3.41736 12.9559C3.44328 12.9747 3.47394 12.9858 3.50585 12.988C3.53776 12.9901 3.56965 12.9833 3.59788 12.9683L6.74764 11.3123C6.91721 11.223 7.10598 11.1763 7.29762 11.1763Z" fill="#71717A"/>
</svg>
