<svg width="16" height="16" viewBox="0 0 16 16" fill="none" xmlns="http://www.w3.org/2000/svg">
<g clip-path="url(#clip0_8686_25363)">
<path d="M15.2706 1.73105C14.2958 0.756374 12.718 0.756257 11.7431 1.73105L2.5219 10.9511C2.46043 11.0125 2.40958 11.0925 2.38037 11.1801L1.03095 15.2279C0.878608 15.6849 1.31452 16.1216 1.7721 15.969L5.82041 14.6197C5.90601 14.5912 5.98637 14.5413 6.04948 14.4782L15.2706 5.25816C16.2431 4.28574 16.2431 2.70347 15.2706 1.73105ZM2.51329 14.4869L3.1923 12.45L4.55039 13.8079L2.51329 14.4869ZM5.63516 13.2353L3.76494 11.3654L11.5952 3.53606L13.4654 5.40608L5.63516 13.2353ZM14.4419 4.42962L14.294 4.57754L12.4238 2.70752L12.5717 2.55963C13.0874 2.04409 13.9264 2.04409 14.4419 2.55963C14.9576 3.07516 14.9576 3.91405 14.4419 4.42962Z" fill="#71717A"/>
</g>
<defs>
<clipPath id="clip0_8686_25363">
<rect width="16" height="16" fill="white"/>
</clipPath>
</defs>
</svg>
