<svg width="26" height="24" viewBox="0 0 26 24" fill="none" xmlns="http://www.w3.org/2000/svg">
<path fill-rule="evenodd" clip-rule="evenodd" d="M22.1732 8.83194H15.7331L16.3828 4.22786C16.6652 2.25065 15.2247 0.725374 14.0666 0.216949C12.5978 -0.432707 12.2589 0.41467 12.2024 2.25065C12.1459 4.08664 11.2703 10.8092 7.45708 10.8092H6.12952L5.62109 16.3454L6.12952 21.8815C8.05024 22.4465 9.97096 24 12.9933 24H20.3654C21.3823 24 22.2297 23.1809 22.2297 22.1358C22.2297 21.0907 21.3823 20.2715 20.3654 20.2715H22.1449C23.19 20.2715 24.0657 19.4242 24.0657 18.3508C24.0657 17.3057 23.2183 16.4301 22.1449 16.4301H23.0206H23.5007C24.5458 16.4301 25.4215 15.5827 25.4215 14.5094C25.4215 13.4643 24.5741 12.5886 23.5007 12.5886H23.0206H22.1449C23.19 12.5886 24.0657 11.7413 24.0657 10.6679C24.0657 9.70757 23.2183 8.83194 22.1732 8.83194Z" fill="#FFBA9F"/>
<path fill-rule="evenodd" clip-rule="evenodd" d="M20.3654 22.4463H12.9933C9.97096 22.4463 8.05024 20.8928 6.12952 20.3279L5.62109 21.2318L6.12952 21.8814C8.05024 22.4463 9.97096 23.9998 12.9933 23.9998H20.3654C21.3823 23.9998 22.2297 23.1807 22.2297 22.1356C22.2297 21.8532 22.1732 21.5989 22.0602 21.3447C21.7495 21.9944 21.0998 22.4463 20.3654 22.4463Z" fill="#E0A58D"/>
<path fill-rule="evenodd" clip-rule="evenodd" d="M6.12936 21.8816V10.8092V8.71899H0V24H6.12936V21.8816Z" fill="#16CAA1"/>
<path fill-rule="evenodd" clip-rule="evenodd" d="M0 21.9099H6.12936V23.9719H0V21.9099Z" fill="#019371"/>
<path fill-rule="evenodd" clip-rule="evenodd" d="M23.5283 16.4584C24.2627 16.4584 24.9123 16.0347 25.223 15.4133H19.5739C19.2914 15.4133 19.0654 15.6393 19.0654 15.9218C19.0654 16.2042 19.2914 16.4302 19.5739 16.4302H23.0481H23.5283V16.4584Z" fill="#E0A58D"/>
<path fill-rule="evenodd" clip-rule="evenodd" d="M22.1734 12.6452C22.9078 12.6452 23.5574 12.2215 23.8681 11.6001H19.5465C19.2641 11.6001 19.0381 11.8261 19.0381 12.1085C19.0381 12.391 19.2641 12.6169 19.5465 12.6169H22.1734V12.6452Z" fill="#E0A58D"/>
<path fill-rule="evenodd" clip-rule="evenodd" d="M22.1732 20.2717C22.9076 20.2717 23.5572 19.848 23.8679 19.2266H19.0944C18.8119 19.2266 18.5859 19.4525 18.5859 19.735C18.5859 20.0174 18.8119 20.2434 19.0944 20.2434H22.1732V20.2717Z" fill="#E0A58D"/>
</svg>
